<?xml version="1.0" encoding="utf-8"?>
<!-- Generator: Adobe Illustrator 19.0.0, SVG Export Plug-In . SVG Version: 6.00 Build 0)  -->
<svg version="1.1" xmlns="http://www.w3.org/2000/svg" xmlns:xlink="http://www.w3.org/1999/xlink" x="0px" y="0px"
	 viewBox="0 0 77.8 23.4" style="enable-background:new 0 0 77.8 23.4;" xml:space="preserve">
<style type="text/css">
	.st0{display:none;}
	.st1{display:inline;}
	.st2{fill:#311D7C;}
	.st3{fill:#FFD45C;}
	.st4{fill:#FFFFFF;}
</style>
<g id="Layer_1" class="st0">
	<g id="XMLID_1_" class="st1">
		<g id="XMLID_2_">
			<path id="XMLID_3_" class="st2" d="M-306.6,23.4h-13.1c-2.8,0-5-2.2-5-5V5c0-2.8,2.2-5,5-5h13.1c2.8,0,5,2.2,5,5v13.4
				C-301.6,21.2-303.8,23.4-306.6,23.4z"/>
			<path id="XMLID_4_" class="st3" d="M-309.5,19.1h-7.3c-2,0-3.7-1.6-3.7-3.7V8c0-2,1.6-3.7,3.7-3.7h7.3c2,0,3.7,1.6,3.7,3.7v7.5
				C-305.8,17.5-307.5,19.1-309.5,19.1z"/>
			<path id="XMLID_5_" class="st2" d="M-314.2,16.2h-3.5c-0.6,0-1.1-0.5-1.1-1.1v0c0-0.6,0.5-1.1,1.1-1.1h3.5c0.6,0,1.1,0.5,1.1,1.1
				v0C-313.1,15.7-313.6,16.2-314.2,16.2z"/>
			<path id="XMLID_6_" class="st2" d="M-310.3,13.3h-7.4c-0.6,0-1.1-0.5-1.1-1.1v0c0-0.6,0.5-1.1,1.1-1.1h7.4c0.6,0,1.1,0.5,1.1,1.1
				v0C-309.2,12.8-309.7,13.3-310.3,13.3z"/>
		</g>
		<g>
			<path id="XMLID_719_" d="M-283.7,17.5c0,0-0.2-0.1-0.5-0.4s-0.7-0.7-1.2-1.1c-0.5-0.5-1-1-1.6-1.6s-1.2-1.1-1.7-1.7
				s-1.1-1.1-1.6-1.6s-0.9-0.9-1.2-1.1s-0.5-0.4-0.5-0.4c0,0,0,0-0.1,0.1s0,0.1,0,0.1c0,0.5,0,1.1,0,1.6s0,1.1,0,1.6
				c0,0.4,0,0.9,0,1.3s0,0.9,0,1.3c0,0.2,0,0.4,0,0.6c0,0.2,0,0.4,0,0.6c0,0.1,0,0.2-0.1,0.3s-0.1,0.1-0.3,0.1h-1.6
				c-0.2,0-0.4-0.1-0.4-0.4c0-0.3,0-0.7,0-1c0-0.3,0-0.7,0-1c0-0.7,0-1.3,0-2c0-0.7,0-1.3,0-2c0-0.7,0-1.4,0-2.1s0-1.4,0-2.1
				c0-0.3,0-0.7,0-1s0-0.7,0-1c0,0,0-0.1,0.1-0.1s0.1,0,0.1,0c1.4,1.3,2.8,2.6,4.1,4s2.7,2.7,4.1,4c0,0,0,0,0.1,0s0,0,0.1,0
				c0,0,0.1,0,0.1-0.1s0-0.1,0-0.1c0-0.5,0-1.1,0-1.6s0-1.1,0-1.6c0-0.5,0-0.9,0-1.4c0-0.5,0-0.9,0-1.4c0-0.2,0-0.4,0-0.6
				s0-0.4,0-0.6c0-0.1,0-0.2,0.1-0.3s0.1-0.1,0.3-0.1h1.5c0.2,0,0.4,0.1,0.4,0.4c0,0.3,0,0.6,0,0.9s0,0.6,0,0.9c0,0.6,0,1.3,0,1.9
				s0,1.3,0,1.9C-283.8,13.1-283.8,15.3-283.7,17.5L-283.7,17.5z"/>
			<path id="XMLID_721_" d="M-282.1,13.2c0-0.8,0.2-1.5,0.5-2.2s0.8-1.1,1.5-1.5s1.4-0.6,2.2-0.6c0.8,0,1.5,0.2,2.1,0.5
				s1.1,0.9,1.4,1.5s0.5,1.3,0.5,2.1c0,0.8-0.2,1.5-0.5,2.2s-0.8,1.1-1.4,1.5s-1.3,0.5-2.2,0.5c-0.8,0-1.5-0.2-2.2-0.5
				s-1.1-0.8-1.4-1.4S-282.1,14-282.1,13.2z M-278,10.7c-0.4,0-0.8,0.1-1.1,0.4s-0.5,0.5-0.7,0.9s-0.2,0.8-0.2,1.2
				c0,0.4,0.1,0.7,0.2,1.1s0.4,0.6,0.7,0.9s0.7,0.3,1.1,0.3c0.4,0,0.8-0.1,1.1-0.3s0.5-0.5,0.7-0.9s0.2-0.7,0.2-1.1
				c0-0.4-0.1-0.8-0.2-1.1s-0.4-0.7-0.7-0.9S-277.5,10.7-278,10.7z"/>
			<path id="XMLID_724_" d="M-271.6,9c0-0.5,0-1,0-1.5s0-1,0-1.5c0-0.2,0.1-0.4,0.4-0.4h1.4c0.2,0,0.4,0.1,0.4,0.4c0,0.5,0,1,0,1.5
				s0,1,0,1.5c0,0.1,0,0.1,0.1,0.1h1.4c0.2,0,0.4,0.1,0.4,0.4c0,0.2,0,0.4,0,0.5s0,0.4,0,0.6c0,0.2-0.1,0.4-0.4,0.4h-1.4
				c-0.1,0-0.1,0-0.1,0.1c0,0.9,0,1.9,0,2.8s0,1.9,0,2.8c0,0.2-0.1,0.4-0.4,0.4h-1.4c-0.2,0-0.4-0.1-0.4-0.4c0-0.9,0-1.9,0-2.8
				s0-1.9,0-2.8c0-0.1-0.1-0.1-0.2-0.1s-0.3,0-0.4,0s-0.3,0-0.4,0s-0.2-0.2-0.2-0.3V9.5c0-0.2,0.1-0.4,0.4-0.4h0.7
				C-271.7,9.2-271.6,9.1-271.6,9z"/>
			<path id="XMLID_726_" d="M-262.5,17.4c-0.9,0-1.6-0.2-2.2-0.5s-1.1-0.8-1.5-1.5c-0.4-0.6-0.5-1.4-0.5-2.2c0-0.8,0.2-1.5,0.5-2.2
				s0.8-1.1,1.4-1.5s1.3-0.6,2.1-0.6c1,0,1.8,0.3,2.4,0.9s1,1.3,1.2,2.3c0,0,0,0,0,0.1c0,0.1,0,0.2-0.1,0.2s-0.1,0.1-0.2,0.1
				c-0.2,0.1-0.4,0.2-0.6,0.2c-0.2,0.1-0.4,0.1-0.7,0.2c-0.6,0.2-1.2,0.5-1.9,0.7s-1.2,0.5-1.8,0.7c0,0-0.1,0.1-0.1,0.1
				c0,0,0,0,0,0.1c0.2,0.4,0.6,0.7,1,0.9s0.8,0.3,1.3,0.3c0.4,0,0.7-0.1,1-0.2s0.6-0.3,0.9-0.4c0,0,0.1,0,0.1-0.1s0.1,0,0.1,0
				c0.1,0,0.1,0,0.2,0.1s0.1,0.1,0.1,0.2c0,0,0.1,0.1,0.1,0.3s0.1,0.3,0.2,0.4c0.1,0.1,0.1,0.2,0.1,0.3c0,0.1,0,0.1-0.1,0.2
				s-0.1,0.1-0.1,0.1c-0.4,0.3-0.9,0.5-1.5,0.7S-262,17.4-262.5,17.4z M-264.7,13.1c0.6-0.2,1.2-0.4,1.8-0.6s1.2-0.4,1.8-0.6
				c-0.1-0.3-0.4-0.6-0.6-0.8s-0.6-0.4-1-0.4c-0.4,0-0.8,0.1-1.1,0.4s-0.5,0.5-0.7,0.9S-264.7,12.7-264.7,13.1z"/>
			<path id="XMLID_729_" d="M-255.6,4.8c0.2,0,0.3,0.1,0.4,0.4c0,0.3,0,0.5,0,0.8s0,0.5,0,0.8c0,0.6,0,1.1,0,1.7s0,1.1,0,1.7
				c0,0.1,0,0.1,0.1,0.1h0c2-0.5,3.3-1.8,4.1-3.7c0.1-0.2,0.2-0.4,0.2-0.7s0.1-0.5,0.2-0.7c0-0.1,0.1-0.2,0.1-0.2s0.1-0.1,0.2-0.1
				h1.5c0.1,0,0.2,0,0.3,0.1s0.1,0.1,0.1,0.2c0,0.1,0,0.1,0,0.1c-0.2,1-0.6,1.9-1.1,2.8s-1.1,1.6-2,2.3c-0.2,0.1-0.3,0.2-0.5,0.4
				s-0.3,0.2-0.5,0.3c0,0-0.1,0-0.1,0.1c0,0,0.1,0.2,0.3,0.4s0.4,0.6,0.7,0.9c0.3,0.4,0.6,0.8,0.9,1.2s0.6,0.8,0.9,1.3
				s0.6,0.8,0.8,1c0.2,0.3,0.4,0.5,0.4,0.6c0,0,0.1,0.1,0.1,0.2s0.1,0.1,0.1,0.2c0,0.1-0.1,0.2-0.2,0.2s-0.2,0-0.3,0h-1.7
				c-0.1,0-0.2,0-0.3-0.1c-0.2-0.2-0.3-0.4-0.5-0.6s-0.3-0.4-0.5-0.7c-0.3-0.4-0.6-0.8-0.9-1.2s-0.6-0.8-0.9-1.2
				c-0.2-0.2-0.3-0.4-0.5-0.7s-0.3-0.4-0.5-0.6c0,0-0.1,0-0.1,0c-0.1,0-0.1,0-0.2,0s-0.2,0-0.2,0s-0.1,0-0.1,0.1c0,0.5,0,1.1,0,1.6
				s0,1.1,0,1.6c0,0.3,0,0.5,0,0.8c0,0.3,0,0.5,0,0.8c0,0.2-0.1,0.4-0.4,0.4h-1.5c-0.2,0-0.4-0.1-0.4-0.4c0-0.3,0-0.6,0-1
				c0-0.3,0-0.6,0-1c0-1.3,0-2.7,0-4c0-1.3,0-2.6,0-3.8c0-0.3,0-0.6,0-0.9s0-0.6,0-0.9c0-0.2,0.1-0.4,0.4-0.4H-255.6z"/>
			<path id="XMLID_731_" d="M-243.1,17.4c-0.9,0-1.6-0.2-2.2-0.5s-1.1-0.8-1.5-1.5c-0.4-0.6-0.5-1.4-0.5-2.2c0-0.8,0.2-1.5,0.5-2.2
				s0.8-1.1,1.4-1.5s1.3-0.6,2.1-0.6c1,0,1.8,0.3,2.4,0.9s1,1.3,1.2,2.3c0,0,0,0,0,0.1c0,0.1,0,0.2-0.1,0.2s-0.1,0.1-0.2,0.1
				c-0.2,0.1-0.4,0.2-0.6,0.2c-0.2,0.1-0.4,0.1-0.7,0.2c-0.6,0.2-1.2,0.5-1.9,0.7s-1.2,0.5-1.8,0.7c0,0-0.1,0.1-0.1,0.1
				c0,0,0,0,0,0.1c0.2,0.4,0.6,0.7,1,0.9s0.8,0.3,1.3,0.3c0.4,0,0.7-0.1,1-0.2s0.6-0.3,0.9-0.4c0,0,0.1,0,0.1-0.1s0.1,0,0.1,0
				c0.1,0,0.1,0,0.2,0.1s0.1,0.1,0.1,0.2c0,0,0.1,0.1,0.1,0.3s0.1,0.3,0.2,0.4c0.1,0.1,0.1,0.2,0.1,0.3c0,0.1,0,0.1-0.1,0.2
				s-0.1,0.1-0.1,0.1c-0.4,0.3-0.9,0.5-1.5,0.7S-242.6,17.4-243.1,17.4z M-245.3,13.1c0.6-0.2,1.2-0.4,1.8-0.6s1.2-0.4,1.8-0.6
				c-0.1-0.3-0.4-0.6-0.6-0.8s-0.6-0.4-1-0.4c-0.4,0-0.8,0.1-1.1,0.4s-0.5,0.5-0.7,0.9S-245.3,12.7-245.3,13.1z"/>
			<path id="XMLID_734_" d="M-234.4,17.4c-0.9,0-1.6-0.2-2.2-0.5s-1.1-0.8-1.5-1.5c-0.4-0.6-0.5-1.4-0.5-2.2c0-0.8,0.2-1.5,0.5-2.2
				s0.8-1.1,1.4-1.5s1.3-0.6,2.1-0.6c1,0,1.8,0.3,2.4,0.9s1,1.3,1.2,2.3c0,0,0,0,0,0.1c0,0.1,0,0.2-0.1,0.2s-0.1,0.1-0.2,0.1
				c-0.2,0.1-0.4,0.2-0.6,0.2c-0.2,0.1-0.4,0.1-0.7,0.2c-0.6,0.2-1.2,0.5-1.9,0.7s-1.2,0.5-1.8,0.7c0,0-0.1,0.1-0.1,0.1
				c0,0,0,0,0,0.1c0.2,0.4,0.6,0.7,1,0.9s0.8,0.3,1.3,0.3c0.4,0,0.7-0.1,1-0.2s0.6-0.3,0.9-0.4c0,0,0.1,0,0.1-0.1s0.1,0,0.1,0
				c0.1,0,0.1,0,0.2,0.1s0.1,0.1,0.1,0.2c0,0,0.1,0.1,0.1,0.3s0.1,0.3,0.2,0.4c0.1,0.1,0.1,0.2,0.1,0.3c0,0.1,0,0.1-0.1,0.2
				s-0.1,0.1-0.1,0.1c-0.4,0.3-0.9,0.5-1.5,0.7S-233.9,17.4-234.4,17.4z M-236.6,13.1c0.6-0.2,1.2-0.4,1.8-0.6s1.2-0.4,1.8-0.6
				c-0.1-0.3-0.4-0.6-0.6-0.8s-0.6-0.4-1-0.4c-0.4,0-0.8,0.1-1.1,0.4s-0.5,0.5-0.7,0.9S-236.6,12.7-236.6,13.1z"/>
			<path id="XMLID_737_" d="M-225,17.3c-0.4,0-0.9-0.1-1.3-0.2s-0.8-0.4-1.1-0.7c0,0,0,0-0.1,0s0,0-0.1,0s0,0-0.1,0.1s0,0.1,0,0.1
				c0,0.4,0,0.8,0,1.2s0,0.8,0,1.2c0,0.1,0,0.3,0,0.4s0,0.3,0,0.4c0,0.1,0,0.2-0.1,0.3s-0.1,0.1-0.3,0.1h-1.4
				c-0.2,0-0.4-0.1-0.4-0.4c0-0.5,0-0.9,0-1.4s0-0.9,0-1.4c0-1,0-1.9,0.1-2.9s0-1.9,0-2.9c0-0.3,0-0.6,0-0.9s0-0.6,0-0.9
				c0-0.2,0.1-0.4,0.4-0.4h1.1c0.2,0,0.3,0.1,0.3,0.2s0.1,0.3,0.1,0.4s0,0.2,0.1,0.2c0,0,0.1,0,0.1,0c0.4-0.3,0.9-0.6,1.3-0.8
				s1-0.3,1.5-0.3c0.8,0,1.5,0.2,2.1,0.6s1,0.9,1.3,1.5s0.4,1.4,0.4,2.1c0,0.8-0.2,1.6-0.5,2.2c-0.3,0.6-0.8,1.1-1.4,1.4
				S-224.1,17.3-225,17.3z M-225.4,15.5c0.4,0,0.9-0.1,1.2-0.3s0.7-0.5,0.9-0.8s0.3-0.8,0.3-1.2c0-0.7-0.2-1.3-0.7-1.7
				s-1-0.7-1.7-0.7c-0.5,0-0.9,0.1-1.3,0.4s-0.7,0.6-0.8,1.1c0,0.3,0,0.6,0,0.9s0,0.6,0,0.9c0,0,0,0.1,0.1,0.2s0.1,0.2,0.1,0.2
				c0.2,0.4,0.5,0.7,0.8,0.9S-225.8,15.5-225.4,15.5z"/>
		</g>
		<g id="XMLID_7_">
			<path id="XMLID_676_" d="M-283.7,17.5c0,0-0.2-0.1-0.5-0.4s-0.7-0.7-1.2-1.1c-0.5-0.5-1-1-1.6-1.6s-1.2-1.1-1.7-1.7
				s-1.1-1.1-1.6-1.6s-0.9-0.9-1.2-1.1s-0.5-0.4-0.5-0.4c0,0,0,0-0.1,0.1s0,0.1,0,0.1c0,0.5,0,1.1,0,1.6s0,1.1,0,1.6
				c0,0.4,0,0.9,0,1.3s0,0.9,0,1.3c0,0.2,0,0.4,0,0.6c0,0.2,0,0.4,0,0.6c0,0.1,0,0.2-0.1,0.3s-0.1,0.1-0.3,0.1h-1.6
				c-0.2,0-0.4-0.1-0.4-0.4c0-0.3,0-0.7,0-1c0-0.3,0-0.7,0-1c0-0.7,0-1.3,0-2c0-0.7,0-1.3,0-2c0-0.7,0-1.4,0-2.1s0-1.4,0-2.1
				c0-0.3,0-0.7,0-1s0-0.7,0-1c0,0,0-0.1,0.1-0.1s0.1,0,0.1,0c1.4,1.3,2.8,2.6,4.1,4s2.7,2.7,4.1,4c0,0,0,0,0.1,0s0,0,0.1,0
				c0,0,0.1,0,0.1-0.1s0-0.1,0-0.1c0-0.5,0-1.1,0-1.6s0-1.1,0-1.6c0-0.5,0-0.9,0-1.4c0-0.5,0-0.9,0-1.4c0-0.2,0-0.4,0-0.6
				s0-0.4,0-0.6c0-0.1,0-0.2,0.1-0.3s0.1-0.1,0.3-0.1h1.5c0.2,0,0.4,0.1,0.4,0.4c0,0.3,0,0.6,0,0.9s0,0.6,0,0.9c0,0.6,0,1.3,0,1.9
				s0,1.3,0,1.9C-283.8,13.1-283.8,15.3-283.7,17.5L-283.7,17.5z"/>
			<path id="XMLID_678_" d="M-282.1,13.2c0-0.8,0.2-1.5,0.5-2.2s0.8-1.1,1.5-1.5s1.4-0.6,2.2-0.6c0.8,0,1.5,0.2,2.1,0.5
				s1.1,0.9,1.4,1.5s0.5,1.3,0.5,2.1c0,0.8-0.2,1.5-0.5,2.2s-0.8,1.1-1.4,1.5s-1.3,0.5-2.2,0.5c-0.8,0-1.5-0.2-2.2-0.5
				s-1.1-0.8-1.4-1.4S-282.1,14-282.1,13.2z M-278,10.7c-0.4,0-0.8,0.1-1.1,0.4s-0.5,0.5-0.7,0.9s-0.2,0.8-0.2,1.2
				c0,0.4,0.1,0.7,0.2,1.1s0.4,0.6,0.7,0.9s0.7,0.3,1.1,0.3c0.4,0,0.8-0.1,1.1-0.3s0.5-0.5,0.7-0.9s0.2-0.7,0.2-1.1
				c0-0.4-0.1-0.8-0.2-1.1s-0.4-0.7-0.7-0.9S-277.5,10.7-278,10.7z"/>
			<path id="XMLID_681_" d="M-271.6,9c0-0.5,0-1,0-1.5s0-1,0-1.5c0-0.2,0.1-0.4,0.4-0.4h1.4c0.2,0,0.4,0.1,0.4,0.4c0,0.5,0,1,0,1.5
				s0,1,0,1.5c0,0.1,0,0.1,0.1,0.1h1.4c0.2,0,0.4,0.1,0.4,0.4c0,0.2,0,0.4,0,0.5s0,0.4,0,0.6c0,0.2-0.1,0.4-0.4,0.4h-1.4
				c-0.1,0-0.1,0-0.1,0.1c0,0.9,0,1.9,0,2.8s0,1.9,0,2.8c0,0.2-0.1,0.4-0.4,0.4h-1.4c-0.2,0-0.4-0.1-0.4-0.4c0-0.9,0-1.9,0-2.8
				s0-1.9,0-2.8c0-0.1-0.1-0.1-0.2-0.1s-0.3,0-0.4,0s-0.3,0-0.4,0s-0.2-0.2-0.2-0.3V9.5c0-0.2,0.1-0.4,0.4-0.4h0.7
				C-271.7,9.2-271.6,9.1-271.6,9z"/>
			<path id="XMLID_683_" d="M-262.5,17.4c-0.9,0-1.6-0.2-2.2-0.5s-1.1-0.8-1.5-1.5c-0.4-0.6-0.5-1.4-0.5-2.2c0-0.8,0.2-1.5,0.5-2.2
				s0.8-1.1,1.4-1.5s1.3-0.6,2.1-0.6c1,0,1.8,0.3,2.4,0.9s1,1.3,1.2,2.3c0,0,0,0,0,0.1c0,0.1,0,0.2-0.1,0.2s-0.1,0.1-0.2,0.1
				c-0.2,0.1-0.4,0.2-0.6,0.2c-0.2,0.1-0.4,0.1-0.7,0.2c-0.6,0.2-1.2,0.5-1.9,0.7s-1.2,0.5-1.8,0.7c0,0-0.1,0.1-0.1,0.1
				c0,0,0,0,0,0.1c0.2,0.4,0.6,0.7,1,0.9s0.8,0.3,1.3,0.3c0.4,0,0.7-0.1,1-0.2s0.6-0.3,0.9-0.4c0,0,0.1,0,0.1-0.1s0.1,0,0.1,0
				c0.1,0,0.1,0,0.2,0.1s0.1,0.1,0.1,0.2c0,0,0.1,0.1,0.1,0.3s0.1,0.3,0.2,0.4c0.1,0.1,0.1,0.2,0.1,0.3c0,0.1,0,0.1-0.1,0.2
				s-0.1,0.1-0.1,0.1c-0.4,0.3-0.9,0.5-1.5,0.7S-262,17.4-262.5,17.4z M-264.7,13.1c0.6-0.2,1.2-0.4,1.8-0.6s1.2-0.4,1.8-0.6
				c-0.1-0.3-0.4-0.6-0.6-0.8s-0.6-0.4-1-0.4c-0.4,0-0.8,0.1-1.1,0.4s-0.5,0.5-0.7,0.9S-264.7,12.7-264.7,13.1z"/>
			<path id="XMLID_686_" d="M-255.6,4.8c0.2,0,0.3,0.1,0.4,0.4c0,0.3,0,0.5,0,0.8s0,0.5,0,0.8c0,0.6,0,1.1,0,1.7s0,1.1,0,1.7
				c0,0.1,0,0.1,0.1,0.1h0c2-0.5,3.3-1.8,4.1-3.7c0.1-0.2,0.2-0.4,0.2-0.7s0.1-0.5,0.2-0.7c0-0.1,0.1-0.2,0.1-0.2s0.1-0.1,0.2-0.1
				h1.5c0.1,0,0.2,0,0.3,0.1s0.1,0.1,0.1,0.2c0,0.1,0,0.1,0,0.1c-0.2,1-0.6,1.9-1.1,2.8s-1.1,1.6-2,2.3c-0.2,0.1-0.3,0.2-0.5,0.4
				s-0.3,0.2-0.5,0.3c0,0-0.1,0-0.1,0.1c0,0,0.1,0.2,0.3,0.4s0.4,0.6,0.7,0.9c0.3,0.4,0.6,0.8,0.9,1.2s0.6,0.8,0.9,1.3
				s0.6,0.8,0.8,1c0.2,0.3,0.4,0.5,0.4,0.6c0,0,0.1,0.1,0.1,0.2s0.1,0.1,0.1,0.2c0,0.1-0.1,0.2-0.2,0.2s-0.2,0-0.3,0h-1.7
				c-0.1,0-0.2,0-0.3-0.1c-0.2-0.2-0.3-0.4-0.5-0.6s-0.3-0.4-0.5-0.7c-0.3-0.4-0.6-0.8-0.9-1.2s-0.6-0.8-0.9-1.2
				c-0.2-0.2-0.3-0.4-0.5-0.7s-0.3-0.4-0.5-0.6c0,0-0.1,0-0.1,0c-0.1,0-0.1,0-0.2,0s-0.2,0-0.2,0s-0.1,0-0.1,0.1c0,0.5,0,1.1,0,1.6
				s0,1.1,0,1.6c0,0.3,0,0.5,0,0.8c0,0.3,0,0.5,0,0.8c0,0.2-0.1,0.4-0.4,0.4h-1.5c-0.2,0-0.4-0.1-0.4-0.4c0-0.3,0-0.6,0-1
				c0-0.3,0-0.6,0-1c0-1.3,0-2.7,0-4c0-1.3,0-2.6,0-3.8c0-0.3,0-0.6,0-0.9s0-0.6,0-0.9c0-0.2,0.1-0.4,0.4-0.4H-255.6z"/>
			<path id="XMLID_688_" d="M-243.1,17.4c-0.9,0-1.6-0.2-2.2-0.5s-1.1-0.8-1.5-1.5c-0.4-0.6-0.5-1.4-0.5-2.2c0-0.8,0.2-1.5,0.5-2.2
				s0.8-1.1,1.4-1.5s1.3-0.6,2.1-0.6c1,0,1.8,0.3,2.4,0.9s1,1.3,1.2,2.3c0,0,0,0,0,0.1c0,0.1,0,0.2-0.1,0.2s-0.1,0.1-0.2,0.1
				c-0.2,0.1-0.4,0.2-0.6,0.2c-0.2,0.1-0.4,0.1-0.7,0.2c-0.6,0.2-1.2,0.5-1.9,0.7s-1.2,0.5-1.8,0.7c0,0-0.1,0.1-0.1,0.1
				c0,0,0,0,0,0.1c0.2,0.4,0.6,0.7,1,0.9s0.8,0.3,1.3,0.3c0.4,0,0.7-0.1,1-0.2s0.6-0.3,0.9-0.4c0,0,0.1,0,0.1-0.1s0.1,0,0.1,0
				c0.1,0,0.1,0,0.2,0.1s0.1,0.1,0.1,0.2c0,0,0.1,0.1,0.1,0.3s0.1,0.3,0.2,0.4c0.1,0.1,0.1,0.2,0.1,0.3c0,0.1,0,0.1-0.1,0.2
				s-0.1,0.1-0.1,0.1c-0.4,0.3-0.9,0.5-1.5,0.7S-242.6,17.4-243.1,17.4z M-245.3,13.1c0.6-0.2,1.2-0.4,1.8-0.6s1.2-0.4,1.8-0.6
				c-0.1-0.3-0.4-0.6-0.6-0.8s-0.6-0.4-1-0.4c-0.4,0-0.8,0.1-1.1,0.4s-0.5,0.5-0.7,0.9S-245.3,12.7-245.3,13.1z"/>
			<path id="XMLID_691_" d="M-234.4,17.4c-0.9,0-1.6-0.2-2.2-0.5s-1.1-0.8-1.5-1.5c-0.4-0.6-0.5-1.4-0.5-2.2c0-0.8,0.2-1.5,0.5-2.2
				s0.8-1.1,1.4-1.5s1.3-0.6,2.1-0.6c1,0,1.8,0.3,2.4,0.9s1,1.3,1.2,2.3c0,0,0,0,0,0.1c0,0.1,0,0.2-0.1,0.2s-0.1,0.1-0.2,0.1
				c-0.2,0.1-0.4,0.2-0.6,0.2c-0.2,0.1-0.4,0.1-0.7,0.2c-0.6,0.2-1.2,0.5-1.9,0.7s-1.2,0.5-1.8,0.7c0,0-0.1,0.1-0.1,0.1
				c0,0,0,0,0,0.1c0.2,0.4,0.6,0.7,1,0.9s0.8,0.3,1.3,0.3c0.4,0,0.7-0.1,1-0.2s0.6-0.3,0.9-0.4c0,0,0.1,0,0.1-0.1s0.1,0,0.1,0
				c0.1,0,0.1,0,0.2,0.1s0.1,0.1,0.1,0.2c0,0,0.1,0.1,0.1,0.3s0.1,0.3,0.2,0.4c0.1,0.1,0.1,0.2,0.1,0.3c0,0.1,0,0.1-0.1,0.2
				s-0.1,0.1-0.1,0.1c-0.4,0.3-0.9,0.5-1.5,0.7S-233.9,17.4-234.4,17.4z M-236.6,13.1c0.6-0.2,1.2-0.4,1.8-0.6s1.2-0.4,1.8-0.6
				c-0.1-0.3-0.4-0.6-0.6-0.8s-0.6-0.4-1-0.4c-0.4,0-0.8,0.1-1.1,0.4s-0.5,0.5-0.7,0.9S-236.6,12.7-236.6,13.1z"/>
			<path id="XMLID_694_" d="M-225,17.3c-0.4,0-0.9-0.1-1.3-0.2s-0.8-0.4-1.1-0.7c0,0,0,0-0.1,0s0,0-0.1,0s0,0-0.1,0.1s0,0.1,0,0.1
				c0,0.4,0,0.8,0,1.2s0,0.8,0,1.2c0,0.1,0,0.3,0,0.4s0,0.3,0,0.4c0,0.1,0,0.2-0.1,0.3s-0.1,0.1-0.3,0.1h-1.4
				c-0.2,0-0.4-0.1-0.4-0.4c0-0.5,0-0.9,0-1.4s0-0.9,0-1.4c0-1,0-1.9,0.1-2.9s0-1.9,0-2.9c0-0.3,0-0.6,0-0.9s0-0.6,0-0.9
				c0-0.2,0.1-0.4,0.4-0.4h1.1c0.2,0,0.3,0.1,0.3,0.2s0.1,0.3,0.1,0.4s0,0.2,0.1,0.2c0,0,0.1,0,0.1,0c0.4-0.3,0.9-0.6,1.3-0.8
				s1-0.3,1.5-0.3c0.8,0,1.5,0.2,2.1,0.6s1,0.9,1.3,1.5s0.4,1.4,0.4,2.1c0,0.8-0.2,1.6-0.5,2.2c-0.3,0.6-0.8,1.1-1.4,1.4
				S-224.1,17.3-225,17.3z M-225.4,15.5c0.4,0,0.9-0.1,1.2-0.3s0.7-0.5,0.9-0.8s0.3-0.8,0.3-1.2c0-0.7-0.2-1.3-0.7-1.7
				s-1-0.7-1.7-0.7c-0.5,0-0.9,0.1-1.3,0.4s-0.7,0.6-0.8,1.1c0,0.3,0,0.6,0,0.9s0,0.6,0,0.9c0,0,0,0.1,0.1,0.2s0.1,0.2,0.1,0.2
				c0.2,0.4,0.5,0.7,0.8,0.9S-225.8,15.5-225.4,15.5z"/>
		</g>
	</g>
</g>
<g id="Layer_2" class="st0">
	<g id="XMLID_126_" class="st1">
		<g id="XMLID_128_">
			<path id="XMLID_132_" class="st2" d="M-192.1,23.4h-13.1c-2.8,0-5-2.2-5-5V5c0-2.8,2.2-5,5-5h13.1c2.8,0,5,2.2,5,5v13.4
				C-187.1,21.2-189.3,23.4-192.1,23.4z"/>
			<path id="XMLID_131_" class="st3" d="M-195,19.1h-7.3c-2,0-3.7-1.6-3.7-3.7V8c0-2,1.6-3.7,3.7-3.7h7.3c2,0,3.7,1.6,3.7,3.7v7.5
				C-191.3,17.5-193,19.1-195,19.1z"/>
			<path id="XMLID_130_" class="st2" d="M-199.7,16.2h-3.5c-0.6,0-1.1-0.5-1.1-1.1v0c0-0.6,0.5-1.1,1.1-1.1h3.5
				c0.6,0,1.1,0.5,1.1,1.1v0C-198.6,15.7-199.1,16.2-199.7,16.2z"/>
			<path id="XMLID_129_" class="st2" d="M-195.8,13.3h-7.4c-0.6,0-1.1-0.5-1.1-1.1v0c0-0.6,0.5-1.1,1.1-1.1h7.4
				c0.6,0,1.1,0.5,1.1,1.1v0C-194.7,12.8-195.2,13.3-195.8,13.3z"/>
		</g>
		<g>
			<path id="XMLID_740_" class="st4" d="M-169.2,17.5c0,0-0.2-0.1-0.5-0.4s-0.7-0.7-1.2-1.1c-0.5-0.5-1-1-1.6-1.6s-1.2-1.1-1.8-1.7
				s-1.1-1.1-1.6-1.6s-0.9-0.9-1.2-1.1s-0.5-0.4-0.5-0.4c0,0,0,0-0.1,0.1s0,0.1,0,0.1c0,0.5,0,1.1,0,1.6s0,1.1,0,1.6
				c0,0.4,0,0.9,0,1.3s0,0.9,0,1.3c0,0.2,0,0.4,0,0.6c0,0.2,0,0.4,0,0.6c0,0.1,0,0.2-0.1,0.3s-0.1,0.1-0.3,0.1h-1.6
				c-0.2,0-0.4-0.1-0.4-0.4c0-0.3,0-0.7,0-1c0-0.3,0-0.7,0-1c0-0.7,0-1.3,0-2c0-0.7,0-1.3,0-2c0-0.7,0-1.4,0-2.1s0-1.4,0-2.1
				c0-0.3,0-0.7,0-1s0-0.7,0-1c0,0,0-0.1,0.1-0.1s0.1,0,0.1,0c1.4,1.3,2.8,2.6,4.1,4s2.7,2.7,4.1,4c0,0,0,0,0.1,0s0,0,0.1,0
				c0,0,0.1,0,0.1-0.1s0-0.1,0-0.1c0-0.5,0-1.1,0-1.6s0-1.1,0-1.6c0-0.5,0-0.9,0-1.4c0-0.5,0-0.9,0-1.4c0-0.2,0-0.4,0-0.6
				s0-0.4,0-0.6c0-0.1,0-0.2,0.1-0.3s0.1-0.1,0.3-0.1h1.5c0.2,0,0.4,0.1,0.4,0.4c0,0.3,0,0.6,0,0.9s0,0.6,0,0.9c0,0.6,0,1.3,0,1.9
				s0,1.3,0,1.9C-169.3,13.1-169.3,15.3-169.2,17.5L-169.2,17.5z"/>
			<path id="XMLID_742_" class="st4" d="M-167.6,13.2c0-0.8,0.2-1.5,0.5-2.2s0.8-1.1,1.5-1.5s1.4-0.6,2.2-0.6c0.8,0,1.5,0.2,2.1,0.5
				s1.1,0.9,1.4,1.5s0.5,1.3,0.5,2.1c0,0.8-0.2,1.5-0.5,2.2s-0.8,1.1-1.4,1.5s-1.3,0.5-2.2,0.5c-0.8,0-1.5-0.2-2.2-0.5
				s-1.1-0.8-1.4-1.4S-167.6,14-167.6,13.2z M-163.5,10.7c-0.4,0-0.8,0.1-1.1,0.4s-0.5,0.5-0.7,0.9s-0.2,0.8-0.2,1.2
				c0,0.4,0.1,0.7,0.2,1.1s0.4,0.6,0.7,0.9s0.7,0.3,1.1,0.3c0.4,0,0.8-0.1,1.1-0.3s0.5-0.5,0.7-0.9s0.2-0.7,0.2-1.1
				c0-0.4-0.1-0.8-0.2-1.1s-0.4-0.7-0.7-0.9S-163,10.7-163.5,10.7z"/>
			<path id="XMLID_745_" class="st4" d="M-157.1,9c0-0.5,0-1,0-1.5s0-1,0-1.5c0-0.2,0.1-0.4,0.4-0.4h1.4c0.2,0,0.4,0.1,0.4,0.4
				c0,0.5,0,1,0,1.5s0,1,0,1.5c0,0.1,0,0.1,0.1,0.1h1.4c0.2,0,0.4,0.1,0.4,0.4c0,0.2,0,0.4,0,0.5s0,0.4,0,0.6c0,0.2-0.1,0.4-0.4,0.4
				h-1.4c-0.1,0-0.1,0-0.1,0.1c0,0.9,0,1.9,0,2.8s0,1.9,0,2.8c0,0.2-0.1,0.4-0.4,0.4h-1.4c-0.2,0-0.4-0.1-0.4-0.4c0-0.9,0-1.9,0-2.8
				s0-1.9,0-2.8c0-0.1-0.1-0.1-0.2-0.1s-0.3,0-0.4,0s-0.3,0-0.4,0s-0.2-0.2-0.2-0.3V9.5c0-0.2,0.1-0.4,0.4-0.4h0.7
				C-157.2,9.2-157.1,9.1-157.1,9z"/>
			<path id="XMLID_747_" class="st4" d="M-148,17.4c-0.9,0-1.6-0.2-2.2-0.5s-1.1-0.8-1.5-1.5c-0.4-0.6-0.5-1.4-0.5-2.2
				c0-0.8,0.2-1.5,0.5-2.2s0.8-1.1,1.4-1.5s1.3-0.6,2.1-0.6c1,0,1.8,0.3,2.4,0.9s1,1.3,1.2,2.3c0,0,0,0,0,0.1c0,0.1,0,0.2-0.1,0.2
				s-0.1,0.1-0.2,0.1c-0.2,0.1-0.4,0.2-0.6,0.2c-0.2,0.1-0.4,0.1-0.7,0.2c-0.6,0.2-1.2,0.5-1.9,0.7s-1.2,0.5-1.8,0.7
				c0,0-0.1,0.1-0.1,0.1c0,0,0,0,0,0.1c0.2,0.4,0.6,0.7,1,0.9s0.8,0.3,1.3,0.3c0.4,0,0.7-0.1,1-0.2s0.6-0.3,0.9-0.4
				c0,0,0.1,0,0.1-0.1s0.1,0,0.1,0c0.1,0,0.1,0,0.2,0.1s0.1,0.1,0.1,0.2c0,0,0.1,0.1,0.1,0.3s0.1,0.3,0.2,0.4
				c0.1,0.1,0.1,0.2,0.1,0.3c0,0.1,0,0.1-0.1,0.2s-0.1,0.1-0.1,0.1c-0.4,0.3-0.9,0.5-1.5,0.7S-147.5,17.4-148,17.4z M-150.2,13.1
				c0.6-0.2,1.2-0.4,1.8-0.6s1.2-0.4,1.8-0.6c-0.1-0.3-0.3-0.6-0.6-0.8s-0.6-0.4-1-0.4c-0.4,0-0.8,0.1-1.1,0.4s-0.5,0.5-0.7,0.9
				S-150.2,12.7-150.2,13.1z"/>
			<path id="XMLID_750_" class="st4" d="M-141.1,4.8c0.2,0,0.3,0.1,0.4,0.4c0,0.3,0,0.5,0,0.8s0,0.5,0,0.8c0,0.6,0,1.1,0,1.7
				s0,1.1,0,1.7c0,0.1,0,0.1,0.1,0.1h0c2-0.5,3.3-1.8,4.1-3.7c0.1-0.2,0.2-0.4,0.2-0.7s0.1-0.5,0.2-0.7c0-0.1,0.1-0.2,0.1-0.2
				s0.1-0.1,0.2-0.1h1.5c0.1,0,0.2,0,0.3,0.1s0.1,0.1,0.1,0.2c0,0.1,0,0.1,0,0.1c-0.2,1-0.6,1.9-1.1,2.8s-1.1,1.6-2,2.3
				c-0.2,0.1-0.3,0.2-0.5,0.4s-0.3,0.2-0.5,0.3c0,0-0.1,0-0.1,0.1c0,0,0.1,0.2,0.3,0.4s0.4,0.6,0.7,0.9c0.3,0.4,0.6,0.8,0.9,1.2
				s0.6,0.8,0.9,1.3s0.6,0.8,0.8,1c0.2,0.3,0.4,0.5,0.4,0.6c0,0,0.1,0.1,0.1,0.2s0.1,0.1,0.1,0.2c0,0.1-0.1,0.2-0.2,0.2
				s-0.2,0-0.3,0h-1.7c-0.1,0-0.2,0-0.3-0.1c-0.2-0.2-0.3-0.4-0.5-0.6s-0.3-0.4-0.5-0.7c-0.3-0.4-0.6-0.8-0.9-1.2s-0.6-0.8-0.9-1.2
				c-0.2-0.2-0.3-0.4-0.5-0.7s-0.3-0.4-0.5-0.6c0,0-0.1,0-0.1,0c-0.1,0-0.1,0-0.2,0s-0.2,0-0.2,0s-0.1,0-0.1,0.1c0,0.5,0,1.1,0,1.6
				s0,1.1,0,1.6c0,0.3,0,0.5,0,0.8c0,0.3,0,0.5,0,0.8c0,0.2-0.1,0.4-0.4,0.4h-1.5c-0.2,0-0.4-0.1-0.4-0.4c0-0.3,0-0.6,0-1
				c0-0.3,0-0.6,0-1c0-1.3,0-2.7,0-4c0-1.3,0-2.6,0-3.8c0-0.3,0-0.6,0-0.9s0-0.6,0-0.9c0-0.2,0.1-0.4,0.4-0.4H-141.1z"/>
			<path id="XMLID_752_" class="st4" d="M-128.6,17.4c-0.9,0-1.6-0.2-2.2-0.5s-1.1-0.8-1.5-1.5c-0.4-0.6-0.5-1.4-0.5-2.2
				c0-0.8,0.2-1.5,0.5-2.2s0.8-1.1,1.4-1.5s1.3-0.6,2.1-0.6c1,0,1.8,0.3,2.4,0.9s1,1.3,1.2,2.3c0,0,0,0,0,0.1c0,0.1,0,0.2-0.1,0.2
				s-0.1,0.1-0.2,0.1c-0.2,0.1-0.4,0.2-0.6,0.2c-0.2,0.1-0.4,0.1-0.7,0.2c-0.6,0.2-1.2,0.5-1.9,0.7s-1.2,0.5-1.8,0.7
				c0,0-0.1,0.1-0.1,0.1c0,0,0,0,0,0.1c0.2,0.4,0.6,0.7,1,0.9s0.8,0.3,1.3,0.3c0.4,0,0.7-0.1,1-0.2s0.6-0.3,0.9-0.4
				c0,0,0.1,0,0.1-0.1s0.1,0,0.1,0c0.1,0,0.1,0,0.2,0.1s0.1,0.1,0.1,0.2c0,0,0.1,0.1,0.1,0.3s0.1,0.3,0.2,0.4
				c0.1,0.1,0.1,0.2,0.1,0.3c0,0.1,0,0.1-0.1,0.2s-0.1,0.1-0.1,0.1c-0.4,0.3-0.9,0.5-1.5,0.7S-128.1,17.4-128.6,17.4z M-130.8,13.1
				c0.6-0.2,1.2-0.4,1.8-0.6s1.2-0.4,1.8-0.6c-0.1-0.3-0.3-0.6-0.6-0.8s-0.6-0.4-1-0.4c-0.4,0-0.8,0.1-1.1,0.4s-0.5,0.5-0.7,0.9
				S-130.8,12.7-130.8,13.1z"/>
			<path id="XMLID_755_" class="st4" d="M-119.9,17.4c-0.9,0-1.6-0.2-2.2-0.5s-1.1-0.8-1.5-1.5c-0.4-0.6-0.5-1.4-0.5-2.2
				c0-0.8,0.2-1.5,0.5-2.2s0.8-1.1,1.4-1.5s1.3-0.6,2.1-0.6c1,0,1.8,0.3,2.4,0.9s1,1.3,1.2,2.3c0,0,0,0,0,0.1c0,0.1,0,0.2-0.1,0.2
				s-0.1,0.1-0.2,0.1c-0.2,0.1-0.4,0.2-0.6,0.2c-0.2,0.1-0.4,0.1-0.7,0.2c-0.6,0.2-1.2,0.5-1.9,0.7s-1.2,0.5-1.8,0.7
				c0,0-0.1,0.1-0.1,0.1c0,0,0,0,0,0.1c0.2,0.4,0.6,0.7,1,0.9s0.8,0.3,1.3,0.3c0.4,0,0.7-0.1,1-0.2s0.6-0.3,0.9-0.4
				c0,0,0.1,0,0.1-0.1s0.1,0,0.1,0c0.1,0,0.1,0,0.2,0.1s0.1,0.1,0.1,0.2c0,0,0.1,0.1,0.1,0.3s0.1,0.3,0.2,0.4
				c0.1,0.1,0.1,0.2,0.1,0.3c0,0.1,0,0.1-0.1,0.2s-0.1,0.1-0.1,0.1c-0.4,0.3-0.9,0.5-1.5,0.7S-119.4,17.4-119.9,17.4z M-122.1,13.1
				c0.6-0.2,1.2-0.4,1.8-0.6s1.2-0.4,1.8-0.6c-0.1-0.3-0.4-0.6-0.6-0.8s-0.6-0.4-1-0.4c-0.4,0-0.8,0.1-1.1,0.4s-0.5,0.5-0.7,0.9
				S-122.1,12.7-122.1,13.1z"/>
			<path id="XMLID_758_" class="st4" d="M-110.5,17.3c-0.4,0-0.9-0.1-1.3-0.2s-0.8-0.4-1.1-0.7c0,0,0,0-0.1,0s0,0-0.1,0s0,0-0.1,0.1
				s0,0.1,0,0.1c0,0.4,0,0.8,0,1.2s0,0.8,0,1.2c0,0.1,0,0.3,0,0.4s0,0.3,0,0.4c0,0.1,0,0.2-0.1,0.3s-0.1,0.1-0.3,0.1h-1.4
				c-0.2,0-0.4-0.1-0.4-0.4c0-0.5,0-0.9,0-1.4s0-0.9,0-1.4c0-1,0-1.9,0.1-2.9s0-1.9,0-2.9c0-0.3,0-0.6,0-0.9s0-0.6,0-0.9
				c0-0.2,0.1-0.4,0.4-0.4h1.1c0.2,0,0.3,0.1,0.3,0.2s0.1,0.3,0.1,0.4s0,0.2,0.1,0.2c0,0,0.1,0,0.1,0c0.4-0.3,0.9-0.6,1.3-0.8
				s1-0.3,1.5-0.3c0.8,0,1.5,0.2,2.1,0.6s1,0.9,1.3,1.5s0.4,1.4,0.4,2.1c0,0.8-0.2,1.6-0.5,2.2c-0.3,0.6-0.8,1.1-1.4,1.4
				S-109.6,17.3-110.5,17.3z M-110.9,15.5c0.4,0,0.9-0.1,1.2-0.3s0.7-0.5,0.9-0.8s0.3-0.8,0.3-1.2c0-0.7-0.2-1.3-0.7-1.7
				s-1-0.7-1.7-0.7c-0.5,0-0.9,0.1-1.3,0.4s-0.7,0.6-0.8,1.1c0,0.3,0,0.6,0,0.9s0,0.6,0,0.9c0,0,0,0.1,0.1,0.2s0.1,0.2,0.1,0.2
				c0.2,0.4,0.5,0.7,0.8,0.9S-111.3,15.5-110.9,15.5z"/>
		</g>
		<g id="XMLID_127_">
			<path id="XMLID_697_" class="st4" d="M-169.2,17.5c0,0-0.2-0.1-0.5-0.4s-0.7-0.7-1.2-1.1c-0.5-0.5-1-1-1.6-1.6s-1.2-1.1-1.8-1.7
				s-1.1-1.1-1.6-1.6s-0.9-0.9-1.2-1.1s-0.5-0.4-0.5-0.4c0,0,0,0-0.1,0.1s0,0.1,0,0.1c0,0.5,0,1.1,0,1.6s0,1.1,0,1.6
				c0,0.4,0,0.9,0,1.3s0,0.9,0,1.3c0,0.2,0,0.4,0,0.6c0,0.2,0,0.4,0,0.6c0,0.1,0,0.2-0.1,0.3s-0.1,0.1-0.3,0.1h-1.6
				c-0.2,0-0.4-0.1-0.4-0.4c0-0.3,0-0.7,0-1c0-0.3,0-0.7,0-1c0-0.7,0-1.3,0-2c0-0.7,0-1.3,0-2c0-0.7,0-1.4,0-2.1s0-1.4,0-2.1
				c0-0.3,0-0.7,0-1s0-0.7,0-1c0,0,0-0.1,0.1-0.1s0.1,0,0.1,0c1.4,1.3,2.8,2.6,4.1,4s2.7,2.7,4.1,4c0,0,0,0,0.1,0s0,0,0.1,0
				c0,0,0.1,0,0.1-0.1s0-0.1,0-0.1c0-0.5,0-1.1,0-1.6s0-1.1,0-1.6c0-0.5,0-0.9,0-1.4c0-0.5,0-0.9,0-1.4c0-0.2,0-0.4,0-0.6
				s0-0.4,0-0.6c0-0.1,0-0.2,0.1-0.3s0.1-0.1,0.3-0.1h1.5c0.2,0,0.4,0.1,0.4,0.4c0,0.3,0,0.6,0,0.9s0,0.6,0,0.9c0,0.6,0,1.3,0,1.9
				s0,1.3,0,1.9C-169.3,13.1-169.3,15.3-169.2,17.5L-169.2,17.5z"/>
			<path id="XMLID_699_" class="st4" d="M-167.6,13.2c0-0.8,0.2-1.5,0.5-2.2s0.8-1.1,1.5-1.5s1.4-0.6,2.2-0.6c0.8,0,1.5,0.2,2.1,0.5
				s1.1,0.9,1.4,1.5s0.5,1.3,0.5,2.1c0,0.8-0.2,1.5-0.5,2.2s-0.8,1.1-1.4,1.5s-1.3,0.5-2.2,0.5c-0.8,0-1.5-0.2-2.2-0.5
				s-1.1-0.8-1.4-1.4S-167.6,14-167.6,13.2z M-163.5,10.7c-0.4,0-0.8,0.1-1.1,0.4s-0.5,0.5-0.7,0.9s-0.2,0.8-0.2,1.2
				c0,0.4,0.1,0.7,0.2,1.1s0.4,0.6,0.7,0.9s0.7,0.3,1.1,0.3c0.4,0,0.8-0.1,1.1-0.3s0.5-0.5,0.7-0.9s0.2-0.7,0.2-1.1
				c0-0.4-0.1-0.8-0.2-1.1s-0.4-0.7-0.7-0.9S-163,10.7-163.5,10.7z"/>
			<path id="XMLID_702_" class="st4" d="M-157.1,9c0-0.5,0-1,0-1.5s0-1,0-1.5c0-0.2,0.1-0.4,0.4-0.4h1.4c0.2,0,0.4,0.1,0.4,0.4
				c0,0.5,0,1,0,1.5s0,1,0,1.5c0,0.1,0,0.1,0.1,0.1h1.4c0.2,0,0.4,0.1,0.4,0.4c0,0.2,0,0.4,0,0.5s0,0.4,0,0.6c0,0.2-0.1,0.4-0.4,0.4
				h-1.4c-0.1,0-0.1,0-0.1,0.1c0,0.9,0,1.9,0,2.8s0,1.9,0,2.8c0,0.2-0.1,0.4-0.4,0.4h-1.4c-0.2,0-0.4-0.1-0.4-0.4c0-0.9,0-1.9,0-2.8
				s0-1.9,0-2.8c0-0.1-0.1-0.1-0.2-0.1s-0.3,0-0.4,0s-0.3,0-0.4,0s-0.2-0.2-0.2-0.3V9.5c0-0.2,0.1-0.4,0.4-0.4h0.7
				C-157.2,9.2-157.1,9.1-157.1,9z"/>
			<path id="XMLID_704_" class="st4" d="M-148,17.4c-0.9,0-1.6-0.2-2.2-0.5s-1.1-0.8-1.5-1.5c-0.4-0.6-0.5-1.4-0.5-2.2
				c0-0.8,0.2-1.5,0.5-2.2s0.8-1.1,1.4-1.5s1.3-0.6,2.1-0.6c1,0,1.8,0.3,2.4,0.9s1,1.3,1.2,2.3c0,0,0,0,0,0.1c0,0.1,0,0.2-0.1,0.2
				s-0.1,0.1-0.2,0.1c-0.2,0.1-0.4,0.2-0.6,0.2c-0.2,0.1-0.4,0.1-0.7,0.2c-0.6,0.2-1.2,0.5-1.9,0.7s-1.2,0.5-1.8,0.7
				c0,0-0.1,0.1-0.1,0.1c0,0,0,0,0,0.1c0.2,0.4,0.6,0.7,1,0.9s0.8,0.3,1.3,0.3c0.4,0,0.7-0.1,1-0.2s0.6-0.3,0.9-0.4
				c0,0,0.1,0,0.1-0.1s0.1,0,0.1,0c0.1,0,0.1,0,0.2,0.1s0.1,0.1,0.1,0.2c0,0,0.1,0.1,0.1,0.3s0.1,0.3,0.2,0.4
				c0.1,0.1,0.1,0.2,0.1,0.3c0,0.1,0,0.1-0.1,0.2s-0.1,0.1-0.1,0.1c-0.4,0.3-0.9,0.5-1.5,0.7S-147.5,17.4-148,17.4z M-150.2,13.1
				c0.6-0.2,1.2-0.4,1.8-0.6s1.2-0.4,1.8-0.6c-0.1-0.3-0.3-0.6-0.6-0.8s-0.6-0.4-1-0.4c-0.4,0-0.8,0.1-1.1,0.4s-0.5,0.5-0.7,0.9
				S-150.2,12.7-150.2,13.1z"/>
			<path id="XMLID_707_" class="st4" d="M-141.1,4.8c0.2,0,0.3,0.1,0.4,0.4c0,0.3,0,0.5,0,0.8s0,0.5,0,0.8c0,0.6,0,1.1,0,1.7
				s0,1.1,0,1.7c0,0.1,0,0.1,0.1,0.1h0c2-0.5,3.3-1.8,4.1-3.7c0.1-0.2,0.2-0.4,0.2-0.7s0.1-0.5,0.2-0.7c0-0.1,0.1-0.2,0.1-0.2
				s0.1-0.1,0.2-0.1h1.5c0.1,0,0.2,0,0.3,0.1s0.1,0.1,0.1,0.2c0,0.1,0,0.1,0,0.1c-0.2,1-0.6,1.9-1.1,2.8s-1.1,1.6-2,2.3
				c-0.2,0.1-0.3,0.2-0.5,0.4s-0.3,0.2-0.5,0.3c0,0-0.1,0-0.1,0.1c0,0,0.1,0.2,0.3,0.4s0.4,0.6,0.7,0.9c0.3,0.4,0.6,0.8,0.9,1.2
				s0.6,0.8,0.9,1.3s0.6,0.8,0.8,1c0.2,0.3,0.4,0.5,0.4,0.6c0,0,0.1,0.1,0.1,0.2s0.1,0.1,0.1,0.2c0,0.1-0.1,0.2-0.2,0.2
				s-0.2,0-0.3,0h-1.7c-0.1,0-0.2,0-0.3-0.1c-0.2-0.2-0.3-0.4-0.5-0.6s-0.3-0.4-0.5-0.7c-0.3-0.4-0.6-0.8-0.9-1.2s-0.6-0.8-0.9-1.2
				c-0.2-0.2-0.3-0.4-0.5-0.7s-0.3-0.4-0.5-0.6c0,0-0.1,0-0.1,0c-0.1,0-0.1,0-0.2,0s-0.2,0-0.2,0s-0.1,0-0.1,0.1c0,0.5,0,1.1,0,1.6
				s0,1.1,0,1.6c0,0.3,0,0.5,0,0.8c0,0.3,0,0.5,0,0.8c0,0.2-0.1,0.4-0.4,0.4h-1.5c-0.2,0-0.4-0.1-0.4-0.4c0-0.3,0-0.6,0-1
				c0-0.3,0-0.6,0-1c0-1.3,0-2.7,0-4c0-1.3,0-2.6,0-3.8c0-0.3,0-0.6,0-0.9s0-0.6,0-0.9c0-0.2,0.1-0.4,0.4-0.4H-141.1z"/>
			<path id="XMLID_709_" class="st4" d="M-128.6,17.4c-0.9,0-1.6-0.2-2.2-0.5s-1.1-0.8-1.5-1.5c-0.4-0.6-0.5-1.4-0.5-2.2
				c0-0.8,0.2-1.5,0.5-2.2s0.8-1.1,1.4-1.5s1.3-0.6,2.1-0.6c1,0,1.8,0.3,2.4,0.9s1,1.3,1.2,2.3c0,0,0,0,0,0.1c0,0.1,0,0.2-0.1,0.2
				s-0.1,0.1-0.2,0.1c-0.2,0.1-0.4,0.2-0.6,0.2c-0.2,0.1-0.4,0.1-0.7,0.2c-0.6,0.2-1.2,0.5-1.9,0.7s-1.2,0.5-1.8,0.7
				c0,0-0.1,0.1-0.1,0.1c0,0,0,0,0,0.1c0.2,0.4,0.6,0.7,1,0.9s0.8,0.3,1.3,0.3c0.4,0,0.7-0.1,1-0.2s0.6-0.3,0.9-0.4
				c0,0,0.1,0,0.1-0.1s0.1,0,0.1,0c0.1,0,0.1,0,0.2,0.1s0.1,0.1,0.1,0.2c0,0,0.1,0.1,0.1,0.3s0.1,0.3,0.2,0.4
				c0.1,0.1,0.1,0.2,0.1,0.3c0,0.1,0,0.1-0.1,0.2s-0.1,0.1-0.1,0.1c-0.4,0.3-0.9,0.5-1.5,0.7S-128.1,17.4-128.6,17.4z M-130.8,13.1
				c0.6-0.2,1.2-0.4,1.8-0.6s1.2-0.4,1.8-0.6c-0.1-0.3-0.3-0.6-0.6-0.8s-0.6-0.4-1-0.4c-0.4,0-0.8,0.1-1.1,0.4s-0.5,0.5-0.7,0.9
				S-130.8,12.7-130.8,13.1z"/>
			<path id="XMLID_712_" class="st4" d="M-119.9,17.4c-0.9,0-1.6-0.2-2.2-0.5s-1.1-0.8-1.5-1.5c-0.4-0.6-0.5-1.4-0.5-2.2
				c0-0.8,0.2-1.5,0.5-2.2s0.8-1.1,1.4-1.5s1.3-0.6,2.1-0.6c1,0,1.8,0.3,2.4,0.9s1,1.3,1.2,2.3c0,0,0,0,0,0.1c0,0.1,0,0.2-0.1,0.2
				s-0.1,0.1-0.2,0.1c-0.2,0.1-0.4,0.2-0.6,0.2c-0.2,0.1-0.4,0.1-0.7,0.2c-0.6,0.2-1.2,0.5-1.9,0.7s-1.2,0.5-1.8,0.7
				c0,0-0.1,0.1-0.1,0.1c0,0,0,0,0,0.1c0.2,0.4,0.6,0.7,1,0.9s0.8,0.3,1.3,0.3c0.4,0,0.7-0.1,1-0.2s0.6-0.3,0.9-0.4
				c0,0,0.1,0,0.1-0.1s0.1,0,0.1,0c0.1,0,0.1,0,0.2,0.1s0.1,0.1,0.1,0.2c0,0,0.1,0.1,0.1,0.3s0.1,0.3,0.2,0.4
				c0.1,0.1,0.1,0.2,0.1,0.3c0,0.1,0,0.1-0.1,0.2s-0.1,0.1-0.1,0.1c-0.4,0.3-0.9,0.5-1.5,0.7S-119.4,17.4-119.9,17.4z M-122.1,13.1
				c0.6-0.2,1.2-0.4,1.8-0.6s1.2-0.4,1.8-0.6c-0.1-0.3-0.4-0.6-0.6-0.8s-0.6-0.4-1-0.4c-0.4,0-0.8,0.1-1.1,0.4s-0.5,0.5-0.7,0.9
				S-122.1,12.7-122.1,13.1z"/>
			<path id="XMLID_715_" class="st4" d="M-110.5,17.3c-0.4,0-0.9-0.1-1.3-0.2s-0.8-0.4-1.1-0.7c0,0,0,0-0.1,0s0,0-0.1,0s0,0-0.1,0.1
				s0,0.1,0,0.1c0,0.4,0,0.8,0,1.2s0,0.8,0,1.2c0,0.1,0,0.3,0,0.4s0,0.3,0,0.4c0,0.1,0,0.2-0.1,0.3s-0.1,0.1-0.3,0.1h-1.4
				c-0.2,0-0.4-0.1-0.4-0.4c0-0.5,0-0.9,0-1.4s0-0.9,0-1.4c0-1,0-1.9,0.1-2.9s0-1.9,0-2.9c0-0.3,0-0.6,0-0.9s0-0.6,0-0.9
				c0-0.2,0.1-0.4,0.4-0.4h1.1c0.2,0,0.3,0.1,0.3,0.2s0.1,0.3,0.1,0.4s0,0.2,0.1,0.2c0,0,0.1,0,0.1,0c0.4-0.3,0.9-0.6,1.3-0.8
				s1-0.3,1.5-0.3c0.8,0,1.5,0.2,2.1,0.6s1,0.9,1.3,1.5s0.4,1.4,0.4,2.1c0,0.8-0.2,1.6-0.5,2.2c-0.3,0.6-0.8,1.1-1.4,1.4
				S-109.6,17.3-110.5,17.3z M-110.9,15.5c0.4,0,0.9-0.1,1.2-0.3s0.7-0.5,0.9-0.8s0.3-0.8,0.3-1.2c0-0.7-0.2-1.3-0.7-1.7
				s-1-0.7-1.7-0.7c-0.5,0-0.9,0.1-1.3,0.4s-0.7,0.6-0.8,1.1c0,0.3,0,0.6,0,0.9s0,0.6,0,0.9c0,0,0,0.1,0.1,0.2s0.1,0.2,0.1,0.2
				c0.2,0.4,0.5,0.7,0.8,0.9S-111.3,15.5-110.9,15.5z"/>
		</g>
	</g>
</g>
<g id="Layer_3" class="st0">
	<g id="XMLID_197_" class="st1">
		<path id="XMLID_201_" class="st2" d="M-46.2,23.4h-13.1c-2.8,0-5-2.2-5-5V5c0-2.8,2.2-5,5-5h13.1c2.8,0,5,2.2,5,5v13.4
			C-41.2,21.2-43.5,23.4-46.2,23.4z"/>
		<path id="XMLID_200_" class="st3" d="M-49.1,19.1h-7.3c-2,0-3.7-1.6-3.7-3.7V8c0-2,1.6-3.7,3.7-3.7h7.3c2,0,3.7,1.6,3.7,3.7v7.5
			C-45.4,17.5-47.1,19.1-49.1,19.1z"/>
		<path id="XMLID_199_" class="st2" d="M-53.8,16.2h-3.5c-0.6,0-1.1-0.5-1.1-1.1v0c0-0.6,0.5-1.1,1.1-1.1h3.5c0.6,0,1.1,0.5,1.1,1.1
			v0C-52.8,15.7-53.2,16.2-53.8,16.2z"/>
		<path id="XMLID_198_" class="st2" d="M-49.9,13.3h-7.4c-0.6,0-1.1-0.5-1.1-1.1v0c0-0.6,0.5-1.1,1.1-1.1h7.4c0.6,0,1.1,0.5,1.1,1.1
			v0C-48.8,12.8-49.3,13.3-49.9,13.3z"/>
	</g>
</g>
<g id="Layer_4">
	<g id="XMLID_398_">
		<path id="XMLID_399_" class="st4" d="M12.8,16.9c0,0-0.2-0.1-0.5-0.4s-0.7-0.7-1.2-1.1s-1-1-1.6-1.6s-1.2-1.1-1.8-1.7
			S6.6,11,6.1,10.5S5.3,9.7,5,9.4S4.5,9,4.5,9c0,0,0,0-0.1,0.1s0,0.1,0,0.1c0,0.5,0,1.1,0,1.6s0,1.1,0,1.6c0,0.4,0,0.9,0,1.3
			s0,0.9,0,1.3c0,0.2,0,0.4,0,0.6s0,0.4,0,0.6c0,0.1,0,0.2-0.1,0.3s-0.1,0.1-0.3,0.1H2.5c-0.2,0-0.4-0.1-0.4-0.4c0-0.3,0-0.7,0-1
			s0-0.7,0-1c0-0.7,0-1.3,0-2c0-0.7,0-1.3,0-2c0-0.7,0-1.4,0-2.1s0-1.4,0-2.1c0-0.3,0-0.7,0-1s0-0.7,0-1c0,0,0-0.1,0.1-0.1
			s0.1,0,0.1,0c1.4,1.3,2.8,2.6,4.1,4s2.7,2.7,4.1,4c0,0,0,0,0.1,0s0,0,0.1,0c0,0,0.1,0,0.1-0.1s0-0.1,0-0.1c0-0.5,0-1.1,0-1.6
			s0-1.1,0-1.6c0-0.5,0-0.9,0-1.4s0-0.9,0-1.4c0-0.2,0-0.4,0-0.6s0-0.4,0-0.6c0-0.1,0-0.2,0.1-0.3s0.1-0.1,0.3-0.1h1.5
			c0.2,0,0.4,0.1,0.4,0.4c0,0.3,0,0.6,0,0.9s0,0.6,0,0.9c0,0.6,0,1.3,0,1.9s0,1.3,0,1.9C12.8,12.5,12.8,14.7,12.8,16.9L12.8,16.9z"
			/>
		<path id="XMLID_401_" class="st4" d="M14.5,12.6c0-0.8,0.2-1.5,0.5-2.2s0.8-1.1,1.5-1.5c0.6-0.4,1.4-0.6,2.2-0.6
			c0.8,0,1.5,0.2,2.1,0.5s1.1,0.9,1.4,1.5s0.5,1.3,0.5,2.1c0,0.8-0.2,1.5-0.5,2.2s-0.8,1.1-1.4,1.5c-0.6,0.4-1.3,0.5-2.2,0.5
			c-0.8,0-1.5-0.2-2.2-0.5c-0.6-0.3-1.1-0.8-1.4-1.4S14.5,13.5,14.5,12.6z M18.6,10.2c-0.4,0-0.8,0.1-1.1,0.4s-0.5,0.5-0.7,0.9
			s-0.2,0.8-0.2,1.2c0,0.4,0.1,0.7,0.2,1.1s0.4,0.6,0.7,0.9s0.7,0.3,1.1,0.3c0.4,0,0.8-0.1,1.1-0.3s0.5-0.5,0.7-0.9s0.2-0.7,0.2-1.1
			c0-0.4-0.1-0.8-0.2-1.1s-0.4-0.7-0.7-0.9S19,10.2,18.6,10.2z"/>
		<path id="XMLID_404_" class="st4" d="M24.9,8.5c0-0.5,0-1,0-1.5s0-1,0-1.5c0-0.2,0.1-0.4,0.4-0.4h1.4c0.2,0,0.4,0.1,0.4,0.4
			c0,0.5,0,1,0,1.5s0,1,0,1.5c0,0.1,0,0.1,0.1,0.1h1.4c0.2,0,0.4,0.1,0.4,0.4c0,0.2,0,0.4,0,0.5s0,0.4,0,0.6c0,0.2-0.1,0.4-0.4,0.4
			h-1.4c-0.1,0-0.1,0-0.1,0.1c0,0.9,0,1.9,0,2.8s0,1.9,0,2.8c0,0.2-0.1,0.4-0.4,0.4h-1.4c-0.2,0-0.4-0.1-0.4-0.4c0-0.9,0-1.9,0-2.8
			s0-1.9,0-2.8c0-0.1-0.1-0.1-0.2-0.1s-0.3,0-0.4,0s-0.3,0-0.4,0s-0.2-0.2-0.2-0.3V8.9c0-0.2,0.1-0.4,0.4-0.4h0.7
			C24.9,8.6,24.9,8.6,24.9,8.5z"/>
		<path id="XMLID_406_" class="st4" d="M34.1,16.8c-0.9,0-1.6-0.2-2.2-0.5c-0.6-0.3-1.1-0.8-1.5-1.5s-0.5-1.4-0.5-2.2
			c0-0.8,0.2-1.5,0.5-2.2s0.8-1.1,1.4-1.5c0.6-0.4,1.3-0.6,2.1-0.6c1,0,1.8,0.3,2.4,0.9s1,1.3,1.2,2.3c0,0,0,0,0,0.1
			c0,0.1,0,0.2-0.1,0.2s-0.1,0.1-0.2,0.1c-0.2,0.1-0.4,0.2-0.6,0.2c-0.2,0.1-0.4,0.1-0.7,0.2c-0.6,0.2-1.2,0.5-1.9,0.7
			s-1.2,0.5-1.8,0.7c0,0-0.1,0.1-0.1,0.1c0,0,0,0,0,0.1c0.2,0.4,0.6,0.7,1,0.9s0.8,0.3,1.3,0.3c0.4,0,0.7-0.1,1-0.2s0.6-0.3,0.9-0.4
			c0,0,0.1,0,0.1-0.1s0.1,0,0.1,0c0.1,0,0.1,0,0.2,0.1s0.1,0.1,0.1,0.2c0,0,0.1,0.1,0.1,0.3s0.1,0.3,0.2,0.4s0.1,0.2,0.1,0.3
			c0,0.1,0,0.1-0.1,0.2s-0.1,0.1-0.1,0.1c-0.4,0.3-0.9,0.5-1.5,0.7S34.6,16.8,34.1,16.8z M31.9,12.5c0.6-0.2,1.2-0.4,1.8-0.6
			s1.2-0.4,1.8-0.6c-0.1-0.3-0.3-0.6-0.6-0.8s-0.6-0.4-1-0.4c-0.4,0-0.8,0.1-1.1,0.4s-0.5,0.5-0.7,0.9
			C31.9,11.7,31.9,12.1,31.9,12.5z"/>
		<path id="XMLID_409_" class="st4" d="M41,4.3c0.2,0,0.3,0.1,0.4,0.4c0,0.3,0,0.5,0,0.8s0,0.5,0,0.8c0,0.6,0,1.1,0,1.7s0,1.1,0,1.7
			c0,0.1,0,0.1,0.1,0.1h0c2-0.5,3.3-1.8,4.1-3.7c0.1-0.2,0.2-0.4,0.2-0.7s0.1-0.5,0.2-0.7c0-0.1,0.1-0.2,0.1-0.2s0.1-0.1,0.2-0.1
			h1.5c0.1,0,0.2,0,0.3,0.1s0.1,0.1,0.1,0.2c0,0.1,0,0.1,0,0.1c-0.2,1-0.6,1.9-1.1,2.8s-1.1,1.6-2,2.3c-0.2,0.1-0.3,0.2-0.5,0.4
			s-0.3,0.2-0.5,0.3c0,0-0.1,0-0.1,0.1c0,0,0.1,0.2,0.3,0.4s0.4,0.6,0.7,0.9c0.3,0.4,0.6,0.8,0.9,1.2s0.6,0.8,0.9,1.3s0.6,0.8,0.8,1
			S48,15.9,48,16c0,0,0.1,0.1,0.1,0.2s0.1,0.1,0.1,0.2c0,0.1-0.1,0.2-0.2,0.2s-0.2,0-0.3,0H46c-0.1,0-0.2,0-0.3-0.1
			c-0.2-0.2-0.3-0.4-0.5-0.6s-0.3-0.4-0.5-0.7c-0.3-0.4-0.6-0.8-0.9-1.2s-0.6-0.8-0.9-1.2c-0.2-0.2-0.3-0.4-0.5-0.7
			s-0.3-0.4-0.5-0.6c0,0-0.1,0-0.1,0c-0.1,0-0.1,0-0.2,0s-0.2,0-0.2,0s-0.1,0-0.1,0.1c0,0.5,0,1.1,0,1.6s0,1.1,0,1.6
			c0,0.3,0,0.5,0,0.8s0,0.5,0,0.8c0,0.2-0.1,0.4-0.4,0.4h-1.5c-0.2,0-0.4-0.1-0.4-0.4c0-0.3,0-0.6,0-1s0-0.6,0-1c0-1.3,0-2.7,0-4
			c0-1.3,0-2.6,0-3.8c0-0.3,0-0.6,0-0.9s0-0.6,0-0.9c0-0.2,0.1-0.4,0.4-0.4H41z"/>
		<path id="XMLID_411_" class="st4" d="M53.5,16.8c-0.9,0-1.6-0.2-2.2-0.5c-0.6-0.3-1.1-0.8-1.5-1.5s-0.5-1.4-0.5-2.2
			c0-0.8,0.2-1.5,0.5-2.2s0.8-1.1,1.4-1.5s1.3-0.6,2.1-0.6c1,0,1.8,0.3,2.4,0.9s1,1.3,1.2,2.3c0,0,0,0,0,0.1c0,0.1,0,0.2-0.1,0.2
			s-0.1,0.1-0.2,0.1c-0.2,0.1-0.4,0.2-0.6,0.2c-0.2,0.1-0.4,0.1-0.7,0.2c-0.6,0.2-1.2,0.5-1.9,0.7s-1.2,0.5-1.8,0.7
			c0,0-0.1,0.1-0.1,0.1c0,0,0,0,0,0.1c0.2,0.4,0.6,0.7,1,0.9s0.8,0.3,1.3,0.3c0.4,0,0.7-0.1,1-0.2s0.6-0.3,0.9-0.4
			c0,0,0.1,0,0.1-0.1s0.1,0,0.1,0c0.1,0,0.1,0,0.2,0.1s0.1,0.1,0.1,0.2c0,0,0.1,0.1,0.1,0.3s0.1,0.3,0.2,0.4s0.1,0.2,0.1,0.3
			c0,0.1,0,0.1-0.1,0.2s-0.1,0.1-0.1,0.1c-0.4,0.3-0.9,0.5-1.5,0.7S54,16.8,53.5,16.8z M51.3,12.5c0.6-0.2,1.2-0.4,1.8-0.6
			s1.2-0.4,1.8-0.6c-0.1-0.3-0.3-0.6-0.6-0.8s-0.6-0.4-1-0.4c-0.4,0-0.8,0.1-1.1,0.4s-0.5,0.5-0.7,0.9S51.3,12.1,51.3,12.5z"/>
		<path id="XMLID_414_" class="st4" d="M62.1,16.8c-0.9,0-1.6-0.2-2.2-0.5c-0.6-0.3-1.1-0.8-1.5-1.5s-0.5-1.4-0.5-2.2
			c0-0.8,0.2-1.5,0.5-2.2s0.8-1.1,1.4-1.5s1.3-0.6,2.1-0.6c1,0,1.8,0.3,2.4,0.9c0.6,0.6,1,1.3,1.2,2.3c0,0,0,0,0,0.1
			c0,0.1,0,0.2-0.1,0.2s-0.1,0.1-0.2,0.1c-0.2,0.1-0.4,0.2-0.6,0.2c-0.2,0.1-0.4,0.1-0.7,0.2c-0.6,0.2-1.2,0.5-1.9,0.7
			s-1.2,0.5-1.8,0.7c0,0-0.1,0.1-0.1,0.1c0,0,0,0,0,0.1c0.2,0.4,0.6,0.7,1,0.9s0.8,0.3,1.3,0.3c0.4,0,0.7-0.1,1-0.2s0.6-0.3,0.9-0.4
			c0,0,0.1,0,0.1-0.1s0.1,0,0.1,0c0.1,0,0.1,0,0.2,0.1s0.1,0.1,0.1,0.2c0,0,0.1,0.1,0.1,0.3s0.1,0.3,0.2,0.4s0.1,0.2,0.1,0.3
			c0,0.1,0,0.1-0.1,0.2s-0.1,0.1-0.1,0.1c-0.4,0.3-0.9,0.5-1.5,0.7C63.2,16.7,62.7,16.8,62.1,16.8z M59.9,12.5
			c0.6-0.2,1.2-0.4,1.8-0.6s1.2-0.4,1.8-0.6c-0.1-0.3-0.4-0.6-0.6-0.8s-0.6-0.4-1-0.4c-0.4,0-0.8,0.1-1.1,0.4s-0.5,0.5-0.7,0.9
			S59.9,12.1,59.9,12.5z"/>
		<path id="XMLID_417_" class="st4" d="M71.6,16.7c-0.4,0-0.9-0.1-1.3-0.2s-0.8-0.4-1.1-0.7c0,0,0,0-0.1,0s0,0-0.1,0s0,0-0.1,0.1
			s0,0.1,0,0.1c0,0.4,0,0.8,0,1.2s0,0.8,0,1.2c0,0.1,0,0.3,0,0.4s0,0.3,0,0.4c0,0.1,0,0.2-0.1,0.3s-0.1,0.1-0.3,0.1h-1.4
			c-0.2,0-0.4-0.1-0.4-0.4c0-0.5,0-0.9,0-1.4s0-0.9,0-1.4c0-1,0-1.9,0.1-2.9s0-1.9,0-2.9c0-0.3,0-0.6,0-0.9s0-0.6,0-0.9
			c0-0.2,0.1-0.4,0.4-0.4h1.1c0.2,0,0.3,0.1,0.3,0.2s0.1,0.3,0.1,0.4s0,0.2,0.1,0.2c0,0,0.1,0,0.1,0c0.4-0.3,0.9-0.6,1.3-0.8
			s1-0.3,1.5-0.3c0.8,0,1.5,0.2,2.1,0.6s1,0.9,1.3,1.5s0.4,1.4,0.4,2.1c0,0.8-0.2,1.6-0.5,2.2s-0.8,1.1-1.4,1.4
			C73.2,16.6,72.4,16.7,71.6,16.7z M71.2,14.9c0.4,0,0.9-0.1,1.2-0.3s0.7-0.5,0.9-0.8s0.3-0.8,0.3-1.2c0-0.7-0.2-1.3-0.7-1.7
			s-1-0.7-1.7-0.7c-0.5,0-0.9,0.1-1.3,0.4s-0.7,0.6-0.8,1.1c0,0.3,0,0.6,0,0.9s0,0.6,0,0.9c0,0,0,0.1,0.1,0.2s0.1,0.2,0.1,0.2
			c0.2,0.4,0.5,0.7,0.8,0.9S70.8,14.9,71.2,14.9z"/>
	</g>
</g>
<g id="Layer_5" class="st0">
	<g id="XMLID_537_" class="st1">
		<path id="XMLID_538_" d="M99.5,16.9c0,0-0.2-0.1-0.5-0.4s-0.7-0.7-1.2-1.1s-1-1-1.6-1.6s-1.2-1.1-1.7-1.7s-1.1-1.1-1.6-1.6
			s-0.9-0.9-1.2-1.1S91.1,9,91.1,9c0,0,0,0-0.1,0.1s0,0.1,0,0.1c0,0.5,0,1.1,0,1.6s0,1.1,0,1.6c0,0.4,0,0.9,0,1.3s0,0.9,0,1.3
			c0,0.2,0,0.4,0,0.6s0,0.4,0,0.6c0,0.1,0,0.2-0.1,0.3s-0.1,0.1-0.3,0.1h-1.6c-0.2,0-0.4-0.1-0.4-0.4c0-0.3,0-0.7,0-1s0-0.7,0-1
			c0-0.7,0-1.3,0-2s0-1.3,0-2c0-0.7,0-1.4,0-2.1s0-1.4,0-2.1c0-0.3,0-0.7,0-1s0-0.7,0-1c0,0,0-0.1,0.1-0.1s0.1,0,0.1,0
			c1.4,1.3,2.8,2.6,4.1,4s2.7,2.7,4.1,4c0,0,0,0,0.1,0s0,0,0.1,0c0,0,0.1,0,0.1-0.1s0-0.1,0-0.1c0-0.5,0-1.1,0-1.6s0-1.1,0-1.6
			c0-0.5,0-0.9,0-1.4s0-0.9,0-1.4c0-0.2,0-0.4,0-0.6s0-0.4,0-0.6c0-0.1,0-0.2,0.1-0.3s0.1-0.1,0.3-0.1h1.5c0.2,0,0.4,0.1,0.4,0.4
			c0,0.3,0,0.6,0,0.9s0,0.6,0,0.9c0,0.6,0,1.3,0,1.9s0,1.3,0,1.9C99.4,12.5,99.4,14.7,99.5,16.9L99.5,16.9z"/>
		<path id="XMLID_540_" d="M101.1,12.6c0-0.8,0.2-1.5,0.5-2.2s0.8-1.1,1.5-1.5s1.4-0.6,2.2-0.6c0.8,0,1.5,0.2,2.1,0.5
			s1.1,0.9,1.4,1.5s0.5,1.3,0.5,2.1c0,0.8-0.2,1.5-0.5,2.2s-0.8,1.1-1.4,1.5c-0.6,0.4-1.3,0.5-2.2,0.5c-0.8,0-1.5-0.2-2.2-0.5
			c-0.6-0.3-1.1-0.8-1.4-1.4C101.3,14.2,101.1,13.5,101.1,12.6z M105.2,10.2c-0.4,0-0.8,0.1-1.1,0.4s-0.5,0.5-0.7,0.9
			s-0.2,0.8-0.2,1.2c0,0.4,0.1,0.7,0.2,1.1s0.4,0.6,0.7,0.9c0.3,0.2,0.7,0.3,1.1,0.3c0.4,0,0.8-0.1,1.1-0.3s0.5-0.5,0.7-0.9
			s0.2-0.7,0.2-1.1c0-0.4-0.1-0.8-0.2-1.1s-0.4-0.7-0.7-0.9S105.6,10.2,105.2,10.2z"/>
		<path id="XMLID_543_" d="M111.6,8.5c0-0.5,0-1,0-1.5s0-1,0-1.5c0-0.2,0.1-0.4,0.4-0.4h1.4c0.2,0,0.4,0.1,0.4,0.4c0,0.5,0,1,0,1.5
			s0,1,0,1.5c0,0.1,0,0.1,0.1,0.1h1.4c0.2,0,0.4,0.1,0.4,0.4c0,0.2,0,0.4,0,0.5s0,0.4,0,0.6c0,0.2-0.1,0.4-0.4,0.4h-1.4
			c-0.1,0-0.1,0-0.1,0.1c0,0.9,0,1.9,0,2.8s0,1.9,0,2.8c0,0.2-0.1,0.4-0.4,0.4h-1.4c-0.2,0-0.4-0.1-0.4-0.4c0-0.9,0-1.9,0-2.8
			s0-1.9,0-2.8c0-0.1-0.1-0.1-0.2-0.1s-0.3,0-0.4,0s-0.3,0-0.4,0s-0.2-0.2-0.2-0.3V8.9c0-0.2,0.1-0.4,0.4-0.4h0.7
			C111.5,8.6,111.6,8.6,111.6,8.5z"/>
		<path id="XMLID_545_" d="M120.7,16.8c-0.9,0-1.6-0.2-2.2-0.5c-0.6-0.3-1.1-0.8-1.5-1.5c-0.4-0.6-0.5-1.4-0.5-2.2
			c0-0.8,0.2-1.5,0.5-2.2s0.8-1.1,1.4-1.5s1.3-0.6,2.1-0.6c1,0,1.8,0.3,2.4,0.9s1,1.3,1.2,2.3c0,0,0,0,0,0.1c0,0.1,0,0.2-0.1,0.2
			s-0.1,0.1-0.2,0.1c-0.2,0.1-0.4,0.2-0.6,0.2s-0.4,0.1-0.7,0.2c-0.6,0.2-1.2,0.5-1.9,0.7s-1.2,0.5-1.8,0.7c0,0-0.1,0.1-0.1,0.1
			c0,0,0,0,0,0.1c0.2,0.4,0.6,0.7,1,0.9s0.8,0.3,1.3,0.3c0.4,0,0.7-0.1,1-0.2s0.6-0.3,0.9-0.4c0,0,0.1,0,0.1-0.1s0.1,0,0.1,0
			c0.1,0,0.1,0,0.2,0.1s0.1,0.1,0.1,0.2c0,0,0.1,0.1,0.1,0.3s0.1,0.3,0.2,0.4s0.1,0.2,0.1,0.3c0,0.1,0,0.1-0.1,0.2s-0.1,0.1-0.1,0.1
			c-0.4,0.3-0.9,0.5-1.5,0.7S121.2,16.8,120.7,16.8z M118.5,12.5c0.6-0.2,1.2-0.4,1.8-0.6s1.2-0.4,1.8-0.6c-0.1-0.3-0.3-0.6-0.6-0.8
			s-0.6-0.4-1-0.4c-0.4,0-0.8,0.1-1.1,0.4s-0.5,0.5-0.7,0.9S118.5,12.1,118.5,12.5z"/>
		<path id="XMLID_548_" d="M127.6,4.3c0.2,0,0.3,0.1,0.4,0.4c0,0.3,0,0.5,0,0.8s0,0.5,0,0.8c0,0.6,0,1.1,0,1.7s0,1.1,0,1.7
			c0,0.1,0,0.1,0.1,0.1h0c2-0.5,3.3-1.8,4.1-3.7c0.1-0.2,0.2-0.4,0.2-0.7s0.1-0.5,0.2-0.7c0-0.1,0.1-0.2,0.1-0.2s0.1-0.1,0.2-0.1
			h1.5c0.1,0,0.2,0,0.3,0.1s0.1,0.1,0.1,0.2c0,0.1,0,0.1,0,0.1c-0.2,1-0.6,1.9-1.1,2.8s-1.1,1.6-2,2.3c-0.2,0.1-0.3,0.2-0.5,0.4
			s-0.3,0.2-0.5,0.3c0,0-0.1,0-0.1,0.1c0,0,0.1,0.2,0.3,0.4s0.4,0.6,0.7,0.9s0.6,0.8,0.9,1.2s0.6,0.8,0.9,1.3c0.3,0.4,0.6,0.8,0.8,1
			s0.4,0.5,0.4,0.6c0,0,0.1,0.1,0.1,0.2s0.1,0.1,0.1,0.2c0,0.1-0.1,0.2-0.2,0.2s-0.2,0-0.3,0h-1.7c-0.1,0-0.2,0-0.3-0.1
			c-0.2-0.2-0.3-0.4-0.5-0.6s-0.3-0.4-0.5-0.7c-0.3-0.4-0.6-0.8-0.9-1.2s-0.6-0.8-0.9-1.2c-0.2-0.2-0.3-0.4-0.5-0.7
			s-0.3-0.4-0.5-0.6c0,0-0.1,0-0.1,0c-0.1,0-0.1,0-0.2,0s-0.2,0-0.2,0s-0.1,0-0.1,0.1c0,0.5,0,1.1,0,1.6s0,1.1,0,1.6
			c0,0.3,0,0.5,0,0.8s0,0.5,0,0.8c0,0.2-0.1,0.4-0.4,0.4h-1.5c-0.2,0-0.4-0.1-0.4-0.4c0-0.3,0-0.6,0-1s0-0.6,0-1c0-1.3,0-2.7,0-4
			c0-1.3,0-2.6,0-3.8c0-0.3,0-0.6,0-0.9s0-0.6,0-0.9c0-0.2,0.1-0.4,0.4-0.4H127.6z"/>
		<path id="XMLID_550_" d="M140.1,16.8c-0.9,0-1.6-0.2-2.2-0.5c-0.6-0.3-1.1-0.8-1.5-1.5c-0.4-0.6-0.5-1.4-0.5-2.2
			c0-0.8,0.2-1.5,0.5-2.2s0.8-1.1,1.4-1.5s1.3-0.6,2.1-0.6c1,0,1.8,0.3,2.4,0.9s1,1.3,1.2,2.3c0,0,0,0,0,0.1c0,0.1,0,0.2-0.1,0.2
			s-0.1,0.1-0.2,0.1c-0.2,0.1-0.4,0.2-0.6,0.2s-0.4,0.1-0.7,0.2c-0.6,0.2-1.2,0.5-1.9,0.7s-1.2,0.5-1.8,0.7c0,0-0.1,0.1-0.1,0.1
			c0,0,0,0,0,0.1c0.2,0.4,0.6,0.7,1,0.9s0.8,0.3,1.3,0.3c0.4,0,0.7-0.1,1-0.2s0.6-0.3,0.9-0.4c0,0,0.1,0,0.1-0.1s0.1,0,0.1,0
			c0.1,0,0.1,0,0.2,0.1s0.1,0.1,0.1,0.2c0,0,0.1,0.1,0.1,0.3s0.1,0.3,0.2,0.4s0.1,0.2,0.1,0.3c0,0.1,0,0.1-0.1,0.2s-0.1,0.1-0.1,0.1
			c-0.4,0.3-0.9,0.5-1.5,0.7S140.6,16.8,140.1,16.8z M137.9,12.5c0.6-0.2,1.2-0.4,1.8-0.6s1.2-0.4,1.8-0.6c-0.1-0.3-0.3-0.6-0.6-0.8
			s-0.6-0.4-1-0.4c-0.4,0-0.8,0.1-1.1,0.4s-0.5,0.5-0.7,0.9S137.9,12.1,137.9,12.5z"/>
		<path id="XMLID_553_" d="M148.8,16.8c-0.9,0-1.6-0.2-2.2-0.5c-0.6-0.3-1.1-0.8-1.5-1.5c-0.4-0.6-0.5-1.4-0.5-2.2
			c0-0.8,0.2-1.5,0.5-2.2s0.8-1.1,1.4-1.5s1.3-0.6,2.1-0.6c1,0,1.8,0.3,2.4,0.9s1,1.3,1.2,2.3c0,0,0,0,0,0.1c0,0.1,0,0.2-0.1,0.2
			s-0.1,0.1-0.2,0.1c-0.2,0.1-0.4,0.2-0.6,0.2s-0.4,0.1-0.7,0.2c-0.6,0.2-1.2,0.5-1.9,0.7s-1.2,0.5-1.8,0.7c0,0-0.1,0.1-0.1,0.1
			c0,0,0,0,0,0.1c0.2,0.4,0.6,0.7,1,0.9s0.8,0.3,1.3,0.3c0.4,0,0.7-0.1,1-0.2s0.6-0.3,0.9-0.4c0,0,0.1,0,0.1-0.1s0.1,0,0.1,0
			c0.1,0,0.1,0,0.2,0.1s0.1,0.1,0.1,0.2c0,0,0.1,0.1,0.1,0.3s0.1,0.3,0.2,0.4s0.1,0.2,0.1,0.3c0,0.1,0,0.1-0.1,0.2s-0.1,0.1-0.1,0.1
			c-0.4,0.3-0.9,0.5-1.5,0.7S149.3,16.8,148.8,16.8z M146.6,12.5c0.6-0.2,1.2-0.4,1.8-0.6s1.2-0.4,1.8-0.6c-0.1-0.3-0.3-0.6-0.6-0.8
			s-0.6-0.4-1-0.4c-0.4,0-0.8,0.1-1.1,0.4s-0.5,0.5-0.7,0.9S146.6,12.1,146.6,12.5z"/>
		<path id="XMLID_556_" d="M158.2,16.7c-0.4,0-0.9-0.1-1.3-0.2s-0.8-0.4-1.1-0.7c0,0,0,0-0.1,0s0,0-0.1,0s0,0-0.1,0.1s0,0.1,0,0.1
			c0,0.4,0,0.8,0,1.2s0,0.8,0,1.2c0,0.1,0,0.3,0,0.4s0,0.3,0,0.4c0,0.1,0,0.2-0.1,0.3s-0.1,0.1-0.3,0.1h-1.4c-0.2,0-0.4-0.1-0.4-0.4
			c0-0.5,0-0.9,0-1.4s0-0.9,0-1.4c0-1,0-1.9,0.1-2.9s0-1.9,0-2.9c0-0.3,0-0.6,0-0.9s0-0.6,0-0.9c0-0.2,0.1-0.4,0.4-0.4h1.1
			c0.2,0,0.3,0.1,0.3,0.2s0.1,0.3,0.1,0.4s0,0.2,0.1,0.2c0,0,0.1,0,0.1,0c0.4-0.3,0.9-0.6,1.3-0.8s1-0.3,1.5-0.3
			c0.8,0,1.5,0.2,2.1,0.6s1,0.9,1.3,1.5s0.4,1.4,0.4,2.1c0,0.8-0.2,1.6-0.5,2.2c-0.3,0.6-0.8,1.1-1.4,1.4
			C159.8,16.6,159.1,16.7,158.2,16.7z M157.8,14.9c0.4,0,0.9-0.1,1.2-0.3s0.7-0.5,0.9-0.8s0.3-0.8,0.3-1.2c0-0.7-0.2-1.3-0.7-1.7
			s-1-0.7-1.7-0.7c-0.5,0-0.9,0.1-1.3,0.4s-0.7,0.6-0.8,1.1c0,0.3,0,0.6,0,0.9s0,0.6,0,0.9c0,0,0,0.1,0.1,0.2s0.1,0.2,0.1,0.2
			c0.2,0.4,0.5,0.7,0.8,0.9S157.4,14.9,157.8,14.9z"/>
	</g>
</g>
</svg>
