<?xml version="1.0" encoding="utf-8"?>
<!-- Generator: Adobe Illustrator 19.0.0, SVG Export Plug-In . SVG Version: 6.00 Build 0)  -->
<svg version="1.1" xmlns="http://www.w3.org/2000/svg" xmlns:xlink="http://www.w3.org/1999/xlink" x="0px" y="0px"
	 viewBox="0 0 107.3 26.3" style="enable-background:new 0 0 107.3 26.3;" xml:space="preserve">
<style type="text/css">
	.st0{display:none;}
	.st1{display:inline;}
	.st2{fill:#311D7C;}
	.st3{fill:#FFD45C;}
	.st4{fill:#FFFFFF;}
</style>
<g id="Layer_1" class="st0">
	<g id="XMLID_1_" class="st1">
		<g id="XMLID_2_">
			<path id="XMLID_3_" class="st2" d="M-94.9,24.9H-108c-2.8,0-5-2.2-5-5V6.5c0-2.8,2.2-5,5-5h13.1c2.8,0,5,2.2,5,5v13.4
				C-89.9,22.6-92.2,24.9-94.9,24.9z"/>
			<path id="XMLID_4_" class="st3" d="M-97.8,20.6h-7.3c-2,0-3.7-1.6-3.7-3.7V9.4c0-2,1.6-3.7,3.7-3.7h7.3c2,0,3.7,1.6,3.7,3.7v7.5
				C-94.2,18.9-95.8,20.6-97.8,20.6z"/>
			<path id="XMLID_5_" class="st2" d="M-102.5,17.7h-3.5c-0.6,0-1.1-0.5-1.1-1.1v0c0-0.6,0.5-1.1,1.1-1.1h3.5c0.6,0,1.1,0.5,1.1,1.1
				v0C-101.5,17.2-101.9,17.7-102.5,17.7z"/>
			<path id="XMLID_6_" class="st2" d="M-98.6,14.7h-7.4c-0.6,0-1.1-0.5-1.1-1.1v0c0-0.6,0.5-1.1,1.1-1.1h7.4c0.6,0,1.1,0.5,1.1,1.1
				v0C-97.5,14.3-98,14.7-98.6,14.7z"/>
		</g>
		<g>
			<path id="XMLID_702_" d="M-72,19c0,0-0.2-0.1-0.5-0.4s-0.7-0.7-1.2-1.1s-1-1-1.6-1.6c-0.6-0.6-1.2-1.1-1.7-1.7s-1.1-1.1-1.6-1.6
				s-0.9-0.9-1.2-1.1s-0.5-0.4-0.5-0.4c0,0,0,0-0.1,0.1s0,0.1,0,0.1c0,0.5,0,1.1,0,1.6s0,1.1,0,1.6c0,0.4,0,0.9,0,1.3
				c0,0.4,0,0.9,0,1.3c0,0.2,0,0.4,0,0.6s0,0.4,0,0.6c0,0.1,0,0.2-0.1,0.3s-0.1,0.1-0.3,0.1h-1.6c-0.2,0-0.4-0.1-0.4-0.4
				c0-0.3,0-0.7,0-1s0-0.7,0-1c0-0.7,0-1.3,0-2c0-0.7,0-1.3,0-2c0-0.7,0-1.4,0-2.1s0-1.4,0-2.1c0-0.3,0-0.7,0-1s0-0.7,0-1
				c0,0,0-0.1,0.1-0.1s0.1,0,0.1,0c1.4,1.3,2.8,2.6,4.1,4s2.7,2.7,4.1,4c0,0,0,0,0.1,0s0,0,0.1,0c0,0,0.1,0,0.1-0.1s0-0.1,0-0.1
				c0-0.5,0-1.1,0-1.6s0-1.1,0-1.6c0-0.5,0-0.9,0-1.4s0-0.9,0-1.4c0-0.2,0-0.4,0-0.6s0-0.4,0-0.6c0-0.1,0-0.2,0.1-0.3
				s0.1-0.1,0.3-0.1h1.5c0.2,0,0.4,0.1,0.4,0.4c0,0.3,0,0.6,0,0.9s0,0.6,0,0.9c0,0.6,0,1.3,0,1.9s0,1.3,0,1.9
				C-72.1,14.5-72.1,16.7-72,19L-72,19z"/>
			<path id="XMLID_704_" d="M-70.4,14.7c0-0.8,0.2-1.5,0.5-2.2s0.8-1.1,1.5-1.5s1.4-0.6,2.2-0.6c0.8,0,1.5,0.2,2.1,0.5
				c0.6,0.4,1.1,0.9,1.4,1.5s0.5,1.3,0.5,2.1c0,0.8-0.2,1.5-0.5,2.2s-0.8,1.1-1.4,1.5c-0.6,0.4-1.3,0.5-2.2,0.5
				c-0.8,0-1.5-0.2-2.2-0.5s-1.1-0.8-1.4-1.4S-70.4,15.5-70.4,14.7z M-66.3,12.2c-0.4,0-0.8,0.1-1.1,0.4s-0.5,0.5-0.7,0.9
				s-0.2,0.8-0.2,1.2c0,0.4,0.1,0.7,0.2,1.1c0.2,0.4,0.4,0.6,0.7,0.9s0.7,0.3,1.1,0.3c0.4,0,0.8-0.1,1.1-0.3s0.5-0.5,0.7-0.9
				c0.1-0.4,0.2-0.7,0.2-1.1c0-0.4-0.1-0.8-0.2-1.1s-0.4-0.7-0.7-0.9S-65.9,12.2-66.3,12.2z"/>
			<path id="XMLID_707_" d="M-60,10.5c0-0.5,0-1,0-1.5s0-1,0-1.5c0-0.2,0.1-0.4,0.4-0.4h1.4c0.2,0,0.4,0.1,0.4,0.4c0,0.5,0,1,0,1.5
				s0,1,0,1.5c0,0.1,0,0.1,0.1,0.1h1.4c0.2,0,0.4,0.1,0.4,0.4c0,0.2,0,0.4,0,0.5s0,0.4,0,0.6c0,0.2-0.1,0.4-0.4,0.4h-1.4
				c-0.1,0-0.1,0-0.1,0.1c0,0.9,0,1.9,0,2.8c0,0.9,0,1.9,0,2.8c0,0.2-0.1,0.4-0.4,0.4h-1.4c-0.2,0-0.4-0.1-0.4-0.4
				c0-0.9,0-1.9,0-2.8c0-0.9,0-1.9,0-2.8c0-0.1-0.1-0.1-0.2-0.1s-0.3,0-0.4,0s-0.3,0-0.4,0s-0.2-0.2-0.2-0.3V11
				c0-0.2,0.1-0.4,0.4-0.4h0.7C-60,10.6-60,10.6-60,10.5z"/>
			<path id="XMLID_709_" d="M-50.8,18.8c-0.9,0-1.6-0.2-2.2-0.5s-1.1-0.8-1.5-1.5s-0.5-1.4-0.5-2.2c0-0.8,0.2-1.5,0.5-2.2
				s0.8-1.1,1.4-1.5s1.3-0.6,2.1-0.6c1,0,1.8,0.3,2.4,0.9s1,1.3,1.2,2.3c0,0,0,0,0,0.1c0,0.1,0,0.2-0.1,0.2s-0.1,0.1-0.2,0.1
				c-0.2,0.1-0.4,0.2-0.6,0.2c-0.2,0.1-0.4,0.1-0.7,0.2c-0.6,0.2-1.2,0.5-1.9,0.7s-1.2,0.5-1.8,0.7c0,0-0.1,0.1-0.1,0.1
				c0,0,0,0,0,0.1c0.2,0.4,0.6,0.7,1,0.9s0.8,0.3,1.3,0.3c0.4,0,0.7-0.1,1-0.2s0.6-0.3,0.9-0.4c0,0,0.1,0,0.1-0.1s0.1,0,0.1,0
				c0.1,0,0.1,0,0.2,0.1s0.1,0.1,0.1,0.2c0,0,0.1,0.1,0.1,0.3s0.1,0.3,0.2,0.4s0.1,0.2,0.1,0.3c0,0.1,0,0.1-0.1,0.2
				s-0.1,0.1-0.1,0.1c-0.4,0.3-0.9,0.5-1.5,0.7S-50.3,18.8-50.8,18.8z M-53,14.5c0.6-0.2,1.2-0.4,1.8-0.6s1.2-0.4,1.8-0.6
				c-0.1-0.3-0.4-0.6-0.6-0.8s-0.6-0.4-1-0.4c-0.4,0-0.8,0.1-1.1,0.4s-0.5,0.5-0.7,0.9S-53,14.1-53,14.5z"/>
			<path id="XMLID_712_" d="M-43.9,6.3c0.2,0,0.3,0.1,0.4,0.4c0,0.3,0,0.5,0,0.8s0,0.5,0,0.8c0,0.6,0,1.1,0,1.7s0,1.1,0,1.7
				c0,0.1,0,0.1,0.1,0.1h0c2-0.5,3.3-1.8,4.1-3.7c0.1-0.2,0.2-0.4,0.2-0.7s0.1-0.5,0.2-0.7c0-0.1,0.1-0.2,0.1-0.2s0.1-0.1,0.2-0.1
				h1.5c0.1,0,0.2,0,0.3,0.1s0.1,0.1,0.1,0.2c0,0.1,0,0.1,0,0.1c-0.2,1-0.6,1.9-1.1,2.8s-1.1,1.6-2,2.3c-0.2,0.1-0.3,0.2-0.5,0.4
				s-0.3,0.2-0.5,0.3c0,0-0.1,0-0.1,0.1c0,0,0.1,0.2,0.3,0.4s0.4,0.6,0.7,0.9c0.3,0.4,0.6,0.8,0.9,1.2s0.6,0.8,0.9,1.3
				c0.3,0.4,0.6,0.8,0.8,1s0.4,0.5,0.4,0.6c0,0,0.1,0.1,0.1,0.2s0.1,0.1,0.1,0.2c0,0.1-0.1,0.2-0.2,0.2s-0.2,0-0.3,0h-1.7
				c-0.1,0-0.2,0-0.3-0.1c-0.2-0.2-0.3-0.4-0.5-0.6s-0.3-0.4-0.5-0.7c-0.3-0.4-0.6-0.8-0.9-1.2c-0.3-0.4-0.6-0.8-0.9-1.2
				c-0.2-0.2-0.3-0.4-0.5-0.7s-0.3-0.4-0.5-0.6c0,0-0.1,0-0.1,0c-0.1,0-0.1,0-0.2,0s-0.2,0-0.2,0s-0.1,0-0.1,0.1c0,0.5,0,1.1,0,1.6
				s0,1.1,0,1.6c0,0.3,0,0.5,0,0.8s0,0.5,0,0.8c0,0.2-0.1,0.4-0.4,0.4h-1.5c-0.2,0-0.4-0.1-0.4-0.4c0-0.3,0-0.6,0-1s0-0.6,0-1
				c0-1.3,0-2.7,0-4c0-1.3,0-2.6,0-3.8c0-0.3,0-0.6,0-0.9s0-0.6,0-0.9c0-0.2,0.1-0.4,0.4-0.4H-43.9z"/>
			<path id="XMLID_714_" d="M-31.4,18.8c-0.9,0-1.6-0.2-2.2-0.5s-1.1-0.8-1.5-1.5s-0.5-1.4-0.5-2.2c0-0.8,0.2-1.5,0.5-2.2
				s0.8-1.1,1.4-1.5s1.3-0.6,2.1-0.6c1,0,1.8,0.3,2.4,0.9s1,1.3,1.2,2.3c0,0,0,0,0,0.1c0,0.1,0,0.2-0.1,0.2s-0.1,0.1-0.2,0.1
				c-0.2,0.1-0.4,0.2-0.6,0.2c-0.2,0.1-0.4,0.1-0.7,0.2c-0.6,0.2-1.2,0.5-1.9,0.7c-0.6,0.2-1.2,0.5-1.8,0.7c0,0-0.1,0.1-0.1,0.1
				c0,0,0,0,0,0.1c0.2,0.4,0.6,0.7,1,0.9c0.4,0.2,0.8,0.3,1.3,0.3c0.4,0,0.7-0.1,1-0.2s0.6-0.3,0.9-0.4c0,0,0.1,0,0.1-0.1
				s0.1,0,0.1,0c0.1,0,0.1,0,0.2,0.1s0.1,0.1,0.1,0.2c0,0,0.1,0.1,0.1,0.3s0.1,0.3,0.2,0.4s0.1,0.2,0.1,0.3c0,0.1,0,0.1-0.1,0.2
				s-0.1,0.1-0.1,0.1c-0.4,0.3-0.9,0.5-1.5,0.7S-30.9,18.8-31.4,18.8z M-33.6,14.5c0.6-0.2,1.2-0.4,1.8-0.6c0.6-0.2,1.2-0.4,1.8-0.6
				c-0.1-0.3-0.4-0.6-0.6-0.8s-0.6-0.4-1-0.4c-0.4,0-0.8,0.1-1.1,0.4s-0.5,0.5-0.7,0.9S-33.6,14.1-33.6,14.5z"/>
			<path id="XMLID_717_" d="M-22.7,18.8c-0.9,0-1.6-0.2-2.2-0.5s-1.1-0.8-1.5-1.5s-0.5-1.4-0.5-2.2c0-0.8,0.2-1.5,0.5-2.2
				s0.8-1.1,1.4-1.5s1.3-0.6,2.1-0.6c1,0,1.8,0.3,2.4,0.9s1,1.3,1.2,2.3c0,0,0,0,0,0.1c0,0.1,0,0.2-0.1,0.2s-0.1,0.1-0.2,0.1
				c-0.2,0.1-0.4,0.2-0.6,0.2c-0.2,0.1-0.4,0.1-0.7,0.2c-0.6,0.2-1.2,0.5-1.9,0.7s-1.2,0.5-1.8,0.7c0,0-0.1,0.1-0.1,0.1
				c0,0,0,0,0,0.1c0.2,0.4,0.6,0.7,1,0.9s0.8,0.3,1.3,0.3c0.4,0,0.7-0.1,1-0.2s0.6-0.3,0.9-0.4c0,0,0.1,0,0.1-0.1s0.1,0,0.1,0
				c0.1,0,0.1,0,0.2,0.1s0.1,0.1,0.1,0.2c0,0,0.1,0.1,0.1,0.3s0.1,0.3,0.2,0.4s0.1,0.2,0.1,0.3c0,0.1,0,0.1-0.1,0.2
				s-0.1,0.1-0.1,0.1c-0.4,0.3-0.9,0.5-1.5,0.7S-22.2,18.8-22.7,18.8z M-24.9,14.5c0.6-0.2,1.2-0.4,1.8-0.6s1.2-0.4,1.8-0.6
				c-0.1-0.3-0.4-0.6-0.6-0.8s-0.6-0.4-1-0.4c-0.4,0-0.8,0.1-1.1,0.4s-0.5,0.5-0.7,0.9S-24.9,14.1-24.9,14.5z"/>
			<path id="XMLID_720_" d="M-13.3,18.8c-0.4,0-0.9-0.1-1.3-0.2s-0.8-0.4-1.1-0.7c0,0,0,0-0.1,0s0,0-0.1,0s0,0-0.1,0.1s0,0.1,0,0.1
				c0,0.4,0,0.8,0,1.2s0,0.8,0,1.2c0,0.1,0,0.3,0,0.4s0,0.3,0,0.4c0,0.1,0,0.2-0.1,0.3c0,0.1-0.1,0.1-0.3,0.1h-1.4
				c-0.2,0-0.4-0.1-0.4-0.4c0-0.5,0-0.9,0-1.4s0-0.9,0-1.4c0-1,0-1.9,0.1-2.9c0-1,0-1.9,0-2.9c0-0.3,0-0.6,0-0.9s0-0.6,0-0.9
				c0-0.2,0.1-0.4,0.4-0.4h1.1c0.2,0,0.3,0.1,0.3,0.2s0.1,0.3,0.1,0.4s0,0.2,0.1,0.2c0,0,0.1,0,0.1,0c0.4-0.3,0.9-0.6,1.3-0.8
				s1-0.3,1.5-0.3c0.8,0,1.5,0.2,2.1,0.6s1,0.9,1.3,1.5s0.4,1.4,0.4,2.1c0,0.8-0.2,1.6-0.5,2.2s-0.8,1.1-1.4,1.4
				S-12.5,18.8-13.3,18.8z M-13.7,17c0.4,0,0.9-0.1,1.2-0.3s0.7-0.5,0.9-0.8c0.2-0.4,0.3-0.8,0.3-1.2c0-0.7-0.2-1.3-0.7-1.7
				s-1-0.7-1.7-0.7c-0.5,0-0.9,0.1-1.3,0.4s-0.7,0.6-0.8,1.1c0,0.3,0,0.6,0,0.9s0,0.6,0,0.9c0,0,0,0.1,0.1,0.2s0.1,0.2,0.1,0.2
				c0.2,0.4,0.5,0.7,0.8,0.9S-14.1,17-13.7,17z"/>
		</g>
		<g id="XMLID_7_">
			<path id="XMLID_637_" d="M-72,19c0,0-0.2-0.1-0.5-0.4s-0.7-0.7-1.2-1.1s-1-1-1.6-1.6c-0.6-0.6-1.2-1.1-1.7-1.7s-1.1-1.1-1.6-1.6
				s-0.9-0.9-1.2-1.1s-0.5-0.4-0.5-0.4c0,0,0,0-0.1,0.1s0,0.1,0,0.1c0,0.5,0,1.1,0,1.6s0,1.1,0,1.6c0,0.4,0,0.9,0,1.3
				c0,0.4,0,0.9,0,1.3c0,0.2,0,0.4,0,0.6s0,0.4,0,0.6c0,0.1,0,0.2-0.1,0.3s-0.1,0.1-0.3,0.1h-1.6c-0.2,0-0.4-0.1-0.4-0.4
				c0-0.3,0-0.7,0-1s0-0.7,0-1c0-0.7,0-1.3,0-2c0-0.7,0-1.3,0-2c0-0.7,0-1.4,0-2.1s0-1.4,0-2.1c0-0.3,0-0.7,0-1s0-0.7,0-1
				c0,0,0-0.1,0.1-0.1s0.1,0,0.1,0c1.4,1.3,2.8,2.6,4.1,4s2.7,2.7,4.1,4c0,0,0,0,0.1,0s0,0,0.1,0c0,0,0.1,0,0.1-0.1s0-0.1,0-0.1
				c0-0.5,0-1.1,0-1.6s0-1.1,0-1.6c0-0.5,0-0.9,0-1.4s0-0.9,0-1.4c0-0.2,0-0.4,0-0.6s0-0.4,0-0.6c0-0.1,0-0.2,0.1-0.3
				s0.1-0.1,0.3-0.1h1.5c0.2,0,0.4,0.1,0.4,0.4c0,0.3,0,0.6,0,0.9s0,0.6,0,0.9c0,0.6,0,1.3,0,1.9s0,1.3,0,1.9
				C-72.1,14.5-72.1,16.7-72,19L-72,19z"/>
			<path id="XMLID_639_" d="M-70.4,14.7c0-0.8,0.2-1.5,0.5-2.2s0.8-1.1,1.5-1.5s1.4-0.6,2.2-0.6c0.8,0,1.5,0.2,2.1,0.5
				c0.6,0.4,1.1,0.9,1.4,1.5s0.5,1.3,0.5,2.1c0,0.8-0.2,1.5-0.5,2.2s-0.8,1.1-1.4,1.5c-0.6,0.4-1.3,0.5-2.2,0.5
				c-0.8,0-1.5-0.2-2.2-0.5s-1.1-0.8-1.4-1.4S-70.4,15.5-70.4,14.7z M-66.3,12.2c-0.4,0-0.8,0.1-1.1,0.4s-0.5,0.5-0.7,0.9
				s-0.2,0.8-0.2,1.2c0,0.4,0.1,0.7,0.2,1.1c0.2,0.4,0.4,0.6,0.7,0.9s0.7,0.3,1.1,0.3c0.4,0,0.8-0.1,1.1-0.3s0.5-0.5,0.7-0.9
				c0.1-0.4,0.2-0.7,0.2-1.1c0-0.4-0.1-0.8-0.2-1.1s-0.4-0.7-0.7-0.9S-65.9,12.2-66.3,12.2z"/>
			<path id="XMLID_642_" d="M-60,10.5c0-0.5,0-1,0-1.5s0-1,0-1.5c0-0.2,0.1-0.4,0.4-0.4h1.4c0.2,0,0.4,0.1,0.4,0.4c0,0.5,0,1,0,1.5
				s0,1,0,1.5c0,0.1,0,0.1,0.1,0.1h1.4c0.2,0,0.4,0.1,0.4,0.4c0,0.2,0,0.4,0,0.5s0,0.4,0,0.6c0,0.2-0.1,0.4-0.4,0.4h-1.4
				c-0.1,0-0.1,0-0.1,0.1c0,0.9,0,1.9,0,2.8c0,0.9,0,1.9,0,2.8c0,0.2-0.1,0.4-0.4,0.4h-1.4c-0.2,0-0.4-0.1-0.4-0.4
				c0-0.9,0-1.9,0-2.8c0-0.9,0-1.9,0-2.8c0-0.1-0.1-0.1-0.2-0.1s-0.3,0-0.4,0s-0.3,0-0.4,0s-0.2-0.2-0.2-0.3V11
				c0-0.2,0.1-0.4,0.4-0.4h0.7C-60,10.6-60,10.6-60,10.5z"/>
			<path id="XMLID_644_" d="M-50.8,18.8c-0.9,0-1.6-0.2-2.2-0.5s-1.1-0.8-1.5-1.5s-0.5-1.4-0.5-2.2c0-0.8,0.2-1.5,0.5-2.2
				s0.8-1.1,1.4-1.5s1.3-0.6,2.1-0.6c1,0,1.8,0.3,2.4,0.9s1,1.3,1.2,2.3c0,0,0,0,0,0.1c0,0.1,0,0.2-0.1,0.2s-0.1,0.1-0.2,0.1
				c-0.2,0.1-0.4,0.2-0.6,0.2c-0.2,0.1-0.4,0.1-0.7,0.2c-0.6,0.2-1.2,0.5-1.9,0.7s-1.2,0.5-1.8,0.7c0,0-0.1,0.1-0.1,0.1
				c0,0,0,0,0,0.1c0.2,0.4,0.6,0.7,1,0.9s0.8,0.3,1.3,0.3c0.4,0,0.7-0.1,1-0.2s0.6-0.3,0.9-0.4c0,0,0.1,0,0.1-0.1s0.1,0,0.1,0
				c0.1,0,0.1,0,0.2,0.1s0.1,0.1,0.1,0.2c0,0,0.1,0.1,0.1,0.3s0.1,0.3,0.2,0.4s0.1,0.2,0.1,0.3c0,0.1,0,0.1-0.1,0.2
				s-0.1,0.1-0.1,0.1c-0.4,0.3-0.9,0.5-1.5,0.7S-50.3,18.8-50.8,18.8z M-53,14.5c0.6-0.2,1.2-0.4,1.8-0.6s1.2-0.4,1.8-0.6
				c-0.1-0.3-0.4-0.6-0.6-0.8s-0.6-0.4-1-0.4c-0.4,0-0.8,0.1-1.1,0.4s-0.5,0.5-0.7,0.9S-53,14.1-53,14.5z"/>
			<path id="XMLID_647_" d="M-43.9,6.3c0.2,0,0.3,0.1,0.4,0.4c0,0.3,0,0.5,0,0.8s0,0.5,0,0.8c0,0.6,0,1.1,0,1.7s0,1.1,0,1.7
				c0,0.1,0,0.1,0.1,0.1h0c2-0.5,3.3-1.8,4.1-3.7c0.1-0.2,0.2-0.4,0.2-0.7s0.1-0.5,0.2-0.7c0-0.1,0.1-0.2,0.1-0.2s0.1-0.1,0.2-0.1
				h1.5c0.1,0,0.2,0,0.3,0.1s0.1,0.1,0.1,0.2c0,0.1,0,0.1,0,0.1c-0.2,1-0.6,1.9-1.1,2.8s-1.1,1.6-2,2.3c-0.2,0.1-0.3,0.2-0.5,0.4
				s-0.3,0.2-0.5,0.3c0,0-0.1,0-0.1,0.1c0,0,0.1,0.2,0.3,0.4s0.4,0.6,0.7,0.9c0.3,0.4,0.6,0.8,0.9,1.2s0.6,0.8,0.9,1.3
				c0.3,0.4,0.6,0.8,0.8,1s0.4,0.5,0.4,0.6c0,0,0.1,0.1,0.1,0.2s0.1,0.1,0.1,0.2c0,0.1-0.1,0.2-0.2,0.2s-0.2,0-0.3,0h-1.7
				c-0.1,0-0.2,0-0.3-0.1c-0.2-0.2-0.3-0.4-0.5-0.6s-0.3-0.4-0.5-0.7c-0.3-0.4-0.6-0.8-0.9-1.2c-0.3-0.4-0.6-0.8-0.9-1.2
				c-0.2-0.2-0.3-0.4-0.5-0.7s-0.3-0.4-0.5-0.6c0,0-0.1,0-0.1,0c-0.1,0-0.1,0-0.2,0s-0.2,0-0.2,0s-0.1,0-0.1,0.1c0,0.5,0,1.1,0,1.6
				s0,1.1,0,1.6c0,0.3,0,0.5,0,0.8s0,0.5,0,0.8c0,0.2-0.1,0.4-0.4,0.4h-1.5c-0.2,0-0.4-0.1-0.4-0.4c0-0.3,0-0.6,0-1s0-0.6,0-1
				c0-1.3,0-2.7,0-4c0-1.3,0-2.6,0-3.8c0-0.3,0-0.6,0-0.9s0-0.6,0-0.9c0-0.2,0.1-0.4,0.4-0.4H-43.9z"/>
			<path id="XMLID_649_" d="M-31.4,18.8c-0.9,0-1.6-0.2-2.2-0.5s-1.1-0.8-1.5-1.5s-0.5-1.4-0.5-2.2c0-0.8,0.2-1.5,0.5-2.2
				s0.8-1.1,1.4-1.5s1.3-0.6,2.1-0.6c1,0,1.8,0.3,2.4,0.9s1,1.3,1.2,2.3c0,0,0,0,0,0.1c0,0.1,0,0.2-0.1,0.2s-0.1,0.1-0.2,0.1
				c-0.2,0.1-0.4,0.2-0.6,0.2c-0.2,0.1-0.4,0.1-0.7,0.2c-0.6,0.2-1.2,0.5-1.9,0.7c-0.6,0.2-1.2,0.5-1.8,0.7c0,0-0.1,0.1-0.1,0.1
				c0,0,0,0,0,0.1c0.2,0.4,0.6,0.7,1,0.9c0.4,0.2,0.8,0.3,1.3,0.3c0.4,0,0.7-0.1,1-0.2s0.6-0.3,0.9-0.4c0,0,0.1,0,0.1-0.1
				s0.1,0,0.1,0c0.1,0,0.1,0,0.2,0.1s0.1,0.1,0.1,0.2c0,0,0.1,0.1,0.1,0.3s0.1,0.3,0.2,0.4s0.1,0.2,0.1,0.3c0,0.1,0,0.1-0.1,0.2
				s-0.1,0.1-0.1,0.1c-0.4,0.3-0.9,0.5-1.5,0.7S-30.9,18.8-31.4,18.8z M-33.6,14.5c0.6-0.2,1.2-0.4,1.8-0.6c0.6-0.2,1.2-0.4,1.8-0.6
				c-0.1-0.3-0.4-0.6-0.6-0.8s-0.6-0.4-1-0.4c-0.4,0-0.8,0.1-1.1,0.4s-0.5,0.5-0.7,0.9S-33.6,14.1-33.6,14.5z"/>
			<path id="XMLID_652_" d="M-22.7,18.8c-0.9,0-1.6-0.2-2.2-0.5s-1.1-0.8-1.5-1.5s-0.5-1.4-0.5-2.2c0-0.8,0.2-1.5,0.5-2.2
				s0.8-1.1,1.4-1.5s1.3-0.6,2.1-0.6c1,0,1.8,0.3,2.4,0.9s1,1.3,1.2,2.3c0,0,0,0,0,0.1c0,0.1,0,0.2-0.1,0.2s-0.1,0.1-0.2,0.1
				c-0.2,0.1-0.4,0.2-0.6,0.2c-0.2,0.1-0.4,0.1-0.7,0.2c-0.6,0.2-1.2,0.5-1.9,0.7s-1.2,0.5-1.8,0.7c0,0-0.1,0.1-0.1,0.1
				c0,0,0,0,0,0.1c0.2,0.4,0.6,0.7,1,0.9s0.8,0.3,1.3,0.3c0.4,0,0.7-0.1,1-0.2s0.6-0.3,0.9-0.4c0,0,0.1,0,0.1-0.1s0.1,0,0.1,0
				c0.1,0,0.1,0,0.2,0.1s0.1,0.1,0.1,0.2c0,0,0.1,0.1,0.1,0.3s0.1,0.3,0.2,0.4s0.1,0.2,0.1,0.3c0,0.1,0,0.1-0.1,0.2
				s-0.1,0.1-0.1,0.1c-0.4,0.3-0.9,0.5-1.5,0.7S-22.2,18.8-22.7,18.8z M-24.9,14.5c0.6-0.2,1.2-0.4,1.8-0.6s1.2-0.4,1.8-0.6
				c-0.1-0.3-0.4-0.6-0.6-0.8s-0.6-0.4-1-0.4c-0.4,0-0.8,0.1-1.1,0.4s-0.5,0.5-0.7,0.9S-24.9,14.1-24.9,14.5z"/>
			<path id="XMLID_655_" d="M-13.3,18.8c-0.4,0-0.9-0.1-1.3-0.2s-0.8-0.4-1.1-0.7c0,0,0,0-0.1,0s0,0-0.1,0s0,0-0.1,0.1s0,0.1,0,0.1
				c0,0.4,0,0.8,0,1.2s0,0.8,0,1.2c0,0.1,0,0.3,0,0.4s0,0.3,0,0.4c0,0.1,0,0.2-0.1,0.3c0,0.1-0.1,0.1-0.3,0.1h-1.4
				c-0.2,0-0.4-0.1-0.4-0.4c0-0.5,0-0.9,0-1.4s0-0.9,0-1.4c0-1,0-1.9,0.1-2.9c0-1,0-1.9,0-2.9c0-0.3,0-0.6,0-0.9s0-0.6,0-0.9
				c0-0.2,0.1-0.4,0.4-0.4h1.1c0.2,0,0.3,0.1,0.3,0.2s0.1,0.3,0.1,0.4s0,0.2,0.1,0.2c0,0,0.1,0,0.1,0c0.4-0.3,0.9-0.6,1.3-0.8
				s1-0.3,1.5-0.3c0.8,0,1.5,0.2,2.1,0.6s1,0.9,1.3,1.5s0.4,1.4,0.4,2.1c0,0.8-0.2,1.6-0.5,2.2s-0.8,1.1-1.4,1.4
				S-12.5,18.8-13.3,18.8z M-13.7,17c0.4,0,0.9-0.1,1.2-0.3s0.7-0.5,0.9-0.8c0.2-0.4,0.3-0.8,0.3-1.2c0-0.7-0.2-1.3-0.7-1.7
				s-1-0.7-1.7-0.7c-0.5,0-0.9,0.1-1.3,0.4s-0.7,0.6-0.8,1.1c0,0.3,0,0.6,0,0.9s0,0.6,0,0.9c0,0,0,0.1,0.1,0.2s0.1,0.2,0.1,0.2
				c0.2,0.4,0.5,0.7,0.8,0.9S-14.1,17-13.7,17z"/>
		</g>
	</g>
</g>
<g id="Layer_2">
	<g id="XMLID_126_">
		<g id="XMLID_128_">
			<path id="XMLID_132_" class="st2" d="M19.6,24.9H6.5c-2.8,0-5-2.2-5-5V6.5c0-2.8,2.2-5,5-5h13.1c2.8,0,5,2.2,5,5v13.4
				C24.6,22.6,22.3,24.9,19.6,24.9z"/>
			<path id="XMLID_131_" class="st3" d="M16.7,20.6H9.4c-2,0-3.7-1.6-3.7-3.7V9.4c0-2,1.6-3.7,3.7-3.7h7.3c2,0,3.7,1.6,3.7,3.7v7.5
				C20.3,18.9,18.7,20.6,16.7,20.6z"/>
			<path id="XMLID_130_" class="st2" d="M12,17.7H8.5c-0.6,0-1.1-0.5-1.1-1.1v0c0-0.6,0.5-1.1,1.1-1.1H12c0.6,0,1.1,0.5,1.1,1.1v0
				C13,17.2,12.6,17.7,12,17.7z"/>
			<path id="XMLID_129_" class="st2" d="M15.9,14.7H8.5c-0.6,0-1.1-0.5-1.1-1.1v0c0-0.6,0.5-1.1,1.1-1.1h7.4c0.6,0,1.1,0.5,1.1,1.1
				v0C17,14.3,16.5,14.7,15.9,14.7z"/>
		</g>
		<g id="XMLID_701_">
			<path id="XMLID_723_" class="st4" d="M42.5,19c0,0-0.2-0.1-0.5-0.4s-0.7-0.7-1.2-1.1s-1-1-1.6-1.6c-0.6-0.6-1.2-1.1-1.8-1.7
				s-1.1-1.1-1.6-1.6s-0.9-0.9-1.2-1.1S34.1,11,34.1,11c0,0,0,0-0.1,0.1s0,0.1,0,0.1c0,0.5,0,1.1,0,1.6s0,1.1,0,1.6
				c0,0.4,0,0.9,0,1.3c0,0.4,0,0.9,0,1.3c0,0.2,0,0.4,0,0.6s0,0.4,0,0.6c0,0.1,0,0.2-0.1,0.3s-0.1,0.1-0.3,0.1h-1.6
				c-0.2,0-0.4-0.1-0.4-0.4c0-0.3,0-0.7,0-1s0-0.7,0-1c0-0.7,0-1.3,0-2c0-0.7,0-1.3,0-2c0-0.7,0-1.4,0-2.1s0-1.4,0-2.1
				c0-0.3,0-0.7,0-1s0-0.7,0-1c0,0,0-0.1,0.1-0.1s0.1,0,0.1,0c1.4,1.3,2.8,2.6,4.1,4s2.7,2.7,4.1,4c0,0,0,0,0.1,0s0,0,0.1,0
				c0,0,0.1,0,0.1-0.1s0-0.1,0-0.1c0-0.5,0-1.1,0-1.6s0-1.1,0-1.6c0-0.5,0-0.9,0-1.4s0-0.9,0-1.4c0-0.2,0-0.4,0-0.6s0-0.4,0-0.6
				c0-0.1,0-0.2,0.1-0.3s0.1-0.1,0.3-0.1h1.5c0.2,0,0.4,0.1,0.4,0.4c0,0.3,0,0.6,0,0.9s0,0.6,0,0.9c0,0.6,0,1.3,0,1.9s0,1.3,0,1.9
				C42.4,14.5,42.4,16.7,42.5,19L42.5,19z"/>
			<path id="XMLID_725_" class="st4" d="M44.1,14.7c0-0.8,0.2-1.5,0.5-2.2s0.8-1.1,1.5-1.5s1.4-0.6,2.2-0.6c0.8,0,1.5,0.2,2.1,0.5
				s1.1,0.9,1.4,1.5s0.5,1.3,0.5,2.1c0,0.8-0.2,1.5-0.5,2.2s-0.8,1.1-1.4,1.5s-1.3,0.5-2.2,0.5c-0.8,0-1.5-0.2-2.2-0.5
				s-1.1-0.8-1.4-1.4S44.1,15.5,44.1,14.7z M48.2,12.2c-0.4,0-0.8,0.1-1.1,0.4s-0.5,0.5-0.7,0.9s-0.2,0.8-0.2,1.2
				c0,0.4,0.1,0.7,0.2,1.1c0.2,0.4,0.4,0.6,0.7,0.9s0.7,0.3,1.1,0.3c0.4,0,0.8-0.1,1.1-0.3s0.5-0.5,0.7-0.9c0.1-0.4,0.2-0.7,0.2-1.1
				c0-0.4-0.1-0.8-0.2-1.1s-0.4-0.7-0.7-0.9S48.6,12.2,48.2,12.2z"/>
			<path id="XMLID_728_" class="st4" d="M54.5,10.5c0-0.5,0-1,0-1.5s0-1,0-1.5c0-0.2,0.1-0.4,0.4-0.4h1.4c0.2,0,0.4,0.1,0.4,0.4
				c0,0.5,0,1,0,1.5s0,1,0,1.5c0,0.1,0,0.1,0.1,0.1h1.4c0.2,0,0.4,0.1,0.4,0.4c0,0.2,0,0.4,0,0.5s0,0.4,0,0.6c0,0.2-0.1,0.4-0.4,0.4
				h-1.4c-0.1,0-0.1,0-0.1,0.1c0,0.9,0,1.9,0,2.8c0,0.9,0,1.9,0,2.8c0,0.2-0.1,0.4-0.4,0.4h-1.4c-0.2,0-0.4-0.1-0.4-0.4
				c0-0.9,0-1.9,0-2.8c0-0.9,0-1.9,0-2.8c0-0.1-0.1-0.1-0.2-0.1s-0.3,0-0.4,0s-0.3,0-0.4,0s-0.2-0.2-0.2-0.3V11
				c0-0.2,0.1-0.4,0.4-0.4h0.7C54.5,10.6,54.5,10.6,54.5,10.5z"/>
			<path id="XMLID_730_" class="st4" d="M63.7,18.8c-0.9,0-1.6-0.2-2.2-0.5s-1.1-0.8-1.5-1.5s-0.5-1.4-0.5-2.2
				c0-0.8,0.2-1.5,0.5-2.2s0.8-1.1,1.4-1.5s1.3-0.6,2.1-0.6c1,0,1.8,0.3,2.4,0.9s1,1.3,1.2,2.3c0,0,0,0,0,0.1c0,0.1,0,0.2-0.1,0.2
				s-0.1,0.1-0.2,0.1c-0.2,0.1-0.4,0.2-0.6,0.2c-0.2,0.1-0.4,0.1-0.7,0.2c-0.6,0.2-1.2,0.5-1.9,0.7c-0.6,0.2-1.2,0.5-1.8,0.7
				c0,0-0.1,0.1-0.1,0.1c0,0,0,0,0,0.1c0.2,0.4,0.6,0.7,1,0.9s0.8,0.3,1.3,0.3c0.4,0,0.7-0.1,1-0.2s0.6-0.3,0.9-0.4
				c0,0,0.1,0,0.1-0.1s0.1,0,0.1,0c0.1,0,0.1,0,0.2,0.1s0.1,0.1,0.1,0.2c0,0,0.1,0.1,0.1,0.3s0.1,0.3,0.2,0.4s0.1,0.2,0.1,0.3
				c0,0.1,0,0.1-0.1,0.2s-0.1,0.1-0.1,0.1c-0.4,0.3-0.9,0.5-1.5,0.7S64.2,18.8,63.7,18.8z M61.5,14.5c0.6-0.2,1.2-0.4,1.8-0.6
				s1.2-0.4,1.8-0.6c-0.1-0.3-0.3-0.6-0.6-0.8s-0.6-0.4-1-0.4c-0.4,0-0.8,0.1-1.1,0.4s-0.5,0.5-0.7,0.9S61.5,14.1,61.5,14.5z"/>
			<path id="XMLID_733_" class="st4" d="M70.6,6.3c0.2,0,0.3,0.1,0.4,0.4c0,0.3,0,0.5,0,0.8s0,0.5,0,0.8c0,0.6,0,1.1,0,1.7
				s0,1.1,0,1.7c0,0.1,0,0.1,0.1,0.1h0c2-0.5,3.3-1.8,4.1-3.7c0.1-0.2,0.2-0.4,0.2-0.7s0.1-0.5,0.2-0.7c0-0.1,0.1-0.2,0.1-0.2
				s0.1-0.1,0.2-0.1h1.5c0.1,0,0.2,0,0.3,0.1s0.1,0.1,0.1,0.2c0,0.1,0,0.1,0,0.1c-0.2,1-0.6,1.9-1.1,2.8s-1.1,1.6-2,2.3
				c-0.2,0.1-0.3,0.2-0.5,0.4s-0.3,0.2-0.5,0.3c0,0-0.1,0-0.1,0.1c0,0,0.1,0.2,0.3,0.4s0.4,0.6,0.7,0.9c0.3,0.4,0.6,0.8,0.9,1.2
				s0.6,0.8,0.9,1.3c0.3,0.4,0.6,0.8,0.8,1s0.4,0.5,0.4,0.6c0,0,0.1,0.1,0.1,0.2s0.1,0.1,0.1,0.2c0,0.1-0.1,0.2-0.2,0.2
				s-0.2,0-0.3,0h-1.7c-0.1,0-0.2,0-0.3-0.1c-0.2-0.2-0.3-0.4-0.5-0.6s-0.3-0.4-0.5-0.7c-0.3-0.4-0.6-0.8-0.9-1.2
				c-0.3-0.4-0.6-0.8-0.9-1.2c-0.2-0.2-0.3-0.4-0.5-0.7s-0.3-0.4-0.5-0.6c0,0-0.1,0-0.1,0c-0.1,0-0.1,0-0.2,0s-0.2,0-0.2,0
				s-0.1,0-0.1,0.1c0,0.5,0,1.1,0,1.6s0,1.1,0,1.6c0,0.3,0,0.5,0,0.8s0,0.5,0,0.8c0,0.2-0.1,0.4-0.4,0.4h-1.5
				c-0.2,0-0.4-0.1-0.4-0.4c0-0.3,0-0.6,0-1s0-0.6,0-1c0-1.3,0-2.7,0-4c0-1.3,0-2.6,0-3.8c0-0.3,0-0.6,0-0.9s0-0.6,0-0.9
				c0-0.2,0.1-0.4,0.4-0.4H70.6z"/>
			<path id="XMLID_735_" class="st4" d="M83.1,18.8c-0.9,0-1.6-0.2-2.2-0.5s-1.1-0.8-1.5-1.5s-0.5-1.4-0.5-2.2
				c0-0.8,0.2-1.5,0.5-2.2s0.8-1.1,1.4-1.5s1.3-0.6,2.1-0.6c1,0,1.8,0.3,2.4,0.9s1,1.3,1.2,2.3c0,0,0,0,0,0.1c0,0.1,0,0.2-0.1,0.2
				s-0.1,0.1-0.2,0.1c-0.2,0.1-0.4,0.2-0.6,0.2c-0.2,0.1-0.4,0.1-0.7,0.2c-0.6,0.2-1.2,0.5-1.9,0.7s-1.2,0.5-1.8,0.7
				c0,0-0.1,0.1-0.1,0.1c0,0,0,0,0,0.1c0.2,0.4,0.6,0.7,1,0.9s0.8,0.3,1.3,0.3c0.4,0,0.7-0.1,1-0.2s0.6-0.3,0.9-0.4
				c0,0,0.1,0,0.1-0.1s0.1,0,0.1,0c0.1,0,0.1,0,0.2,0.1s0.1,0.1,0.1,0.2c0,0,0.1,0.1,0.1,0.3s0.1,0.3,0.2,0.4s0.1,0.2,0.1,0.3
				c0,0.1,0,0.1-0.1,0.2s-0.1,0.1-0.1,0.1c-0.4,0.3-0.9,0.5-1.5,0.7S83.6,18.8,83.1,18.8z M80.9,14.5c0.6-0.2,1.2-0.4,1.8-0.6
				s1.2-0.4,1.8-0.6c-0.1-0.3-0.3-0.6-0.6-0.8s-0.6-0.4-1-0.4c-0.4,0-0.8,0.1-1.1,0.4s-0.5,0.5-0.7,0.9S80.9,14.1,80.9,14.5z"/>
			<path id="XMLID_738_" class="st4" d="M91.8,18.8c-0.9,0-1.6-0.2-2.2-0.5s-1.1-0.8-1.5-1.5s-0.5-1.4-0.5-2.2
				c0-0.8,0.2-1.5,0.5-2.2s0.8-1.1,1.4-1.5s1.3-0.6,2.1-0.6c1,0,1.8,0.3,2.4,0.9s1,1.3,1.2,2.3c0,0,0,0,0,0.1c0,0.1,0,0.2-0.1,0.2
				s-0.1,0.1-0.2,0.1c-0.2,0.1-0.4,0.2-0.6,0.2c-0.2,0.1-0.4,0.1-0.7,0.2c-0.6,0.2-1.2,0.5-1.9,0.7s-1.2,0.5-1.8,0.7
				c0,0-0.1,0.1-0.1,0.1c0,0,0,0,0,0.1c0.2,0.4,0.6,0.7,1,0.9s0.8,0.3,1.3,0.3c0.4,0,0.7-0.1,1-0.2s0.6-0.3,0.9-0.4
				c0,0,0.1,0,0.1-0.1s0.1,0,0.1,0c0.1,0,0.1,0,0.2,0.1s0.1,0.1,0.1,0.2c0,0,0.1,0.1,0.1,0.3s0.1,0.3,0.2,0.4s0.1,0.2,0.1,0.3
				c0,0.1,0,0.1-0.1,0.2s-0.1,0.1-0.1,0.1c-0.4,0.3-0.9,0.5-1.5,0.7S92.3,18.8,91.8,18.8z M89.6,14.5c0.6-0.2,1.2-0.4,1.8-0.6
				s1.2-0.4,1.8-0.6c-0.1-0.3-0.4-0.6-0.6-0.8s-0.6-0.4-1-0.4c-0.4,0-0.8,0.1-1.1,0.4s-0.5,0.5-0.7,0.9S89.6,14.1,89.6,14.5z"/>
			<path id="XMLID_741_" class="st4" d="M101.2,18.8c-0.4,0-0.9-0.1-1.3-0.2s-0.8-0.4-1.1-0.7c0,0,0,0-0.1,0s0,0-0.1,0s0,0-0.1,0.1
				s0,0.1,0,0.1c0,0.4,0,0.8,0,1.2s0,0.8,0,1.2c0,0.1,0,0.3,0,0.4s0,0.3,0,0.4c0,0.1,0,0.2-0.1,0.3s-0.1,0.1-0.3,0.1h-1.4
				c-0.2,0-0.4-0.1-0.4-0.4c0-0.5,0-0.9,0-1.4s0-0.9,0-1.4c0-1,0-1.9,0.1-2.9c0-1,0-1.9,0-2.9c0-0.3,0-0.6,0-0.9s0-0.6,0-0.9
				c0-0.2,0.1-0.4,0.4-0.4h1.1c0.2,0,0.3,0.1,0.3,0.2s0.1,0.3,0.1,0.4s0,0.2,0.1,0.2c0,0,0.1,0,0.1,0c0.4-0.3,0.9-0.6,1.3-0.8
				s1-0.3,1.5-0.3c0.8,0,1.5,0.2,2.1,0.6s1,0.9,1.3,1.5s0.4,1.4,0.4,2.1c0,0.8-0.2,1.6-0.5,2.2s-0.8,1.1-1.4,1.4
				S102,18.8,101.2,18.8z M100.8,17c0.4,0,0.9-0.1,1.2-0.3s0.7-0.5,0.9-0.8c0.2-0.4,0.3-0.8,0.3-1.2c0-0.7-0.2-1.3-0.7-1.7
				s-1-0.7-1.7-0.7c-0.5,0-0.9,0.1-1.3,0.4s-0.7,0.6-0.8,1.1c0,0.3,0,0.6,0,0.9s0,0.6,0,0.9c0,0,0,0.1,0.1,0.2s0.1,0.2,0.1,0.2
				c0.2,0.4,0.5,0.7,0.8,0.9S100.4,17,100.8,17z"/>
		</g>
		<g id="XMLID_679_">
			<path id="XMLID_680_" class="st4" d="M42.5,19c0,0-0.2-0.1-0.5-0.4s-0.7-0.7-1.2-1.1s-1-1-1.6-1.6c-0.6-0.6-1.2-1.1-1.8-1.7
				s-1.1-1.1-1.6-1.6s-0.9-0.9-1.2-1.1S34.1,11,34.1,11c0,0,0,0-0.1,0.1s0,0.1,0,0.1c0,0.5,0,1.1,0,1.6s0,1.1,0,1.6
				c0,0.4,0,0.9,0,1.3c0,0.4,0,0.9,0,1.3c0,0.2,0,0.4,0,0.6s0,0.4,0,0.6c0,0.1,0,0.2-0.1,0.3s-0.1,0.1-0.3,0.1h-1.6
				c-0.2,0-0.4-0.1-0.4-0.4c0-0.3,0-0.7,0-1s0-0.7,0-1c0-0.7,0-1.3,0-2c0-0.7,0-1.3,0-2c0-0.7,0-1.4,0-2.1s0-1.4,0-2.1
				c0-0.3,0-0.7,0-1s0-0.7,0-1c0,0,0-0.1,0.1-0.1s0.1,0,0.1,0c1.4,1.3,2.8,2.6,4.1,4s2.7,2.7,4.1,4c0,0,0,0,0.1,0s0,0,0.1,0
				c0,0,0.1,0,0.1-0.1s0-0.1,0-0.1c0-0.5,0-1.1,0-1.6s0-1.1,0-1.6c0-0.5,0-0.9,0-1.4s0-0.9,0-1.4c0-0.2,0-0.4,0-0.6s0-0.4,0-0.6
				c0-0.1,0-0.2,0.1-0.3s0.1-0.1,0.3-0.1h1.5c0.2,0,0.4,0.1,0.4,0.4c0,0.3,0,0.6,0,0.9s0,0.6,0,0.9c0,0.6,0,1.3,0,1.9s0,1.3,0,1.9
				C42.4,14.5,42.4,16.7,42.5,19L42.5,19z"/>
			<path id="XMLID_682_" class="st4" d="M44.1,14.7c0-0.8,0.2-1.5,0.5-2.2s0.8-1.1,1.5-1.5s1.4-0.6,2.2-0.6c0.8,0,1.5,0.2,2.1,0.5
				s1.1,0.9,1.4,1.5s0.5,1.3,0.5,2.1c0,0.8-0.2,1.5-0.5,2.2s-0.8,1.1-1.4,1.5s-1.3,0.5-2.2,0.5c-0.8,0-1.5-0.2-2.2-0.5
				s-1.1-0.8-1.4-1.4S44.1,15.5,44.1,14.7z M48.2,12.2c-0.4,0-0.8,0.1-1.1,0.4s-0.5,0.5-0.7,0.9s-0.2,0.8-0.2,1.2
				c0,0.4,0.1,0.7,0.2,1.1c0.2,0.4,0.4,0.6,0.7,0.9s0.7,0.3,1.1,0.3c0.4,0,0.8-0.1,1.1-0.3s0.5-0.5,0.7-0.9c0.1-0.4,0.2-0.7,0.2-1.1
				c0-0.4-0.1-0.8-0.2-1.1s-0.4-0.7-0.7-0.9S48.6,12.2,48.2,12.2z"/>
			<path id="XMLID_685_" class="st4" d="M54.5,10.5c0-0.5,0-1,0-1.5s0-1,0-1.5c0-0.2,0.1-0.4,0.4-0.4h1.4c0.2,0,0.4,0.1,0.4,0.4
				c0,0.5,0,1,0,1.5s0,1,0,1.5c0,0.1,0,0.1,0.1,0.1h1.4c0.2,0,0.4,0.1,0.4,0.4c0,0.2,0,0.4,0,0.5s0,0.4,0,0.6c0,0.2-0.1,0.4-0.4,0.4
				h-1.4c-0.1,0-0.1,0-0.1,0.1c0,0.9,0,1.9,0,2.8c0,0.9,0,1.9,0,2.8c0,0.2-0.1,0.4-0.4,0.4h-1.4c-0.2,0-0.4-0.1-0.4-0.4
				c0-0.9,0-1.9,0-2.8c0-0.9,0-1.9,0-2.8c0-0.1-0.1-0.1-0.2-0.1s-0.3,0-0.4,0s-0.3,0-0.4,0s-0.2-0.2-0.2-0.3V11
				c0-0.2,0.1-0.4,0.4-0.4h0.7C54.5,10.6,54.5,10.6,54.5,10.5z"/>
			<path id="XMLID_687_" class="st4" d="M63.7,18.8c-0.9,0-1.6-0.2-2.2-0.5s-1.1-0.8-1.5-1.5s-0.5-1.4-0.5-2.2
				c0-0.8,0.2-1.5,0.5-2.2s0.8-1.1,1.4-1.5s1.3-0.6,2.1-0.6c1,0,1.8,0.3,2.4,0.9s1,1.3,1.2,2.3c0,0,0,0,0,0.1c0,0.1,0,0.2-0.1,0.2
				s-0.1,0.1-0.2,0.1c-0.2,0.1-0.4,0.2-0.6,0.2c-0.2,0.1-0.4,0.1-0.7,0.2c-0.6,0.2-1.2,0.5-1.9,0.7c-0.6,0.2-1.2,0.5-1.8,0.7
				c0,0-0.1,0.1-0.1,0.1c0,0,0,0,0,0.1c0.2,0.4,0.6,0.7,1,0.9s0.8,0.3,1.3,0.3c0.4,0,0.7-0.1,1-0.2s0.6-0.3,0.9-0.4
				c0,0,0.1,0,0.1-0.1s0.1,0,0.1,0c0.1,0,0.1,0,0.2,0.1s0.1,0.1,0.1,0.2c0,0,0.1,0.1,0.1,0.3s0.1,0.3,0.2,0.4s0.1,0.2,0.1,0.3
				c0,0.1,0,0.1-0.1,0.2s-0.1,0.1-0.1,0.1c-0.4,0.3-0.9,0.5-1.5,0.7S64.2,18.8,63.7,18.8z M61.5,14.5c0.6-0.2,1.2-0.4,1.8-0.6
				s1.2-0.4,1.8-0.6c-0.1-0.3-0.3-0.6-0.6-0.8s-0.6-0.4-1-0.4c-0.4,0-0.8,0.1-1.1,0.4s-0.5,0.5-0.7,0.9S61.5,14.1,61.5,14.5z"/>
			<path id="XMLID_690_" class="st4" d="M70.6,6.3c0.2,0,0.3,0.1,0.4,0.4c0,0.3,0,0.5,0,0.8s0,0.5,0,0.8c0,0.6,0,1.1,0,1.7
				s0,1.1,0,1.7c0,0.1,0,0.1,0.1,0.1h0c2-0.5,3.3-1.8,4.1-3.7c0.1-0.2,0.2-0.4,0.2-0.7s0.1-0.5,0.2-0.7c0-0.1,0.1-0.2,0.1-0.2
				s0.1-0.1,0.2-0.1h1.5c0.1,0,0.2,0,0.3,0.1s0.1,0.1,0.1,0.2c0,0.1,0,0.1,0,0.1c-0.2,1-0.6,1.9-1.1,2.8s-1.1,1.6-2,2.3
				c-0.2,0.1-0.3,0.2-0.5,0.4s-0.3,0.2-0.5,0.3c0,0-0.1,0-0.1,0.1c0,0,0.1,0.2,0.3,0.4s0.4,0.6,0.7,0.9c0.3,0.4,0.6,0.8,0.9,1.2
				s0.6,0.8,0.9,1.3c0.3,0.4,0.6,0.8,0.8,1s0.4,0.5,0.4,0.6c0,0,0.1,0.1,0.1,0.2s0.1,0.1,0.1,0.2c0,0.1-0.1,0.2-0.2,0.2
				s-0.2,0-0.3,0h-1.7c-0.1,0-0.2,0-0.3-0.1c-0.2-0.2-0.3-0.4-0.5-0.6s-0.3-0.4-0.5-0.7c-0.3-0.4-0.6-0.8-0.9-1.2
				c-0.3-0.4-0.6-0.8-0.9-1.2c-0.2-0.2-0.3-0.4-0.5-0.7s-0.3-0.4-0.5-0.6c0,0-0.1,0-0.1,0c-0.1,0-0.1,0-0.2,0s-0.2,0-0.2,0
				s-0.1,0-0.1,0.1c0,0.5,0,1.1,0,1.6s0,1.1,0,1.6c0,0.3,0,0.5,0,0.8s0,0.5,0,0.8c0,0.2-0.1,0.4-0.4,0.4h-1.5
				c-0.2,0-0.4-0.1-0.4-0.4c0-0.3,0-0.6,0-1s0-0.6,0-1c0-1.3,0-2.7,0-4c0-1.3,0-2.6,0-3.8c0-0.3,0-0.6,0-0.9s0-0.6,0-0.9
				c0-0.2,0.1-0.4,0.4-0.4H70.6z"/>
			<path id="XMLID_692_" class="st4" d="M83.1,18.8c-0.9,0-1.6-0.2-2.2-0.5s-1.1-0.8-1.5-1.5s-0.5-1.4-0.5-2.2
				c0-0.8,0.2-1.5,0.5-2.2s0.8-1.1,1.4-1.5s1.3-0.6,2.1-0.6c1,0,1.8,0.3,2.4,0.9s1,1.3,1.2,2.3c0,0,0,0,0,0.1c0,0.1,0,0.2-0.1,0.2
				s-0.1,0.1-0.2,0.1c-0.2,0.1-0.4,0.2-0.6,0.2c-0.2,0.1-0.4,0.1-0.7,0.2c-0.6,0.2-1.2,0.5-1.9,0.7s-1.2,0.5-1.8,0.7
				c0,0-0.1,0.1-0.1,0.1c0,0,0,0,0,0.1c0.2,0.4,0.6,0.7,1,0.9s0.8,0.3,1.3,0.3c0.4,0,0.7-0.1,1-0.2s0.6-0.3,0.9-0.4
				c0,0,0.1,0,0.1-0.1s0.1,0,0.1,0c0.1,0,0.1,0,0.2,0.1s0.1,0.1,0.1,0.2c0,0,0.1,0.1,0.1,0.3s0.1,0.3,0.2,0.4s0.1,0.2,0.1,0.3
				c0,0.1,0,0.1-0.1,0.2s-0.1,0.1-0.1,0.1c-0.4,0.3-0.9,0.5-1.5,0.7S83.6,18.8,83.1,18.8z M80.9,14.5c0.6-0.2,1.2-0.4,1.8-0.6
				s1.2-0.4,1.8-0.6c-0.1-0.3-0.3-0.6-0.6-0.8s-0.6-0.4-1-0.4c-0.4,0-0.8,0.1-1.1,0.4s-0.5,0.5-0.7,0.9S80.9,14.1,80.9,14.5z"/>
			<path id="XMLID_695_" class="st4" d="M91.8,18.8c-0.9,0-1.6-0.2-2.2-0.5s-1.1-0.8-1.5-1.5s-0.5-1.4-0.5-2.2
				c0-0.8,0.2-1.5,0.5-2.2s0.8-1.1,1.4-1.5s1.3-0.6,2.1-0.6c1,0,1.8,0.3,2.4,0.9s1,1.3,1.2,2.3c0,0,0,0,0,0.1c0,0.1,0,0.2-0.1,0.2
				s-0.1,0.1-0.2,0.1c-0.2,0.1-0.4,0.2-0.6,0.2c-0.2,0.1-0.4,0.1-0.7,0.2c-0.6,0.2-1.2,0.5-1.9,0.7s-1.2,0.5-1.8,0.7
				c0,0-0.1,0.1-0.1,0.1c0,0,0,0,0,0.1c0.2,0.4,0.6,0.7,1,0.9s0.8,0.3,1.3,0.3c0.4,0,0.7-0.1,1-0.2s0.6-0.3,0.9-0.4
				c0,0,0.1,0,0.1-0.1s0.1,0,0.1,0c0.1,0,0.1,0,0.2,0.1s0.1,0.1,0.1,0.2c0,0,0.1,0.1,0.1,0.3s0.1,0.3,0.2,0.4s0.1,0.2,0.1,0.3
				c0,0.1,0,0.1-0.1,0.2s-0.1,0.1-0.1,0.1c-0.4,0.3-0.9,0.5-1.5,0.7S92.3,18.8,91.8,18.8z M89.6,14.5c0.6-0.2,1.2-0.4,1.8-0.6
				s1.2-0.4,1.8-0.6c-0.1-0.3-0.4-0.6-0.6-0.8s-0.6-0.4-1-0.4c-0.4,0-0.8,0.1-1.1,0.4s-0.5,0.5-0.7,0.9S89.6,14.1,89.6,14.5z"/>
			<path id="XMLID_698_" class="st4" d="M101.2,18.8c-0.4,0-0.9-0.1-1.3-0.2s-0.8-0.4-1.1-0.7c0,0,0,0-0.1,0s0,0-0.1,0s0,0-0.1,0.1
				s0,0.1,0,0.1c0,0.4,0,0.8,0,1.2s0,0.8,0,1.2c0,0.1,0,0.3,0,0.4s0,0.3,0,0.4c0,0.1,0,0.2-0.1,0.3s-0.1,0.1-0.3,0.1h-1.4
				c-0.2,0-0.4-0.1-0.4-0.4c0-0.5,0-0.9,0-1.4s0-0.9,0-1.4c0-1,0-1.9,0.1-2.9c0-1,0-1.9,0-2.9c0-0.3,0-0.6,0-0.9s0-0.6,0-0.9
				c0-0.2,0.1-0.4,0.4-0.4h1.1c0.2,0,0.3,0.1,0.3,0.2s0.1,0.3,0.1,0.4s0,0.2,0.1,0.2c0,0,0.1,0,0.1,0c0.4-0.3,0.9-0.6,1.3-0.8
				s1-0.3,1.5-0.3c0.8,0,1.5,0.2,2.1,0.6s1,0.9,1.3,1.5s0.4,1.4,0.4,2.1c0,0.8-0.2,1.6-0.5,2.2s-0.8,1.1-1.4,1.4
				S102,18.8,101.2,18.8z M100.8,17c0.4,0,0.9-0.1,1.2-0.3s0.7-0.5,0.9-0.8c0.2-0.4,0.3-0.8,0.3-1.2c0-0.7-0.2-1.3-0.7-1.7
				s-1-0.7-1.7-0.7c-0.5,0-0.9,0.1-1.3,0.4s-0.7,0.6-0.8,1.1c0,0.3,0,0.6,0,0.9s0,0.6,0,0.9c0,0,0,0.1,0.1,0.2s0.1,0.2,0.1,0.2
				c0.2,0.4,0.5,0.7,0.8,0.9S100.4,17,100.8,17z"/>
		</g>
		<g id="XMLID_127_">
			<path id="XMLID_658_" class="st4" d="M42.5,19c0,0-0.2-0.1-0.5-0.4s-0.7-0.7-1.2-1.1s-1-1-1.6-1.6c-0.6-0.6-1.2-1.1-1.8-1.7
				s-1.1-1.1-1.6-1.6s-0.9-0.9-1.2-1.1S34.1,11,34.1,11c0,0,0,0-0.1,0.1s0,0.1,0,0.1c0,0.5,0,1.1,0,1.6s0,1.1,0,1.6
				c0,0.4,0,0.9,0,1.3c0,0.4,0,0.9,0,1.3c0,0.2,0,0.4,0,0.6s0,0.4,0,0.6c0,0.1,0,0.2-0.1,0.3s-0.1,0.1-0.3,0.1h-1.6
				c-0.2,0-0.4-0.1-0.4-0.4c0-0.3,0-0.7,0-1s0-0.7,0-1c0-0.7,0-1.3,0-2c0-0.7,0-1.3,0-2c0-0.7,0-1.4,0-2.1s0-1.4,0-2.1
				c0-0.3,0-0.7,0-1s0-0.7,0-1c0,0,0-0.1,0.1-0.1s0.1,0,0.1,0c1.4,1.3,2.8,2.6,4.1,4s2.7,2.7,4.1,4c0,0,0,0,0.1,0s0,0,0.1,0
				c0,0,0.1,0,0.1-0.1s0-0.1,0-0.1c0-0.5,0-1.1,0-1.6s0-1.1,0-1.6c0-0.5,0-0.9,0-1.4s0-0.9,0-1.4c0-0.2,0-0.4,0-0.6s0-0.4,0-0.6
				c0-0.1,0-0.2,0.1-0.3s0.1-0.1,0.3-0.1h1.5c0.2,0,0.4,0.1,0.4,0.4c0,0.3,0,0.6,0,0.9s0,0.6,0,0.9c0,0.6,0,1.3,0,1.9s0,1.3,0,1.9
				C42.4,14.5,42.4,16.7,42.5,19L42.5,19z"/>
			<path id="XMLID_660_" class="st4" d="M44.1,14.7c0-0.8,0.2-1.5,0.5-2.2s0.8-1.1,1.5-1.5s1.4-0.6,2.2-0.6c0.8,0,1.5,0.2,2.1,0.5
				s1.1,0.9,1.4,1.5s0.5,1.3,0.5,2.1c0,0.8-0.2,1.5-0.5,2.2s-0.8,1.1-1.4,1.5s-1.3,0.5-2.2,0.5c-0.8,0-1.5-0.2-2.2-0.5
				s-1.1-0.8-1.4-1.4S44.1,15.5,44.1,14.7z M48.2,12.2c-0.4,0-0.8,0.1-1.1,0.4s-0.5,0.5-0.7,0.9s-0.2,0.8-0.2,1.2
				c0,0.4,0.1,0.7,0.2,1.1c0.2,0.4,0.4,0.6,0.7,0.9s0.7,0.3,1.1,0.3c0.4,0,0.8-0.1,1.1-0.3s0.5-0.5,0.7-0.9c0.1-0.4,0.2-0.7,0.2-1.1
				c0-0.4-0.1-0.8-0.2-1.1s-0.4-0.7-0.7-0.9S48.6,12.2,48.2,12.2z"/>
			<path id="XMLID_663_" class="st4" d="M54.5,10.5c0-0.5,0-1,0-1.5s0-1,0-1.5c0-0.2,0.1-0.4,0.4-0.4h1.4c0.2,0,0.4,0.1,0.4,0.4
				c0,0.5,0,1,0,1.5s0,1,0,1.5c0,0.1,0,0.1,0.1,0.1h1.4c0.2,0,0.4,0.1,0.4,0.4c0,0.2,0,0.4,0,0.5s0,0.4,0,0.6c0,0.2-0.1,0.4-0.4,0.4
				h-1.4c-0.1,0-0.1,0-0.1,0.1c0,0.9,0,1.9,0,2.8c0,0.9,0,1.9,0,2.8c0,0.2-0.1,0.4-0.4,0.4h-1.4c-0.2,0-0.4-0.1-0.4-0.4
				c0-0.9,0-1.9,0-2.8c0-0.9,0-1.9,0-2.8c0-0.1-0.1-0.1-0.2-0.1s-0.3,0-0.4,0s-0.3,0-0.4,0s-0.2-0.2-0.2-0.3V11
				c0-0.2,0.1-0.4,0.4-0.4h0.7C54.5,10.6,54.5,10.6,54.5,10.5z"/>
			<path id="XMLID_665_" class="st4" d="M63.7,18.8c-0.9,0-1.6-0.2-2.2-0.5s-1.1-0.8-1.5-1.5s-0.5-1.4-0.5-2.2
				c0-0.8,0.2-1.5,0.5-2.2s0.8-1.1,1.4-1.5s1.3-0.6,2.1-0.6c1,0,1.8,0.3,2.4,0.9s1,1.3,1.2,2.3c0,0,0,0,0,0.1c0,0.1,0,0.2-0.1,0.2
				s-0.1,0.1-0.2,0.1c-0.2,0.1-0.4,0.2-0.6,0.2c-0.2,0.1-0.4,0.1-0.7,0.2c-0.6,0.2-1.2,0.5-1.9,0.7c-0.6,0.2-1.2,0.5-1.8,0.7
				c0,0-0.1,0.1-0.1,0.1c0,0,0,0,0,0.1c0.2,0.4,0.6,0.7,1,0.9s0.8,0.3,1.3,0.3c0.4,0,0.7-0.1,1-0.2s0.6-0.3,0.9-0.4
				c0,0,0.1,0,0.1-0.1s0.1,0,0.1,0c0.1,0,0.1,0,0.2,0.1s0.1,0.1,0.1,0.2c0,0,0.1,0.1,0.1,0.3s0.1,0.3,0.2,0.4s0.1,0.2,0.1,0.3
				c0,0.1,0,0.1-0.1,0.2s-0.1,0.1-0.1,0.1c-0.4,0.3-0.9,0.5-1.5,0.7S64.2,18.8,63.7,18.8z M61.5,14.5c0.6-0.2,1.2-0.4,1.8-0.6
				s1.2-0.4,1.8-0.6c-0.1-0.3-0.3-0.6-0.6-0.8s-0.6-0.4-1-0.4c-0.4,0-0.8,0.1-1.1,0.4s-0.5,0.5-0.7,0.9S61.5,14.1,61.5,14.5z"/>
			<path id="XMLID_668_" class="st4" d="M70.6,6.3c0.2,0,0.3,0.1,0.4,0.4c0,0.3,0,0.5,0,0.8s0,0.5,0,0.8c0,0.6,0,1.1,0,1.7
				s0,1.1,0,1.7c0,0.1,0,0.1,0.1,0.1h0c2-0.5,3.3-1.8,4.1-3.7c0.1-0.2,0.2-0.4,0.2-0.7s0.1-0.5,0.2-0.7c0-0.1,0.1-0.2,0.1-0.2
				s0.1-0.1,0.2-0.1h1.5c0.1,0,0.2,0,0.3,0.1s0.1,0.1,0.1,0.2c0,0.1,0,0.1,0,0.1c-0.2,1-0.6,1.9-1.1,2.8s-1.1,1.6-2,2.3
				c-0.2,0.1-0.3,0.2-0.5,0.4s-0.3,0.2-0.5,0.3c0,0-0.1,0-0.1,0.1c0,0,0.1,0.2,0.3,0.4s0.4,0.6,0.7,0.9c0.3,0.4,0.6,0.8,0.9,1.2
				s0.6,0.8,0.9,1.3c0.3,0.4,0.6,0.8,0.8,1s0.4,0.5,0.4,0.6c0,0,0.1,0.1,0.1,0.2s0.1,0.1,0.1,0.2c0,0.1-0.1,0.2-0.2,0.2
				s-0.2,0-0.3,0h-1.7c-0.1,0-0.2,0-0.3-0.1c-0.2-0.2-0.3-0.4-0.5-0.6s-0.3-0.4-0.5-0.7c-0.3-0.4-0.6-0.8-0.9-1.2
				c-0.3-0.4-0.6-0.8-0.9-1.2c-0.2-0.2-0.3-0.4-0.5-0.7s-0.3-0.4-0.5-0.6c0,0-0.1,0-0.1,0c-0.1,0-0.1,0-0.2,0s-0.2,0-0.2,0
				s-0.1,0-0.1,0.1c0,0.5,0,1.1,0,1.6s0,1.1,0,1.6c0,0.3,0,0.5,0,0.8s0,0.5,0,0.8c0,0.2-0.1,0.4-0.4,0.4h-1.5
				c-0.2,0-0.4-0.1-0.4-0.4c0-0.3,0-0.6,0-1s0-0.6,0-1c0-1.3,0-2.7,0-4c0-1.3,0-2.6,0-3.8c0-0.3,0-0.6,0-0.9s0-0.6,0-0.9
				c0-0.2,0.1-0.4,0.4-0.4H70.6z"/>
			<path id="XMLID_670_" class="st4" d="M83.1,18.8c-0.9,0-1.6-0.2-2.2-0.5s-1.1-0.8-1.5-1.5s-0.5-1.4-0.5-2.2
				c0-0.8,0.2-1.5,0.5-2.2s0.8-1.1,1.4-1.5s1.3-0.6,2.1-0.6c1,0,1.8,0.3,2.4,0.9s1,1.3,1.2,2.3c0,0,0,0,0,0.1c0,0.1,0,0.2-0.1,0.2
				s-0.1,0.1-0.2,0.1c-0.2,0.1-0.4,0.2-0.6,0.2c-0.2,0.1-0.4,0.1-0.7,0.2c-0.6,0.2-1.2,0.5-1.9,0.7s-1.2,0.5-1.8,0.7
				c0,0-0.1,0.1-0.1,0.1c0,0,0,0,0,0.1c0.2,0.4,0.6,0.7,1,0.9s0.8,0.3,1.3,0.3c0.4,0,0.7-0.1,1-0.2s0.6-0.3,0.9-0.4
				c0,0,0.1,0,0.1-0.1s0.1,0,0.1,0c0.1,0,0.1,0,0.2,0.1s0.1,0.1,0.1,0.2c0,0,0.1,0.1,0.1,0.3s0.1,0.3,0.2,0.4s0.1,0.2,0.1,0.3
				c0,0.1,0,0.1-0.1,0.2s-0.1,0.1-0.1,0.1c-0.4,0.3-0.9,0.5-1.5,0.7S83.6,18.8,83.1,18.8z M80.9,14.5c0.6-0.2,1.2-0.4,1.8-0.6
				s1.2-0.4,1.8-0.6c-0.1-0.3-0.3-0.6-0.6-0.8s-0.6-0.4-1-0.4c-0.4,0-0.8,0.1-1.1,0.4s-0.5,0.5-0.7,0.9S80.9,14.1,80.9,14.5z"/>
			<path id="XMLID_673_" class="st4" d="M91.8,18.8c-0.9,0-1.6-0.2-2.2-0.5s-1.1-0.8-1.5-1.5s-0.5-1.4-0.5-2.2
				c0-0.8,0.2-1.5,0.5-2.2s0.8-1.1,1.4-1.5s1.3-0.6,2.1-0.6c1,0,1.8,0.3,2.4,0.9s1,1.3,1.2,2.3c0,0,0,0,0,0.1c0,0.1,0,0.2-0.1,0.2
				s-0.1,0.1-0.2,0.1c-0.2,0.1-0.4,0.2-0.6,0.2c-0.2,0.1-0.4,0.1-0.7,0.2c-0.6,0.2-1.2,0.5-1.9,0.7s-1.2,0.5-1.8,0.7
				c0,0-0.1,0.1-0.1,0.1c0,0,0,0,0,0.1c0.2,0.4,0.6,0.7,1,0.9s0.8,0.3,1.3,0.3c0.4,0,0.7-0.1,1-0.2s0.6-0.3,0.9-0.4
				c0,0,0.1,0,0.1-0.1s0.1,0,0.1,0c0.1,0,0.1,0,0.2,0.1s0.1,0.1,0.1,0.2c0,0,0.1,0.1,0.1,0.3s0.1,0.3,0.2,0.4s0.1,0.2,0.1,0.3
				c0,0.1,0,0.1-0.1,0.2s-0.1,0.1-0.1,0.1c-0.4,0.3-0.9,0.5-1.5,0.7S92.3,18.8,91.8,18.8z M89.6,14.5c0.6-0.2,1.2-0.4,1.8-0.6
				s1.2-0.4,1.8-0.6c-0.1-0.3-0.4-0.6-0.6-0.8s-0.6-0.4-1-0.4c-0.4,0-0.8,0.1-1.1,0.4s-0.5,0.5-0.7,0.9S89.6,14.1,89.6,14.5z"/>
			<path id="XMLID_676_" class="st4" d="M101.2,18.8c-0.4,0-0.9-0.1-1.3-0.2s-0.8-0.4-1.1-0.7c0,0,0,0-0.1,0s0,0-0.1,0s0,0-0.1,0.1
				s0,0.1,0,0.1c0,0.4,0,0.8,0,1.2s0,0.8,0,1.2c0,0.1,0,0.3,0,0.4s0,0.3,0,0.4c0,0.1,0,0.2-0.1,0.3s-0.1,0.1-0.3,0.1h-1.4
				c-0.2,0-0.4-0.1-0.4-0.4c0-0.5,0-0.9,0-1.4s0-0.9,0-1.4c0-1,0-1.9,0.1-2.9c0-1,0-1.9,0-2.9c0-0.3,0-0.6,0-0.9s0-0.6,0-0.9
				c0-0.2,0.1-0.4,0.4-0.4h1.1c0.2,0,0.3,0.1,0.3,0.2s0.1,0.3,0.1,0.4s0,0.2,0.1,0.2c0,0,0.1,0,0.1,0c0.4-0.3,0.9-0.6,1.3-0.8
				s1-0.3,1.5-0.3c0.8,0,1.5,0.2,2.1,0.6s1,0.9,1.3,1.5s0.4,1.4,0.4,2.1c0,0.8-0.2,1.6-0.5,2.2s-0.8,1.1-1.4,1.4
				S102,18.8,101.2,18.8z M100.8,17c0.4,0,0.9-0.1,1.2-0.3s0.7-0.5,0.9-0.8c0.2-0.4,0.3-0.8,0.3-1.2c0-0.7-0.2-1.3-0.7-1.7
				s-1-0.7-1.7-0.7c-0.5,0-0.9,0.1-1.3,0.4s-0.7,0.6-0.8,1.1c0,0.3,0,0.6,0,0.9s0,0.6,0,0.9c0,0,0,0.1,0.1,0.2s0.1,0.2,0.1,0.2
				c0.2,0.4,0.5,0.7,0.8,0.9S100.4,17,100.8,17z"/>
		</g>
	</g>
</g>
<g id="Layer_3" class="st0">
	<g id="XMLID_197_" class="st1">
		<path id="XMLID_201_" class="st2" d="M165.5,24.9h-13.1c-2.8,0-5-2.2-5-5V6.5c0-2.8,2.2-5,5-5h13.1c2.8,0,5,2.2,5,5v13.4
			C170.5,22.6,168.2,24.9,165.5,24.9z"/>
		<path id="XMLID_200_" class="st3" d="M162.6,20.6h-7.3c-2,0-3.7-1.6-3.7-3.7V9.4c0-2,1.6-3.7,3.7-3.7h7.3c2,0,3.7,1.6,3.7,3.7v7.5
			C166.2,18.9,164.6,20.6,162.6,20.6z"/>
		<path id="XMLID_199_" class="st2" d="M157.9,17.7h-3.5c-0.6,0-1.1-0.5-1.1-1.1v0c0-0.6,0.5-1.1,1.1-1.1h3.5c0.6,0,1.1,0.5,1.1,1.1
			v0C158.9,17.2,158.4,17.7,157.9,17.7z"/>
		<path id="XMLID_198_" class="st2" d="M161.8,14.7h-7.4c-0.6,0-1.1-0.5-1.1-1.1v0c0-0.6,0.5-1.1,1.1-1.1h7.4c0.6,0,1.1,0.5,1.1,1.1
			v0C162.8,14.3,162.4,14.7,161.8,14.7z"/>
	</g>
</g>
<g id="Layer_4" class="st0">
	<g id="XMLID_398_" class="st1">
		<path id="XMLID_399_" class="st4" d="M224.5,18.4c0,0-0.2-0.1-0.5-0.4s-0.7-0.7-1.2-1.1s-1-1-1.6-1.6s-1.2-1.1-1.8-1.7
			s-1.1-1.1-1.6-1.6s-0.9-0.9-1.2-1.1s-0.5-0.4-0.5-0.4c0,0,0,0-0.1,0.1s0,0.1,0,0.1c0,0.5,0,1.1,0,1.6s0,1.1,0,1.6
			c0,0.4,0,0.9,0,1.3s0,0.9,0,1.3c0,0.2,0,0.4,0,0.6s0,0.4,0,0.6c0,0.1,0,0.2-0.1,0.3s-0.1,0.1-0.3,0.1h-1.6c-0.2,0-0.4-0.1-0.4-0.4
			c0-0.3,0-0.7,0-1s0-0.7,0-1c0-0.7,0-1.3,0-2c0-0.7,0-1.3,0-2c0-0.7,0-1.4,0-2.1s0-1.4,0-2.1c0-0.3,0-0.7,0-1s0-0.7,0-1
			c0,0,0-0.1,0.1-0.1s0.1,0,0.1,0c1.4,1.3,2.8,2.6,4.1,4s2.7,2.7,4.1,4c0,0,0,0,0.1,0s0,0,0.1,0c0,0,0.1,0,0.1-0.1s0-0.1,0-0.1
			c0-0.5,0-1.1,0-1.6s0-1.1,0-1.6c0-0.5,0-0.9,0-1.4s0-0.9,0-1.4c0-0.2,0-0.4,0-0.6s0-0.4,0-0.6c0-0.1,0-0.2,0.1-0.3
			s0.1-0.1,0.3-0.1h1.5c0.2,0,0.4,0.1,0.4,0.4c0,0.3,0,0.6,0,0.9s0,0.6,0,0.9c0,0.6,0,1.3,0,1.9s0,1.3,0,1.9
			C224.4,14,224.5,16.2,224.5,18.4L224.5,18.4z"/>
		<path id="XMLID_401_" class="st4" d="M226.1,14.1c0-0.8,0.2-1.5,0.5-2.2s0.8-1.1,1.5-1.5s1.4-0.6,2.2-0.6c0.8,0,1.5,0.2,2.1,0.5
			s1.1,0.9,1.4,1.5s0.5,1.3,0.5,2.1c0,0.8-0.2,1.5-0.5,2.2c-0.3,0.6-0.8,1.1-1.4,1.5s-1.3,0.5-2.2,0.5c-0.8,0-1.5-0.2-2.2-0.5
			s-1.1-0.8-1.4-1.4C226.3,15.6,226.1,14.9,226.1,14.1z M230.2,11.6c-0.4,0-0.8,0.1-1.1,0.4s-0.5,0.5-0.7,0.9s-0.2,0.8-0.2,1.2
			c0,0.4,0.1,0.7,0.2,1.1s0.4,0.6,0.7,0.9c0.3,0.2,0.7,0.3,1.1,0.3c0.4,0,0.8-0.1,1.1-0.3c0.3-0.2,0.5-0.5,0.7-0.9s0.2-0.7,0.2-1.1
			c0-0.4-0.1-0.8-0.2-1.1s-0.4-0.7-0.7-0.9S230.7,11.6,230.2,11.6z"/>
		<path id="XMLID_404_" class="st4" d="M236.6,9.9c0-0.5,0-1,0-1.5s0-1,0-1.5c0-0.2,0.1-0.4,0.4-0.4h1.4c0.2,0,0.4,0.1,0.4,0.4
			c0,0.5,0,1,0,1.5s0,1,0,1.5c0,0.1,0,0.1,0.1,0.1h1.4c0.2,0,0.4,0.1,0.4,0.4c0,0.2,0,0.4,0,0.5s0,0.4,0,0.6c0,0.2-0.1,0.4-0.4,0.4
			h-1.4c-0.1,0-0.1,0-0.1,0.1c0,0.9,0,1.9,0,2.8s0,1.9,0,2.8c0,0.2-0.1,0.4-0.4,0.4h-1.4c-0.2,0-0.4-0.1-0.4-0.4c0-0.9,0-1.9,0-2.8
			s0-1.9,0-2.8c0-0.1-0.1-0.1-0.2-0.1s-0.3,0-0.4,0s-0.3,0-0.4,0s-0.2-0.2-0.2-0.3v-1.1c0-0.2,0.1-0.4,0.4-0.4h0.7
			C236.6,10,236.6,10,236.6,9.9z"/>
		<path id="XMLID_406_" class="st4" d="M245.7,18.2c-0.9,0-1.6-0.2-2.2-0.5s-1.1-0.8-1.5-1.5c-0.4-0.6-0.5-1.4-0.5-2.2
			c0-0.8,0.2-1.5,0.5-2.2s0.8-1.1,1.4-1.5s1.3-0.6,2.1-0.6c1,0,1.8,0.3,2.4,0.9s1,1.3,1.2,2.3c0,0,0,0,0,0.1c0,0.1,0,0.2-0.1,0.2
			s-0.1,0.1-0.2,0.1c-0.2,0.1-0.4,0.2-0.6,0.2c-0.2,0.1-0.4,0.1-0.7,0.2c-0.6,0.2-1.2,0.5-1.9,0.7s-1.2,0.5-1.8,0.7
			c0,0-0.1,0.1-0.1,0.1c0,0,0,0,0,0.1c0.2,0.4,0.6,0.7,1,0.9s0.8,0.3,1.3,0.3c0.4,0,0.7-0.1,1-0.2s0.6-0.3,0.9-0.4
			c0,0,0.1,0,0.1-0.1s0.1,0,0.1,0c0.1,0,0.1,0,0.2,0.1s0.1,0.1,0.1,0.2c0,0,0.1,0.1,0.1,0.3s0.1,0.3,0.2,0.4s0.1,0.2,0.1,0.3
			c0,0.1,0,0.1-0.1,0.2s-0.1,0.1-0.1,0.1c-0.4,0.3-0.9,0.5-1.5,0.7S246.2,18.2,245.7,18.2z M243.5,14c0.6-0.2,1.2-0.4,1.8-0.6
			s1.2-0.4,1.8-0.6c-0.1-0.3-0.3-0.6-0.6-0.8s-0.6-0.4-1-0.4c-0.4,0-0.8,0.1-1.1,0.4s-0.5,0.5-0.7,0.9S243.5,13.6,243.5,14z"/>
		<path id="XMLID_409_" class="st4" d="M252.7,5.7c0.2,0,0.3,0.1,0.4,0.4c0,0.3,0,0.5,0,0.8s0,0.5,0,0.8c0,0.6,0,1.1,0,1.7
			s0,1.1,0,1.7c0,0.1,0,0.1,0.1,0.1h0c2-0.5,3.3-1.8,4.1-3.7c0.1-0.2,0.2-0.4,0.2-0.7s0.1-0.5,0.2-0.7c0-0.1,0.1-0.2,0.1-0.2
			s0.1-0.1,0.2-0.1h1.5c0.1,0,0.2,0,0.3,0.1s0.1,0.1,0.1,0.2c0,0.1,0,0.1,0,0.1c-0.2,1-0.6,1.9-1.1,2.8s-1.1,1.6-2,2.3
			c-0.2,0.1-0.3,0.2-0.5,0.4s-0.3,0.2-0.5,0.3c0,0-0.1,0-0.1,0.1c0,0,0.1,0.2,0.3,0.4c0.2,0.2,0.4,0.6,0.7,0.9
			c0.3,0.4,0.6,0.8,0.9,1.2s0.6,0.8,0.9,1.3c0.3,0.4,0.6,0.8,0.8,1s0.4,0.5,0.4,0.6c0,0,0.1,0.1,0.1,0.2s0.1,0.1,0.1,0.2
			c0,0.1-0.1,0.2-0.2,0.2s-0.2,0-0.3,0h-1.7c-0.1,0-0.2,0-0.3-0.1c-0.2-0.2-0.3-0.4-0.5-0.6s-0.3-0.4-0.5-0.7
			c-0.3-0.4-0.6-0.8-0.9-1.2s-0.6-0.8-0.9-1.2c-0.2-0.2-0.3-0.4-0.5-0.7s-0.3-0.4-0.5-0.6c0,0-0.1,0-0.1,0c-0.1,0-0.1,0-0.2,0
			s-0.2,0-0.2,0s-0.1,0-0.1,0.1c0,0.5,0,1.1,0,1.6s0,1.1,0,1.6c0,0.3,0,0.5,0,0.8s0,0.5,0,0.8c0,0.2-0.1,0.4-0.4,0.4h-1.5
			c-0.2,0-0.4-0.1-0.4-0.4c0-0.3,0-0.6,0-1s0-0.6,0-1c0-1.3,0-2.7,0-4c0-1.3,0-2.6,0-3.8c0-0.3,0-0.6,0-0.9s0-0.6,0-0.9
			c0-0.2,0.1-0.4,0.4-0.4H252.7z"/>
		<path id="XMLID_411_" class="st4" d="M265.1,18.2c-0.9,0-1.6-0.2-2.2-0.5s-1.1-0.8-1.5-1.5c-0.4-0.6-0.5-1.4-0.5-2.2
			c0-0.8,0.2-1.5,0.5-2.2s0.8-1.1,1.4-1.5s1.3-0.6,2.1-0.6c1,0,1.8,0.3,2.4,0.9s1,1.3,1.2,2.3c0,0,0,0,0,0.1c0,0.1,0,0.2-0.1,0.2
			s-0.1,0.1-0.2,0.1c-0.2,0.1-0.4,0.2-0.6,0.2c-0.2,0.1-0.4,0.1-0.7,0.2c-0.6,0.2-1.2,0.5-1.9,0.7s-1.2,0.5-1.8,0.7
			c0,0-0.1,0.1-0.1,0.1c0,0,0,0,0,0.1c0.2,0.4,0.6,0.7,1,0.9s0.8,0.3,1.3,0.3c0.4,0,0.7-0.1,1-0.2s0.6-0.3,0.9-0.4
			c0,0,0.1,0,0.1-0.1s0.1,0,0.1,0c0.1,0,0.1,0,0.2,0.1s0.1,0.1,0.1,0.2c0,0,0.1,0.1,0.1,0.3s0.1,0.3,0.2,0.4s0.1,0.2,0.1,0.3
			c0,0.1,0,0.1-0.1,0.2s-0.1,0.1-0.1,0.1c-0.4,0.3-0.9,0.5-1.5,0.7S265.6,18.2,265.1,18.2z M262.9,14c0.6-0.2,1.2-0.4,1.8-0.6
			s1.2-0.4,1.8-0.6c-0.1-0.3-0.3-0.6-0.6-0.8s-0.6-0.4-1-0.4c-0.4,0-0.8,0.1-1.1,0.4s-0.5,0.5-0.7,0.9S262.9,13.6,262.9,14z"/>
		<path id="XMLID_414_" class="st4" d="M273.8,18.2c-0.9,0-1.6-0.2-2.2-0.5s-1.1-0.8-1.5-1.5c-0.4-0.6-0.5-1.4-0.5-2.2
			c0-0.8,0.2-1.5,0.5-2.2s0.8-1.1,1.4-1.5s1.3-0.6,2.1-0.6c1,0,1.8,0.3,2.4,0.9s1,1.3,1.2,2.3c0,0,0,0,0,0.1c0,0.1,0,0.2-0.1,0.2
			s-0.1,0.1-0.2,0.1c-0.2,0.1-0.4,0.2-0.6,0.2c-0.2,0.1-0.4,0.1-0.7,0.2c-0.6,0.2-1.2,0.5-1.9,0.7s-1.2,0.5-1.8,0.7
			c0,0-0.1,0.1-0.1,0.1c0,0,0,0,0,0.1c0.2,0.4,0.6,0.7,1,0.9s0.8,0.3,1.3,0.3c0.4,0,0.7-0.1,1-0.2s0.6-0.3,0.9-0.4
			c0,0,0.1,0,0.1-0.1s0.1,0,0.1,0c0.1,0,0.1,0,0.2,0.1s0.1,0.1,0.1,0.2c0,0,0.1,0.1,0.1,0.3s0.1,0.3,0.2,0.4s0.1,0.2,0.1,0.3
			c0,0.1,0,0.1-0.1,0.2s-0.1,0.1-0.1,0.1c-0.4,0.3-0.9,0.5-1.5,0.7S274.3,18.2,273.8,18.2z M271.6,14c0.6-0.2,1.2-0.4,1.8-0.6
			s1.2-0.4,1.8-0.6c-0.1-0.3-0.4-0.6-0.6-0.8s-0.6-0.4-1-0.4c-0.4,0-0.8,0.1-1.1,0.4s-0.5,0.5-0.7,0.9S271.6,13.6,271.6,14z"/>
		<path id="XMLID_417_" class="st4" d="M283.3,18.2c-0.4,0-0.9-0.1-1.3-0.2s-0.8-0.4-1.1-0.7c0,0,0,0-0.1,0s0,0-0.1,0s0,0-0.1,0.1
			s0,0.1,0,0.1c0,0.4,0,0.8,0,1.2s0,0.8,0,1.2c0,0.1,0,0.3,0,0.4s0,0.3,0,0.4c0,0.1,0,0.2-0.1,0.3s-0.1,0.1-0.3,0.1h-1.4
			c-0.2,0-0.4-0.1-0.4-0.4c0-0.5,0-0.9,0-1.4s0-0.9,0-1.4c0-1,0-1.9,0.1-2.9s0-1.9,0-2.9c0-0.3,0-0.6,0-0.9s0-0.6,0-0.9
			c0-0.2,0.1-0.4,0.4-0.4h1.1c0.2,0,0.3,0.1,0.3,0.2s0.1,0.3,0.1,0.4s0,0.2,0.1,0.2c0,0,0.1,0,0.1,0c0.4-0.3,0.9-0.6,1.3-0.8
			s1-0.3,1.5-0.3c0.8,0,1.5,0.2,2.1,0.6s1,0.9,1.3,1.5s0.4,1.4,0.4,2.1c0,0.8-0.2,1.6-0.5,2.2c-0.3,0.6-0.8,1.1-1.4,1.4
			S284.1,18.2,283.3,18.2z M282.9,16.4c0.4,0,0.9-0.1,1.2-0.3c0.4-0.2,0.7-0.5,0.9-0.8s0.3-0.8,0.3-1.2c0-0.7-0.2-1.3-0.7-1.7
			s-1-0.7-1.7-0.7c-0.5,0-0.9,0.1-1.3,0.4s-0.7,0.6-0.8,1.1c0,0.3,0,0.6,0,0.9s0,0.6,0,0.9c0,0,0,0.1,0.1,0.2s0.1,0.2,0.1,0.2
			c0.2,0.4,0.5,0.7,0.8,0.9C282.1,16.3,282.4,16.4,282.9,16.4z"/>
	</g>
</g>
<g id="Layer_5" class="st0">
	<g id="XMLID_537_" class="st1">
		<path id="XMLID_538_" d="M311.1,18.4c0,0-0.2-0.1-0.5-0.4s-0.7-0.7-1.2-1.1s-1-1-1.6-1.6s-1.2-1.1-1.7-1.7s-1.1-1.1-1.6-1.6
			s-0.9-0.9-1.2-1.1s-0.5-0.4-0.5-0.4c0,0,0,0-0.1,0.1s0,0.1,0,0.1c0,0.5,0,1.1,0,1.6s0,1.1,0,1.6c0,0.4,0,0.9,0,1.3s0,0.9,0,1.3
			c0,0.2,0,0.4,0,0.6s0,0.4,0,0.6c0,0.1,0,0.2-0.1,0.3s-0.1,0.1-0.3,0.1h-1.6c-0.2,0-0.4-0.1-0.4-0.4c0-0.3,0-0.7,0-1s0-0.7,0-1
			c0-0.7,0-1.3,0-2s0-1.3,0-2c0-0.7,0-1.4,0-2.1s0-1.4,0-2.1c0-0.3,0-0.7,0-1s0-0.7,0-1c0,0,0-0.1,0.1-0.1s0.1,0,0.1,0
			c1.4,1.3,2.8,2.6,4.1,4s2.7,2.7,4.1,4c0,0,0,0,0.1,0s0,0,0.1,0c0,0,0.1,0,0.1-0.1s0-0.1,0-0.1c0-0.5,0-1.1,0-1.6s0-1.1,0-1.6
			c0-0.5,0-0.9,0-1.4s0-0.9,0-1.4c0-0.2,0-0.4,0-0.6s0-0.4,0-0.6c0-0.1,0-0.2,0.1-0.3s0.1-0.1,0.3-0.1h1.5c0.2,0,0.4,0.1,0.4,0.4
			c0,0.3,0,0.6,0,0.9s0,0.6,0,0.9c0,0.6,0,1.3,0,1.9s0,1.3,0,1.9C311.1,14,311.1,16.2,311.1,18.4L311.1,18.4z"/>
		<path id="XMLID_540_" d="M312.8,14.1c0-0.8,0.2-1.5,0.5-2.2s0.8-1.1,1.5-1.5s1.4-0.6,2.2-0.6c0.8,0,1.5,0.2,2.1,0.5
			s1.1,0.9,1.4,1.5s0.5,1.3,0.5,2.1c0,0.8-0.2,1.5-0.5,2.2c-0.3,0.6-0.8,1.1-1.4,1.5s-1.3,0.5-2.2,0.5c-0.8,0-1.5-0.2-2.2-0.5
			s-1.1-0.8-1.4-1.4C312.9,15.6,312.8,14.9,312.8,14.1z M316.9,11.6c-0.4,0-0.8,0.1-1.1,0.4s-0.5,0.5-0.7,0.9s-0.2,0.8-0.2,1.2
			c0,0.4,0.1,0.7,0.2,1.1s0.4,0.6,0.7,0.9c0.3,0.2,0.7,0.3,1.1,0.3c0.4,0,0.8-0.1,1.1-0.3c0.3-0.2,0.5-0.5,0.7-0.9s0.2-0.7,0.2-1.1
			c0-0.4-0.1-0.8-0.2-1.1s-0.4-0.7-0.7-0.9S317.3,11.6,316.9,11.6z"/>
		<path id="XMLID_543_" d="M323.2,9.9c0-0.5,0-1,0-1.5s0-1,0-1.5c0-0.2,0.1-0.4,0.4-0.4h1.4c0.2,0,0.4,0.1,0.4,0.4c0,0.5,0,1,0,1.5
			s0,1,0,1.5c0,0.1,0,0.1,0.1,0.1h1.4c0.2,0,0.4,0.1,0.4,0.4c0,0.2,0,0.4,0,0.5s0,0.4,0,0.6c0,0.2-0.1,0.4-0.4,0.4h-1.4
			c-0.1,0-0.1,0-0.1,0.1c0,0.9,0,1.9,0,2.8s0,1.9,0,2.8c0,0.2-0.1,0.4-0.4,0.4h-1.4c-0.2,0-0.4-0.1-0.4-0.4c0-0.9,0-1.9,0-2.8
			s0-1.9,0-2.8c0-0.1-0.1-0.1-0.2-0.1s-0.3,0-0.4,0s-0.3,0-0.4,0s-0.2-0.2-0.2-0.3v-1.1c0-0.2,0.1-0.4,0.4-0.4h0.7
			C323.2,10,323.2,10,323.2,9.9z"/>
		<path id="XMLID_545_" d="M332.4,18.2c-0.9,0-1.6-0.2-2.2-0.5s-1.1-0.8-1.5-1.5c-0.4-0.6-0.5-1.4-0.5-2.2c0-0.8,0.2-1.5,0.5-2.2
			s0.8-1.1,1.4-1.5s1.3-0.6,2.1-0.6c1,0,1.8,0.3,2.4,0.9s1,1.3,1.2,2.3c0,0,0,0,0,0.1c0,0.1,0,0.2-0.1,0.2s-0.1,0.1-0.2,0.1
			c-0.2,0.1-0.4,0.2-0.6,0.2s-0.4,0.1-0.7,0.2c-0.6,0.2-1.2,0.5-1.9,0.7s-1.2,0.5-1.8,0.7c0,0-0.1,0.1-0.1,0.1c0,0,0,0,0,0.1
			c0.2,0.4,0.6,0.7,1,0.9s0.8,0.3,1.3,0.3c0.4,0,0.7-0.1,1-0.2s0.6-0.3,0.9-0.4c0,0,0.1,0,0.1-0.1s0.1,0,0.1,0c0.1,0,0.1,0,0.2,0.1
			s0.1,0.1,0.1,0.2c0,0,0.1,0.1,0.1,0.3s0.1,0.3,0.2,0.4s0.1,0.2,0.1,0.3c0,0.1,0,0.1-0.1,0.2s-0.1,0.1-0.1,0.1
			c-0.4,0.3-0.9,0.5-1.5,0.7S332.9,18.2,332.4,18.2z M330.1,14c0.6-0.2,1.2-0.4,1.8-0.6s1.2-0.4,1.8-0.6c-0.1-0.3-0.3-0.6-0.6-0.8
			s-0.6-0.4-1-0.4c-0.4,0-0.8,0.1-1.1,0.4s-0.5,0.5-0.7,0.9S330.1,13.6,330.1,14z"/>
		<path id="XMLID_548_" d="M339.3,5.7c0.2,0,0.3,0.1,0.4,0.4c0,0.3,0,0.5,0,0.8s0,0.5,0,0.8c0,0.6,0,1.1,0,1.7s0,1.1,0,1.7
			c0,0.1,0,0.1,0.1,0.1h0c2-0.5,3.3-1.8,4.1-3.7c0.1-0.2,0.2-0.4,0.2-0.7s0.1-0.5,0.2-0.7c0-0.1,0.1-0.2,0.1-0.2s0.1-0.1,0.2-0.1
			h1.5c0.1,0,0.2,0,0.3,0.1s0.1,0.1,0.1,0.2c0,0.1,0,0.1,0,0.1c-0.2,1-0.6,1.9-1.1,2.8s-1.1,1.6-2,2.3c-0.2,0.1-0.3,0.2-0.5,0.4
			s-0.3,0.2-0.5,0.3c0,0-0.1,0-0.1,0.1c0,0,0.1,0.2,0.3,0.4s0.4,0.6,0.7,0.9s0.6,0.8,0.9,1.2s0.6,0.8,0.9,1.3c0.3,0.4,0.6,0.8,0.8,1
			s0.4,0.5,0.4,0.6c0,0,0.1,0.1,0.1,0.2s0.1,0.1,0.1,0.2c0,0.1-0.1,0.2-0.2,0.2s-0.2,0-0.3,0h-1.7c-0.1,0-0.2,0-0.3-0.1
			c-0.2-0.2-0.3-0.4-0.5-0.6s-0.3-0.4-0.5-0.7c-0.3-0.4-0.6-0.8-0.9-1.2s-0.6-0.8-0.9-1.2c-0.2-0.2-0.3-0.4-0.5-0.7
			s-0.3-0.4-0.5-0.6c0,0-0.1,0-0.1,0c-0.1,0-0.1,0-0.2,0s-0.2,0-0.2,0s-0.1,0-0.1,0.1c0,0.5,0,1.1,0,1.6s0,1.1,0,1.6
			c0,0.3,0,0.5,0,0.8s0,0.5,0,0.8c0,0.2-0.1,0.4-0.4,0.4h-1.5c-0.2,0-0.4-0.1-0.4-0.4c0-0.3,0-0.6,0-1s0-0.6,0-1c0-1.3,0-2.7,0-4
			c0-1.3,0-2.6,0-3.8c0-0.3,0-0.6,0-0.9s0-0.6,0-0.9c0-0.2,0.1-0.4,0.4-0.4H339.3z"/>
		<path id="XMLID_550_" d="M351.8,18.2c-0.9,0-1.6-0.2-2.2-0.5s-1.1-0.8-1.5-1.5c-0.4-0.6-0.5-1.4-0.5-2.2c0-0.8,0.2-1.5,0.5-2.2
			s0.8-1.1,1.4-1.5s1.3-0.6,2.1-0.6c1,0,1.8,0.3,2.4,0.9s1,1.3,1.2,2.3c0,0,0,0,0,0.1c0,0.1,0,0.2-0.1,0.2s-0.1,0.1-0.2,0.1
			c-0.2,0.1-0.4,0.2-0.6,0.2s-0.4,0.1-0.7,0.2c-0.6,0.2-1.2,0.5-1.9,0.7s-1.2,0.5-1.8,0.7c0,0-0.1,0.1-0.1,0.1c0,0,0,0,0,0.1
			c0.2,0.4,0.6,0.7,1,0.9s0.8,0.3,1.3,0.3c0.4,0,0.7-0.1,1-0.2s0.6-0.3,0.9-0.4c0,0,0.1,0,0.1-0.1s0.1,0,0.1,0c0.1,0,0.1,0,0.2,0.1
			s0.1,0.1,0.1,0.2c0,0,0.1,0.1,0.1,0.3s0.1,0.3,0.2,0.4s0.1,0.2,0.1,0.3c0,0.1,0,0.1-0.1,0.2s-0.1,0.1-0.1,0.1
			c-0.4,0.3-0.9,0.5-1.5,0.7S352.3,18.2,351.8,18.2z M349.6,14c0.6-0.2,1.2-0.4,1.8-0.6s1.2-0.4,1.8-0.6c-0.1-0.3-0.3-0.6-0.6-0.8
			s-0.6-0.4-1-0.4c-0.4,0-0.8,0.1-1.1,0.4s-0.5,0.5-0.7,0.9S349.6,13.6,349.6,14z"/>
		<path id="XMLID_553_" d="M360.4,18.2c-0.9,0-1.6-0.2-2.2-0.5s-1.1-0.8-1.5-1.5c-0.4-0.6-0.5-1.4-0.5-2.2c0-0.8,0.2-1.5,0.5-2.2
			s0.8-1.1,1.4-1.5s1.3-0.6,2.1-0.6c1,0,1.8,0.3,2.4,0.9s1,1.3,1.2,2.3c0,0,0,0,0,0.1c0,0.1,0,0.2-0.1,0.2s-0.1,0.1-0.2,0.1
			c-0.2,0.1-0.4,0.2-0.6,0.2s-0.4,0.1-0.7,0.2c-0.6,0.2-1.2,0.5-1.9,0.7s-1.2,0.5-1.8,0.7c0,0-0.1,0.1-0.1,0.1c0,0,0,0,0,0.1
			c0.2,0.4,0.6,0.7,1,0.9s0.8,0.3,1.3,0.3c0.4,0,0.7-0.1,1-0.2s0.6-0.3,0.9-0.4c0,0,0.1,0,0.1-0.1s0.1,0,0.1,0c0.1,0,0.1,0,0.2,0.1
			s0.1,0.1,0.1,0.2c0,0,0.1,0.1,0.1,0.3s0.1,0.3,0.2,0.4s0.1,0.2,0.1,0.3c0,0.1,0,0.1-0.1,0.2s-0.1,0.1-0.1,0.1
			c-0.4,0.3-0.9,0.5-1.5,0.7S360.9,18.2,360.4,18.2z M358.2,14c0.6-0.2,1.2-0.4,1.8-0.6s1.2-0.4,1.8-0.6c-0.1-0.3-0.3-0.6-0.6-0.8
			s-0.6-0.4-1-0.4c-0.4,0-0.8,0.1-1.1,0.4s-0.5,0.5-0.7,0.9S358.2,13.6,358.2,14z"/>
		<path id="XMLID_556_" d="M369.9,18.2c-0.4,0-0.9-0.1-1.3-0.2s-0.8-0.4-1.1-0.7c0,0,0,0-0.1,0s0,0-0.1,0s0,0-0.1,0.1s0,0.1,0,0.1
			c0,0.4,0,0.8,0,1.2s0,0.8,0,1.2c0,0.1,0,0.3,0,0.4s0,0.3,0,0.4c0,0.1,0,0.2-0.1,0.3S367,21,366.9,21h-1.4c-0.2,0-0.4-0.1-0.4-0.4
			c0-0.5,0-0.9,0-1.4s0-0.9,0-1.4c0-1,0-1.9,0.1-2.9s0-1.9,0-2.9c0-0.3,0-0.6,0-0.9s0-0.6,0-0.9c0-0.2,0.1-0.4,0.4-0.4h1.1
			c0.2,0,0.3,0.1,0.3,0.2s0.1,0.3,0.1,0.4s0,0.2,0.1,0.2c0,0,0.1,0,0.1,0c0.4-0.3,0.9-0.6,1.3-0.8s1-0.3,1.5-0.3
			c0.8,0,1.5,0.2,2.1,0.6s1,0.9,1.3,1.5s0.4,1.4,0.4,2.1c0,0.8-0.2,1.6-0.5,2.2c-0.3,0.6-0.8,1.1-1.4,1.4S370.7,18.2,369.9,18.2z
			 M369.5,16.4c0.4,0,0.9-0.1,1.2-0.3c0.4-0.2,0.7-0.5,0.9-0.8s0.3-0.8,0.3-1.2c0-0.7-0.2-1.3-0.7-1.7s-1-0.7-1.7-0.7
			c-0.5,0-0.9,0.1-1.3,0.4s-0.7,0.6-0.8,1.1c0,0.3,0,0.6,0,0.9s0,0.6,0,0.9c0,0,0,0.1,0.1,0.2s0.1,0.2,0.1,0.2
			c0.2,0.4,0.5,0.7,0.8,0.9C368.7,16.3,369.1,16.4,369.5,16.4z"/>
	</g>
</g>
</svg>
