<?xml version="1.0" encoding="utf-8"?>
<!-- Generator: Adobe Illustrator 19.0.0, SVG Export Plug-In . SVG Version: 6.00 Build 0)  -->
<svg version="1.1" xmlns="http://www.w3.org/2000/svg" xmlns:xlink="http://www.w3.org/1999/xlink" x="0px" y="0px"
	 viewBox="0 0 26.7 26.3" style="enable-background:new 0 0 26.7 26.3;" xml:space="preserve">
<style type="text/css">
	.st0{display:none;}
	.st1{display:inline;}
	.st2{fill:#311D7C;}
	.st3{fill:#FFD45C;}
	.st4{fill:#FFFFFF;}
</style>
<g id="Layer_1" class="st0">
	<g id="XMLID_1_" class="st1">
		<g id="XMLID_2_">
			<path id="XMLID_3_" class="st2" d="M-240.5,24.9h-13.1c-2.8,0-5-2.2-5-5V6.5c0-2.8,2.2-5,5-5h13.1c2.8,0,5,2.2,5,5v13.4
				C-235.5,22.6-237.7,24.9-240.5,24.9z"/>
			<path id="XMLID_4_" class="st3" d="M-243.4,20.6h-7.3c-2,0-3.7-1.6-3.7-3.7V9.4c0-2,1.6-3.7,3.7-3.7h7.3c2,0,3.7,1.6,3.7,3.7v7.5
				C-239.7,18.9-241.4,20.6-243.4,20.6z"/>
			<path id="XMLID_5_" class="st2" d="M-248.1,17.7h-3.5c-0.6,0-1.1-0.5-1.1-1.1v0c0-0.6,0.5-1.1,1.1-1.1h3.5c0.6,0,1.1,0.5,1.1,1.1
				v0C-247,17.2-247.5,17.7-248.1,17.7z"/>
			<path id="XMLID_6_" class="st2" d="M-244.2,14.7h-7.4c-0.6,0-1.1-0.5-1.1-1.1v0c0-0.6,0.5-1.1,1.1-1.1h7.4c0.6,0,1.1,0.5,1.1,1.1
				v0C-243.1,14.3-243.6,14.7-244.2,14.7z"/>
		</g>
		<g>
			<path id="XMLID_706_" d="M-217.6,19c0,0-0.2-0.1-0.5-0.4s-0.7-0.7-1.2-1.1s-1-1-1.6-1.6c-0.6-0.6-1.2-1.1-1.7-1.7
				s-1.1-1.1-1.6-1.6s-0.9-0.9-1.2-1.1S-226,11-226,11c0,0,0,0-0.1,0.1s0,0.1,0,0.1c0,0.5,0,1.1,0,1.6s0,1.1,0,1.6
				c0,0.4,0,0.9,0,1.3c0,0.4,0,0.9,0,1.3c0,0.2,0,0.4,0,0.6s0,0.4,0,0.6c0,0.1,0,0.2-0.1,0.3s-0.1,0.1-0.3,0.1h-1.6
				c-0.2,0-0.4-0.1-0.4-0.4c0-0.3,0-0.7,0-1s0-0.7,0-1c0-0.7,0-1.3,0-2c0-0.7,0-1.3,0-2c0-0.7,0-1.4,0-2.1s0-1.4,0-2.1
				c0-0.3,0-0.7,0-1s0-0.7,0-1c0,0,0-0.1,0.1-0.1s0.1,0,0.1,0c1.4,1.3,2.8,2.6,4.1,4s2.7,2.7,4.1,4c0,0,0,0,0.1,0s0,0,0.1,0
				c0,0,0.1,0,0.1-0.1s0-0.1,0-0.1c0-0.5,0-1.1,0-1.6s0-1.1,0-1.6c0-0.5,0-0.9,0-1.4s0-0.9,0-1.4c0-0.2,0-0.4,0-0.6s0-0.4,0-0.6
				c0-0.1,0-0.2,0.1-0.3s0.1-0.1,0.3-0.1h1.5c0.2,0,0.4,0.1,0.4,0.4c0,0.3,0,0.6,0,0.9s0,0.6,0,0.9c0,0.6,0,1.3,0,1.9s0,1.3,0,1.9
				C-217.7,14.5-217.7,16.7-217.6,19L-217.6,19z"/>
			<path id="XMLID_708_" d="M-216,14.7c0-0.8,0.2-1.5,0.5-2.2s0.8-1.1,1.5-1.5s1.4-0.6,2.2-0.6c0.8,0,1.5,0.2,2.1,0.5
				s1.1,0.9,1.4,1.5s0.5,1.3,0.5,2.1c0,0.8-0.2,1.5-0.5,2.2s-0.8,1.1-1.4,1.5s-1.3,0.5-2.2,0.5c-0.8,0-1.5-0.2-2.2-0.5
				s-1.1-0.8-1.4-1.4S-216,15.5-216,14.7z M-211.9,12.2c-0.4,0-0.8,0.1-1.1,0.4s-0.5,0.5-0.7,0.9s-0.2,0.8-0.2,1.2
				c0,0.4,0.1,0.7,0.2,1.1c0.2,0.4,0.4,0.6,0.7,0.9s0.7,0.3,1.1,0.3c0.4,0,0.8-0.1,1.1-0.3s0.5-0.5,0.7-0.9c0.1-0.4,0.2-0.7,0.2-1.1
				c0-0.4-0.1-0.8-0.2-1.1s-0.4-0.7-0.7-0.9S-211.5,12.2-211.9,12.2z"/>
			<path id="XMLID_711_" d="M-205.5,10.5c0-0.5,0-1,0-1.5s0-1,0-1.5c0-0.2,0.1-0.4,0.4-0.4h1.4c0.2,0,0.4,0.1,0.4,0.4
				c0,0.5,0,1,0,1.5s0,1,0,1.5c0,0.1,0,0.1,0.1,0.1h1.4c0.2,0,0.4,0.1,0.4,0.4c0,0.2,0,0.4,0,0.5s0,0.4,0,0.6c0,0.2-0.1,0.4-0.4,0.4
				h-1.4c-0.1,0-0.1,0-0.1,0.1c0,0.9,0,1.9,0,2.8c0,0.9,0,1.9,0,2.8c0,0.2-0.1,0.4-0.4,0.4h-1.4c-0.2,0-0.4-0.1-0.4-0.4
				c0-0.9,0-1.9,0-2.8c0-0.9,0-1.9,0-2.8c0-0.1-0.1-0.1-0.2-0.1s-0.3,0-0.4,0s-0.3,0-0.4,0s-0.2-0.2-0.2-0.3V11
				c0-0.2,0.1-0.4,0.4-0.4h0.7C-205.6,10.6-205.5,10.6-205.5,10.5z"/>
			<path id="XMLID_713_" d="M-196.4,18.8c-0.9,0-1.6-0.2-2.2-0.5s-1.1-0.8-1.5-1.5s-0.5-1.4-0.5-2.2c0-0.8,0.2-1.5,0.5-2.2
				s0.8-1.1,1.4-1.5s1.3-0.6,2.1-0.6c1,0,1.8,0.3,2.4,0.9s1,1.3,1.2,2.3c0,0,0,0,0,0.1c0,0.1,0,0.2-0.1,0.2s-0.1,0.1-0.2,0.1
				c-0.2,0.1-0.4,0.2-0.6,0.2c-0.2,0.1-0.4,0.1-0.7,0.2c-0.6,0.2-1.2,0.5-1.9,0.7s-1.2,0.5-1.8,0.7c0,0-0.1,0.1-0.1,0.1
				c0,0,0,0,0,0.1c0.2,0.4,0.6,0.7,1,0.9s0.8,0.3,1.3,0.3c0.4,0,0.7-0.1,1-0.2s0.6-0.3,0.9-0.4c0,0,0.1,0,0.1-0.1s0.1,0,0.1,0
				c0.1,0,0.1,0,0.2,0.1s0.1,0.1,0.1,0.2c0,0,0.1,0.1,0.1,0.3s0.1,0.3,0.2,0.4s0.1,0.2,0.1,0.3c0,0.1,0,0.1-0.1,0.2
				s-0.1,0.1-0.1,0.1c-0.4,0.3-0.9,0.5-1.5,0.7S-195.9,18.8-196.4,18.8z M-198.6,14.5c0.6-0.2,1.2-0.4,1.8-0.6s1.2-0.4,1.8-0.6
				c-0.1-0.3-0.4-0.6-0.6-0.8s-0.6-0.4-1-0.4c-0.4,0-0.8,0.1-1.1,0.4s-0.5,0.5-0.7,0.9S-198.6,14.1-198.6,14.5z"/>
			<path id="XMLID_716_" d="M-189.5,6.3c0.2,0,0.3,0.1,0.4,0.4c0,0.3,0,0.5,0,0.8s0,0.5,0,0.8c0,0.6,0,1.1,0,1.7s0,1.1,0,1.7
				c0,0.1,0,0.1,0.1,0.1h0c2-0.5,3.3-1.8,4.1-3.7c0.1-0.2,0.2-0.4,0.2-0.7s0.1-0.5,0.2-0.7c0-0.1,0.1-0.2,0.1-0.2s0.1-0.1,0.2-0.1
				h1.5c0.1,0,0.2,0,0.3,0.1s0.1,0.1,0.1,0.2c0,0.1,0,0.1,0,0.1c-0.2,1-0.6,1.9-1.1,2.8s-1.1,1.6-2,2.3c-0.2,0.1-0.3,0.2-0.5,0.4
				s-0.3,0.2-0.5,0.3c0,0-0.1,0-0.1,0.1c0,0,0.1,0.2,0.3,0.4s0.4,0.6,0.7,0.9c0.3,0.4,0.6,0.8,0.9,1.2s0.6,0.8,0.9,1.3
				c0.3,0.4,0.6,0.8,0.8,1s0.4,0.5,0.4,0.6c0,0,0.1,0.1,0.1,0.2s0.1,0.1,0.1,0.2c0,0.1-0.1,0.2-0.2,0.2s-0.2,0-0.3,0h-1.7
				c-0.1,0-0.2,0-0.3-0.1c-0.2-0.2-0.3-0.4-0.5-0.6s-0.3-0.4-0.5-0.7c-0.3-0.4-0.6-0.8-0.9-1.2c-0.3-0.4-0.6-0.8-0.9-1.2
				c-0.2-0.2-0.3-0.4-0.5-0.7s-0.3-0.4-0.5-0.6c0,0-0.1,0-0.1,0c-0.1,0-0.1,0-0.2,0s-0.2,0-0.2,0s-0.1,0-0.1,0.1c0,0.5,0,1.1,0,1.6
				s0,1.1,0,1.6c0,0.3,0,0.5,0,0.8s0,0.5,0,0.8c0,0.2-0.1,0.4-0.4,0.4h-1.5c-0.2,0-0.4-0.1-0.4-0.4c0-0.3,0-0.6,0-1s0-0.6,0-1
				c0-1.3,0-2.7,0-4c0-1.3,0-2.6,0-3.8c0-0.3,0-0.6,0-0.9s0-0.6,0-0.9c0-0.2,0.1-0.4,0.4-0.4H-189.5z"/>
			<path id="XMLID_718_" d="M-177,18.8c-0.9,0-1.6-0.2-2.2-0.5s-1.1-0.8-1.5-1.5s-0.5-1.4-0.5-2.2c0-0.8,0.2-1.5,0.5-2.2
				s0.8-1.1,1.4-1.5s1.3-0.6,2.1-0.6c1,0,1.8,0.3,2.4,0.9s1,1.3,1.2,2.3c0,0,0,0,0,0.1c0,0.1,0,0.2-0.1,0.2s-0.1,0.1-0.2,0.1
				c-0.2,0.1-0.4,0.2-0.6,0.2c-0.2,0.1-0.4,0.1-0.7,0.2c-0.6,0.2-1.2,0.5-1.9,0.7s-1.2,0.5-1.8,0.7c0,0-0.1,0.1-0.1,0.1
				c0,0,0,0,0,0.1c0.2,0.4,0.6,0.7,1,0.9s0.8,0.3,1.3,0.3c0.4,0,0.7-0.1,1-0.2s0.6-0.3,0.9-0.4c0,0,0.1,0,0.1-0.1s0.1,0,0.1,0
				c0.1,0,0.1,0,0.2,0.1s0.1,0.1,0.1,0.2c0,0,0.1,0.1,0.1,0.3s0.1,0.3,0.2,0.4s0.1,0.2,0.1,0.3c0,0.1,0,0.1-0.1,0.2
				s-0.1,0.1-0.1,0.1c-0.4,0.3-0.9,0.5-1.5,0.7S-176.5,18.8-177,18.8z M-179.2,14.5c0.6-0.2,1.2-0.4,1.8-0.6s1.2-0.4,1.8-0.6
				c-0.1-0.3-0.4-0.6-0.6-0.8s-0.6-0.4-1-0.4c-0.4,0-0.8,0.1-1.1,0.4s-0.5,0.5-0.7,0.9S-179.2,14.1-179.2,14.5z"/>
			<path id="XMLID_721_" d="M-168.3,18.8c-0.9,0-1.6-0.2-2.2-0.5s-1.1-0.8-1.5-1.5s-0.5-1.4-0.5-2.2c0-0.8,0.2-1.5,0.5-2.2
				s0.8-1.1,1.4-1.5s1.3-0.6,2.1-0.6c1,0,1.8,0.3,2.4,0.9s1,1.3,1.2,2.3c0,0,0,0,0,0.1c0,0.1,0,0.2-0.1,0.2s-0.1,0.1-0.2,0.1
				c-0.2,0.1-0.4,0.2-0.6,0.2c-0.2,0.1-0.4,0.1-0.7,0.2c-0.6,0.2-1.2,0.5-1.9,0.7s-1.2,0.5-1.8,0.7c0,0-0.1,0.1-0.1,0.1
				c0,0,0,0,0,0.1c0.2,0.4,0.6,0.7,1,0.9s0.8,0.3,1.3,0.3c0.4,0,0.7-0.1,1-0.2s0.6-0.3,0.9-0.4c0,0,0.1,0,0.1-0.1s0.1,0,0.1,0
				c0.1,0,0.1,0,0.2,0.1s0.1,0.1,0.1,0.2c0,0,0.1,0.1,0.1,0.3s0.1,0.3,0.2,0.4s0.1,0.2,0.1,0.3c0,0.1,0,0.1-0.1,0.2
				s-0.1,0.1-0.1,0.1c-0.4,0.3-0.9,0.5-1.5,0.7S-167.8,18.8-168.3,18.8z M-170.5,14.5c0.6-0.2,1.2-0.4,1.8-0.6s1.2-0.4,1.8-0.6
				c-0.1-0.3-0.4-0.6-0.6-0.8s-0.6-0.4-1-0.4c-0.4,0-0.8,0.1-1.1,0.4s-0.5,0.5-0.7,0.9S-170.5,14.1-170.5,14.5z"/>
			<path id="XMLID_724_" d="M-158.9,18.8c-0.4,0-0.9-0.1-1.3-0.2s-0.8-0.4-1.1-0.7c0,0,0,0-0.1,0s0,0-0.1,0s0,0-0.1,0.1s0,0.1,0,0.1
				c0,0.4,0,0.8,0,1.2s0,0.8,0,1.2c0,0.1,0,0.3,0,0.4s0,0.3,0,0.4c0,0.1,0,0.2-0.1,0.3s-0.1,0.1-0.3,0.1h-1.4
				c-0.2,0-0.4-0.1-0.4-0.4c0-0.5,0-0.9,0-1.4s0-0.9,0-1.4c0-1,0-1.9,0.1-2.9c0-1,0-1.9,0-2.9c0-0.3,0-0.6,0-0.9s0-0.6,0-0.9
				c0-0.2,0.1-0.4,0.4-0.4h1.1c0.2,0,0.3,0.1,0.3,0.2s0.1,0.3,0.1,0.4s0,0.2,0.1,0.2c0,0,0.1,0,0.1,0c0.4-0.3,0.9-0.6,1.3-0.8
				s1-0.3,1.5-0.3c0.8,0,1.5,0.2,2.1,0.6s1,0.9,1.3,1.5s0.4,1.4,0.4,2.1c0,0.8-0.2,1.6-0.5,2.2s-0.8,1.1-1.4,1.4
				S-158,18.8-158.9,18.8z M-159.3,17c0.4,0,0.9-0.1,1.2-0.3s0.7-0.5,0.9-0.8c0.2-0.4,0.3-0.8,0.3-1.2c0-0.7-0.2-1.3-0.7-1.7
				s-1-0.7-1.7-0.7c-0.5,0-0.9,0.1-1.3,0.4s-0.7,0.6-0.8,1.1c0,0.3,0,0.6,0,0.9s0,0.6,0,0.9c0,0,0,0.1,0.1,0.2s0.1,0.2,0.1,0.2
				c0.2,0.4,0.5,0.7,0.8,0.9S-159.7,17-159.3,17z"/>
		</g>
		<g id="XMLID_7_">
			<path id="XMLID_663_" d="M-217.6,19c0,0-0.2-0.1-0.5-0.4s-0.7-0.7-1.2-1.1s-1-1-1.6-1.6c-0.6-0.6-1.2-1.1-1.7-1.7
				s-1.1-1.1-1.6-1.6s-0.9-0.9-1.2-1.1S-226,11-226,11c0,0,0,0-0.1,0.1s0,0.1,0,0.1c0,0.5,0,1.1,0,1.6s0,1.1,0,1.6
				c0,0.4,0,0.9,0,1.3c0,0.4,0,0.9,0,1.3c0,0.2,0,0.4,0,0.6s0,0.4,0,0.6c0,0.1,0,0.2-0.1,0.3s-0.1,0.1-0.3,0.1h-1.6
				c-0.2,0-0.4-0.1-0.4-0.4c0-0.3,0-0.7,0-1s0-0.7,0-1c0-0.7,0-1.3,0-2c0-0.7,0-1.3,0-2c0-0.7,0-1.4,0-2.1s0-1.4,0-2.1
				c0-0.3,0-0.7,0-1s0-0.7,0-1c0,0,0-0.1,0.1-0.1s0.1,0,0.1,0c1.4,1.3,2.8,2.6,4.1,4s2.7,2.7,4.1,4c0,0,0,0,0.1,0s0,0,0.1,0
				c0,0,0.1,0,0.1-0.1s0-0.1,0-0.1c0-0.5,0-1.1,0-1.6s0-1.1,0-1.6c0-0.5,0-0.9,0-1.4s0-0.9,0-1.4c0-0.2,0-0.4,0-0.6s0-0.4,0-0.6
				c0-0.1,0-0.2,0.1-0.3s0.1-0.1,0.3-0.1h1.5c0.2,0,0.4,0.1,0.4,0.4c0,0.3,0,0.6,0,0.9s0,0.6,0,0.9c0,0.6,0,1.3,0,1.9s0,1.3,0,1.9
				C-217.7,14.5-217.7,16.7-217.6,19L-217.6,19z"/>
			<path id="XMLID_665_" d="M-216,14.7c0-0.8,0.2-1.5,0.5-2.2s0.8-1.1,1.5-1.5s1.4-0.6,2.2-0.6c0.8,0,1.5,0.2,2.1,0.5
				s1.1,0.9,1.4,1.5s0.5,1.3,0.5,2.1c0,0.8-0.2,1.5-0.5,2.2s-0.8,1.1-1.4,1.5s-1.3,0.5-2.2,0.5c-0.8,0-1.5-0.2-2.2-0.5
				s-1.1-0.8-1.4-1.4S-216,15.5-216,14.7z M-211.9,12.2c-0.4,0-0.8,0.1-1.1,0.4s-0.5,0.5-0.7,0.9s-0.2,0.8-0.2,1.2
				c0,0.4,0.1,0.7,0.2,1.1c0.2,0.4,0.4,0.6,0.7,0.9s0.7,0.3,1.1,0.3c0.4,0,0.8-0.1,1.1-0.3s0.5-0.5,0.7-0.9c0.1-0.4,0.2-0.7,0.2-1.1
				c0-0.4-0.1-0.8-0.2-1.1s-0.4-0.7-0.7-0.9S-211.5,12.2-211.9,12.2z"/>
			<path id="XMLID_668_" d="M-205.5,10.5c0-0.5,0-1,0-1.5s0-1,0-1.5c0-0.2,0.1-0.4,0.4-0.4h1.4c0.2,0,0.4,0.1,0.4,0.4
				c0,0.5,0,1,0,1.5s0,1,0,1.5c0,0.1,0,0.1,0.1,0.1h1.4c0.2,0,0.4,0.1,0.4,0.4c0,0.2,0,0.4,0,0.5s0,0.4,0,0.6c0,0.2-0.1,0.4-0.4,0.4
				h-1.4c-0.1,0-0.1,0-0.1,0.1c0,0.9,0,1.9,0,2.8c0,0.9,0,1.9,0,2.8c0,0.2-0.1,0.4-0.4,0.4h-1.4c-0.2,0-0.4-0.1-0.4-0.4
				c0-0.9,0-1.9,0-2.8c0-0.9,0-1.9,0-2.8c0-0.1-0.1-0.1-0.2-0.1s-0.3,0-0.4,0s-0.3,0-0.4,0s-0.2-0.2-0.2-0.3V11
				c0-0.2,0.1-0.4,0.4-0.4h0.7C-205.6,10.6-205.5,10.6-205.5,10.5z"/>
			<path id="XMLID_670_" d="M-196.4,18.8c-0.9,0-1.6-0.2-2.2-0.5s-1.1-0.8-1.5-1.5s-0.5-1.4-0.5-2.2c0-0.8,0.2-1.5,0.5-2.2
				s0.8-1.1,1.4-1.5s1.3-0.6,2.1-0.6c1,0,1.8,0.3,2.4,0.9s1,1.3,1.2,2.3c0,0,0,0,0,0.1c0,0.1,0,0.2-0.1,0.2s-0.1,0.1-0.2,0.1
				c-0.2,0.1-0.4,0.2-0.6,0.2c-0.2,0.1-0.4,0.1-0.7,0.2c-0.6,0.2-1.2,0.5-1.9,0.7s-1.2,0.5-1.8,0.7c0,0-0.1,0.1-0.1,0.1
				c0,0,0,0,0,0.1c0.2,0.4,0.6,0.7,1,0.9s0.8,0.3,1.3,0.3c0.4,0,0.7-0.1,1-0.2s0.6-0.3,0.9-0.4c0,0,0.1,0,0.1-0.1s0.1,0,0.1,0
				c0.1,0,0.1,0,0.2,0.1s0.1,0.1,0.1,0.2c0,0,0.1,0.1,0.1,0.3s0.1,0.3,0.2,0.4s0.1,0.2,0.1,0.3c0,0.1,0,0.1-0.1,0.2
				s-0.1,0.1-0.1,0.1c-0.4,0.3-0.9,0.5-1.5,0.7S-195.9,18.8-196.4,18.8z M-198.6,14.5c0.6-0.2,1.2-0.4,1.8-0.6s1.2-0.4,1.8-0.6
				c-0.1-0.3-0.4-0.6-0.6-0.8s-0.6-0.4-1-0.4c-0.4,0-0.8,0.1-1.1,0.4s-0.5,0.5-0.7,0.9S-198.6,14.1-198.6,14.5z"/>
			<path id="XMLID_673_" d="M-189.5,6.3c0.2,0,0.3,0.1,0.4,0.4c0,0.3,0,0.5,0,0.8s0,0.5,0,0.8c0,0.6,0,1.1,0,1.7s0,1.1,0,1.7
				c0,0.1,0,0.1,0.1,0.1h0c2-0.5,3.3-1.8,4.1-3.7c0.1-0.2,0.2-0.4,0.2-0.7s0.1-0.5,0.2-0.7c0-0.1,0.1-0.2,0.1-0.2s0.1-0.1,0.2-0.1
				h1.5c0.1,0,0.2,0,0.3,0.1s0.1,0.1,0.1,0.2c0,0.1,0,0.1,0,0.1c-0.2,1-0.6,1.9-1.1,2.8s-1.1,1.6-2,2.3c-0.2,0.1-0.3,0.2-0.5,0.4
				s-0.3,0.2-0.5,0.3c0,0-0.1,0-0.1,0.1c0,0,0.1,0.2,0.3,0.4s0.4,0.6,0.7,0.9c0.3,0.4,0.6,0.8,0.9,1.2s0.6,0.8,0.9,1.3
				c0.3,0.4,0.6,0.8,0.8,1s0.4,0.5,0.4,0.6c0,0,0.1,0.1,0.1,0.2s0.1,0.1,0.1,0.2c0,0.1-0.1,0.2-0.2,0.2s-0.2,0-0.3,0h-1.7
				c-0.1,0-0.2,0-0.3-0.1c-0.2-0.2-0.3-0.4-0.5-0.6s-0.3-0.4-0.5-0.7c-0.3-0.4-0.6-0.8-0.9-1.2c-0.3-0.4-0.6-0.8-0.9-1.2
				c-0.2-0.2-0.3-0.4-0.5-0.7s-0.3-0.4-0.5-0.6c0,0-0.1,0-0.1,0c-0.1,0-0.1,0-0.2,0s-0.2,0-0.2,0s-0.1,0-0.1,0.1c0,0.5,0,1.1,0,1.6
				s0,1.1,0,1.6c0,0.3,0,0.5,0,0.8s0,0.5,0,0.8c0,0.2-0.1,0.4-0.4,0.4h-1.5c-0.2,0-0.4-0.1-0.4-0.4c0-0.3,0-0.6,0-1s0-0.6,0-1
				c0-1.3,0-2.7,0-4c0-1.3,0-2.6,0-3.8c0-0.3,0-0.6,0-0.9s0-0.6,0-0.9c0-0.2,0.1-0.4,0.4-0.4H-189.5z"/>
			<path id="XMLID_675_" d="M-177,18.8c-0.9,0-1.6-0.2-2.2-0.5s-1.1-0.8-1.5-1.5s-0.5-1.4-0.5-2.2c0-0.8,0.2-1.5,0.5-2.2
				s0.8-1.1,1.4-1.5s1.3-0.6,2.1-0.6c1,0,1.8,0.3,2.4,0.9s1,1.3,1.2,2.3c0,0,0,0,0,0.1c0,0.1,0,0.2-0.1,0.2s-0.1,0.1-0.2,0.1
				c-0.2,0.1-0.4,0.2-0.6,0.2c-0.2,0.1-0.4,0.1-0.7,0.2c-0.6,0.2-1.2,0.5-1.9,0.7s-1.2,0.5-1.8,0.7c0,0-0.1,0.1-0.1,0.1
				c0,0,0,0,0,0.1c0.2,0.4,0.6,0.7,1,0.9s0.8,0.3,1.3,0.3c0.4,0,0.7-0.1,1-0.2s0.6-0.3,0.9-0.4c0,0,0.1,0,0.1-0.1s0.1,0,0.1,0
				c0.1,0,0.1,0,0.2,0.1s0.1,0.1,0.1,0.2c0,0,0.1,0.1,0.1,0.3s0.1,0.3,0.2,0.4s0.1,0.2,0.1,0.3c0,0.1,0,0.1-0.1,0.2
				s-0.1,0.1-0.1,0.1c-0.4,0.3-0.9,0.5-1.5,0.7S-176.5,18.8-177,18.8z M-179.2,14.5c0.6-0.2,1.2-0.4,1.8-0.6s1.2-0.4,1.8-0.6
				c-0.1-0.3-0.4-0.6-0.6-0.8s-0.6-0.4-1-0.4c-0.4,0-0.8,0.1-1.1,0.4s-0.5,0.5-0.7,0.9S-179.2,14.1-179.2,14.5z"/>
			<path id="XMLID_678_" d="M-168.3,18.8c-0.9,0-1.6-0.2-2.2-0.5s-1.1-0.8-1.5-1.5s-0.5-1.4-0.5-2.2c0-0.8,0.2-1.5,0.5-2.2
				s0.8-1.1,1.4-1.5s1.3-0.6,2.1-0.6c1,0,1.8,0.3,2.4,0.9s1,1.3,1.2,2.3c0,0,0,0,0,0.1c0,0.1,0,0.2-0.1,0.2s-0.1,0.1-0.2,0.1
				c-0.2,0.1-0.4,0.2-0.6,0.2c-0.2,0.1-0.4,0.1-0.7,0.2c-0.6,0.2-1.2,0.5-1.9,0.7s-1.2,0.5-1.8,0.7c0,0-0.1,0.1-0.1,0.1
				c0,0,0,0,0,0.1c0.2,0.4,0.6,0.7,1,0.9s0.8,0.3,1.3,0.3c0.4,0,0.7-0.1,1-0.2s0.6-0.3,0.9-0.4c0,0,0.1,0,0.1-0.1s0.1,0,0.1,0
				c0.1,0,0.1,0,0.2,0.1s0.1,0.1,0.1,0.2c0,0,0.1,0.1,0.1,0.3s0.1,0.3,0.2,0.4s0.1,0.2,0.1,0.3c0,0.1,0,0.1-0.1,0.2
				s-0.1,0.1-0.1,0.1c-0.4,0.3-0.9,0.5-1.5,0.7S-167.8,18.8-168.3,18.8z M-170.5,14.5c0.6-0.2,1.2-0.4,1.8-0.6s1.2-0.4,1.8-0.6
				c-0.1-0.3-0.4-0.6-0.6-0.8s-0.6-0.4-1-0.4c-0.4,0-0.8,0.1-1.1,0.4s-0.5,0.5-0.7,0.9S-170.5,14.1-170.5,14.5z"/>
			<path id="XMLID_681_" d="M-158.9,18.8c-0.4,0-0.9-0.1-1.3-0.2s-0.8-0.4-1.1-0.7c0,0,0,0-0.1,0s0,0-0.1,0s0,0-0.1,0.1s0,0.1,0,0.1
				c0,0.4,0,0.8,0,1.2s0,0.8,0,1.2c0,0.1,0,0.3,0,0.4s0,0.3,0,0.4c0,0.1,0,0.2-0.1,0.3s-0.1,0.1-0.3,0.1h-1.4
				c-0.2,0-0.4-0.1-0.4-0.4c0-0.5,0-0.9,0-1.4s0-0.9,0-1.4c0-1,0-1.9,0.1-2.9c0-1,0-1.9,0-2.9c0-0.3,0-0.6,0-0.9s0-0.6,0-0.9
				c0-0.2,0.1-0.4,0.4-0.4h1.1c0.2,0,0.3,0.1,0.3,0.2s0.1,0.3,0.1,0.4s0,0.2,0.1,0.2c0,0,0.1,0,0.1,0c0.4-0.3,0.9-0.6,1.3-0.8
				s1-0.3,1.5-0.3c0.8,0,1.5,0.2,2.1,0.6s1,0.9,1.3,1.5s0.4,1.4,0.4,2.1c0,0.8-0.2,1.6-0.5,2.2s-0.8,1.1-1.4,1.4
				S-158,18.8-158.9,18.8z M-159.3,17c0.4,0,0.9-0.1,1.2-0.3s0.7-0.5,0.9-0.8c0.2-0.4,0.3-0.8,0.3-1.2c0-0.7-0.2-1.3-0.7-1.7
				s-1-0.7-1.7-0.7c-0.5,0-0.9,0.1-1.3,0.4s-0.7,0.6-0.8,1.1c0,0.3,0,0.6,0,0.9s0,0.6,0,0.9c0,0,0,0.1,0.1,0.2s0.1,0.2,0.1,0.2
				c0.2,0.4,0.5,0.7,0.8,0.9S-159.7,17-159.3,17z"/>
		</g>
	</g>
</g>
<g id="Layer_2" class="st0">
	<g id="XMLID_126_" class="st1">
		<g id="XMLID_128_">
			<path id="XMLID_132_" class="st2" d="M-126,24.9h-13.1c-2.8,0-5-2.2-5-5V6.5c0-2.8,2.2-5,5-5h13.1c2.8,0,5,2.2,5,5v13.4
				C-121,22.6-123.2,24.9-126,24.9z"/>
			<path id="XMLID_131_" class="st3" d="M-128.9,20.6h-7.3c-2,0-3.7-1.6-3.7-3.7V9.4c0-2,1.6-3.7,3.7-3.7h7.3c2,0,3.7,1.6,3.7,3.7
				v7.5C-125.2,18.9-126.9,20.6-128.9,20.6z"/>
			<path id="XMLID_130_" class="st2" d="M-133.6,17.7h-3.5c-0.6,0-1.1-0.5-1.1-1.1v0c0-0.6,0.5-1.1,1.1-1.1h3.5
				c0.6,0,1.1,0.5,1.1,1.1v0C-132.5,17.2-133,17.7-133.6,17.7z"/>
			<path id="XMLID_129_" class="st2" d="M-129.7,14.7h-7.4c-0.6,0-1.1-0.5-1.1-1.1v0c0-0.6,0.5-1.1,1.1-1.1h7.4
				c0.6,0,1.1,0.5,1.1,1.1v0C-128.6,14.3-129.1,14.7-129.7,14.7z"/>
		</g>
		<g>
			<path id="XMLID_727_" class="st4" d="M-103.1,19c0,0-0.2-0.1-0.5-0.4s-0.7-0.7-1.2-1.1s-1-1-1.6-1.6c-0.6-0.6-1.2-1.1-1.8-1.7
				s-1.1-1.1-1.6-1.6s-0.9-0.9-1.2-1.1s-0.5-0.4-0.5-0.4c0,0,0,0-0.1,0.1s0,0.1,0,0.1c0,0.5,0,1.1,0,1.6s0,1.1,0,1.6
				c0,0.4,0,0.9,0,1.3c0,0.4,0,0.9,0,1.3c0,0.2,0,0.4,0,0.6s0,0.4,0,0.6c0,0.1,0,0.2-0.1,0.3s-0.1,0.1-0.3,0.1h-1.6
				c-0.2,0-0.4-0.1-0.4-0.4c0-0.3,0-0.7,0-1s0-0.7,0-1c0-0.7,0-1.3,0-2c0-0.7,0-1.3,0-2c0-0.7,0-1.4,0-2.1s0-1.4,0-2.1
				c0-0.3,0-0.7,0-1s0-0.7,0-1c0,0,0-0.1,0.1-0.1s0.1,0,0.1,0c1.4,1.3,2.8,2.6,4.1,4s2.7,2.7,4.1,4c0,0,0,0,0.1,0s0,0,0.1,0
				c0,0,0.1,0,0.1-0.1s0-0.1,0-0.1c0-0.5,0-1.1,0-1.6s0-1.1,0-1.6c0-0.5,0-0.9,0-1.4s0-0.9,0-1.4c0-0.2,0-0.4,0-0.6s0-0.4,0-0.6
				c0-0.1,0-0.2,0.1-0.3s0.1-0.1,0.3-0.1h1.5c0.2,0,0.4,0.1,0.4,0.4c0,0.3,0,0.6,0,0.9s0,0.6,0,0.9c0,0.6,0,1.3,0,1.9s0,1.3,0,1.9
				C-103.2,14.5-103.2,16.7-103.1,19L-103.1,19z"/>
			<path id="XMLID_729_" class="st4" d="M-101.5,14.7c0-0.8,0.2-1.5,0.5-2.2s0.8-1.1,1.5-1.5s1.4-0.6,2.2-0.6c0.8,0,1.5,0.2,2.1,0.5
				s1.1,0.9,1.4,1.5s0.5,1.3,0.5,2.1c0,0.8-0.2,1.5-0.5,2.2s-0.8,1.1-1.4,1.5s-1.3,0.5-2.2,0.5c-0.8,0-1.5-0.2-2.2-0.5
				s-1.1-0.8-1.4-1.4S-101.5,15.5-101.5,14.7z M-97.4,12.2c-0.4,0-0.8,0.1-1.1,0.4s-0.5,0.5-0.7,0.9s-0.2,0.8-0.2,1.2
				c0,0.4,0.1,0.7,0.2,1.1c0.2,0.4,0.4,0.6,0.7,0.9s0.7,0.3,1.1,0.3c0.4,0,0.8-0.1,1.1-0.3s0.5-0.5,0.7-0.9c0.1-0.4,0.2-0.7,0.2-1.1
				c0-0.4-0.1-0.8-0.2-1.1s-0.4-0.7-0.7-0.9S-97,12.2-97.4,12.2z"/>
			<path id="XMLID_732_" class="st4" d="M-91,10.5c0-0.5,0-1,0-1.5s0-1,0-1.5c0-0.2,0.1-0.4,0.4-0.4h1.4c0.2,0,0.4,0.1,0.4,0.4
				c0,0.5,0,1,0,1.5s0,1,0,1.5c0,0.1,0,0.1,0.1,0.1h1.4c0.2,0,0.4,0.1,0.4,0.4c0,0.2,0,0.4,0,0.5s0,0.4,0,0.6c0,0.2-0.1,0.4-0.4,0.4
				h-1.4c-0.1,0-0.1,0-0.1,0.1c0,0.9,0,1.9,0,2.8c0,0.9,0,1.9,0,2.8c0,0.2-0.1,0.4-0.4,0.4h-1.4c-0.2,0-0.4-0.1-0.4-0.4
				c0-0.9,0-1.9,0-2.8c0-0.9,0-1.9,0-2.8c0-0.1-0.1-0.1-0.2-0.1s-0.3,0-0.4,0s-0.3,0-0.4,0s-0.2-0.2-0.2-0.3V11
				c0-0.2,0.1-0.4,0.4-0.4h0.7C-91.1,10.6-91,10.6-91,10.5z"/>
			<path id="XMLID_734_" class="st4" d="M-81.9,18.8c-0.9,0-1.6-0.2-2.2-0.5s-1.1-0.8-1.5-1.5s-0.5-1.4-0.5-2.2
				c0-0.8,0.2-1.5,0.5-2.2s0.8-1.1,1.4-1.5s1.3-0.6,2.1-0.6c1,0,1.8,0.3,2.4,0.9s1,1.3,1.2,2.3c0,0,0,0,0,0.1c0,0.1,0,0.2-0.1,0.2
				s-0.1,0.1-0.2,0.1c-0.2,0.1-0.4,0.2-0.6,0.2c-0.2,0.1-0.4,0.1-0.7,0.2c-0.6,0.2-1.2,0.5-1.9,0.7s-1.2,0.5-1.8,0.7
				c0,0-0.1,0.1-0.1,0.1c0,0,0,0,0,0.1c0.2,0.4,0.6,0.7,1,0.9s0.8,0.3,1.3,0.3c0.4,0,0.7-0.1,1-0.2s0.6-0.3,0.9-0.4
				c0,0,0.1,0,0.1-0.1s0.1,0,0.1,0c0.1,0,0.1,0,0.2,0.1s0.1,0.1,0.1,0.2c0,0,0.1,0.1,0.1,0.3s0.1,0.3,0.2,0.4s0.1,0.2,0.1,0.3
				c0,0.1,0,0.1-0.1,0.2s-0.1,0.1-0.1,0.1c-0.4,0.3-0.9,0.5-1.5,0.7S-81.4,18.8-81.9,18.8z M-84.1,14.5c0.6-0.2,1.2-0.4,1.8-0.6
				s1.2-0.4,1.8-0.6c-0.1-0.3-0.3-0.6-0.6-0.8s-0.6-0.4-1-0.4c-0.4,0-0.8,0.1-1.1,0.4s-0.5,0.5-0.7,0.9S-84.1,14.1-84.1,14.5z"/>
			<path id="XMLID_737_" class="st4" d="M-75,6.3c0.2,0,0.3,0.1,0.4,0.4c0,0.3,0,0.5,0,0.8s0,0.5,0,0.8c0,0.6,0,1.1,0,1.7
				s0,1.1,0,1.7c0,0.1,0,0.1,0.1,0.1h0c2-0.5,3.3-1.8,4.1-3.7c0.1-0.2,0.2-0.4,0.2-0.7s0.1-0.5,0.2-0.7c0-0.1,0.1-0.2,0.1-0.2
				s0.1-0.1,0.2-0.1h1.5c0.1,0,0.2,0,0.3,0.1s0.1,0.1,0.1,0.2c0,0.1,0,0.1,0,0.1c-0.2,1-0.6,1.9-1.1,2.8s-1.1,1.6-2,2.3
				c-0.2,0.1-0.3,0.2-0.5,0.4s-0.3,0.2-0.5,0.3c0,0-0.1,0-0.1,0.1c0,0,0.1,0.2,0.3,0.4s0.4,0.6,0.7,0.9c0.3,0.4,0.6,0.8,0.9,1.2
				s0.6,0.8,0.9,1.3c0.3,0.4,0.6,0.8,0.8,1s0.4,0.5,0.4,0.6c0,0,0.1,0.1,0.1,0.2s0.1,0.1,0.1,0.2c0,0.1-0.1,0.2-0.2,0.2
				s-0.2,0-0.3,0h-1.7c-0.1,0-0.2,0-0.3-0.1c-0.2-0.2-0.3-0.4-0.5-0.6s-0.3-0.4-0.5-0.7c-0.3-0.4-0.6-0.8-0.9-1.2
				c-0.3-0.4-0.6-0.8-0.9-1.2c-0.2-0.2-0.3-0.4-0.5-0.7s-0.3-0.4-0.5-0.6c0,0-0.1,0-0.1,0c-0.1,0-0.1,0-0.2,0s-0.2,0-0.2,0
				s-0.1,0-0.1,0.1c0,0.5,0,1.1,0,1.6s0,1.1,0,1.6c0,0.3,0,0.5,0,0.8s0,0.5,0,0.8c0,0.2-0.1,0.4-0.4,0.4h-1.5
				c-0.2,0-0.4-0.1-0.4-0.4c0-0.3,0-0.6,0-1s0-0.6,0-1c0-1.3,0-2.7,0-4c0-1.3,0-2.6,0-3.8c0-0.3,0-0.6,0-0.9s0-0.6,0-0.9
				c0-0.2,0.1-0.4,0.4-0.4H-75z"/>
			<path id="XMLID_739_" class="st4" d="M-62.5,18.8c-0.9,0-1.6-0.2-2.2-0.5s-1.1-0.8-1.5-1.5s-0.5-1.4-0.5-2.2
				c0-0.8,0.2-1.5,0.5-2.2s0.8-1.1,1.4-1.5s1.3-0.6,2.1-0.6c1,0,1.8,0.3,2.4,0.9s1,1.3,1.2,2.3c0,0,0,0,0,0.1c0,0.1,0,0.2-0.1,0.2
				s-0.1,0.1-0.2,0.1c-0.2,0.1-0.4,0.2-0.6,0.2c-0.2,0.1-0.4,0.1-0.7,0.2c-0.6,0.2-1.2,0.5-1.9,0.7s-1.2,0.5-1.8,0.7
				c0,0-0.1,0.1-0.1,0.1c0,0,0,0,0,0.1c0.2,0.4,0.6,0.7,1,0.9s0.8,0.3,1.3,0.3c0.4,0,0.7-0.1,1-0.2s0.6-0.3,0.9-0.4
				c0,0,0.1,0,0.1-0.1s0.1,0,0.1,0c0.1,0,0.1,0,0.2,0.1s0.1,0.1,0.1,0.2c0,0,0.1,0.1,0.1,0.3s0.1,0.3,0.2,0.4s0.1,0.2,0.1,0.3
				c0,0.1,0,0.1-0.1,0.2s-0.1,0.1-0.1,0.1c-0.4,0.3-0.9,0.5-1.5,0.7S-62,18.8-62.5,18.8z M-64.7,14.5c0.6-0.2,1.2-0.4,1.8-0.6
				s1.2-0.4,1.8-0.6c-0.1-0.3-0.3-0.6-0.6-0.8s-0.6-0.4-1-0.4c-0.4,0-0.8,0.1-1.1,0.4c-0.3,0.2-0.5,0.5-0.7,0.9
				S-64.7,14.1-64.7,14.5z"/>
			<path id="XMLID_742_" class="st4" d="M-53.8,18.8c-0.9,0-1.6-0.2-2.2-0.5s-1.1-0.8-1.5-1.5s-0.5-1.4-0.5-2.2
				c0-0.8,0.2-1.5,0.5-2.2s0.8-1.1,1.4-1.5s1.3-0.6,2.1-0.6c1,0,1.8,0.3,2.4,0.9s1,1.3,1.2,2.3c0,0,0,0,0,0.1c0,0.1,0,0.2-0.1,0.2
				s-0.1,0.1-0.2,0.1c-0.2,0.1-0.4,0.2-0.6,0.2c-0.2,0.1-0.4,0.1-0.7,0.2c-0.6,0.2-1.2,0.5-1.9,0.7s-1.2,0.5-1.8,0.7
				c0,0-0.1,0.1-0.1,0.1c0,0,0,0,0,0.1c0.2,0.4,0.6,0.7,1,0.9s0.8,0.3,1.3,0.3c0.4,0,0.7-0.1,1-0.2s0.6-0.3,0.9-0.4
				c0,0,0.1,0,0.1-0.1s0.1,0,0.1,0c0.1,0,0.1,0,0.2,0.1s0.1,0.1,0.1,0.2c0,0,0.1,0.1,0.1,0.3s0.1,0.3,0.2,0.4s0.1,0.2,0.1,0.3
				c0,0.1,0,0.1-0.1,0.2s-0.1,0.1-0.1,0.1c-0.4,0.3-0.9,0.5-1.5,0.7S-53.3,18.8-53.8,18.8z M-56,14.5c0.6-0.2,1.2-0.4,1.8-0.6
				s1.2-0.4,1.8-0.6c-0.1-0.3-0.4-0.6-0.6-0.8s-0.6-0.4-1-0.4c-0.4,0-0.8,0.1-1.1,0.4s-0.5,0.5-0.7,0.9S-56,14.1-56,14.5z"/>
			<path id="XMLID_745_" class="st4" d="M-44.4,18.8c-0.4,0-0.9-0.1-1.3-0.2s-0.8-0.4-1.1-0.7c0,0,0,0-0.1,0s0,0-0.1,0s0,0-0.1,0.1
				s0,0.1,0,0.1c0,0.4,0,0.8,0,1.2s0,0.8,0,1.2c0,0.1,0,0.3,0,0.4s0,0.3,0,0.4c0,0.1,0,0.2-0.1,0.3s-0.1,0.1-0.3,0.1h-1.4
				c-0.2,0-0.4-0.1-0.4-0.4c0-0.5,0-0.9,0-1.4s0-0.9,0-1.4c0-1,0-1.9,0.1-2.9c0-1,0-1.9,0-2.9c0-0.3,0-0.6,0-0.9s0-0.6,0-0.9
				c0-0.2,0.1-0.4,0.4-0.4h1.1c0.2,0,0.3,0.1,0.3,0.2s0.1,0.3,0.1,0.4s0,0.2,0.1,0.2c0,0,0.1,0,0.1,0c0.4-0.3,0.9-0.6,1.3-0.8
				s1-0.3,1.5-0.3c0.8,0,1.5,0.2,2.1,0.6s1,0.9,1.3,1.5s0.4,1.4,0.4,2.1c0,0.8-0.2,1.6-0.5,2.2s-0.8,1.1-1.4,1.4
				S-43.5,18.8-44.4,18.8z M-44.8,17c0.4,0,0.9-0.1,1.2-0.3s0.7-0.5,0.9-0.8c0.2-0.4,0.3-0.8,0.3-1.2c0-0.7-0.2-1.3-0.7-1.7
				s-1-0.7-1.7-0.7c-0.5,0-0.9,0.1-1.3,0.4s-0.7,0.6-0.8,1.1c0,0.3,0,0.6,0,0.9s0,0.6,0,0.9c0,0,0,0.1,0.1,0.2s0.1,0.2,0.1,0.2
				c0.2,0.4,0.5,0.7,0.8,0.9S-45.2,17-44.8,17z"/>
		</g>
		<g id="XMLID_127_">
			<path id="XMLID_684_" class="st4" d="M-103.1,19c0,0-0.2-0.1-0.5-0.4s-0.7-0.7-1.2-1.1s-1-1-1.6-1.6c-0.6-0.6-1.2-1.1-1.8-1.7
				s-1.1-1.1-1.6-1.6s-0.9-0.9-1.2-1.1s-0.5-0.4-0.5-0.4c0,0,0,0-0.1,0.1s0,0.1,0,0.1c0,0.5,0,1.1,0,1.6s0,1.1,0,1.6
				c0,0.4,0,0.9,0,1.3c0,0.4,0,0.9,0,1.3c0,0.2,0,0.4,0,0.6s0,0.4,0,0.6c0,0.1,0,0.2-0.1,0.3s-0.1,0.1-0.3,0.1h-1.6
				c-0.2,0-0.4-0.1-0.4-0.4c0-0.3,0-0.7,0-1s0-0.7,0-1c0-0.7,0-1.3,0-2c0-0.7,0-1.3,0-2c0-0.7,0-1.4,0-2.1s0-1.4,0-2.1
				c0-0.3,0-0.7,0-1s0-0.7,0-1c0,0,0-0.1,0.1-0.1s0.1,0,0.1,0c1.4,1.3,2.8,2.6,4.1,4s2.7,2.7,4.1,4c0,0,0,0,0.1,0s0,0,0.1,0
				c0,0,0.1,0,0.1-0.1s0-0.1,0-0.1c0-0.5,0-1.1,0-1.6s0-1.1,0-1.6c0-0.5,0-0.9,0-1.4s0-0.9,0-1.4c0-0.2,0-0.4,0-0.6s0-0.4,0-0.6
				c0-0.1,0-0.2,0.1-0.3s0.1-0.1,0.3-0.1h1.5c0.2,0,0.4,0.1,0.4,0.4c0,0.3,0,0.6,0,0.9s0,0.6,0,0.9c0,0.6,0,1.3,0,1.9s0,1.3,0,1.9
				C-103.2,14.5-103.2,16.7-103.1,19L-103.1,19z"/>
			<path id="XMLID_686_" class="st4" d="M-101.5,14.7c0-0.8,0.2-1.5,0.5-2.2s0.8-1.1,1.5-1.5s1.4-0.6,2.2-0.6c0.8,0,1.5,0.2,2.1,0.5
				s1.1,0.9,1.4,1.5s0.5,1.3,0.5,2.1c0,0.8-0.2,1.5-0.5,2.2s-0.8,1.1-1.4,1.5s-1.3,0.5-2.2,0.5c-0.8,0-1.5-0.2-2.2-0.5
				s-1.1-0.8-1.4-1.4S-101.5,15.5-101.5,14.7z M-97.4,12.2c-0.4,0-0.8,0.1-1.1,0.4s-0.5,0.5-0.7,0.9s-0.2,0.8-0.2,1.2
				c0,0.4,0.1,0.7,0.2,1.1c0.2,0.4,0.4,0.6,0.7,0.9s0.7,0.3,1.1,0.3c0.4,0,0.8-0.1,1.1-0.3s0.5-0.5,0.7-0.9c0.1-0.4,0.2-0.7,0.2-1.1
				c0-0.4-0.1-0.8-0.2-1.1s-0.4-0.7-0.7-0.9S-97,12.2-97.4,12.2z"/>
			<path id="XMLID_689_" class="st4" d="M-91,10.5c0-0.5,0-1,0-1.5s0-1,0-1.5c0-0.2,0.1-0.4,0.4-0.4h1.4c0.2,0,0.4,0.1,0.4,0.4
				c0,0.5,0,1,0,1.5s0,1,0,1.5c0,0.1,0,0.1,0.1,0.1h1.4c0.2,0,0.4,0.1,0.4,0.4c0,0.2,0,0.4,0,0.5s0,0.4,0,0.6c0,0.2-0.1,0.4-0.4,0.4
				h-1.4c-0.1,0-0.1,0-0.1,0.1c0,0.9,0,1.9,0,2.8c0,0.9,0,1.9,0,2.8c0,0.2-0.1,0.4-0.4,0.4h-1.4c-0.2,0-0.4-0.1-0.4-0.4
				c0-0.9,0-1.9,0-2.8c0-0.9,0-1.9,0-2.8c0-0.1-0.1-0.1-0.2-0.1s-0.3,0-0.4,0s-0.3,0-0.4,0s-0.2-0.2-0.2-0.3V11
				c0-0.2,0.1-0.4,0.4-0.4h0.7C-91.1,10.6-91,10.6-91,10.5z"/>
			<path id="XMLID_691_" class="st4" d="M-81.9,18.8c-0.9,0-1.6-0.2-2.2-0.5s-1.1-0.8-1.5-1.5s-0.5-1.4-0.5-2.2
				c0-0.8,0.2-1.5,0.5-2.2s0.8-1.1,1.4-1.5s1.3-0.6,2.1-0.6c1,0,1.8,0.3,2.4,0.9s1,1.3,1.2,2.3c0,0,0,0,0,0.1c0,0.1,0,0.2-0.1,0.2
				s-0.1,0.1-0.2,0.1c-0.2,0.1-0.4,0.2-0.6,0.2c-0.2,0.1-0.4,0.1-0.7,0.2c-0.6,0.2-1.2,0.5-1.9,0.7s-1.2,0.5-1.8,0.7
				c0,0-0.1,0.1-0.1,0.1c0,0,0,0,0,0.1c0.2,0.4,0.6,0.7,1,0.9s0.8,0.3,1.3,0.3c0.4,0,0.7-0.1,1-0.2s0.6-0.3,0.9-0.4
				c0,0,0.1,0,0.1-0.1s0.1,0,0.1,0c0.1,0,0.1,0,0.2,0.1s0.1,0.1,0.1,0.2c0,0,0.1,0.1,0.1,0.3s0.1,0.3,0.2,0.4s0.1,0.2,0.1,0.3
				c0,0.1,0,0.1-0.1,0.2s-0.1,0.1-0.1,0.1c-0.4,0.3-0.9,0.5-1.5,0.7S-81.4,18.8-81.9,18.8z M-84.1,14.5c0.6-0.2,1.2-0.4,1.8-0.6
				s1.2-0.4,1.8-0.6c-0.1-0.3-0.3-0.6-0.6-0.8s-0.6-0.4-1-0.4c-0.4,0-0.8,0.1-1.1,0.4s-0.5,0.5-0.7,0.9S-84.1,14.1-84.1,14.5z"/>
			<path id="XMLID_694_" class="st4" d="M-75,6.3c0.2,0,0.3,0.1,0.4,0.4c0,0.3,0,0.5,0,0.8s0,0.5,0,0.8c0,0.6,0,1.1,0,1.7
				s0,1.1,0,1.7c0,0.1,0,0.1,0.1,0.1h0c2-0.5,3.3-1.8,4.1-3.7c0.1-0.2,0.2-0.4,0.2-0.7s0.1-0.5,0.2-0.7c0-0.1,0.1-0.2,0.1-0.2
				s0.1-0.1,0.2-0.1h1.5c0.1,0,0.2,0,0.3,0.1s0.1,0.1,0.1,0.2c0,0.1,0,0.1,0,0.1c-0.2,1-0.6,1.9-1.1,2.8s-1.1,1.6-2,2.3
				c-0.2,0.1-0.3,0.2-0.5,0.4s-0.3,0.2-0.5,0.3c0,0-0.1,0-0.1,0.1c0,0,0.1,0.2,0.3,0.4s0.4,0.6,0.7,0.9c0.3,0.4,0.6,0.8,0.9,1.2
				s0.6,0.8,0.9,1.3c0.3,0.4,0.6,0.8,0.8,1s0.4,0.5,0.4,0.6c0,0,0.1,0.1,0.1,0.2s0.1,0.1,0.1,0.2c0,0.1-0.1,0.2-0.2,0.2
				s-0.2,0-0.3,0h-1.7c-0.1,0-0.2,0-0.3-0.1c-0.2-0.2-0.3-0.4-0.5-0.6s-0.3-0.4-0.5-0.7c-0.3-0.4-0.6-0.8-0.9-1.2
				c-0.3-0.4-0.6-0.8-0.9-1.2c-0.2-0.2-0.3-0.4-0.5-0.7s-0.3-0.4-0.5-0.6c0,0-0.1,0-0.1,0c-0.1,0-0.1,0-0.2,0s-0.2,0-0.2,0
				s-0.1,0-0.1,0.1c0,0.5,0,1.1,0,1.6s0,1.1,0,1.6c0,0.3,0,0.5,0,0.8s0,0.5,0,0.8c0,0.2-0.1,0.4-0.4,0.4h-1.5
				c-0.2,0-0.4-0.1-0.4-0.4c0-0.3,0-0.6,0-1s0-0.6,0-1c0-1.3,0-2.7,0-4c0-1.3,0-2.6,0-3.8c0-0.3,0-0.6,0-0.9s0-0.6,0-0.9
				c0-0.2,0.1-0.4,0.4-0.4H-75z"/>
			<path id="XMLID_696_" class="st4" d="M-62.5,18.8c-0.9,0-1.6-0.2-2.2-0.5s-1.1-0.8-1.5-1.5s-0.5-1.4-0.5-2.2
				c0-0.8,0.2-1.5,0.5-2.2s0.8-1.1,1.4-1.5s1.3-0.6,2.1-0.6c1,0,1.8,0.3,2.4,0.9s1,1.3,1.2,2.3c0,0,0,0,0,0.1c0,0.1,0,0.2-0.1,0.2
				s-0.1,0.1-0.2,0.1c-0.2,0.1-0.4,0.2-0.6,0.2c-0.2,0.1-0.4,0.1-0.7,0.2c-0.6,0.2-1.2,0.5-1.9,0.7s-1.2,0.5-1.8,0.7
				c0,0-0.1,0.1-0.1,0.1c0,0,0,0,0,0.1c0.2,0.4,0.6,0.7,1,0.9s0.8,0.3,1.3,0.3c0.4,0,0.7-0.1,1-0.2s0.6-0.3,0.9-0.4
				c0,0,0.1,0,0.1-0.1s0.1,0,0.1,0c0.1,0,0.1,0,0.2,0.1s0.1,0.1,0.1,0.2c0,0,0.1,0.1,0.1,0.3s0.1,0.3,0.2,0.4s0.1,0.2,0.1,0.3
				c0,0.1,0,0.1-0.1,0.2s-0.1,0.1-0.1,0.1c-0.4,0.3-0.9,0.5-1.5,0.7S-62,18.8-62.5,18.8z M-64.7,14.5c0.6-0.2,1.2-0.4,1.8-0.6
				s1.2-0.4,1.8-0.6c-0.1-0.3-0.3-0.6-0.6-0.8s-0.6-0.4-1-0.4c-0.4,0-0.8,0.1-1.1,0.4c-0.3,0.2-0.5,0.5-0.7,0.9
				S-64.7,14.1-64.7,14.5z"/>
			<path id="XMLID_699_" class="st4" d="M-53.8,18.8c-0.9,0-1.6-0.2-2.2-0.5s-1.1-0.8-1.5-1.5s-0.5-1.4-0.5-2.2
				c0-0.8,0.2-1.5,0.5-2.2s0.8-1.1,1.4-1.5s1.3-0.6,2.1-0.6c1,0,1.8,0.3,2.4,0.9s1,1.3,1.2,2.3c0,0,0,0,0,0.1c0,0.1,0,0.2-0.1,0.2
				s-0.1,0.1-0.2,0.1c-0.2,0.1-0.4,0.2-0.6,0.2c-0.2,0.1-0.4,0.1-0.7,0.2c-0.6,0.2-1.2,0.5-1.9,0.7s-1.2,0.5-1.8,0.7
				c0,0-0.1,0.1-0.1,0.1c0,0,0,0,0,0.1c0.2,0.4,0.6,0.7,1,0.9s0.8,0.3,1.3,0.3c0.4,0,0.7-0.1,1-0.2s0.6-0.3,0.9-0.4
				c0,0,0.1,0,0.1-0.1s0.1,0,0.1,0c0.1,0,0.1,0,0.2,0.1s0.1,0.1,0.1,0.2c0,0,0.1,0.1,0.1,0.3s0.1,0.3,0.2,0.4s0.1,0.2,0.1,0.3
				c0,0.1,0,0.1-0.1,0.2s-0.1,0.1-0.1,0.1c-0.4,0.3-0.9,0.5-1.5,0.7S-53.3,18.8-53.8,18.8z M-56,14.5c0.6-0.2,1.2-0.4,1.8-0.6
				s1.2-0.4,1.8-0.6c-0.1-0.3-0.4-0.6-0.6-0.8s-0.6-0.4-1-0.4c-0.4,0-0.8,0.1-1.1,0.4s-0.5,0.5-0.7,0.9S-56,14.1-56,14.5z"/>
			<path id="XMLID_702_" class="st4" d="M-44.4,18.8c-0.4,0-0.9-0.1-1.3-0.2s-0.8-0.4-1.1-0.7c0,0,0,0-0.1,0s0,0-0.1,0s0,0-0.1,0.1
				s0,0.1,0,0.1c0,0.4,0,0.8,0,1.2s0,0.8,0,1.2c0,0.1,0,0.3,0,0.4s0,0.3,0,0.4c0,0.1,0,0.2-0.1,0.3s-0.1,0.1-0.3,0.1h-1.4
				c-0.2,0-0.4-0.1-0.4-0.4c0-0.5,0-0.9,0-1.4s0-0.9,0-1.4c0-1,0-1.9,0.1-2.9c0-1,0-1.9,0-2.9c0-0.3,0-0.6,0-0.9s0-0.6,0-0.9
				c0-0.2,0.1-0.4,0.4-0.4h1.1c0.2,0,0.3,0.1,0.3,0.2s0.1,0.3,0.1,0.4s0,0.2,0.1,0.2c0,0,0.1,0,0.1,0c0.4-0.3,0.9-0.6,1.3-0.8
				s1-0.3,1.5-0.3c0.8,0,1.5,0.2,2.1,0.6s1,0.9,1.3,1.5s0.4,1.4,0.4,2.1c0,0.8-0.2,1.6-0.5,2.2s-0.8,1.1-1.4,1.4
				S-43.5,18.8-44.4,18.8z M-44.8,17c0.4,0,0.9-0.1,1.2-0.3s0.7-0.5,0.9-0.8c0.2-0.4,0.3-0.8,0.3-1.2c0-0.7-0.2-1.3-0.7-1.7
				s-1-0.7-1.7-0.7c-0.5,0-0.9,0.1-1.3,0.4s-0.7,0.6-0.8,1.1c0,0.3,0,0.6,0,0.9s0,0.6,0,0.9c0,0,0,0.1,0.1,0.2s0.1,0.2,0.1,0.2
				c0.2,0.4,0.5,0.7,0.8,0.9S-45.2,17-44.8,17z"/>
		</g>
	</g>
</g>
<g id="Layer_3">
	<g id="XMLID_197_">
		<path id="XMLID_201_" class="st2" d="M19.9,24.9H6.8c-2.8,0-5-2.2-5-5V6.5c0-2.8,2.2-5,5-5h13.1c2.8,0,5,2.2,5,5v13.4
			C24.9,22.6,22.6,24.9,19.9,24.9z"/>
		<path id="XMLID_200_" class="st3" d="M17,20.6H9.7c-2,0-3.7-1.6-3.7-3.7V9.4c0-2,1.6-3.7,3.7-3.7H17c2,0,3.7,1.6,3.7,3.7v7.5
			C20.6,18.9,19,20.6,17,20.6z"/>
		<path id="XMLID_199_" class="st2" d="M12.3,17.7H8.8c-0.6,0-1.1-0.5-1.1-1.1v0c0-0.6,0.5-1.1,1.1-1.1h3.5c0.6,0,1.1,0.5,1.1,1.1v0
			C13.3,17.2,12.9,17.7,12.3,17.7z"/>
		<path id="XMLID_198_" class="st2" d="M16.2,14.7H8.8c-0.6,0-1.1-0.5-1.1-1.1v0c0-0.6,0.5-1.1,1.1-1.1h7.4c0.6,0,1.1,0.5,1.1,1.1v0
			C17.3,14.3,16.8,14.7,16.2,14.7z"/>
	</g>
</g>
<g id="Layer_4" class="st0">
	<g id="XMLID_398_" class="st1">
		<path id="XMLID_399_" class="st4" d="M78.9,18.4c0,0-0.2-0.1-0.5-0.4s-0.7-0.7-1.2-1.1s-1-1-1.6-1.6s-1.2-1.1-1.8-1.7
			s-1.1-1.1-1.6-1.6s-0.9-0.9-1.2-1.1s-0.5-0.4-0.5-0.4c0,0,0,0-0.1,0.1s0,0.1,0,0.1c0,0.5,0,1.1,0,1.6s0,1.1,0,1.6
			c0,0.4,0,0.9,0,1.3s0,0.9,0,1.3c0,0.2,0,0.4,0,0.6s0,0.4,0,0.6c0,0.1,0,0.2-0.1,0.3S70.3,18,70.1,18h-1.6c-0.2,0-0.4-0.1-0.4-0.4
			c0-0.3,0-0.7,0-1s0-0.7,0-1c0-0.7,0-1.3,0-2c0-0.7,0-1.3,0-2c0-0.7,0-1.4,0-2.1s0-1.4,0-2.1c0-0.3,0-0.7,0-1s0-0.7,0-1
			c0,0,0-0.1,0.1-0.1s0.1,0,0.1,0c1.4,1.3,2.8,2.6,4.1,4s2.7,2.7,4.1,4c0,0,0,0,0.1,0s0,0,0.1,0c0,0,0.1,0,0.1-0.1s0-0.1,0-0.1
			c0-0.5,0-1.1,0-1.6s0-1.1,0-1.6c0-0.5,0-0.9,0-1.4s0-0.9,0-1.4c0-0.2,0-0.4,0-0.6s0-0.4,0-0.6c0-0.1,0-0.2,0.1-0.3
			s0.1-0.1,0.3-0.1h1.5c0.2,0,0.4,0.1,0.4,0.4c0,0.3,0,0.6,0,0.9s0,0.6,0,0.9c0,0.6,0,1.3,0,1.9s0,1.3,0,1.9
			C78.9,14,78.9,16.2,78.9,18.4L78.9,18.4z"/>
		<path id="XMLID_401_" class="st4" d="M80.6,14.1c0-0.8,0.2-1.5,0.5-2.2s0.8-1.1,1.5-1.5s1.4-0.6,2.2-0.6c0.8,0,1.5,0.2,2.1,0.5
			s1.1,0.9,1.4,1.5s0.5,1.3,0.5,2.1c0,0.8-0.2,1.5-0.5,2.2c-0.3,0.6-0.8,1.1-1.4,1.5s-1.3,0.5-2.2,0.5c-0.8,0-1.5-0.2-2.2-0.5
			s-1.1-0.8-1.4-1.4C80.7,15.6,80.6,14.9,80.6,14.1z M84.7,11.6c-0.4,0-0.8,0.1-1.1,0.4s-0.5,0.5-0.7,0.9s-0.2,0.8-0.2,1.2
			c0,0.4,0.1,0.7,0.2,1.1s0.4,0.6,0.7,0.9c0.3,0.2,0.7,0.3,1.1,0.3c0.4,0,0.8-0.1,1.1-0.3c0.3-0.2,0.5-0.5,0.7-0.9s0.2-0.7,0.2-1.1
			c0-0.4-0.1-0.8-0.2-1.1S86,12.2,85.8,12S85.1,11.6,84.7,11.6z"/>
		<path id="XMLID_404_" class="st4" d="M91,9.9c0-0.5,0-1,0-1.5s0-1,0-1.5c0-0.2,0.1-0.4,0.4-0.4h1.4c0.2,0,0.4,0.1,0.4,0.4
			c0,0.5,0,1,0,1.5s0,1,0,1.5c0,0.1,0,0.1,0.1,0.1h1.4c0.2,0,0.4,0.1,0.4,0.4c0,0.2,0,0.4,0,0.5s0,0.4,0,0.6c0,0.2-0.1,0.4-0.4,0.4
			h-1.4c-0.1,0-0.1,0-0.1,0.1c0,0.9,0,1.9,0,2.8s0,1.9,0,2.8c0,0.2-0.1,0.4-0.4,0.4h-1.4c-0.2,0-0.4-0.1-0.4-0.4c0-0.9,0-1.9,0-2.8
			s0-1.9,0-2.8c0-0.1-0.1-0.1-0.2-0.1s-0.3,0-0.4,0s-0.3,0-0.4,0s-0.2-0.2-0.2-0.3v-1.1c0-0.2,0.1-0.4,0.4-0.4h0.7
			C91,10,91,10,91,9.9z"/>
		<path id="XMLID_406_" class="st4" d="M100.2,18.2c-0.9,0-1.6-0.2-2.2-0.5s-1.1-0.8-1.5-1.5c-0.4-0.6-0.5-1.4-0.5-2.2
			c0-0.8,0.2-1.5,0.5-2.2s0.8-1.1,1.4-1.5s1.3-0.6,2.1-0.6c1,0,1.8,0.3,2.4,0.9s1,1.3,1.2,2.3c0,0,0,0,0,0.1c0,0.1,0,0.2-0.1,0.2
			s-0.1,0.1-0.2,0.1c-0.2,0.1-0.4,0.2-0.6,0.2c-0.2,0.1-0.4,0.1-0.7,0.2c-0.6,0.2-1.2,0.5-1.9,0.7s-1.2,0.5-1.8,0.7
			c0,0-0.1,0.1-0.1,0.1c0,0,0,0,0,0.1c0.2,0.4,0.6,0.7,1,0.9s0.8,0.3,1.3,0.3c0.4,0,0.7-0.1,1-0.2s0.6-0.3,0.9-0.4
			c0,0,0.1,0,0.1-0.1s0.1,0,0.1,0c0.1,0,0.1,0,0.2,0.1s0.1,0.1,0.1,0.2c0,0,0.1,0.1,0.1,0.3s0.1,0.3,0.2,0.4s0.1,0.2,0.1,0.3
			c0,0.1,0,0.1-0.1,0.2s-0.1,0.1-0.1,0.1c-0.4,0.3-0.9,0.5-1.5,0.7S100.7,18.2,100.2,18.2z M97.9,14c0.6-0.2,1.2-0.4,1.8-0.6
			s1.2-0.4,1.8-0.6c-0.1-0.3-0.3-0.6-0.6-0.8s-0.6-0.4-1-0.4c-0.4,0-0.8,0.1-1.1,0.4s-0.5,0.5-0.7,0.9S97.9,13.6,97.9,14z"/>
		<path id="XMLID_409_" class="st4" d="M107.1,5.7c0.2,0,0.3,0.1,0.4,0.4c0,0.3,0,0.5,0,0.8s0,0.5,0,0.8c0,0.6,0,1.1,0,1.7
			s0,1.1,0,1.7c0,0.1,0,0.1,0.1,0.1h0c2-0.5,3.3-1.8,4.1-3.7c0.1-0.2,0.2-0.4,0.2-0.7S112,6.3,112,6c0-0.1,0.1-0.2,0.1-0.2
			s0.1-0.1,0.2-0.1h1.5c0.1,0,0.2,0,0.3,0.1s0.1,0.1,0.1,0.2c0,0.1,0,0.1,0,0.1c-0.2,1-0.6,1.9-1.1,2.8s-1.1,1.6-2,2.3
			c-0.2,0.1-0.3,0.2-0.5,0.4s-0.3,0.2-0.5,0.3c0,0-0.1,0-0.1,0.1c0,0,0.1,0.2,0.3,0.4s0.4,0.6,0.7,0.9c0.3,0.4,0.6,0.8,0.9,1.2
			s0.6,0.8,0.9,1.3c0.3,0.4,0.6,0.8,0.8,1s0.4,0.5,0.4,0.6c0,0,0.1,0.1,0.1,0.2s0.1,0.1,0.1,0.2c0,0.1-0.1,0.2-0.2,0.2s-0.2,0-0.3,0
			h-1.7c-0.1,0-0.2,0-0.3-0.1c-0.2-0.2-0.3-0.4-0.5-0.6s-0.3-0.4-0.5-0.7c-0.3-0.4-0.6-0.8-0.9-1.2s-0.6-0.8-0.9-1.2
			c-0.2-0.2-0.3-0.4-0.5-0.7s-0.3-0.4-0.5-0.6c0,0-0.1,0-0.1,0c-0.1,0-0.1,0-0.2,0s-0.2,0-0.2,0s-0.1,0-0.1,0.1c0,0.5,0,1.1,0,1.6
			s0,1.1,0,1.6c0,0.3,0,0.5,0,0.8s0,0.5,0,0.8c0,0.2-0.1,0.4-0.4,0.4h-1.5c-0.2,0-0.4-0.1-0.4-0.4c0-0.3,0-0.6,0-1s0-0.6,0-1
			c0-1.3,0-2.7,0-4c0-1.3,0-2.6,0-3.8c0-0.3,0-0.6,0-0.9s0-0.6,0-0.9c0-0.2,0.1-0.4,0.4-0.4H107.1z"/>
		<path id="XMLID_411_" class="st4" d="M119.6,18.2c-0.9,0-1.6-0.2-2.2-0.5s-1.1-0.8-1.5-1.5c-0.4-0.6-0.5-1.4-0.5-2.2
			c0-0.8,0.2-1.5,0.5-2.2s0.8-1.1,1.4-1.5s1.3-0.6,2.1-0.6c1,0,1.8,0.3,2.4,0.9s1,1.3,1.2,2.3c0,0,0,0,0,0.1c0,0.1,0,0.2-0.1,0.2
			s-0.1,0.1-0.2,0.1c-0.2,0.1-0.4,0.2-0.6,0.2c-0.2,0.1-0.4,0.1-0.7,0.2c-0.6,0.2-1.2,0.5-1.9,0.7s-1.2,0.5-1.8,0.7
			c0,0-0.1,0.1-0.1,0.1c0,0,0,0,0,0.1c0.2,0.4,0.6,0.7,1,0.9s0.8,0.3,1.3,0.3c0.4,0,0.7-0.1,1-0.2s0.6-0.3,0.9-0.4
			c0,0,0.1,0,0.1-0.1s0.1,0,0.1,0c0.1,0,0.1,0,0.2,0.1s0.1,0.1,0.1,0.2c0,0,0.1,0.1,0.1,0.3s0.1,0.3,0.2,0.4s0.1,0.2,0.1,0.3
			c0,0.1,0,0.1-0.1,0.2s-0.1,0.1-0.1,0.1c-0.4,0.3-0.9,0.5-1.5,0.7S120.1,18.2,119.6,18.2z M117.4,14c0.6-0.2,1.2-0.4,1.8-0.6
			s1.2-0.4,1.8-0.6c-0.1-0.3-0.3-0.6-0.6-0.8s-0.6-0.4-1-0.4c-0.4,0-0.8,0.1-1.1,0.4s-0.5,0.5-0.7,0.9S117.4,13.6,117.4,14z"/>
		<path id="XMLID_414_" class="st4" d="M128.2,18.2c-0.9,0-1.6-0.2-2.2-0.5s-1.1-0.8-1.5-1.5c-0.4-0.6-0.5-1.4-0.5-2.2
			c0-0.8,0.2-1.5,0.5-2.2s0.8-1.1,1.4-1.5s1.3-0.6,2.1-0.6c1,0,1.8,0.3,2.4,0.9s1,1.3,1.2,2.3c0,0,0,0,0,0.1c0,0.1,0,0.2-0.1,0.2
			s-0.1,0.1-0.2,0.1c-0.2,0.1-0.4,0.2-0.6,0.2c-0.2,0.1-0.4,0.1-0.7,0.2c-0.6,0.2-1.2,0.5-1.9,0.7s-1.2,0.5-1.8,0.7
			c0,0-0.1,0.1-0.1,0.1c0,0,0,0,0,0.1c0.2,0.4,0.6,0.7,1,0.9s0.8,0.3,1.3,0.3c0.4,0,0.7-0.1,1-0.2s0.6-0.3,0.9-0.4
			c0,0,0.1,0,0.1-0.1s0.1,0,0.1,0c0.1,0,0.1,0,0.2,0.1s0.1,0.1,0.1,0.2c0,0,0.1,0.1,0.1,0.3s0.1,0.3,0.2,0.4s0.1,0.2,0.1,0.3
			c0,0.1,0,0.1-0.1,0.2s-0.1,0.1-0.1,0.1c-0.4,0.3-0.9,0.5-1.5,0.7S128.7,18.2,128.2,18.2z M126,14c0.6-0.2,1.2-0.4,1.8-0.6
			s1.2-0.4,1.8-0.6c-0.1-0.3-0.4-0.6-0.6-0.8s-0.6-0.4-1-0.4c-0.4,0-0.8,0.1-1.1,0.4s-0.5,0.5-0.7,0.9S126,13.6,126,14z"/>
		<path id="XMLID_417_" class="st4" d="M137.7,18.2c-0.4,0-0.9-0.1-1.3-0.2s-0.8-0.4-1.1-0.7c0,0,0,0-0.1,0s0,0-0.1,0s0,0-0.1,0.1
			s0,0.1,0,0.1c0,0.4,0,0.8,0,1.2s0,0.8,0,1.2c0,0.1,0,0.3,0,0.4s0,0.3,0,0.4c0,0.1,0,0.2-0.1,0.3s-0.1,0.1-0.3,0.1h-1.4
			c-0.2,0-0.4-0.1-0.4-0.4c0-0.5,0-0.9,0-1.4s0-0.9,0-1.4c0-1,0-1.9,0.1-2.9s0-1.9,0-2.9c0-0.3,0-0.6,0-0.9s0-0.6,0-0.9
			c0-0.2,0.1-0.4,0.4-0.4h1.1c0.2,0,0.3,0.1,0.3,0.2s0.1,0.3,0.1,0.4s0,0.2,0.1,0.2c0,0,0.1,0,0.1,0c0.4-0.3,0.9-0.6,1.3-0.8
			s1-0.3,1.5-0.3c0.8,0,1.5,0.2,2.1,0.6s1,0.9,1.3,1.5s0.4,1.4,0.4,2.1c0,0.8-0.2,1.6-0.5,2.2c-0.3,0.6-0.8,1.1-1.4,1.4
			S138.5,18.2,137.7,18.2z M137.3,16.4c0.4,0,0.9-0.1,1.2-0.3c0.4-0.2,0.7-0.5,0.9-0.8s0.3-0.8,0.3-1.2c0-0.7-0.2-1.3-0.7-1.7
			s-1-0.7-1.7-0.7c-0.5,0-0.9,0.1-1.3,0.4s-0.7,0.6-0.8,1.1c0,0.3,0,0.6,0,0.9s0,0.6,0,0.9c0,0,0,0.1,0.1,0.2s0.1,0.2,0.1,0.2
			c0.2,0.4,0.5,0.7,0.8,0.9C136.5,16.3,136.9,16.4,137.3,16.4z"/>
	</g>
</g>
<g id="Layer_5" class="st0">
	<g id="XMLID_537_" class="st1">
		<path id="XMLID_538_" d="M165.6,18.4c0,0-0.2-0.1-0.5-0.4s-0.7-0.7-1.2-1.1s-1-1-1.6-1.6s-1.2-1.1-1.7-1.7s-1.1-1.1-1.6-1.6
			s-0.9-0.9-1.2-1.1s-0.5-0.4-0.5-0.4c0,0,0,0-0.1,0.1s0,0.1,0,0.1c0,0.5,0,1.1,0,1.6s0,1.1,0,1.6c0,0.4,0,0.9,0,1.3s0,0.9,0,1.3
			c0,0.2,0,0.4,0,0.6s0,0.4,0,0.6c0,0.1,0,0.2-0.1,0.3s-0.1,0.1-0.3,0.1h-1.6c-0.2,0-0.4-0.1-0.4-0.4c0-0.3,0-0.7,0-1s0-0.7,0-1
			c0-0.7,0-1.3,0-2s0-1.3,0-2c0-0.7,0-1.4,0-2.1s0-1.4,0-2.1c0-0.3,0-0.7,0-1s0-0.7,0-1c0,0,0-0.1,0.1-0.1s0.1,0,0.1,0
			c1.4,1.3,2.8,2.6,4.1,4s2.7,2.7,4.1,4c0,0,0,0,0.1,0s0,0,0.1,0c0,0,0.1,0,0.1-0.1s0-0.1,0-0.1c0-0.5,0-1.1,0-1.6s0-1.1,0-1.6
			c0-0.5,0-0.9,0-1.4s0-0.9,0-1.4c0-0.2,0-0.4,0-0.6s0-0.4,0-0.6c0-0.1,0-0.2,0.1-0.3s0.1-0.1,0.3-0.1h1.5c0.2,0,0.4,0.1,0.4,0.4
			c0,0.3,0,0.6,0,0.9s0,0.6,0,0.9c0,0.6,0,1.3,0,1.9s0,1.3,0,1.9C165.5,14,165.5,16.2,165.6,18.4L165.6,18.4z"/>
		<path id="XMLID_540_" d="M167.2,14.1c0-0.8,0.2-1.5,0.5-2.2s0.8-1.1,1.5-1.5s1.4-0.6,2.2-0.6c0.8,0,1.5,0.2,2.1,0.5
			s1.1,0.9,1.4,1.5s0.5,1.3,0.5,2.1c0,0.8-0.2,1.5-0.5,2.2c-0.3,0.6-0.8,1.1-1.4,1.5s-1.3,0.5-2.2,0.5c-0.8,0-1.5-0.2-2.2-0.5
			s-1.1-0.8-1.4-1.4C167.3,15.6,167.2,14.9,167.2,14.1z M171.3,11.6c-0.4,0-0.8,0.1-1.1,0.4s-0.5,0.5-0.7,0.9s-0.2,0.8-0.2,1.2
			c0,0.4,0.1,0.7,0.2,1.1s0.4,0.6,0.7,0.9c0.3,0.2,0.7,0.3,1.1,0.3c0.4,0,0.8-0.1,1.1-0.3c0.3-0.2,0.5-0.5,0.7-0.9s0.2-0.7,0.2-1.1
			c0-0.4-0.1-0.8-0.2-1.1s-0.4-0.7-0.7-0.9S171.7,11.6,171.3,11.6z"/>
		<path id="XMLID_543_" d="M177.6,9.9c0-0.5,0-1,0-1.5s0-1,0-1.5c0-0.2,0.1-0.4,0.4-0.4h1.4c0.2,0,0.4,0.1,0.4,0.4c0,0.5,0,1,0,1.5
			s0,1,0,1.5c0,0.1,0,0.1,0.1,0.1h1.4c0.2,0,0.4,0.1,0.4,0.4c0,0.2,0,0.4,0,0.5s0,0.4,0,0.6c0,0.2-0.1,0.4-0.4,0.4h-1.4
			c-0.1,0-0.1,0-0.1,0.1c0,0.9,0,1.9,0,2.8s0,1.9,0,2.8c0,0.2-0.1,0.4-0.4,0.4H178c-0.2,0-0.4-0.1-0.4-0.4c0-0.9,0-1.9,0-2.8
			s0-1.9,0-2.8c0-0.1-0.1-0.1-0.2-0.1s-0.3,0-0.4,0s-0.3,0-0.4,0s-0.2-0.2-0.2-0.3v-1.1c0-0.2,0.1-0.4,0.4-0.4h0.7
			C177.6,10,177.6,10,177.6,9.9z"/>
		<path id="XMLID_545_" d="M186.8,18.2c-0.9,0-1.6-0.2-2.2-0.5s-1.1-0.8-1.5-1.5c-0.4-0.6-0.5-1.4-0.5-2.2c0-0.8,0.2-1.5,0.5-2.2
			s0.8-1.1,1.4-1.5s1.3-0.6,2.1-0.6c1,0,1.8,0.3,2.4,0.9s1,1.3,1.2,2.3c0,0,0,0,0,0.1c0,0.1,0,0.2-0.1,0.2s-0.1,0.1-0.2,0.1
			c-0.2,0.1-0.4,0.2-0.6,0.2s-0.4,0.1-0.7,0.2c-0.6,0.2-1.2,0.5-1.9,0.7s-1.2,0.5-1.8,0.7c0,0-0.1,0.1-0.1,0.1c0,0,0,0,0,0.1
			c0.2,0.4,0.6,0.7,1,0.9s0.8,0.3,1.3,0.3c0.4,0,0.7-0.1,1-0.2s0.6-0.3,0.9-0.4c0,0,0.1,0,0.1-0.1s0.1,0,0.1,0c0.1,0,0.1,0,0.2,0.1
			s0.1,0.1,0.1,0.2c0,0,0.1,0.1,0.1,0.3s0.1,0.3,0.2,0.4s0.1,0.2,0.1,0.3c0,0.1,0,0.1-0.1,0.2s-0.1,0.1-0.1,0.1
			c-0.4,0.3-0.9,0.5-1.5,0.7S187.3,18.2,186.8,18.2z M184.6,14c0.6-0.2,1.2-0.4,1.8-0.6s1.2-0.4,1.8-0.6c-0.1-0.3-0.3-0.6-0.6-0.8
			s-0.6-0.4-1-0.4c-0.4,0-0.8,0.1-1.1,0.4s-0.5,0.5-0.7,0.9S184.6,13.6,184.6,14z"/>
		<path id="XMLID_548_" d="M193.7,5.7c0.2,0,0.3,0.1,0.4,0.4c0,0.3,0,0.5,0,0.8s0,0.5,0,0.8c0,0.6,0,1.1,0,1.7s0,1.1,0,1.7
			c0,0.1,0,0.1,0.1,0.1h0c2-0.5,3.3-1.8,4.1-3.7c0.1-0.2,0.2-0.4,0.2-0.7s0.1-0.5,0.2-0.7c0-0.1,0.1-0.2,0.1-0.2s0.1-0.1,0.2-0.1
			h1.5c0.1,0,0.2,0,0.3,0.1s0.1,0.1,0.1,0.2c0,0.1,0,0.1,0,0.1c-0.2,1-0.6,1.9-1.1,2.8s-1.1,1.6-2,2.3c-0.2,0.1-0.3,0.2-0.5,0.4
			s-0.3,0.2-0.5,0.3c0,0-0.1,0-0.1,0.1c0,0,0.1,0.2,0.3,0.4s0.4,0.6,0.7,0.9s0.6,0.8,0.9,1.2s0.6,0.8,0.9,1.3c0.3,0.4,0.6,0.8,0.8,1
			s0.4,0.5,0.4,0.6c0,0,0.1,0.1,0.1,0.2s0.1,0.1,0.1,0.2c0,0.1-0.1,0.2-0.2,0.2s-0.2,0-0.3,0h-1.7c-0.1,0-0.2,0-0.3-0.1
			c-0.2-0.2-0.3-0.4-0.5-0.6s-0.3-0.4-0.5-0.7c-0.3-0.4-0.6-0.8-0.9-1.2s-0.6-0.8-0.9-1.2c-0.2-0.2-0.3-0.4-0.5-0.7
			s-0.3-0.4-0.5-0.6c0,0-0.1,0-0.1,0c-0.1,0-0.1,0-0.2,0s-0.2,0-0.2,0s-0.1,0-0.1,0.1c0,0.5,0,1.1,0,1.6s0,1.1,0,1.6
			c0,0.3,0,0.5,0,0.8s0,0.5,0,0.8c0,0.2-0.1,0.4-0.4,0.4h-1.5c-0.2,0-0.4-0.1-0.4-0.4c0-0.3,0-0.6,0-1s0-0.6,0-1c0-1.3,0-2.7,0-4
			c0-1.3,0-2.6,0-3.8c0-0.3,0-0.6,0-0.9s0-0.6,0-0.9c0-0.2,0.1-0.4,0.4-0.4H193.7z"/>
		<path id="XMLID_550_" d="M206.2,18.2c-0.9,0-1.6-0.2-2.2-0.5s-1.1-0.8-1.5-1.5c-0.4-0.6-0.5-1.4-0.5-2.2c0-0.8,0.2-1.5,0.5-2.2
			s0.8-1.1,1.4-1.5s1.3-0.6,2.1-0.6c1,0,1.8,0.3,2.4,0.9s1,1.3,1.2,2.3c0,0,0,0,0,0.1c0,0.1,0,0.2-0.1,0.2s-0.1,0.1-0.2,0.1
			c-0.2,0.1-0.4,0.2-0.6,0.2s-0.4,0.1-0.7,0.2c-0.6,0.2-1.2,0.5-1.9,0.7s-1.2,0.5-1.8,0.7c0,0-0.1,0.1-0.1,0.1c0,0,0,0,0,0.1
			c0.2,0.4,0.6,0.7,1,0.9s0.8,0.3,1.3,0.3c0.4,0,0.7-0.1,1-0.2s0.6-0.3,0.9-0.4c0,0,0.1,0,0.1-0.1s0.1,0,0.1,0c0.1,0,0.1,0,0.2,0.1
			s0.1,0.1,0.1,0.2c0,0,0.1,0.1,0.1,0.3s0.1,0.3,0.2,0.4s0.1,0.2,0.1,0.3c0,0.1,0,0.1-0.1,0.2s-0.1,0.1-0.1,0.1
			c-0.4,0.3-0.9,0.5-1.5,0.7S206.7,18.2,206.2,18.2z M204,14c0.6-0.2,1.2-0.4,1.8-0.6s1.2-0.4,1.8-0.6c-0.1-0.3-0.3-0.6-0.6-0.8
			s-0.6-0.4-1-0.4c-0.4,0-0.8,0.1-1.1,0.4s-0.5,0.5-0.7,0.9S204,13.6,204,14z"/>
		<path id="XMLID_553_" d="M214.9,18.2c-0.9,0-1.6-0.2-2.2-0.5s-1.1-0.8-1.5-1.5c-0.4-0.6-0.5-1.4-0.5-2.2c0-0.8,0.2-1.5,0.5-2.2
			s0.8-1.1,1.4-1.5s1.3-0.6,2.1-0.6c1,0,1.8,0.3,2.4,0.9s1,1.3,1.2,2.3c0,0,0,0,0,0.1c0,0.1,0,0.2-0.1,0.2s-0.1,0.1-0.2,0.1
			c-0.2,0.1-0.4,0.2-0.6,0.2s-0.4,0.1-0.7,0.2c-0.6,0.2-1.2,0.5-1.9,0.7s-1.2,0.5-1.8,0.7c0,0-0.1,0.1-0.1,0.1c0,0,0,0,0,0.1
			c0.2,0.4,0.6,0.7,1,0.9s0.8,0.3,1.3,0.3c0.4,0,0.7-0.1,1-0.2s0.6-0.3,0.9-0.4c0,0,0.1,0,0.1-0.1s0.1,0,0.1,0c0.1,0,0.1,0,0.2,0.1
			s0.1,0.1,0.1,0.2c0,0,0.1,0.1,0.1,0.3s0.1,0.3,0.2,0.4s0.1,0.2,0.1,0.3c0,0.1,0,0.1-0.1,0.2s-0.1,0.1-0.1,0.1
			c-0.4,0.3-0.9,0.5-1.5,0.7S215.4,18.2,214.9,18.2z M212.6,14c0.6-0.2,1.2-0.4,1.8-0.6s1.2-0.4,1.8-0.6c-0.1-0.3-0.3-0.6-0.6-0.8
			s-0.6-0.4-1-0.4c-0.4,0-0.8,0.1-1.1,0.4s-0.5,0.5-0.7,0.9S212.6,13.6,212.6,14z"/>
		<path id="XMLID_556_" d="M224.3,18.2c-0.4,0-0.9-0.1-1.3-0.2s-0.8-0.4-1.1-0.7c0,0,0,0-0.1,0s0,0-0.1,0s0,0-0.1,0.1s0,0.1,0,0.1
			c0,0.4,0,0.8,0,1.2s0,0.8,0,1.2c0,0.1,0,0.3,0,0.4s0,0.3,0,0.4c0,0.1,0,0.2-0.1,0.3s-0.1,0.1-0.3,0.1h-1.4c-0.2,0-0.4-0.1-0.4-0.4
			c0-0.5,0-0.9,0-1.4s0-0.9,0-1.4c0-1,0-1.9,0.1-2.9s0-1.9,0-2.9c0-0.3,0-0.6,0-0.9s0-0.6,0-0.9c0-0.2,0.1-0.4,0.4-0.4h1.1
			c0.2,0,0.3,0.1,0.3,0.2s0.1,0.3,0.1,0.4s0,0.2,0.1,0.2c0,0,0.1,0,0.1,0c0.4-0.3,0.9-0.6,1.3-0.8s1-0.3,1.5-0.3
			c0.8,0,1.5,0.2,2.1,0.6s1,0.9,1.3,1.5s0.4,1.4,0.4,2.1c0,0.8-0.2,1.6-0.5,2.2c-0.3,0.6-0.8,1.1-1.4,1.4S225.1,18.2,224.3,18.2z
			 M223.9,16.4c0.4,0,0.9-0.1,1.2-0.3c0.4-0.2,0.7-0.5,0.9-0.8s0.3-0.8,0.3-1.2c0-0.7-0.2-1.3-0.7-1.7s-1-0.7-1.7-0.7
			c-0.5,0-0.9,0.1-1.3,0.4s-0.7,0.6-0.8,1.1c0,0.3,0,0.6,0,0.9s0,0.6,0,0.9c0,0,0,0.1,0.1,0.2s0.1,0.2,0.1,0.2
			c0.2,0.4,0.5,0.7,0.8,0.9C223.1,16.3,223.5,16.4,223.9,16.4z"/>
	</g>
</g>
</svg>
