<?xml version="1.0" encoding="utf-8"?>
<!-- Generator: Adobe Illustrator 19.0.0, SVG Export Plug-In . SVG Version: 6.00 Build 0)  -->
<svg version="1.1" xmlns="http://www.w3.org/2000/svg" xmlns:xlink="http://www.w3.org/1999/xlink" x="0px" y="0px"
	 viewBox="0 0 77.8 23.4" style="enable-background:new 0 0 77.8 23.4;" xml:space="preserve">
<style type="text/css">
	.st0{display:none;}
	.st1{display:inline;}
	.st2{fill:#311D7C;}
	.st3{fill:#FFD45C;}
	.st4{fill:#FFFFFF;}
</style>
<g id="Layer_1" class="st0">
	<g id="XMLID_1_" class="st1">
		<g id="XMLID_2_">
			<path id="XMLID_3_" class="st2" d="M-393.2,23.4h-13.1c-2.8,0-5-2.2-5-5V5c0-2.8,2.2-5,5-5h13.1c2.8,0,5,2.2,5,5v13.4
				C-388.2,21.2-390.4,23.4-393.2,23.4z"/>
			<path id="XMLID_4_" class="st3" d="M-396.1,19.1h-7.3c-2,0-3.7-1.6-3.7-3.7V8c0-2,1.6-3.7,3.7-3.7h7.3c2,0,3.7,1.6,3.7,3.7v7.5
				C-392.4,17.5-394.1,19.1-396.1,19.1z"/>
			<path id="XMLID_5_" class="st2" d="M-400.8,16.2h-3.5c-0.6,0-1.1-0.5-1.1-1.1v0c0-0.6,0.5-1.1,1.1-1.1h3.5c0.6,0,1.1,0.5,1.1,1.1
				v0C-399.7,15.7-400.2,16.2-400.8,16.2z"/>
			<path id="XMLID_6_" class="st2" d="M-396.9,13.3h-7.4c-0.6,0-1.1-0.5-1.1-1.1v0c0-0.6,0.5-1.1,1.1-1.1h7.4c0.6,0,1.1,0.5,1.1,1.1
				v0C-395.8,12.8-396.3,13.3-396.9,13.3z"/>
		</g>
		<g>
			<path id="XMLID_732_" d="M-370.3,17.5c0,0-0.2-0.1-0.5-0.4s-0.7-0.7-1.2-1.1c-0.5-0.5-1-1-1.6-1.6s-1.2-1.1-1.7-1.7
				s-1.1-1.1-1.6-1.6s-0.9-0.9-1.2-1.1s-0.5-0.4-0.5-0.4c0,0,0,0-0.1,0.1s0,0.1,0,0.1c0,0.5,0,1.1,0,1.6s0,1.1,0,1.6
				c0,0.4,0,0.9,0,1.3s0,0.9,0,1.3c0,0.2,0,0.4,0,0.6c0,0.2,0,0.4,0,0.6c0,0.1,0,0.2-0.1,0.3s-0.1,0.1-0.3,0.1h-1.6
				c-0.2,0-0.4-0.1-0.4-0.4c0-0.3,0-0.7,0-1c0-0.3,0-0.7,0-1c0-0.7,0-1.3,0-2c0-0.7,0-1.3,0-2c0-0.7,0-1.4,0-2.1s0-1.4,0-2.1
				c0-0.3,0-0.7,0-1s0-0.7,0-1c0,0,0-0.1,0.1-0.1s0.1,0,0.1,0c1.4,1.3,2.8,2.6,4.1,4s2.7,2.7,4.1,4c0,0,0,0,0.1,0s0,0,0.1,0
				c0,0,0.1,0,0.1-0.1s0-0.1,0-0.1c0-0.5,0-1.1,0-1.6s0-1.1,0-1.6c0-0.5,0-0.9,0-1.4c0-0.5,0-0.9,0-1.4c0-0.2,0-0.4,0-0.6
				s0-0.4,0-0.6c0-0.1,0-0.2,0.1-0.3s0.1-0.1,0.3-0.1h1.5c0.2,0,0.4,0.1,0.4,0.4c0,0.3,0,0.6,0,0.9s0,0.6,0,0.9c0,0.6,0,1.3,0,1.9
				s0,1.3,0,1.9C-370.4,13.1-370.4,15.3-370.3,17.5L-370.3,17.5z"/>
			<path id="XMLID_734_" d="M-368.7,13.2c0-0.8,0.2-1.5,0.5-2.2s0.8-1.1,1.5-1.5s1.4-0.6,2.2-0.6c0.8,0,1.5,0.2,2.1,0.5
				s1.1,0.9,1.4,1.5s0.5,1.3,0.5,2.1c0,0.8-0.2,1.5-0.5,2.2s-0.8,1.1-1.4,1.5s-1.3,0.5-2.2,0.5c-0.8,0-1.5-0.2-2.2-0.5
				s-1.1-0.8-1.4-1.4S-368.7,14-368.7,13.2z M-364.6,10.7c-0.4,0-0.8,0.1-1.1,0.4s-0.5,0.5-0.7,0.9s-0.2,0.8-0.2,1.2
				c0,0.4,0.1,0.7,0.2,1.1s0.4,0.6,0.7,0.9s0.7,0.3,1.1,0.3c0.4,0,0.8-0.1,1.1-0.3s0.5-0.5,0.7-0.9s0.2-0.7,0.2-1.1
				c0-0.4-0.1-0.8-0.2-1.1s-0.4-0.7-0.7-0.9S-364.2,10.7-364.6,10.7z"/>
			<path id="XMLID_737_" d="M-358.2,9c0-0.5,0-1,0-1.5s0-1,0-1.5c0-0.2,0.1-0.4,0.4-0.4h1.4c0.2,0,0.4,0.1,0.4,0.4c0,0.5,0,1,0,1.5
				s0,1,0,1.5c0,0.1,0,0.1,0.1,0.1h1.4c0.2,0,0.4,0.1,0.4,0.4c0,0.2,0,0.4,0,0.5s0,0.4,0,0.6c0,0.2-0.1,0.4-0.4,0.4h-1.4
				c-0.1,0-0.1,0-0.1,0.1c0,0.9,0,1.9,0,2.8s0,1.9,0,2.8c0,0.2-0.1,0.4-0.4,0.4h-1.4c-0.2,0-0.4-0.1-0.4-0.4c0-0.9,0-1.9,0-2.8
				s0-1.9,0-2.8c0-0.1-0.1-0.1-0.2-0.1s-0.3,0-0.4,0s-0.3,0-0.4,0s-0.2-0.2-0.2-0.3V9.5c0-0.2,0.1-0.4,0.4-0.4h0.7
				C-358.3,9.2-358.2,9.1-358.2,9z"/>
			<path id="XMLID_739_" d="M-349.1,17.4c-0.9,0-1.6-0.2-2.2-0.5s-1.1-0.8-1.5-1.5c-0.4-0.6-0.5-1.4-0.5-2.2c0-0.8,0.2-1.5,0.5-2.2
				s0.8-1.1,1.4-1.5s1.3-0.6,2.1-0.6c1,0,1.8,0.3,2.4,0.9s1,1.3,1.2,2.3c0,0,0,0,0,0.1c0,0.1,0,0.2-0.1,0.2s-0.1,0.1-0.2,0.1
				c-0.2,0.1-0.4,0.2-0.6,0.2c-0.2,0.1-0.4,0.1-0.7,0.2c-0.6,0.2-1.2,0.5-1.9,0.7s-1.2,0.5-1.8,0.7c0,0-0.1,0.1-0.1,0.1
				c0,0,0,0,0,0.1c0.2,0.4,0.6,0.7,1,0.9s0.8,0.3,1.3,0.3c0.4,0,0.7-0.1,1-0.2s0.6-0.3,0.9-0.4c0,0,0.1,0,0.1-0.1s0.1,0,0.1,0
				c0.1,0,0.1,0,0.2,0.1s0.1,0.1,0.1,0.2c0,0,0.1,0.1,0.1,0.3s0.1,0.3,0.2,0.4c0.1,0.1,0.1,0.2,0.1,0.3c0,0.1,0,0.1-0.1,0.2
				s-0.1,0.1-0.1,0.1c-0.4,0.3-0.9,0.5-1.5,0.7S-348.6,17.4-349.1,17.4z M-351.3,13.1c0.6-0.2,1.2-0.4,1.8-0.6s1.2-0.4,1.8-0.6
				c-0.1-0.3-0.4-0.6-0.6-0.8s-0.6-0.4-1-0.4c-0.4,0-0.8,0.1-1.1,0.4s-0.5,0.5-0.7,0.9S-351.3,12.7-351.3,13.1z"/>
			<path id="XMLID_742_" d="M-342.2,4.8c0.2,0,0.3,0.1,0.4,0.4c0,0.3,0,0.5,0,0.8s0,0.5,0,0.8c0,0.6,0,1.1,0,1.7s0,1.1,0,1.7
				c0,0.1,0,0.1,0.1,0.1h0c2-0.5,3.3-1.8,4.1-3.7c0.1-0.2,0.2-0.4,0.2-0.7s0.1-0.5,0.2-0.7c0-0.1,0.1-0.2,0.1-0.2s0.1-0.1,0.2-0.1
				h1.5c0.1,0,0.2,0,0.3,0.1s0.1,0.1,0.1,0.2c0,0.1,0,0.1,0,0.1c-0.2,1-0.6,1.9-1.1,2.8s-1.1,1.6-2,2.3c-0.2,0.1-0.3,0.2-0.5,0.4
				s-0.3,0.2-0.5,0.3c0,0-0.1,0-0.1,0.1c0,0,0.1,0.2,0.3,0.4s0.4,0.6,0.7,0.9c0.3,0.4,0.6,0.8,0.9,1.2s0.6,0.8,0.9,1.3
				s0.6,0.8,0.8,1c0.2,0.3,0.4,0.5,0.4,0.6c0,0,0.1,0.1,0.1,0.2s0.1,0.1,0.1,0.2c0,0.1-0.1,0.2-0.2,0.2s-0.2,0-0.3,0h-1.7
				c-0.1,0-0.2,0-0.3-0.1c-0.2-0.2-0.3-0.4-0.5-0.6s-0.3-0.4-0.5-0.7c-0.3-0.4-0.6-0.8-0.9-1.2s-0.6-0.8-0.9-1.2
				c-0.2-0.2-0.3-0.4-0.5-0.7s-0.3-0.4-0.5-0.6c0,0-0.1,0-0.1,0c-0.1,0-0.1,0-0.2,0s-0.2,0-0.2,0s-0.1,0-0.1,0.1c0,0.5,0,1.1,0,1.6
				s0,1.1,0,1.6c0,0.3,0,0.5,0,0.8c0,0.3,0,0.5,0,0.8c0,0.2-0.1,0.4-0.4,0.4h-1.5c-0.2,0-0.4-0.1-0.4-0.4c0-0.3,0-0.6,0-1
				c0-0.3,0-0.6,0-1c0-1.3,0-2.7,0-4c0-1.3,0-2.6,0-3.8c0-0.3,0-0.6,0-0.9s0-0.6,0-0.9c0-0.2,0.1-0.4,0.4-0.4H-342.2z"/>
			<path id="XMLID_744_" d="M-329.7,17.4c-0.9,0-1.6-0.2-2.2-0.5s-1.1-0.8-1.5-1.5c-0.4-0.6-0.5-1.4-0.5-2.2c0-0.8,0.2-1.5,0.5-2.2
				s0.8-1.1,1.4-1.5s1.3-0.6,2.1-0.6c1,0,1.8,0.3,2.4,0.9s1,1.3,1.2,2.3c0,0,0,0,0,0.1c0,0.1,0,0.2-0.1,0.2s-0.1,0.1-0.2,0.1
				c-0.2,0.1-0.4,0.2-0.6,0.2c-0.2,0.1-0.4,0.1-0.7,0.2c-0.6,0.2-1.2,0.5-1.9,0.7s-1.2,0.5-1.8,0.7c0,0-0.1,0.1-0.1,0.1
				c0,0,0,0,0,0.1c0.2,0.4,0.6,0.7,1,0.9s0.8,0.3,1.3,0.3c0.4,0,0.7-0.1,1-0.2s0.6-0.3,0.9-0.4c0,0,0.1,0,0.1-0.1s0.1,0,0.1,0
				c0.1,0,0.1,0,0.2,0.1s0.1,0.1,0.1,0.2c0,0,0.1,0.1,0.1,0.3s0.1,0.3,0.2,0.4c0.1,0.1,0.1,0.2,0.1,0.3c0,0.1,0,0.1-0.1,0.2
				s-0.1,0.1-0.1,0.1c-0.4,0.3-0.9,0.5-1.5,0.7S-329.2,17.4-329.7,17.4z M-331.9,13.1c0.6-0.2,1.2-0.4,1.8-0.6s1.2-0.4,1.8-0.6
				c-0.1-0.3-0.4-0.6-0.6-0.8s-0.6-0.4-1-0.4c-0.4,0-0.8,0.1-1.1,0.4s-0.5,0.5-0.7,0.9S-331.9,12.7-331.9,13.1z"/>
			<path id="XMLID_747_" d="M-321,17.4c-0.9,0-1.6-0.2-2.2-0.5s-1.1-0.8-1.5-1.5c-0.4-0.6-0.5-1.4-0.5-2.2c0-0.8,0.2-1.5,0.5-2.2
				s0.8-1.1,1.4-1.5s1.3-0.6,2.1-0.6c1,0,1.8,0.3,2.4,0.9s1,1.3,1.2,2.3c0,0,0,0,0,0.1c0,0.1,0,0.2-0.1,0.2s-0.1,0.1-0.2,0.1
				c-0.2,0.1-0.4,0.2-0.6,0.2c-0.2,0.1-0.4,0.1-0.7,0.2c-0.6,0.2-1.2,0.5-1.9,0.7s-1.2,0.5-1.8,0.7c0,0-0.1,0.1-0.1,0.1
				c0,0,0,0,0,0.1c0.2,0.4,0.6,0.7,1,0.9s0.8,0.3,1.3,0.3c0.4,0,0.7-0.1,1-0.2s0.6-0.3,0.9-0.4c0,0,0.1,0,0.1-0.1s0.1,0,0.1,0
				c0.1,0,0.1,0,0.2,0.1s0.1,0.1,0.1,0.2c0,0,0.1,0.1,0.1,0.3s0.1,0.3,0.2,0.4c0.1,0.1,0.1,0.2,0.1,0.3c0,0.1,0,0.1-0.1,0.2
				s-0.1,0.1-0.1,0.1c-0.4,0.3-0.9,0.5-1.5,0.7S-320.5,17.4-321,17.4z M-323.2,13.1c0.6-0.2,1.2-0.4,1.8-0.6s1.2-0.4,1.8-0.6
				c-0.1-0.3-0.4-0.6-0.6-0.8s-0.6-0.4-1-0.4c-0.4,0-0.8,0.1-1.1,0.4s-0.5,0.5-0.7,0.9S-323.2,12.7-323.2,13.1z"/>
			<path id="XMLID_750_" d="M-311.6,17.3c-0.4,0-0.9-0.1-1.3-0.2s-0.8-0.4-1.1-0.7c0,0,0,0-0.1,0s0,0-0.1,0s0,0-0.1,0.1s0,0.1,0,0.1
				c0,0.4,0,0.8,0,1.2s0,0.8,0,1.2c0,0.1,0,0.3,0,0.4s0,0.3,0,0.4c0,0.1,0,0.2-0.1,0.3s-0.1,0.1-0.3,0.1h-1.4
				c-0.2,0-0.4-0.1-0.4-0.4c0-0.5,0-0.9,0-1.4s0-0.9,0-1.4c0-1,0-1.9,0.1-2.9s0-1.9,0-2.9c0-0.3,0-0.6,0-0.9s0-0.6,0-0.9
				c0-0.2,0.1-0.4,0.4-0.4h1.1c0.2,0,0.3,0.1,0.3,0.2s0.1,0.3,0.1,0.4s0,0.2,0.1,0.2c0,0,0.1,0,0.1,0c0.4-0.3,0.9-0.6,1.3-0.8
				s1-0.3,1.5-0.3c0.8,0,1.5,0.2,2.1,0.6s1,0.9,1.3,1.5s0.4,1.4,0.4,2.1c0,0.8-0.2,1.6-0.5,2.2c-0.3,0.6-0.8,1.1-1.4,1.4
				S-310.7,17.3-311.6,17.3z M-312,15.5c0.4,0,0.9-0.1,1.2-0.3s0.7-0.5,0.9-0.8s0.3-0.8,0.3-1.2c0-0.7-0.2-1.3-0.7-1.7
				s-1-0.7-1.7-0.7c-0.5,0-0.9,0.1-1.3,0.4s-0.7,0.6-0.8,1.1c0,0.3,0,0.6,0,0.9s0,0.6,0,0.9c0,0,0,0.1,0.1,0.2s0.1,0.2,0.1,0.2
				c0.2,0.4,0.5,0.7,0.8,0.9S-312.4,15.5-312,15.5z"/>
		</g>
		<g id="XMLID_7_">
			<path id="XMLID_689_" d="M-370.3,17.5c0,0-0.2-0.1-0.5-0.4s-0.7-0.7-1.2-1.1c-0.5-0.5-1-1-1.6-1.6s-1.2-1.1-1.7-1.7
				s-1.1-1.1-1.6-1.6s-0.9-0.9-1.2-1.1s-0.5-0.4-0.5-0.4c0,0,0,0-0.1,0.1s0,0.1,0,0.1c0,0.5,0,1.1,0,1.6s0,1.1,0,1.6
				c0,0.4,0,0.9,0,1.3s0,0.9,0,1.3c0,0.2,0,0.4,0,0.6c0,0.2,0,0.4,0,0.6c0,0.1,0,0.2-0.1,0.3s-0.1,0.1-0.3,0.1h-1.6
				c-0.2,0-0.4-0.1-0.4-0.4c0-0.3,0-0.7,0-1c0-0.3,0-0.7,0-1c0-0.7,0-1.3,0-2c0-0.7,0-1.3,0-2c0-0.7,0-1.4,0-2.1s0-1.4,0-2.1
				c0-0.3,0-0.7,0-1s0-0.7,0-1c0,0,0-0.1,0.1-0.1s0.1,0,0.1,0c1.4,1.3,2.8,2.6,4.1,4s2.7,2.7,4.1,4c0,0,0,0,0.1,0s0,0,0.1,0
				c0,0,0.1,0,0.1-0.1s0-0.1,0-0.1c0-0.5,0-1.1,0-1.6s0-1.1,0-1.6c0-0.5,0-0.9,0-1.4c0-0.5,0-0.9,0-1.4c0-0.2,0-0.4,0-0.6
				s0-0.4,0-0.6c0-0.1,0-0.2,0.1-0.3s0.1-0.1,0.3-0.1h1.5c0.2,0,0.4,0.1,0.4,0.4c0,0.3,0,0.6,0,0.9s0,0.6,0,0.9c0,0.6,0,1.3,0,1.9
				s0,1.3,0,1.9C-370.4,13.1-370.4,15.3-370.3,17.5L-370.3,17.5z"/>
			<path id="XMLID_691_" d="M-368.7,13.2c0-0.8,0.2-1.5,0.5-2.2s0.8-1.1,1.5-1.5s1.4-0.6,2.2-0.6c0.8,0,1.5,0.2,2.1,0.5
				s1.1,0.9,1.4,1.5s0.5,1.3,0.5,2.1c0,0.8-0.2,1.5-0.5,2.2s-0.8,1.1-1.4,1.5s-1.3,0.5-2.2,0.5c-0.8,0-1.5-0.2-2.2-0.5
				s-1.1-0.8-1.4-1.4S-368.7,14-368.7,13.2z M-364.6,10.7c-0.4,0-0.8,0.1-1.1,0.4s-0.5,0.5-0.7,0.9s-0.2,0.8-0.2,1.2
				c0,0.4,0.1,0.7,0.2,1.1s0.4,0.6,0.7,0.9s0.7,0.3,1.1,0.3c0.4,0,0.8-0.1,1.1-0.3s0.5-0.5,0.7-0.9s0.2-0.7,0.2-1.1
				c0-0.4-0.1-0.8-0.2-1.1s-0.4-0.7-0.7-0.9S-364.2,10.7-364.6,10.7z"/>
			<path id="XMLID_694_" d="M-358.2,9c0-0.5,0-1,0-1.5s0-1,0-1.5c0-0.2,0.1-0.4,0.4-0.4h1.4c0.2,0,0.4,0.1,0.4,0.4c0,0.5,0,1,0,1.5
				s0,1,0,1.5c0,0.1,0,0.1,0.1,0.1h1.4c0.2,0,0.4,0.1,0.4,0.4c0,0.2,0,0.4,0,0.5s0,0.4,0,0.6c0,0.2-0.1,0.4-0.4,0.4h-1.4
				c-0.1,0-0.1,0-0.1,0.1c0,0.9,0,1.9,0,2.8s0,1.9,0,2.8c0,0.2-0.1,0.4-0.4,0.4h-1.4c-0.2,0-0.4-0.1-0.4-0.4c0-0.9,0-1.9,0-2.8
				s0-1.9,0-2.8c0-0.1-0.1-0.1-0.2-0.1s-0.3,0-0.4,0s-0.3,0-0.4,0s-0.2-0.2-0.2-0.3V9.5c0-0.2,0.1-0.4,0.4-0.4h0.7
				C-358.3,9.2-358.2,9.1-358.2,9z"/>
			<path id="XMLID_696_" d="M-349.1,17.4c-0.9,0-1.6-0.2-2.2-0.5s-1.1-0.8-1.5-1.5c-0.4-0.6-0.5-1.4-0.5-2.2c0-0.8,0.2-1.5,0.5-2.2
				s0.8-1.1,1.4-1.5s1.3-0.6,2.1-0.6c1,0,1.8,0.3,2.4,0.9s1,1.3,1.2,2.3c0,0,0,0,0,0.1c0,0.1,0,0.2-0.1,0.2s-0.1,0.1-0.2,0.1
				c-0.2,0.1-0.4,0.2-0.6,0.2c-0.2,0.1-0.4,0.1-0.7,0.2c-0.6,0.2-1.2,0.5-1.9,0.7s-1.2,0.5-1.8,0.7c0,0-0.1,0.1-0.1,0.1
				c0,0,0,0,0,0.1c0.2,0.4,0.6,0.7,1,0.9s0.8,0.3,1.3,0.3c0.4,0,0.7-0.1,1-0.2s0.6-0.3,0.9-0.4c0,0,0.1,0,0.1-0.1s0.1,0,0.1,0
				c0.1,0,0.1,0,0.2,0.1s0.1,0.1,0.1,0.2c0,0,0.1,0.1,0.1,0.3s0.1,0.3,0.2,0.4c0.1,0.1,0.1,0.2,0.1,0.3c0,0.1,0,0.1-0.1,0.2
				s-0.1,0.1-0.1,0.1c-0.4,0.3-0.9,0.5-1.5,0.7S-348.6,17.4-349.1,17.4z M-351.3,13.1c0.6-0.2,1.2-0.4,1.8-0.6s1.2-0.4,1.8-0.6
				c-0.1-0.3-0.4-0.6-0.6-0.8s-0.6-0.4-1-0.4c-0.4,0-0.8,0.1-1.1,0.4s-0.5,0.5-0.7,0.9S-351.3,12.7-351.3,13.1z"/>
			<path id="XMLID_699_" d="M-342.2,4.8c0.2,0,0.3,0.1,0.4,0.4c0,0.3,0,0.5,0,0.8s0,0.5,0,0.8c0,0.6,0,1.1,0,1.7s0,1.1,0,1.7
				c0,0.1,0,0.1,0.1,0.1h0c2-0.5,3.3-1.8,4.1-3.7c0.1-0.2,0.2-0.4,0.2-0.7s0.1-0.5,0.2-0.7c0-0.1,0.1-0.2,0.1-0.2s0.1-0.1,0.2-0.1
				h1.5c0.1,0,0.2,0,0.3,0.1s0.1,0.1,0.1,0.2c0,0.1,0,0.1,0,0.1c-0.2,1-0.6,1.9-1.1,2.8s-1.1,1.6-2,2.3c-0.2,0.1-0.3,0.2-0.5,0.4
				s-0.3,0.2-0.5,0.3c0,0-0.1,0-0.1,0.1c0,0,0.1,0.2,0.3,0.4s0.4,0.6,0.7,0.9c0.3,0.4,0.6,0.8,0.9,1.2s0.6,0.8,0.9,1.3
				s0.6,0.8,0.8,1c0.2,0.3,0.4,0.5,0.4,0.6c0,0,0.1,0.1,0.1,0.2s0.1,0.1,0.1,0.2c0,0.1-0.1,0.2-0.2,0.2s-0.2,0-0.3,0h-1.7
				c-0.1,0-0.2,0-0.3-0.1c-0.2-0.2-0.3-0.4-0.5-0.6s-0.3-0.4-0.5-0.7c-0.3-0.4-0.6-0.8-0.9-1.2s-0.6-0.8-0.9-1.2
				c-0.2-0.2-0.3-0.4-0.5-0.7s-0.3-0.4-0.5-0.6c0,0-0.1,0-0.1,0c-0.1,0-0.1,0-0.2,0s-0.2,0-0.2,0s-0.1,0-0.1,0.1c0,0.5,0,1.1,0,1.6
				s0,1.1,0,1.6c0,0.3,0,0.5,0,0.8c0,0.3,0,0.5,0,0.8c0,0.2-0.1,0.4-0.4,0.4h-1.5c-0.2,0-0.4-0.1-0.4-0.4c0-0.3,0-0.6,0-1
				c0-0.3,0-0.6,0-1c0-1.3,0-2.7,0-4c0-1.3,0-2.6,0-3.8c0-0.3,0-0.6,0-0.9s0-0.6,0-0.9c0-0.2,0.1-0.4,0.4-0.4H-342.2z"/>
			<path id="XMLID_701_" d="M-329.7,17.4c-0.9,0-1.6-0.2-2.2-0.5s-1.1-0.8-1.5-1.5c-0.4-0.6-0.5-1.4-0.5-2.2c0-0.8,0.2-1.5,0.5-2.2
				s0.8-1.1,1.4-1.5s1.3-0.6,2.1-0.6c1,0,1.8,0.3,2.4,0.9s1,1.3,1.2,2.3c0,0,0,0,0,0.1c0,0.1,0,0.2-0.1,0.2s-0.1,0.1-0.2,0.1
				c-0.2,0.1-0.4,0.2-0.6,0.2c-0.2,0.1-0.4,0.1-0.7,0.2c-0.6,0.2-1.2,0.5-1.9,0.7s-1.2,0.5-1.8,0.7c0,0-0.1,0.1-0.1,0.1
				c0,0,0,0,0,0.1c0.2,0.4,0.6,0.7,1,0.9s0.8,0.3,1.3,0.3c0.4,0,0.7-0.1,1-0.2s0.6-0.3,0.9-0.4c0,0,0.1,0,0.1-0.1s0.1,0,0.1,0
				c0.1,0,0.1,0,0.2,0.1s0.1,0.1,0.1,0.2c0,0,0.1,0.1,0.1,0.3s0.1,0.3,0.2,0.4c0.1,0.1,0.1,0.2,0.1,0.3c0,0.1,0,0.1-0.1,0.2
				s-0.1,0.1-0.1,0.1c-0.4,0.3-0.9,0.5-1.5,0.7S-329.2,17.4-329.7,17.4z M-331.9,13.1c0.6-0.2,1.2-0.4,1.8-0.6s1.2-0.4,1.8-0.6
				c-0.1-0.3-0.4-0.6-0.6-0.8s-0.6-0.4-1-0.4c-0.4,0-0.8,0.1-1.1,0.4s-0.5,0.5-0.7,0.9S-331.9,12.7-331.9,13.1z"/>
			<path id="XMLID_704_" d="M-321,17.4c-0.9,0-1.6-0.2-2.2-0.5s-1.1-0.8-1.5-1.5c-0.4-0.6-0.5-1.4-0.5-2.2c0-0.8,0.2-1.5,0.5-2.2
				s0.8-1.1,1.4-1.5s1.3-0.6,2.1-0.6c1,0,1.8,0.3,2.4,0.9s1,1.3,1.2,2.3c0,0,0,0,0,0.1c0,0.1,0,0.2-0.1,0.2s-0.1,0.1-0.2,0.1
				c-0.2,0.1-0.4,0.2-0.6,0.2c-0.2,0.1-0.4,0.1-0.7,0.2c-0.6,0.2-1.2,0.5-1.9,0.7s-1.2,0.5-1.8,0.7c0,0-0.1,0.1-0.1,0.1
				c0,0,0,0,0,0.1c0.2,0.4,0.6,0.7,1,0.9s0.8,0.3,1.3,0.3c0.4,0,0.7-0.1,1-0.2s0.6-0.3,0.9-0.4c0,0,0.1,0,0.1-0.1s0.1,0,0.1,0
				c0.1,0,0.1,0,0.2,0.1s0.1,0.1,0.1,0.2c0,0,0.1,0.1,0.1,0.3s0.1,0.3,0.2,0.4c0.1,0.1,0.1,0.2,0.1,0.3c0,0.1,0,0.1-0.1,0.2
				s-0.1,0.1-0.1,0.1c-0.4,0.3-0.9,0.5-1.5,0.7S-320.5,17.4-321,17.4z M-323.2,13.1c0.6-0.2,1.2-0.4,1.8-0.6s1.2-0.4,1.8-0.6
				c-0.1-0.3-0.4-0.6-0.6-0.8s-0.6-0.4-1-0.4c-0.4,0-0.8,0.1-1.1,0.4s-0.5,0.5-0.7,0.9S-323.2,12.7-323.2,13.1z"/>
			<path id="XMLID_707_" d="M-311.6,17.3c-0.4,0-0.9-0.1-1.3-0.2s-0.8-0.4-1.1-0.7c0,0,0,0-0.1,0s0,0-0.1,0s0,0-0.1,0.1s0,0.1,0,0.1
				c0,0.4,0,0.8,0,1.2s0,0.8,0,1.2c0,0.1,0,0.3,0,0.4s0,0.3,0,0.4c0,0.1,0,0.2-0.1,0.3s-0.1,0.1-0.3,0.1h-1.4
				c-0.2,0-0.4-0.1-0.4-0.4c0-0.5,0-0.9,0-1.4s0-0.9,0-1.4c0-1,0-1.9,0.1-2.9s0-1.9,0-2.9c0-0.3,0-0.6,0-0.9s0-0.6,0-0.9
				c0-0.2,0.1-0.4,0.4-0.4h1.1c0.2,0,0.3,0.1,0.3,0.2s0.1,0.3,0.1,0.4s0,0.2,0.1,0.2c0,0,0.1,0,0.1,0c0.4-0.3,0.9-0.6,1.3-0.8
				s1-0.3,1.5-0.3c0.8,0,1.5,0.2,2.1,0.6s1,0.9,1.3,1.5s0.4,1.4,0.4,2.1c0,0.8-0.2,1.6-0.5,2.2c-0.3,0.6-0.8,1.1-1.4,1.4
				S-310.7,17.3-311.6,17.3z M-312,15.5c0.4,0,0.9-0.1,1.2-0.3s0.7-0.5,0.9-0.8s0.3-0.8,0.3-1.2c0-0.7-0.2-1.3-0.7-1.7
				s-1-0.7-1.7-0.7c-0.5,0-0.9,0.1-1.3,0.4s-0.7,0.6-0.8,1.1c0,0.3,0,0.6,0,0.9s0,0.6,0,0.9c0,0,0,0.1,0.1,0.2s0.1,0.2,0.1,0.2
				c0.2,0.4,0.5,0.7,0.8,0.9S-312.4,15.5-312,15.5z"/>
		</g>
	</g>
</g>
<g id="Layer_2" class="st0">
	<g id="XMLID_126_" class="st1">
		<g id="XMLID_128_">
			<path id="XMLID_132_" class="st2" d="M-278.7,23.4h-13.1c-2.8,0-5-2.2-5-5V5c0-2.8,2.2-5,5-5h13.1c2.8,0,5,2.2,5,5v13.4
				C-273.7,21.2-275.9,23.4-278.7,23.4z"/>
			<path id="XMLID_131_" class="st3" d="M-281.6,19.1h-7.3c-2,0-3.7-1.6-3.7-3.7V8c0-2,1.6-3.7,3.7-3.7h7.3c2,0,3.7,1.6,3.7,3.7v7.5
				C-277.9,17.5-279.6,19.1-281.6,19.1z"/>
			<path id="XMLID_130_" class="st2" d="M-286.3,16.2h-3.5c-0.6,0-1.1-0.5-1.1-1.1v0c0-0.6,0.5-1.1,1.1-1.1h3.5
				c0.6,0,1.1,0.5,1.1,1.1v0C-285.2,15.7-285.7,16.2-286.3,16.2z"/>
			<path id="XMLID_129_" class="st2" d="M-282.4,13.3h-7.4c-0.6,0-1.1-0.5-1.1-1.1v0c0-0.6,0.5-1.1,1.1-1.1h7.4
				c0.6,0,1.1,0.5,1.1,1.1v0C-281.3,12.8-281.8,13.3-282.4,13.3z"/>
		</g>
		<g>
			<path id="XMLID_753_" class="st4" d="M-255.8,17.5c0,0-0.2-0.1-0.5-0.4s-0.7-0.7-1.2-1.1c-0.5-0.5-1-1-1.6-1.6s-1.2-1.1-1.8-1.7
				s-1.1-1.1-1.6-1.6s-0.9-0.9-1.2-1.1s-0.5-0.4-0.5-0.4c0,0,0,0-0.1,0.1s0,0.1,0,0.1c0,0.5,0,1.1,0,1.6s0,1.1,0,1.6
				c0,0.4,0,0.9,0,1.3s0,0.9,0,1.3c0,0.2,0,0.4,0,0.6c0,0.2,0,0.4,0,0.6c0,0.1,0,0.2-0.1,0.3s-0.1,0.1-0.3,0.1h-1.6
				c-0.2,0-0.4-0.1-0.4-0.4c0-0.3,0-0.7,0-1c0-0.3,0-0.7,0-1c0-0.7,0-1.3,0-2c0-0.7,0-1.3,0-2c0-0.7,0-1.4,0-2.1s0-1.4,0-2.1
				c0-0.3,0-0.7,0-1s0-0.7,0-1c0,0,0-0.1,0.1-0.1s0.1,0,0.1,0c1.4,1.3,2.8,2.6,4.1,4s2.7,2.7,4.1,4c0,0,0,0,0.1,0s0,0,0.1,0
				c0,0,0.1,0,0.1-0.1s0-0.1,0-0.1c0-0.5,0-1.1,0-1.6s0-1.1,0-1.6c0-0.5,0-0.9,0-1.4c0-0.5,0-0.9,0-1.4c0-0.2,0-0.4,0-0.6
				s0-0.4,0-0.6c0-0.1,0-0.2,0.1-0.3s0.1-0.1,0.3-0.1h1.5c0.2,0,0.4,0.1,0.4,0.4c0,0.3,0,0.6,0,0.9s0,0.6,0,0.9c0,0.6,0,1.3,0,1.9
				s0,1.3,0,1.9C-255.9,13.1-255.9,15.3-255.8,17.5L-255.8,17.5z"/>
			<path id="XMLID_755_" class="st4" d="M-254.2,13.2c0-0.8,0.2-1.5,0.5-2.2s0.8-1.1,1.5-1.5s1.4-0.6,2.2-0.6c0.8,0,1.5,0.2,2.1,0.5
				s1.1,0.9,1.4,1.5s0.5,1.3,0.5,2.1c0,0.8-0.2,1.5-0.5,2.2s-0.8,1.1-1.4,1.5s-1.3,0.5-2.2,0.5c-0.8,0-1.5-0.2-2.2-0.5
				s-1.1-0.8-1.4-1.4S-254.2,14-254.2,13.2z M-250.1,10.7c-0.4,0-0.8,0.1-1.1,0.4s-0.5,0.5-0.7,0.9s-0.2,0.8-0.2,1.2
				c0,0.4,0.1,0.7,0.2,1.1s0.4,0.6,0.7,0.9s0.7,0.3,1.1,0.3c0.4,0,0.8-0.1,1.1-0.3s0.5-0.5,0.7-0.9s0.2-0.7,0.2-1.1
				c0-0.4-0.1-0.8-0.2-1.1s-0.4-0.7-0.7-0.9S-249.7,10.7-250.1,10.7z"/>
			<path id="XMLID_758_" class="st4" d="M-243.7,9c0-0.5,0-1,0-1.5s0-1,0-1.5c0-0.2,0.1-0.4,0.4-0.4h1.4c0.2,0,0.4,0.1,0.4,0.4
				c0,0.5,0,1,0,1.5s0,1,0,1.5c0,0.1,0,0.1,0.1,0.1h1.4c0.2,0,0.4,0.1,0.4,0.4c0,0.2,0,0.4,0,0.5s0,0.4,0,0.6c0,0.2-0.1,0.4-0.4,0.4
				h-1.4c-0.1,0-0.1,0-0.1,0.1c0,0.9,0,1.9,0,2.8s0,1.9,0,2.8c0,0.2-0.1,0.4-0.4,0.4h-1.4c-0.2,0-0.4-0.1-0.4-0.4c0-0.9,0-1.9,0-2.8
				s0-1.9,0-2.8c0-0.1-0.1-0.1-0.2-0.1s-0.3,0-0.4,0s-0.3,0-0.4,0s-0.2-0.2-0.2-0.3V9.5c0-0.2,0.1-0.4,0.4-0.4h0.7
				C-243.8,9.2-243.7,9.1-243.7,9z"/>
			<path id="XMLID_760_" class="st4" d="M-234.6,17.4c-0.9,0-1.6-0.2-2.2-0.5s-1.1-0.8-1.5-1.5c-0.4-0.6-0.5-1.4-0.5-2.2
				c0-0.8,0.2-1.5,0.5-2.2s0.8-1.1,1.4-1.5s1.3-0.6,2.1-0.6c1,0,1.8,0.3,2.4,0.9s1,1.3,1.2,2.3c0,0,0,0,0,0.1c0,0.1,0,0.2-0.1,0.2
				s-0.1,0.1-0.2,0.1c-0.2,0.1-0.4,0.2-0.6,0.2c-0.2,0.1-0.4,0.1-0.7,0.2c-0.6,0.2-1.2,0.5-1.9,0.7s-1.2,0.5-1.8,0.7
				c0,0-0.1,0.1-0.1,0.1c0,0,0,0,0,0.1c0.2,0.4,0.6,0.7,1,0.9s0.8,0.3,1.3,0.3c0.4,0,0.7-0.1,1-0.2s0.6-0.3,0.9-0.4
				c0,0,0.1,0,0.1-0.1s0.1,0,0.1,0c0.1,0,0.1,0,0.2,0.1s0.1,0.1,0.1,0.2c0,0,0.1,0.1,0.1,0.3s0.1,0.3,0.2,0.4
				c0.1,0.1,0.1,0.2,0.1,0.3c0,0.1,0,0.1-0.1,0.2s-0.1,0.1-0.1,0.1c-0.4,0.3-0.9,0.5-1.5,0.7S-234.1,17.4-234.6,17.4z M-236.8,13.1
				c0.6-0.2,1.2-0.4,1.8-0.6s1.2-0.4,1.8-0.6c-0.1-0.3-0.3-0.6-0.6-0.8s-0.6-0.4-1-0.4c-0.4,0-0.8,0.1-1.1,0.4s-0.5,0.5-0.7,0.9
				S-236.8,12.7-236.8,13.1z"/>
			<path id="XMLID_763_" class="st4" d="M-227.7,4.8c0.2,0,0.3,0.1,0.4,0.4c0,0.3,0,0.5,0,0.8s0,0.5,0,0.8c0,0.6,0,1.1,0,1.7
				s0,1.1,0,1.7c0,0.1,0,0.1,0.1,0.1h0c2-0.5,3.3-1.8,4.1-3.7c0.1-0.2,0.2-0.4,0.2-0.7s0.1-0.5,0.2-0.7c0-0.1,0.1-0.2,0.1-0.2
				s0.1-0.1,0.2-0.1h1.5c0.1,0,0.2,0,0.3,0.1s0.1,0.1,0.1,0.2c0,0.1,0,0.1,0,0.1c-0.2,1-0.6,1.9-1.1,2.8s-1.1,1.6-2,2.3
				c-0.2,0.1-0.3,0.2-0.5,0.4s-0.3,0.2-0.5,0.3c0,0-0.1,0-0.1,0.1c0,0,0.1,0.2,0.3,0.4s0.4,0.6,0.7,0.9c0.3,0.4,0.6,0.8,0.9,1.2
				s0.6,0.8,0.9,1.3s0.6,0.8,0.8,1c0.2,0.3,0.4,0.5,0.4,0.6c0,0,0.1,0.1,0.1,0.2s0.1,0.1,0.1,0.2c0,0.1-0.1,0.2-0.2,0.2
				s-0.2,0-0.3,0h-1.7c-0.1,0-0.2,0-0.3-0.1c-0.2-0.2-0.3-0.4-0.5-0.6s-0.3-0.4-0.5-0.7c-0.3-0.4-0.6-0.8-0.9-1.2s-0.6-0.8-0.9-1.2
				c-0.2-0.2-0.3-0.4-0.5-0.7s-0.3-0.4-0.5-0.6c0,0-0.1,0-0.1,0c-0.1,0-0.1,0-0.2,0s-0.2,0-0.2,0s-0.1,0-0.1,0.1c0,0.5,0,1.1,0,1.6
				s0,1.1,0,1.6c0,0.3,0,0.5,0,0.8c0,0.3,0,0.5,0,0.8c0,0.2-0.1,0.4-0.4,0.4h-1.5c-0.2,0-0.4-0.1-0.4-0.4c0-0.3,0-0.6,0-1
				c0-0.3,0-0.6,0-1c0-1.3,0-2.7,0-4c0-1.3,0-2.6,0-3.8c0-0.3,0-0.6,0-0.9s0-0.6,0-0.9c0-0.2,0.1-0.4,0.4-0.4H-227.7z"/>
			<path id="XMLID_765_" class="st4" d="M-215.2,17.4c-0.9,0-1.6-0.2-2.2-0.5s-1.1-0.8-1.5-1.5c-0.4-0.6-0.5-1.4-0.5-2.2
				c0-0.8,0.2-1.5,0.5-2.2s0.8-1.1,1.4-1.5s1.3-0.6,2.1-0.6c1,0,1.8,0.3,2.4,0.9s1,1.3,1.2,2.3c0,0,0,0,0,0.1c0,0.1,0,0.2-0.1,0.2
				s-0.1,0.1-0.2,0.1c-0.2,0.1-0.4,0.2-0.6,0.2c-0.2,0.1-0.4,0.1-0.7,0.2c-0.6,0.2-1.2,0.5-1.9,0.7s-1.2,0.5-1.8,0.7
				c0,0-0.1,0.1-0.1,0.1c0,0,0,0,0,0.1c0.2,0.4,0.6,0.7,1,0.9s0.8,0.3,1.3,0.3c0.4,0,0.7-0.1,1-0.2s0.6-0.3,0.9-0.4
				c0,0,0.1,0,0.1-0.1s0.1,0,0.1,0c0.1,0,0.1,0,0.2,0.1s0.1,0.1,0.1,0.2c0,0,0.1,0.1,0.1,0.3s0.1,0.3,0.2,0.4
				c0.1,0.1,0.1,0.2,0.1,0.3c0,0.1,0,0.1-0.1,0.2s-0.1,0.1-0.1,0.1c-0.4,0.3-0.9,0.5-1.5,0.7S-214.7,17.4-215.2,17.4z M-217.4,13.1
				c0.6-0.2,1.2-0.4,1.8-0.6s1.2-0.4,1.8-0.6c-0.1-0.3-0.3-0.6-0.6-0.8s-0.6-0.4-1-0.4c-0.4,0-0.8,0.1-1.1,0.4s-0.5,0.5-0.7,0.9
				S-217.4,12.7-217.4,13.1z"/>
			<path id="XMLID_768_" class="st4" d="M-206.5,17.4c-0.9,0-1.6-0.2-2.2-0.5s-1.1-0.8-1.5-1.5c-0.4-0.6-0.5-1.4-0.5-2.2
				c0-0.8,0.2-1.5,0.5-2.2s0.8-1.1,1.4-1.5s1.3-0.6,2.1-0.6c1,0,1.8,0.3,2.4,0.9s1,1.3,1.2,2.3c0,0,0,0,0,0.1c0,0.1,0,0.2-0.1,0.2
				s-0.1,0.1-0.2,0.1c-0.2,0.1-0.4,0.2-0.6,0.2c-0.2,0.1-0.4,0.1-0.7,0.2c-0.6,0.2-1.2,0.5-1.9,0.7s-1.2,0.5-1.8,0.7
				c0,0-0.1,0.1-0.1,0.1c0,0,0,0,0,0.1c0.2,0.4,0.6,0.7,1,0.9s0.8,0.3,1.3,0.3c0.4,0,0.7-0.1,1-0.2s0.6-0.3,0.9-0.4
				c0,0,0.1,0,0.1-0.1s0.1,0,0.1,0c0.1,0,0.1,0,0.2,0.1s0.1,0.1,0.1,0.2c0,0,0.1,0.1,0.1,0.3s0.1,0.3,0.2,0.4
				c0.1,0.1,0.1,0.2,0.1,0.3c0,0.1,0,0.1-0.1,0.2s-0.1,0.1-0.1,0.1c-0.4,0.3-0.9,0.5-1.5,0.7S-206,17.4-206.5,17.4z M-208.7,13.1
				c0.6-0.2,1.2-0.4,1.8-0.6s1.2-0.4,1.8-0.6c-0.1-0.3-0.4-0.6-0.6-0.8s-0.6-0.4-1-0.4c-0.4,0-0.8,0.1-1.1,0.4s-0.5,0.5-0.7,0.9
				S-208.7,12.7-208.7,13.1z"/>
			<path id="XMLID_771_" class="st4" d="M-197.1,17.3c-0.4,0-0.9-0.1-1.3-0.2s-0.8-0.4-1.1-0.7c0,0,0,0-0.1,0s0,0-0.1,0s0,0-0.1,0.1
				s0,0.1,0,0.1c0,0.4,0,0.8,0,1.2s0,0.8,0,1.2c0,0.1,0,0.3,0,0.4s0,0.3,0,0.4c0,0.1,0,0.2-0.1,0.3s-0.1,0.1-0.3,0.1h-1.4
				c-0.2,0-0.4-0.1-0.4-0.4c0-0.5,0-0.9,0-1.4s0-0.9,0-1.4c0-1,0-1.9,0.1-2.9s0-1.9,0-2.9c0-0.3,0-0.6,0-0.9s0-0.6,0-0.9
				c0-0.2,0.1-0.4,0.4-0.4h1.1c0.2,0,0.3,0.1,0.3,0.2s0.1,0.3,0.1,0.4s0,0.2,0.1,0.2c0,0,0.1,0,0.1,0c0.4-0.3,0.9-0.6,1.3-0.8
				s1-0.3,1.5-0.3c0.8,0,1.5,0.2,2.1,0.6s1,0.9,1.3,1.5s0.4,1.4,0.4,2.1c0,0.8-0.2,1.6-0.5,2.2c-0.3,0.6-0.8,1.1-1.4,1.4
				S-196.2,17.3-197.1,17.3z M-197.5,15.5c0.4,0,0.9-0.1,1.2-0.3s0.7-0.5,0.9-0.8s0.3-0.8,0.3-1.2c0-0.7-0.2-1.3-0.7-1.7
				s-1-0.7-1.7-0.7c-0.5,0-0.9,0.1-1.3,0.4s-0.7,0.6-0.8,1.1c0,0.3,0,0.6,0,0.9s0,0.6,0,0.9c0,0,0,0.1,0.1,0.2s0.1,0.2,0.1,0.2
				c0.2,0.4,0.5,0.7,0.8,0.9S-197.9,15.5-197.5,15.5z"/>
		</g>
		<g id="XMLID_127_">
			<path id="XMLID_710_" class="st4" d="M-255.8,17.5c0,0-0.2-0.1-0.5-0.4s-0.7-0.7-1.2-1.1c-0.5-0.5-1-1-1.6-1.6s-1.2-1.1-1.8-1.7
				s-1.1-1.1-1.6-1.6s-0.9-0.9-1.2-1.1s-0.5-0.4-0.5-0.4c0,0,0,0-0.1,0.1s0,0.1,0,0.1c0,0.5,0,1.1,0,1.6s0,1.1,0,1.6
				c0,0.4,0,0.9,0,1.3s0,0.9,0,1.3c0,0.2,0,0.4,0,0.6c0,0.2,0,0.4,0,0.6c0,0.1,0,0.2-0.1,0.3s-0.1,0.1-0.3,0.1h-1.6
				c-0.2,0-0.4-0.1-0.4-0.4c0-0.3,0-0.7,0-1c0-0.3,0-0.7,0-1c0-0.7,0-1.3,0-2c0-0.7,0-1.3,0-2c0-0.7,0-1.4,0-2.1s0-1.4,0-2.1
				c0-0.3,0-0.7,0-1s0-0.7,0-1c0,0,0-0.1,0.1-0.1s0.1,0,0.1,0c1.4,1.3,2.8,2.6,4.1,4s2.7,2.7,4.1,4c0,0,0,0,0.1,0s0,0,0.1,0
				c0,0,0.1,0,0.1-0.1s0-0.1,0-0.1c0-0.5,0-1.1,0-1.6s0-1.1,0-1.6c0-0.5,0-0.9,0-1.4c0-0.5,0-0.9,0-1.4c0-0.2,0-0.4,0-0.6
				s0-0.4,0-0.6c0-0.1,0-0.2,0.1-0.3s0.1-0.1,0.3-0.1h1.5c0.2,0,0.4,0.1,0.4,0.4c0,0.3,0,0.6,0,0.9s0,0.6,0,0.9c0,0.6,0,1.3,0,1.9
				s0,1.3,0,1.9C-255.9,13.1-255.9,15.3-255.8,17.5L-255.8,17.5z"/>
			<path id="XMLID_712_" class="st4" d="M-254.2,13.2c0-0.8,0.2-1.5,0.5-2.2s0.8-1.1,1.5-1.5s1.4-0.6,2.2-0.6c0.8,0,1.5,0.2,2.1,0.5
				s1.1,0.9,1.4,1.5s0.5,1.3,0.5,2.1c0,0.8-0.2,1.5-0.5,2.2s-0.8,1.1-1.4,1.5s-1.3,0.5-2.2,0.5c-0.8,0-1.5-0.2-2.2-0.5
				s-1.1-0.8-1.4-1.4S-254.2,14-254.2,13.2z M-250.1,10.7c-0.4,0-0.8,0.1-1.1,0.4s-0.5,0.5-0.7,0.9s-0.2,0.8-0.2,1.2
				c0,0.4,0.1,0.7,0.2,1.1s0.4,0.6,0.7,0.9s0.7,0.3,1.1,0.3c0.4,0,0.8-0.1,1.1-0.3s0.5-0.5,0.7-0.9s0.2-0.7,0.2-1.1
				c0-0.4-0.1-0.8-0.2-1.1s-0.4-0.7-0.7-0.9S-249.7,10.7-250.1,10.7z"/>
			<path id="XMLID_715_" class="st4" d="M-243.7,9c0-0.5,0-1,0-1.5s0-1,0-1.5c0-0.2,0.1-0.4,0.4-0.4h1.4c0.2,0,0.4,0.1,0.4,0.4
				c0,0.5,0,1,0,1.5s0,1,0,1.5c0,0.1,0,0.1,0.1,0.1h1.4c0.2,0,0.4,0.1,0.4,0.4c0,0.2,0,0.4,0,0.5s0,0.4,0,0.6c0,0.2-0.1,0.4-0.4,0.4
				h-1.4c-0.1,0-0.1,0-0.1,0.1c0,0.9,0,1.9,0,2.8s0,1.9,0,2.8c0,0.2-0.1,0.4-0.4,0.4h-1.4c-0.2,0-0.4-0.1-0.4-0.4c0-0.9,0-1.9,0-2.8
				s0-1.9,0-2.8c0-0.1-0.1-0.1-0.2-0.1s-0.3,0-0.4,0s-0.3,0-0.4,0s-0.2-0.2-0.2-0.3V9.5c0-0.2,0.1-0.4,0.4-0.4h0.7
				C-243.8,9.2-243.7,9.1-243.7,9z"/>
			<path id="XMLID_717_" class="st4" d="M-234.6,17.4c-0.9,0-1.6-0.2-2.2-0.5s-1.1-0.8-1.5-1.5c-0.4-0.6-0.5-1.4-0.5-2.2
				c0-0.8,0.2-1.5,0.5-2.2s0.8-1.1,1.4-1.5s1.3-0.6,2.1-0.6c1,0,1.8,0.3,2.4,0.9s1,1.3,1.2,2.3c0,0,0,0,0,0.1c0,0.1,0,0.2-0.1,0.2
				s-0.1,0.1-0.2,0.1c-0.2,0.1-0.4,0.2-0.6,0.2c-0.2,0.1-0.4,0.1-0.7,0.2c-0.6,0.2-1.2,0.5-1.9,0.7s-1.2,0.5-1.8,0.7
				c0,0-0.1,0.1-0.1,0.1c0,0,0,0,0,0.1c0.2,0.4,0.6,0.7,1,0.9s0.8,0.3,1.3,0.3c0.4,0,0.7-0.1,1-0.2s0.6-0.3,0.9-0.4
				c0,0,0.1,0,0.1-0.1s0.1,0,0.1,0c0.1,0,0.1,0,0.2,0.1s0.1,0.1,0.1,0.2c0,0,0.1,0.1,0.1,0.3s0.1,0.3,0.2,0.4
				c0.1,0.1,0.1,0.2,0.1,0.3c0,0.1,0,0.1-0.1,0.2s-0.1,0.1-0.1,0.1c-0.4,0.3-0.9,0.5-1.5,0.7S-234.1,17.4-234.6,17.4z M-236.8,13.1
				c0.6-0.2,1.2-0.4,1.8-0.6s1.2-0.4,1.8-0.6c-0.1-0.3-0.3-0.6-0.6-0.8s-0.6-0.4-1-0.4c-0.4,0-0.8,0.1-1.1,0.4s-0.5,0.5-0.7,0.9
				S-236.8,12.7-236.8,13.1z"/>
			<path id="XMLID_720_" class="st4" d="M-227.7,4.8c0.2,0,0.3,0.1,0.4,0.4c0,0.3,0,0.5,0,0.8s0,0.5,0,0.8c0,0.6,0,1.1,0,1.7
				s0,1.1,0,1.7c0,0.1,0,0.1,0.1,0.1h0c2-0.5,3.3-1.8,4.1-3.7c0.1-0.2,0.2-0.4,0.2-0.7s0.1-0.5,0.2-0.7c0-0.1,0.1-0.2,0.1-0.2
				s0.1-0.1,0.2-0.1h1.5c0.1,0,0.2,0,0.3,0.1s0.1,0.1,0.1,0.2c0,0.1,0,0.1,0,0.1c-0.2,1-0.6,1.9-1.1,2.8s-1.1,1.6-2,2.3
				c-0.2,0.1-0.3,0.2-0.5,0.4s-0.3,0.2-0.5,0.3c0,0-0.1,0-0.1,0.1c0,0,0.1,0.2,0.3,0.4s0.4,0.6,0.7,0.9c0.3,0.4,0.6,0.8,0.9,1.2
				s0.6,0.8,0.9,1.3s0.6,0.8,0.8,1c0.2,0.3,0.4,0.5,0.4,0.6c0,0,0.1,0.1,0.1,0.2s0.1,0.1,0.1,0.2c0,0.1-0.1,0.2-0.2,0.2
				s-0.2,0-0.3,0h-1.7c-0.1,0-0.2,0-0.3-0.1c-0.2-0.2-0.3-0.4-0.5-0.6s-0.3-0.4-0.5-0.7c-0.3-0.4-0.6-0.8-0.9-1.2s-0.6-0.8-0.9-1.2
				c-0.2-0.2-0.3-0.4-0.5-0.7s-0.3-0.4-0.5-0.6c0,0-0.1,0-0.1,0c-0.1,0-0.1,0-0.2,0s-0.2,0-0.2,0s-0.1,0-0.1,0.1c0,0.5,0,1.1,0,1.6
				s0,1.1,0,1.6c0,0.3,0,0.5,0,0.8c0,0.3,0,0.5,0,0.8c0,0.2-0.1,0.4-0.4,0.4h-1.5c-0.2,0-0.4-0.1-0.4-0.4c0-0.3,0-0.6,0-1
				c0-0.3,0-0.6,0-1c0-1.3,0-2.7,0-4c0-1.3,0-2.6,0-3.8c0-0.3,0-0.6,0-0.9s0-0.6,0-0.9c0-0.2,0.1-0.4,0.4-0.4H-227.7z"/>
			<path id="XMLID_722_" class="st4" d="M-215.2,17.4c-0.9,0-1.6-0.2-2.2-0.5s-1.1-0.8-1.5-1.5c-0.4-0.6-0.5-1.4-0.5-2.2
				c0-0.8,0.2-1.5,0.5-2.2s0.8-1.1,1.4-1.5s1.3-0.6,2.1-0.6c1,0,1.8,0.3,2.4,0.9s1,1.3,1.2,2.3c0,0,0,0,0,0.1c0,0.1,0,0.2-0.1,0.2
				s-0.1,0.1-0.2,0.1c-0.2,0.1-0.4,0.2-0.6,0.2c-0.2,0.1-0.4,0.1-0.7,0.2c-0.6,0.2-1.2,0.5-1.9,0.7s-1.2,0.5-1.8,0.7
				c0,0-0.1,0.1-0.1,0.1c0,0,0,0,0,0.1c0.2,0.4,0.6,0.7,1,0.9s0.8,0.3,1.3,0.3c0.4,0,0.7-0.1,1-0.2s0.6-0.3,0.9-0.4
				c0,0,0.1,0,0.1-0.1s0.1,0,0.1,0c0.1,0,0.1,0,0.2,0.1s0.1,0.1,0.1,0.2c0,0,0.1,0.1,0.1,0.3s0.1,0.3,0.2,0.4
				c0.1,0.1,0.1,0.2,0.1,0.3c0,0.1,0,0.1-0.1,0.2s-0.1,0.1-0.1,0.1c-0.4,0.3-0.9,0.5-1.5,0.7S-214.7,17.4-215.2,17.4z M-217.4,13.1
				c0.6-0.2,1.2-0.4,1.8-0.6s1.2-0.4,1.8-0.6c-0.1-0.3-0.3-0.6-0.6-0.8s-0.6-0.4-1-0.4c-0.4,0-0.8,0.1-1.1,0.4s-0.5,0.5-0.7,0.9
				S-217.4,12.7-217.4,13.1z"/>
			<path id="XMLID_725_" class="st4" d="M-206.5,17.4c-0.9,0-1.6-0.2-2.2-0.5s-1.1-0.8-1.5-1.5c-0.4-0.6-0.5-1.4-0.5-2.2
				c0-0.8,0.2-1.5,0.5-2.2s0.8-1.1,1.4-1.5s1.3-0.6,2.1-0.6c1,0,1.8,0.3,2.4,0.9s1,1.3,1.2,2.3c0,0,0,0,0,0.1c0,0.1,0,0.2-0.1,0.2
				s-0.1,0.1-0.2,0.1c-0.2,0.1-0.4,0.2-0.6,0.2c-0.2,0.1-0.4,0.1-0.7,0.2c-0.6,0.2-1.2,0.5-1.9,0.7s-1.2,0.5-1.8,0.7
				c0,0-0.1,0.1-0.1,0.1c0,0,0,0,0,0.1c0.2,0.4,0.6,0.7,1,0.9s0.8,0.3,1.3,0.3c0.4,0,0.7-0.1,1-0.2s0.6-0.3,0.9-0.4
				c0,0,0.1,0,0.1-0.1s0.1,0,0.1,0c0.1,0,0.1,0,0.2,0.1s0.1,0.1,0.1,0.2c0,0,0.1,0.1,0.1,0.3s0.1,0.3,0.2,0.4
				c0.1,0.1,0.1,0.2,0.1,0.3c0,0.1,0,0.1-0.1,0.2s-0.1,0.1-0.1,0.1c-0.4,0.3-0.9,0.5-1.5,0.7S-206,17.4-206.5,17.4z M-208.7,13.1
				c0.6-0.2,1.2-0.4,1.8-0.6s1.2-0.4,1.8-0.6c-0.1-0.3-0.4-0.6-0.6-0.8s-0.6-0.4-1-0.4c-0.4,0-0.8,0.1-1.1,0.4s-0.5,0.5-0.7,0.9
				S-208.7,12.7-208.7,13.1z"/>
			<path id="XMLID_728_" class="st4" d="M-197.1,17.3c-0.4,0-0.9-0.1-1.3-0.2s-0.8-0.4-1.1-0.7c0,0,0,0-0.1,0s0,0-0.1,0s0,0-0.1,0.1
				s0,0.1,0,0.1c0,0.4,0,0.8,0,1.2s0,0.8,0,1.2c0,0.1,0,0.3,0,0.4s0,0.3,0,0.4c0,0.1,0,0.2-0.1,0.3s-0.1,0.1-0.3,0.1h-1.4
				c-0.2,0-0.4-0.1-0.4-0.4c0-0.5,0-0.9,0-1.4s0-0.9,0-1.4c0-1,0-1.9,0.1-2.9s0-1.9,0-2.9c0-0.3,0-0.6,0-0.9s0-0.6,0-0.9
				c0-0.2,0.1-0.4,0.4-0.4h1.1c0.2,0,0.3,0.1,0.3,0.2s0.1,0.3,0.1,0.4s0,0.2,0.1,0.2c0,0,0.1,0,0.1,0c0.4-0.3,0.9-0.6,1.3-0.8
				s1-0.3,1.5-0.3c0.8,0,1.5,0.2,2.1,0.6s1,0.9,1.3,1.5s0.4,1.4,0.4,2.1c0,0.8-0.2,1.6-0.5,2.2c-0.3,0.6-0.8,1.1-1.4,1.4
				S-196.2,17.3-197.1,17.3z M-197.5,15.5c0.4,0,0.9-0.1,1.2-0.3s0.7-0.5,0.9-0.8s0.3-0.8,0.3-1.2c0-0.7-0.2-1.3-0.7-1.7
				s-1-0.7-1.7-0.7c-0.5,0-0.9,0.1-1.3,0.4s-0.7,0.6-0.8,1.1c0,0.3,0,0.6,0,0.9s0,0.6,0,0.9c0,0,0,0.1,0.1,0.2s0.1,0.2,0.1,0.2
				c0.2,0.4,0.5,0.7,0.8,0.9S-197.9,15.5-197.5,15.5z"/>
		</g>
	</g>
</g>
<g id="Layer_3" class="st0">
	<g id="XMLID_197_" class="st1">
		<path id="XMLID_201_" class="st2" d="M-132.8,23.4h-13.1c-2.8,0-5-2.2-5-5V5c0-2.8,2.2-5,5-5h13.1c2.8,0,5,2.2,5,5v13.4
			C-127.8,21.2-130.1,23.4-132.8,23.4z"/>
		<path id="XMLID_200_" class="st3" d="M-135.7,19.1h-7.3c-2,0-3.7-1.6-3.7-3.7V8c0-2,1.6-3.7,3.7-3.7h7.3c2,0,3.7,1.6,3.7,3.7v7.5
			C-132.1,17.5-133.7,19.1-135.7,19.1z"/>
		<path id="XMLID_199_" class="st2" d="M-140.4,16.2h-3.5c-0.6,0-1.1-0.5-1.1-1.1v0c0-0.6,0.5-1.1,1.1-1.1h3.5
			c0.6,0,1.1,0.5,1.1,1.1v0C-139.4,15.7-139.8,16.2-140.4,16.2z"/>
		<path id="XMLID_198_" class="st2" d="M-136.5,13.3h-7.4c-0.6,0-1.1-0.5-1.1-1.1v0c0-0.6,0.5-1.1,1.1-1.1h7.4
			c0.6,0,1.1,0.5,1.1,1.1v0C-135.5,12.8-135.9,13.3-136.5,13.3z"/>
	</g>
</g>
<g id="Layer_4" class="st0">
	<g id="XMLID_398_" class="st1">
		<path id="XMLID_399_" class="st4" d="M-73.8,16.9c0,0-0.2-0.1-0.5-0.4s-0.7-0.7-1.2-1.1s-1-1-1.6-1.6s-1.2-1.1-1.8-1.7
			s-1.1-1.1-1.6-1.6s-0.9-0.9-1.2-1.1S-82.1,9-82.1,9c0,0,0,0-0.1,0.1s0,0.1,0,0.1c0,0.5,0,1.1,0,1.6s0,1.1,0,1.6c0,0.4,0,0.9,0,1.3
			s0,0.9,0,1.3c0,0.2,0,0.4,0,0.6s0,0.4,0,0.6c0,0.1,0,0.2-0.1,0.3s-0.1,0.1-0.3,0.1h-1.6c-0.2,0-0.4-0.1-0.4-0.4c0-0.3,0-0.7,0-1
			s0-0.7,0-1c0-0.7,0-1.3,0-2c0-0.7,0-1.3,0-2c0-0.7,0-1.4,0-2.1s0-1.4,0-2.1c0-0.3,0-0.7,0-1s0-0.7,0-1c0,0,0-0.1,0.1-0.1
			s0.1,0,0.1,0c1.4,1.3,2.8,2.6,4.1,4s2.7,2.7,4.1,4c0,0,0,0,0.1,0s0,0,0.1,0c0,0,0.1,0,0.1-0.1s0-0.1,0-0.1c0-0.5,0-1.1,0-1.6
			s0-1.1,0-1.6c0-0.5,0-0.9,0-1.4s0-0.9,0-1.4c0-0.2,0-0.4,0-0.6s0-0.4,0-0.6c0-0.1,0-0.2,0.1-0.3s0.1-0.1,0.3-0.1h1.5
			c0.2,0,0.4,0.1,0.4,0.4c0,0.3,0,0.6,0,0.9s0,0.6,0,0.9c0,0.6,0,1.3,0,1.9s0,1.3,0,1.9C-73.8,12.5-73.8,14.7-73.8,16.9L-73.8,16.9z
			"/>
		<path id="XMLID_401_" class="st4" d="M-72.2,12.6c0-0.8,0.2-1.5,0.5-2.2s0.8-1.1,1.5-1.5s1.4-0.6,2.2-0.6c0.8,0,1.5,0.2,2.1,0.5
			s1.1,0.9,1.4,1.5s0.5,1.3,0.5,2.1c0,0.8-0.2,1.5-0.5,2.2s-0.8,1.1-1.4,1.5c-0.6,0.4-1.3,0.5-2.2,0.5c-0.8,0-1.5-0.2-2.2-0.5
			c-0.6-0.3-1.1-0.8-1.4-1.4S-72.2,13.5-72.2,12.6z M-68,10.2c-0.4,0-0.8,0.1-1.1,0.4s-0.5,0.5-0.7,0.9s-0.2,0.8-0.2,1.2
			c0,0.4,0.1,0.7,0.2,1.1s0.4,0.6,0.7,0.9s0.7,0.3,1.1,0.3c0.4,0,0.8-0.1,1.1-0.3s0.5-0.5,0.7-0.9s0.2-0.7,0.2-1.1
			c0-0.4-0.1-0.8-0.2-1.1s-0.4-0.7-0.7-0.9S-67.6,10.2-68,10.2z"/>
		<path id="XMLID_404_" class="st4" d="M-61.7,8.5c0-0.5,0-1,0-1.5s0-1,0-1.5c0-0.2,0.1-0.4,0.4-0.4h1.4c0.2,0,0.4,0.1,0.4,0.4
			c0,0.5,0,1,0,1.5s0,1,0,1.5c0,0.1,0,0.1,0.1,0.1h1.4c0.2,0,0.4,0.1,0.4,0.4c0,0.2,0,0.4,0,0.5s0,0.4,0,0.6c0,0.2-0.1,0.4-0.4,0.4
			h-1.4c-0.1,0-0.1,0-0.1,0.1c0,0.9,0,1.9,0,2.8s0,1.9,0,2.8c0,0.2-0.1,0.4-0.4,0.4h-1.4c-0.2,0-0.4-0.1-0.4-0.4c0-0.9,0-1.9,0-2.8
			s0-1.9,0-2.8c0-0.1-0.1-0.1-0.2-0.1s-0.3,0-0.4,0s-0.3,0-0.4,0s-0.2-0.2-0.2-0.3V8.9c0-0.2,0.1-0.4,0.4-0.4h0.7
			C-61.7,8.6-61.7,8.6-61.7,8.5z"/>
		<path id="XMLID_406_" class="st4" d="M-52.6,16.8c-0.9,0-1.6-0.2-2.2-0.5c-0.6-0.3-1.1-0.8-1.5-1.5s-0.5-1.4-0.5-2.2
			c0-0.8,0.2-1.5,0.5-2.2s0.8-1.1,1.4-1.5s1.3-0.6,2.1-0.6c1,0,1.8,0.3,2.4,0.9s1,1.3,1.2,2.3c0,0,0,0,0,0.1c0,0.1,0,0.2-0.1,0.2
			s-0.1,0.1-0.2,0.1c-0.2,0.1-0.4,0.2-0.6,0.2c-0.2,0.1-0.4,0.1-0.7,0.2c-0.6,0.2-1.2,0.5-1.9,0.7s-1.2,0.5-1.8,0.7
			c0,0-0.1,0.1-0.1,0.1c0,0,0,0,0,0.1c0.2,0.4,0.6,0.7,1,0.9s0.8,0.3,1.3,0.3c0.4,0,0.7-0.1,1-0.2s0.6-0.3,0.9-0.4
			c0,0,0.1,0,0.1-0.1s0.1,0,0.1,0c0.1,0,0.1,0,0.2,0.1s0.1,0.1,0.1,0.2c0,0,0.1,0.1,0.1,0.3s0.1,0.3,0.2,0.4s0.1,0.2,0.1,0.3
			c0,0.1,0,0.1-0.1,0.2s-0.1,0.1-0.1,0.1c-0.4,0.3-0.9,0.5-1.5,0.7S-52,16.8-52.6,16.8z M-54.8,12.5c0.6-0.2,1.2-0.4,1.8-0.6
			s1.2-0.4,1.8-0.6c-0.1-0.3-0.3-0.6-0.6-0.8s-0.6-0.4-1-0.4c-0.4,0-0.8,0.1-1.1,0.4s-0.5,0.5-0.7,0.9S-54.8,12.1-54.8,12.5z"/>
		<path id="XMLID_409_" class="st4" d="M-45.6,4.3c0.2,0,0.3,0.1,0.4,0.4c0,0.3,0,0.5,0,0.8s0,0.5,0,0.8c0,0.6,0,1.1,0,1.7
			s0,1.1,0,1.7c0,0.1,0,0.1,0.1,0.1h0c2-0.5,3.3-1.8,4.1-3.7c0.1-0.2,0.2-0.4,0.2-0.7s0.1-0.5,0.2-0.7c0-0.1,0.1-0.2,0.1-0.2
			s0.1-0.1,0.2-0.1h1.5c0.1,0,0.2,0,0.3,0.1s0.1,0.1,0.1,0.2c0,0.1,0,0.1,0,0.1c-0.2,1-0.6,1.9-1.1,2.8s-1.1,1.6-2,2.3
			c-0.2,0.1-0.3,0.2-0.5,0.4s-0.3,0.2-0.5,0.3c0,0-0.1,0-0.1,0.1c0,0,0.1,0.2,0.3,0.4s0.4,0.6,0.7,0.9c0.3,0.4,0.6,0.8,0.9,1.2
			s0.6,0.8,0.9,1.3s0.6,0.8,0.8,1s0.4,0.5,0.4,0.6c0,0,0.1,0.1,0.1,0.2s0.1,0.1,0.1,0.2c0,0.1-0.1,0.2-0.2,0.2s-0.2,0-0.3,0h-1.7
			c-0.1,0-0.2,0-0.3-0.1c-0.2-0.2-0.3-0.4-0.5-0.6s-0.3-0.4-0.5-0.7c-0.3-0.4-0.6-0.8-0.9-1.2s-0.6-0.8-0.9-1.2
			c-0.2-0.2-0.3-0.4-0.5-0.7s-0.3-0.4-0.5-0.6c0,0-0.1,0-0.1,0c-0.1,0-0.1,0-0.2,0s-0.2,0-0.2,0s-0.1,0-0.1,0.1c0,0.5,0,1.1,0,1.6
			s0,1.1,0,1.6c0,0.3,0,0.5,0,0.8s0,0.5,0,0.8c0,0.2-0.1,0.4-0.4,0.4h-1.5c-0.2,0-0.4-0.1-0.4-0.4c0-0.3,0-0.6,0-1s0-0.6,0-1
			c0-1.3,0-2.7,0-4c0-1.3,0-2.6,0-3.8c0-0.3,0-0.6,0-0.9s0-0.6,0-0.9c0-0.2,0.1-0.4,0.4-0.4H-45.6z"/>
		<path id="XMLID_411_" class="st4" d="M-33.1,16.8c-0.9,0-1.6-0.2-2.2-0.5c-0.6-0.3-1.1-0.8-1.5-1.5s-0.5-1.4-0.5-2.2
			c0-0.8,0.2-1.5,0.5-2.2s0.8-1.1,1.4-1.5s1.3-0.6,2.1-0.6c1,0,1.8,0.3,2.4,0.9s1,1.3,1.2,2.3c0,0,0,0,0,0.1c0,0.1,0,0.2-0.1,0.2
			s-0.1,0.1-0.2,0.1c-0.2,0.1-0.4,0.2-0.6,0.2c-0.2,0.1-0.4,0.1-0.7,0.2c-0.6,0.2-1.2,0.5-1.9,0.7s-1.2,0.5-1.8,0.7
			c0,0-0.1,0.1-0.1,0.1c0,0,0,0,0,0.1c0.2,0.4,0.6,0.7,1,0.9s0.8,0.3,1.3,0.3c0.4,0,0.7-0.1,1-0.2s0.6-0.3,0.9-0.4
			c0,0,0.1,0,0.1-0.1s0.1,0,0.1,0c0.1,0,0.1,0,0.2,0.1s0.1,0.1,0.1,0.2c0,0,0.1,0.1,0.1,0.3s0.1,0.3,0.2,0.4s0.1,0.2,0.1,0.3
			c0,0.1,0,0.1-0.1,0.2s-0.1,0.1-0.1,0.1c-0.4,0.3-0.9,0.5-1.5,0.7S-32.6,16.8-33.1,16.8z M-35.4,12.5c0.6-0.2,1.2-0.4,1.8-0.6
			s1.2-0.4,1.8-0.6c-0.1-0.3-0.3-0.6-0.6-0.8s-0.6-0.4-1-0.4c-0.4,0-0.8,0.1-1.1,0.4s-0.5,0.5-0.7,0.9S-35.4,12.1-35.4,12.5z"/>
		<path id="XMLID_414_" class="st4" d="M-24.5,16.8c-0.9,0-1.6-0.2-2.2-0.5c-0.6-0.3-1.1-0.8-1.5-1.5s-0.5-1.4-0.5-2.2
			c0-0.8,0.2-1.5,0.5-2.2s0.8-1.1,1.4-1.5s1.3-0.6,2.1-0.6c1,0,1.8,0.3,2.4,0.9s1,1.3,1.2,2.3c0,0,0,0,0,0.1c0,0.1,0,0.2-0.1,0.2
			s-0.1,0.1-0.2,0.1c-0.2,0.1-0.4,0.2-0.6,0.2c-0.2,0.1-0.4,0.1-0.7,0.2c-0.6,0.2-1.2,0.5-1.9,0.7s-1.2,0.5-1.8,0.7
			c0,0-0.1,0.1-0.1,0.1c0,0,0,0,0,0.1c0.2,0.4,0.6,0.7,1,0.9s0.8,0.3,1.3,0.3c0.4,0,0.7-0.1,1-0.2s0.6-0.3,0.9-0.4
			c0,0,0.1,0,0.1-0.1s0.1,0,0.1,0c0.1,0,0.1,0,0.2,0.1s0.1,0.1,0.1,0.2c0,0,0.1,0.1,0.1,0.3s0.1,0.3,0.2,0.4s0.1,0.2,0.1,0.3
			c0,0.1,0,0.1-0.1,0.2s-0.1,0.1-0.1,0.1c-0.4,0.3-0.9,0.5-1.5,0.7S-24,16.8-24.5,16.8z M-26.7,12.5c0.6-0.2,1.2-0.4,1.8-0.6
			s1.2-0.4,1.8-0.6c-0.1-0.3-0.4-0.6-0.6-0.8s-0.6-0.4-1-0.4c-0.4,0-0.8,0.1-1.1,0.4s-0.5,0.5-0.7,0.9S-26.7,12.1-26.7,12.5z"/>
		<path id="XMLID_417_" class="st4" d="M-15,16.7c-0.4,0-0.9-0.1-1.3-0.2s-0.8-0.4-1.1-0.7c0,0,0,0-0.1,0s0,0-0.1,0s0,0-0.1,0.1
			s0,0.1,0,0.1c0,0.4,0,0.8,0,1.2s0,0.8,0,1.2c0,0.1,0,0.3,0,0.4s0,0.3,0,0.4c0,0.1,0,0.2-0.1,0.3s-0.1,0.1-0.3,0.1h-1.4
			c-0.2,0-0.4-0.1-0.4-0.4c0-0.5,0-0.9,0-1.4s0-0.9,0-1.4c0-1,0-1.9,0.1-2.9s0-1.9,0-2.9c0-0.3,0-0.6,0-0.9s0-0.6,0-0.9
			c0-0.2,0.1-0.4,0.4-0.4h1.1c0.2,0,0.3,0.1,0.3,0.2s0.1,0.3,0.1,0.4s0,0.2,0.1,0.2c0,0,0.1,0,0.1,0c0.4-0.3,0.9-0.6,1.3-0.8
			s1-0.3,1.5-0.3c0.8,0,1.5,0.2,2.1,0.6s1,0.9,1.3,1.5s0.4,1.4,0.4,2.1c0,0.8-0.2,1.6-0.5,2.2s-0.8,1.1-1.4,1.4
			C-13.5,16.6-14.2,16.7-15,16.7z M-15.4,14.9c0.4,0,0.9-0.1,1.2-0.3s0.7-0.5,0.9-0.8S-13,13-13,12.6c0-0.7-0.2-1.3-0.7-1.7
			s-1-0.7-1.7-0.7c-0.5,0-0.9,0.1-1.3,0.4s-0.7,0.6-0.8,1.1c0,0.3,0,0.6,0,0.9s0,0.6,0,0.9c0,0,0,0.1,0.1,0.2s0.1,0.2,0.1,0.2
			c0.2,0.4,0.5,0.7,0.8,0.9S-15.8,14.9-15.4,14.9z"/>
	</g>
</g>
<g id="Layer_5">
	<g id="XMLID_537_">
		<path id="XMLID_538_" d="M12.8,16.9c0,0-0.2-0.1-0.5-0.4s-0.7-0.7-1.2-1.1s-1-1-1.6-1.6s-1.2-1.1-1.7-1.7S6.6,11,6.1,10.5
			S5.3,9.7,5,9.4S4.5,9,4.5,9c0,0,0,0-0.1,0.1s0,0.1,0,0.1c0,0.5,0,1.1,0,1.6s0,1.1,0,1.6c0,0.4,0,0.9,0,1.3s0,0.9,0,1.3
			c0,0.2,0,0.4,0,0.6s0,0.4,0,0.6c0,0.1,0,0.2-0.1,0.3s-0.1,0.1-0.3,0.1H2.5c-0.2,0-0.4-0.1-0.4-0.4c0-0.3,0-0.7,0-1s0-0.7,0-1
			c0-0.7,0-1.3,0-2s0-1.3,0-2c0-0.7,0-1.4,0-2.1s0-1.4,0-2.1c0-0.3,0-0.7,0-1s0-0.7,0-1c0,0,0-0.1,0.1-0.1s0.1,0,0.1,0
			c1.4,1.3,2.8,2.6,4.1,4s2.7,2.7,4.1,4c0,0,0,0,0.1,0s0,0,0.1,0c0,0,0.1,0,0.1-0.1s0-0.1,0-0.1c0-0.5,0-1.1,0-1.6s0-1.1,0-1.6
			c0-0.5,0-0.9,0-1.4s0-0.9,0-1.4c0-0.2,0-0.4,0-0.6s0-0.4,0-0.6c0-0.1,0-0.2,0.1-0.3s0.1-0.1,0.3-0.1h1.5c0.2,0,0.4,0.1,0.4,0.4
			c0,0.3,0,0.6,0,0.9s0,0.6,0,0.9c0,0.6,0,1.3,0,1.9s0,1.3,0,1.9C12.8,12.5,12.8,14.7,12.8,16.9L12.8,16.9z"/>
		<path id="XMLID_540_" d="M14.5,12.6c0-0.8,0.2-1.5,0.5-2.2s0.8-1.1,1.5-1.5c0.6-0.4,1.4-0.6,2.2-0.6c0.8,0,1.5,0.2,2.1,0.5
			s1.1,0.9,1.4,1.5s0.5,1.3,0.5,2.1c0,0.8-0.2,1.5-0.5,2.2s-0.8,1.1-1.4,1.5c-0.6,0.4-1.3,0.5-2.2,0.5c-0.8,0-1.5-0.2-2.2-0.5
			c-0.6-0.3-1.1-0.8-1.4-1.4C14.6,14.2,14.5,13.5,14.5,12.6z M18.6,10.2c-0.4,0-0.8,0.1-1.1,0.4s-0.5,0.5-0.7,0.9s-0.2,0.8-0.2,1.2
			c0,0.4,0.1,0.7,0.2,1.1s0.4,0.6,0.7,0.9c0.3,0.2,0.7,0.3,1.1,0.3c0.4,0,0.8-0.1,1.1-0.3s0.5-0.5,0.7-0.9s0.2-0.7,0.2-1.1
			c0-0.4-0.1-0.8-0.2-1.1s-0.4-0.7-0.7-0.9S19,10.2,18.6,10.2z"/>
		<path id="XMLID_543_" d="M24.9,8.5c0-0.5,0-1,0-1.5s0-1,0-1.5c0-0.2,0.1-0.4,0.4-0.4h1.4c0.2,0,0.4,0.1,0.4,0.4c0,0.5,0,1,0,1.5
			s0,1,0,1.5c0,0.1,0,0.1,0.1,0.1h1.4c0.2,0,0.4,0.1,0.4,0.4c0,0.2,0,0.4,0,0.5s0,0.4,0,0.6c0,0.2-0.1,0.4-0.4,0.4h-1.4
			c-0.1,0-0.1,0-0.1,0.1c0,0.9,0,1.9,0,2.8s0,1.9,0,2.8c0,0.2-0.1,0.4-0.4,0.4h-1.4c-0.2,0-0.4-0.1-0.4-0.4c0-0.9,0-1.9,0-2.8
			s0-1.9,0-2.8c0-0.1-0.1-0.1-0.2-0.1s-0.3,0-0.4,0s-0.3,0-0.4,0s-0.2-0.2-0.2-0.3V8.9c0-0.2,0.1-0.4,0.4-0.4h0.7
			C24.9,8.6,24.9,8.6,24.9,8.5z"/>
		<path id="XMLID_545_" d="M34.1,16.8c-0.9,0-1.6-0.2-2.2-0.5c-0.6-0.3-1.1-0.8-1.5-1.5c-0.4-0.6-0.5-1.4-0.5-2.2
			c0-0.8,0.2-1.5,0.5-2.2s0.8-1.1,1.4-1.5c0.6-0.4,1.3-0.6,2.1-0.6c1,0,1.8,0.3,2.4,0.9s1,1.3,1.2,2.3c0,0,0,0,0,0.1
			c0,0.1,0,0.2-0.1,0.2s-0.1,0.1-0.2,0.1c-0.2,0.1-0.4,0.2-0.6,0.2s-0.4,0.1-0.7,0.2c-0.6,0.2-1.2,0.5-1.9,0.7s-1.2,0.5-1.8,0.7
			c0,0-0.1,0.1-0.1,0.1c0,0,0,0,0,0.1c0.2,0.4,0.6,0.7,1,0.9s0.8,0.3,1.3,0.3c0.4,0,0.7-0.1,1-0.2s0.6-0.3,0.9-0.4
			c0,0,0.1,0,0.1-0.1s0.1,0,0.1,0c0.1,0,0.1,0,0.2,0.1s0.1,0.1,0.1,0.2c0,0,0.1,0.1,0.1,0.3s0.1,0.3,0.2,0.4s0.1,0.2,0.1,0.3
			c0,0.1,0,0.1-0.1,0.2s-0.1,0.1-0.1,0.1c-0.4,0.3-0.9,0.5-1.5,0.7S34.6,16.8,34.1,16.8z M31.9,12.5c0.6-0.2,1.2-0.4,1.8-0.6
			s1.2-0.4,1.8-0.6c-0.1-0.3-0.3-0.6-0.6-0.8s-0.6-0.4-1-0.4c-0.4,0-0.8,0.1-1.1,0.4s-0.5,0.5-0.7,0.9
			C31.9,11.7,31.9,12.1,31.9,12.5z"/>
		<path id="XMLID_548_" d="M41,4.3c0.2,0,0.3,0.1,0.4,0.4c0,0.3,0,0.5,0,0.8s0,0.5,0,0.8c0,0.6,0,1.1,0,1.7s0,1.1,0,1.7
			c0,0.1,0,0.1,0.1,0.1h0c2-0.5,3.3-1.8,4.1-3.7c0.1-0.2,0.2-0.4,0.2-0.7s0.1-0.5,0.2-0.7c0-0.1,0.1-0.2,0.1-0.2s0.1-0.1,0.2-0.1
			h1.5c0.1,0,0.2,0,0.3,0.1s0.1,0.1,0.1,0.2c0,0.1,0,0.1,0,0.1c-0.2,1-0.6,1.9-1.1,2.8s-1.1,1.6-2,2.3c-0.2,0.1-0.3,0.2-0.5,0.4
			s-0.3,0.2-0.5,0.3c0,0-0.1,0-0.1,0.1c0,0,0.1,0.2,0.3,0.4s0.4,0.6,0.7,0.9s0.6,0.8,0.9,1.2s0.6,0.8,0.9,1.3c0.3,0.4,0.6,0.8,0.8,1
			S48,15.9,48,16c0,0,0.1,0.1,0.1,0.2s0.1,0.1,0.1,0.2c0,0.1-0.1,0.2-0.2,0.2s-0.2,0-0.3,0H46c-0.1,0-0.2,0-0.3-0.1
			c-0.2-0.2-0.3-0.4-0.5-0.6s-0.3-0.4-0.5-0.7c-0.3-0.4-0.6-0.8-0.9-1.2s-0.6-0.8-0.9-1.2c-0.2-0.2-0.3-0.4-0.5-0.7
			s-0.3-0.4-0.5-0.6c0,0-0.1,0-0.1,0c-0.1,0-0.1,0-0.2,0s-0.2,0-0.2,0s-0.1,0-0.1,0.1c0,0.5,0,1.1,0,1.6s0,1.1,0,1.6
			c0,0.3,0,0.5,0,0.8s0,0.5,0,0.8c0,0.2-0.1,0.4-0.4,0.4h-1.5c-0.2,0-0.4-0.1-0.4-0.4c0-0.3,0-0.6,0-1s0-0.6,0-1c0-1.3,0-2.7,0-4
			c0-1.3,0-2.6,0-3.8c0-0.3,0-0.6,0-0.9s0-0.6,0-0.9c0-0.2,0.1-0.4,0.4-0.4H41z"/>
		<path id="XMLID_550_" d="M53.5,16.8c-0.9,0-1.6-0.2-2.2-0.5c-0.6-0.3-1.1-0.8-1.5-1.5c-0.4-0.6-0.5-1.4-0.5-2.2
			c0-0.8,0.2-1.5,0.5-2.2s0.8-1.1,1.4-1.5s1.3-0.6,2.1-0.6c1,0,1.8,0.3,2.4,0.9s1,1.3,1.2,2.3c0,0,0,0,0,0.1c0,0.1,0,0.2-0.1,0.2
			s-0.1,0.1-0.2,0.1c-0.2,0.1-0.4,0.2-0.6,0.2s-0.4,0.1-0.7,0.2c-0.6,0.2-1.2,0.5-1.9,0.7s-1.2,0.5-1.8,0.7c0,0-0.1,0.1-0.1,0.1
			c0,0,0,0,0,0.1c0.2,0.4,0.6,0.7,1,0.9s0.8,0.3,1.3,0.3c0.4,0,0.7-0.1,1-0.2s0.6-0.3,0.9-0.4c0,0,0.1,0,0.1-0.1s0.1,0,0.1,0
			c0.1,0,0.1,0,0.2,0.1s0.1,0.1,0.1,0.2c0,0,0.1,0.1,0.1,0.3s0.1,0.3,0.2,0.4s0.1,0.2,0.1,0.3c0,0.1,0,0.1-0.1,0.2s-0.1,0.1-0.1,0.1
			c-0.4,0.3-0.9,0.5-1.5,0.7S54,16.8,53.5,16.8z M51.3,12.5c0.6-0.2,1.2-0.4,1.8-0.6s1.2-0.4,1.8-0.6c-0.1-0.3-0.3-0.6-0.6-0.8
			s-0.6-0.4-1-0.4c-0.4,0-0.8,0.1-1.1,0.4s-0.5,0.5-0.7,0.9S51.3,12.1,51.3,12.5z"/>
		<path id="XMLID_553_" d="M62.1,16.8c-0.9,0-1.6-0.2-2.2-0.5c-0.6-0.3-1.1-0.8-1.5-1.5c-0.4-0.6-0.5-1.4-0.5-2.2
			c0-0.8,0.2-1.5,0.5-2.2s0.8-1.1,1.4-1.5s1.3-0.6,2.1-0.6c1,0,1.8,0.3,2.4,0.9c0.6,0.6,1,1.3,1.2,2.3c0,0,0,0,0,0.1
			c0,0.1,0,0.2-0.1,0.2s-0.1,0.1-0.2,0.1c-0.2,0.1-0.4,0.2-0.6,0.2s-0.4,0.1-0.7,0.2c-0.6,0.2-1.2,0.5-1.9,0.7s-1.2,0.5-1.8,0.7
			c0,0-0.1,0.1-0.1,0.1c0,0,0,0,0,0.1c0.2,0.4,0.6,0.7,1,0.9s0.8,0.3,1.3,0.3c0.4,0,0.7-0.1,1-0.2s0.6-0.3,0.9-0.4
			c0,0,0.1,0,0.1-0.1s0.1,0,0.1,0c0.1,0,0.1,0,0.2,0.1s0.1,0.1,0.1,0.2c0,0,0.1,0.1,0.1,0.3s0.1,0.3,0.2,0.4s0.1,0.2,0.1,0.3
			c0,0.1,0,0.1-0.1,0.2s-0.1,0.1-0.1,0.1c-0.4,0.3-0.9,0.5-1.5,0.7C63.2,16.7,62.7,16.8,62.1,16.8z M59.9,12.5
			c0.6-0.2,1.2-0.4,1.8-0.6s1.2-0.4,1.8-0.6c-0.1-0.3-0.3-0.6-0.6-0.8s-0.6-0.4-1-0.4c-0.4,0-0.8,0.1-1.1,0.4s-0.5,0.5-0.7,0.9
			S59.9,12.1,59.9,12.5z"/>
		<path id="XMLID_556_" d="M71.6,16.7c-0.4,0-0.9-0.1-1.3-0.2s-0.8-0.4-1.1-0.7c0,0,0,0-0.1,0s0,0-0.1,0s0,0-0.1,0.1s0,0.1,0,0.1
			c0,0.4,0,0.8,0,1.2s0,0.8,0,1.2c0,0.1,0,0.3,0,0.4s0,0.3,0,0.4c0,0.1,0,0.2-0.1,0.3s-0.1,0.1-0.3,0.1h-1.4c-0.2,0-0.4-0.1-0.4-0.4
			c0-0.5,0-0.9,0-1.4s0-0.9,0-1.4c0-1,0-1.9,0.1-2.9s0-1.9,0-2.9c0-0.3,0-0.6,0-0.9s0-0.6,0-0.9c0-0.2,0.1-0.4,0.4-0.4h1.1
			c0.2,0,0.3,0.1,0.3,0.2s0.1,0.3,0.1,0.4s0,0.2,0.1,0.2c0,0,0.1,0,0.1,0c0.4-0.3,0.9-0.6,1.3-0.8s1-0.3,1.5-0.3
			c0.8,0,1.5,0.2,2.1,0.6s1,0.9,1.3,1.5s0.4,1.4,0.4,2.1c0,0.8-0.2,1.6-0.5,2.2c-0.3,0.6-0.8,1.1-1.4,1.4
			C73.2,16.6,72.4,16.7,71.6,16.7z M71.2,14.9c0.4,0,0.9-0.1,1.2-0.3s0.7-0.5,0.9-0.8s0.3-0.8,0.3-1.2c0-0.7-0.2-1.3-0.7-1.7
			s-1-0.7-1.7-0.7c-0.5,0-0.9,0.1-1.3,0.4s-0.7,0.6-0.8,1.1c0,0.3,0,0.6,0,0.9s0,0.6,0,0.9c0,0,0,0.1,0.1,0.2s0.1,0.2,0.1,0.2
			c0.2,0.4,0.5,0.7,0.8,0.9S70.8,14.9,71.2,14.9z"/>
	</g>
</g>
</svg>
