<?xml version="1.0" encoding="utf-8"?>
<!-- Generator: Adobe Illustrator 19.0.0, SVG Export Plug-In . SVG Version: 6.00 Build 0)  -->
<svg version="1.1" xmlns="http://www.w3.org/2000/svg" xmlns:xlink="http://www.w3.org/1999/xlink" x="0px" y="0px"
	 viewBox="0 0 107.3 26.3" style="enable-background:new 0 0 107.3 26.3;" xml:space="preserve">
<style type="text/css">
	.st0{fill:#311D7C;}
	.st1{fill:#FFD45C;}
	.st2{display:none;}
	.st3{display:inline;}
	.st4{fill:#FFFFFF;}
</style>
<g id="Layer_1">
	<g id="XMLID_1_">
		<g id="XMLID_2_">
			<path id="XMLID_3_" class="st0" d="M19.6,24.9H6.5c-2.8,0-5-2.2-5-5V6.5c0-2.8,2.2-5,5-5h13.1c2.8,0,5,2.2,5,5v13.4
				C24.6,22.6,22.3,24.9,19.6,24.9z"/>
			<path id="XMLID_4_" class="st1" d="M16.7,20.6H9.4c-2,0-3.7-1.6-3.7-3.7V9.4c0-2,1.6-3.7,3.7-3.7h7.3c2,0,3.7,1.6,3.7,3.7v7.5
				C20.3,18.9,18.7,20.6,16.7,20.6z"/>
			<path id="XMLID_5_" class="st0" d="M12,17.7H8.5c-0.6,0-1.1-0.5-1.1-1.1v0c0-0.6,0.5-1.1,1.1-1.1H12c0.6,0,1.1,0.5,1.1,1.1v0
				C13,17.2,12.6,17.7,12,17.7z"/>
			<path id="XMLID_6_" class="st0" d="M15.9,14.7H8.5c-0.6,0-1.1-0.5-1.1-1.1v0c0-0.6,0.5-1.1,1.1-1.1h7.4c0.6,0,1.1,0.5,1.1,1.1v0
				C17,14.3,16.5,14.7,15.9,14.7z"/>
		</g>
		<g id="XMLID_714_">
			<path id="XMLID_715_" d="M42.5,19c0,0-0.2-0.1-0.5-0.4s-0.7-0.7-1.2-1.1s-1-1-1.6-1.6c-0.6-0.6-1.2-1.1-1.7-1.7s-1.1-1.1-1.6-1.6
				s-0.9-0.9-1.2-1.1S34.1,11,34.1,11c0,0,0,0-0.1,0.1s0,0.1,0,0.1c0,0.5,0,1.1,0,1.6s0,1.1,0,1.6c0,0.4,0,0.9,0,1.3
				c0,0.4,0,0.9,0,1.3c0,0.2,0,0.4,0,0.6s0,0.4,0,0.6c0,0.1,0,0.2-0.1,0.3s-0.1,0.1-0.3,0.1h-1.6c-0.2,0-0.4-0.1-0.4-0.4
				c0-0.3,0-0.7,0-1s0-0.7,0-1c0-0.7,0-1.3,0-2c0-0.7,0-1.3,0-2c0-0.7,0-1.4,0-2.1s0-1.4,0-2.1c0-0.3,0-0.7,0-1s0-0.7,0-1
				c0,0,0-0.1,0.1-0.1s0.1,0,0.1,0c1.4,1.3,2.8,2.6,4.1,4s2.7,2.7,4.1,4c0,0,0,0,0.1,0s0,0,0.1,0c0,0,0.1,0,0.1-0.1s0-0.1,0-0.1
				c0-0.5,0-1.1,0-1.6s0-1.1,0-1.6c0-0.5,0-0.9,0-1.4s0-0.9,0-1.4c0-0.2,0-0.4,0-0.6s0-0.4,0-0.6c0-0.1,0-0.2,0.1-0.3
				s0.1-0.1,0.3-0.1h1.5c0.2,0,0.4,0.1,0.4,0.4c0,0.3,0,0.6,0,0.9s0,0.6,0,0.9c0,0.6,0,1.3,0,1.9s0,1.3,0,1.9
				C42.4,14.5,42.4,16.7,42.5,19L42.5,19z"/>
			<path id="XMLID_717_" d="M44.1,14.7c0-0.8,0.2-1.5,0.5-2.2s0.8-1.1,1.5-1.5s1.4-0.6,2.2-0.6c0.8,0,1.5,0.2,2.1,0.5
				s1.1,0.9,1.4,1.5s0.5,1.3,0.5,2.1c0,0.8-0.2,1.5-0.5,2.2s-0.8,1.1-1.4,1.5s-1.3,0.5-2.2,0.5c-0.8,0-1.5-0.2-2.2-0.5
				s-1.1-0.8-1.4-1.4S44.1,15.5,44.1,14.7z M48.2,12.2c-0.4,0-0.8,0.1-1.1,0.4s-0.5,0.5-0.7,0.9s-0.2,0.8-0.2,1.2
				c0,0.4,0.1,0.7,0.2,1.1c0.2,0.4,0.4,0.6,0.7,0.9s0.7,0.3,1.1,0.3c0.4,0,0.8-0.1,1.1-0.3s0.5-0.5,0.7-0.9c0.1-0.4,0.2-0.7,0.2-1.1
				c0-0.4-0.1-0.8-0.2-1.1s-0.4-0.7-0.7-0.9S48.6,12.2,48.2,12.2z"/>
			<path id="XMLID_720_" d="M54.5,10.5c0-0.5,0-1,0-1.5s0-1,0-1.5c0-0.2,0.1-0.4,0.4-0.4h1.4c0.2,0,0.4,0.1,0.4,0.4c0,0.5,0,1,0,1.5
				s0,1,0,1.5c0,0.1,0,0.1,0.1,0.1h1.4c0.2,0,0.4,0.1,0.4,0.4c0,0.2,0,0.4,0,0.5s0,0.4,0,0.6c0,0.2-0.1,0.4-0.4,0.4h-1.4
				c-0.1,0-0.1,0-0.1,0.1c0,0.9,0,1.9,0,2.8c0,0.9,0,1.9,0,2.8c0,0.2-0.1,0.4-0.4,0.4h-1.4c-0.2,0-0.4-0.1-0.4-0.4
				c0-0.9,0-1.9,0-2.8c0-0.9,0-1.9,0-2.8c0-0.1-0.1-0.1-0.2-0.1s-0.3,0-0.4,0s-0.3,0-0.4,0s-0.2-0.2-0.2-0.3V11
				c0-0.2,0.1-0.4,0.4-0.4h0.7C54.5,10.6,54.5,10.6,54.5,10.5z"/>
			<path id="XMLID_722_" d="M63.7,18.8c-0.9,0-1.6-0.2-2.2-0.5s-1.1-0.8-1.5-1.5s-0.5-1.4-0.5-2.2c0-0.8,0.2-1.5,0.5-2.2
				s0.8-1.1,1.4-1.5s1.3-0.6,2.1-0.6c1,0,1.8,0.3,2.4,0.9s1,1.3,1.2,2.3c0,0,0,0,0,0.1c0,0.1,0,0.2-0.1,0.2s-0.1,0.1-0.2,0.1
				c-0.2,0.1-0.4,0.2-0.6,0.2c-0.2,0.1-0.4,0.1-0.7,0.2c-0.6,0.2-1.2,0.5-1.9,0.7c-0.6,0.2-1.2,0.5-1.8,0.7c0,0-0.1,0.1-0.1,0.1
				c0,0,0,0,0,0.1c0.2,0.4,0.6,0.7,1,0.9s0.8,0.3,1.3,0.3c0.4,0,0.7-0.1,1-0.2s0.6-0.3,0.9-0.4c0,0,0.1,0,0.1-0.1s0.1,0,0.1,0
				c0.1,0,0.1,0,0.2,0.1s0.1,0.1,0.1,0.2c0,0,0.1,0.1,0.1,0.3s0.1,0.3,0.2,0.4s0.1,0.2,0.1,0.3c0,0.1,0,0.1-0.1,0.2
				s-0.1,0.1-0.1,0.1c-0.4,0.3-0.9,0.5-1.5,0.7S64.2,18.8,63.7,18.8z M61.5,14.5c0.6-0.2,1.2-0.4,1.8-0.6s1.2-0.4,1.8-0.6
				c-0.1-0.3-0.4-0.6-0.6-0.8s-0.6-0.4-1-0.4c-0.4,0-0.8,0.1-1.1,0.4s-0.5,0.5-0.7,0.9S61.5,14.1,61.5,14.5z"/>
			<path id="XMLID_725_" d="M70.6,6.3c0.2,0,0.3,0.1,0.4,0.4c0,0.3,0,0.5,0,0.8s0,0.5,0,0.8c0,0.6,0,1.1,0,1.7s0,1.1,0,1.7
				c0,0.1,0,0.1,0.1,0.1h0c2-0.5,3.3-1.8,4.1-3.7c0.1-0.2,0.2-0.4,0.2-0.7s0.1-0.5,0.2-0.7c0-0.1,0.1-0.2,0.1-0.2s0.1-0.1,0.2-0.1
				h1.5c0.1,0,0.2,0,0.3,0.1s0.1,0.1,0.1,0.2c0,0.1,0,0.1,0,0.1c-0.2,1-0.6,1.9-1.1,2.8s-1.1,1.6-2,2.3c-0.2,0.1-0.3,0.2-0.5,0.4
				s-0.3,0.2-0.5,0.3c0,0-0.1,0-0.1,0.1c0,0,0.1,0.2,0.3,0.4s0.4,0.6,0.7,0.9c0.3,0.4,0.6,0.8,0.9,1.2s0.6,0.8,0.9,1.3
				c0.3,0.4,0.6,0.8,0.8,1s0.4,0.5,0.4,0.6c0,0,0.1,0.1,0.1,0.2s0.1,0.1,0.1,0.2c0,0.1-0.1,0.2-0.2,0.2s-0.2,0-0.3,0h-1.7
				c-0.1,0-0.2,0-0.3-0.1c-0.2-0.2-0.3-0.4-0.5-0.6s-0.3-0.4-0.5-0.7c-0.3-0.4-0.6-0.8-0.9-1.2c-0.3-0.4-0.6-0.8-0.9-1.2
				c-0.2-0.2-0.3-0.4-0.5-0.7s-0.3-0.4-0.5-0.6c0,0-0.1,0-0.1,0c-0.1,0-0.1,0-0.2,0s-0.2,0-0.2,0s-0.1,0-0.1,0.1c0,0.5,0,1.1,0,1.6
				s0,1.1,0,1.6c0,0.3,0,0.5,0,0.8s0,0.5,0,0.8c0,0.2-0.1,0.4-0.4,0.4h-1.5c-0.2,0-0.4-0.1-0.4-0.4c0-0.3,0-0.6,0-1s0-0.6,0-1
				c0-1.3,0-2.7,0-4c0-1.3,0-2.6,0-3.8c0-0.3,0-0.6,0-0.9s0-0.6,0-0.9c0-0.2,0.1-0.4,0.4-0.4H70.6z"/>
			<path id="XMLID_727_" d="M83.1,18.8c-0.9,0-1.6-0.2-2.2-0.5s-1.1-0.8-1.5-1.5s-0.5-1.4-0.5-2.2c0-0.8,0.2-1.5,0.5-2.2
				s0.8-1.1,1.4-1.5s1.3-0.6,2.1-0.6c1,0,1.8,0.3,2.4,0.9s1,1.3,1.2,2.3c0,0,0,0,0,0.1c0,0.1,0,0.2-0.1,0.2s-0.1,0.1-0.2,0.1
				c-0.2,0.1-0.4,0.2-0.6,0.2c-0.2,0.1-0.4,0.1-0.7,0.2c-0.6,0.2-1.2,0.5-1.9,0.7s-1.2,0.5-1.8,0.7c0,0-0.1,0.1-0.1,0.1
				c0,0,0,0,0,0.1c0.2,0.4,0.6,0.7,1,0.9s0.8,0.3,1.3,0.3c0.4,0,0.7-0.1,1-0.2s0.6-0.3,0.9-0.4c0,0,0.1,0,0.1-0.1s0.1,0,0.1,0
				c0.1,0,0.1,0,0.2,0.1s0.1,0.1,0.1,0.2c0,0,0.1,0.1,0.1,0.3s0.1,0.3,0.2,0.4s0.1,0.2,0.1,0.3c0,0.1,0,0.1-0.1,0.2
				s-0.1,0.1-0.1,0.1c-0.4,0.3-0.9,0.5-1.5,0.7S83.6,18.8,83.1,18.8z M80.9,14.5c0.6-0.2,1.2-0.4,1.8-0.6s1.2-0.4,1.8-0.6
				c-0.1-0.3-0.4-0.6-0.6-0.8s-0.6-0.4-1-0.4c-0.4,0-0.8,0.1-1.1,0.4s-0.5,0.5-0.7,0.9S80.9,14.1,80.9,14.5z"/>
			<path id="XMLID_730_" d="M91.8,18.8c-0.9,0-1.6-0.2-2.2-0.5s-1.1-0.8-1.5-1.5s-0.5-1.4-0.5-2.2c0-0.8,0.2-1.5,0.5-2.2
				s0.8-1.1,1.4-1.5s1.3-0.6,2.1-0.6c1,0,1.8,0.3,2.4,0.9s1,1.3,1.2,2.3c0,0,0,0,0,0.1c0,0.1,0,0.2-0.1,0.2s-0.1,0.1-0.2,0.1
				c-0.2,0.1-0.4,0.2-0.6,0.2c-0.2,0.1-0.4,0.1-0.7,0.2c-0.6,0.2-1.2,0.5-1.9,0.7s-1.2,0.5-1.8,0.7c0,0-0.1,0.1-0.1,0.1
				c0,0,0,0,0,0.1c0.2,0.4,0.6,0.7,1,0.9s0.8,0.3,1.3,0.3c0.4,0,0.7-0.1,1-0.2s0.6-0.3,0.9-0.4c0,0,0.1,0,0.1-0.1s0.1,0,0.1,0
				c0.1,0,0.1,0,0.2,0.1s0.1,0.1,0.1,0.2c0,0,0.1,0.1,0.1,0.3s0.1,0.3,0.2,0.4s0.1,0.2,0.1,0.3c0,0.1,0,0.1-0.1,0.2
				s-0.1,0.1-0.1,0.1c-0.4,0.3-0.9,0.5-1.5,0.7S92.3,18.8,91.8,18.8z M89.6,14.5c0.6-0.2,1.2-0.4,1.8-0.6s1.2-0.4,1.8-0.6
				c-0.1-0.3-0.4-0.6-0.6-0.8s-0.6-0.4-1-0.4c-0.4,0-0.8,0.1-1.1,0.4s-0.5,0.5-0.7,0.9S89.6,14.1,89.6,14.5z"/>
			<path id="XMLID_733_" d="M101.2,18.8c-0.4,0-0.9-0.1-1.3-0.2s-0.8-0.4-1.1-0.7c0,0,0,0-0.1,0s0,0-0.1,0s0,0-0.1,0.1s0,0.1,0,0.1
				c0,0.4,0,0.8,0,1.2s0,0.8,0,1.2c0,0.1,0,0.3,0,0.4s0,0.3,0,0.4c0,0.1,0,0.2-0.1,0.3s-0.1,0.1-0.3,0.1h-1.4
				c-0.2,0-0.4-0.1-0.4-0.4c0-0.5,0-0.9,0-1.4s0-0.9,0-1.4c0-1,0-1.9,0.1-2.9c0-1,0-1.9,0-2.9c0-0.3,0-0.6,0-0.9s0-0.6,0-0.9
				c0-0.2,0.1-0.4,0.4-0.4h1.1c0.2,0,0.3,0.1,0.3,0.2s0.1,0.3,0.1,0.4s0,0.2,0.1,0.2c0,0,0.1,0,0.1,0c0.4-0.3,0.9-0.6,1.3-0.8
				s1-0.3,1.5-0.3c0.8,0,1.5,0.2,2.1,0.6s1,0.9,1.3,1.5s0.4,1.4,0.4,2.1c0,0.8-0.2,1.6-0.5,2.2s-0.8,1.1-1.4,1.4
				S102,18.8,101.2,18.8z M100.8,17c0.4,0,0.9-0.1,1.2-0.3s0.7-0.5,0.9-0.8c0.2-0.4,0.3-0.8,0.3-1.2c0-0.7-0.2-1.3-0.7-1.7
				s-1-0.7-1.7-0.7c-0.5,0-0.9,0.1-1.3,0.4s-0.7,0.6-0.8,1.1c0,0.3,0,0.6,0,0.9s0,0.6,0,0.9c0,0,0,0.1,0.1,0.2s0.1,0.2,0.1,0.2
				c0.2,0.4,0.5,0.7,0.8,0.9S100.4,17,100.8,17z"/>
		</g>
		<g id="XMLID_692_">
			<path id="XMLID_693_" d="M42.5,19c0,0-0.2-0.1-0.5-0.4s-0.7-0.7-1.2-1.1s-1-1-1.6-1.6c-0.6-0.6-1.2-1.1-1.7-1.7s-1.1-1.1-1.6-1.6
				s-0.9-0.9-1.2-1.1S34.1,11,34.1,11c0,0,0,0-0.1,0.1s0,0.1,0,0.1c0,0.5,0,1.1,0,1.6s0,1.1,0,1.6c0,0.4,0,0.9,0,1.3
				c0,0.4,0,0.9,0,1.3c0,0.2,0,0.4,0,0.6s0,0.4,0,0.6c0,0.1,0,0.2-0.1,0.3s-0.1,0.1-0.3,0.1h-1.6c-0.2,0-0.4-0.1-0.4-0.4
				c0-0.3,0-0.7,0-1s0-0.7,0-1c0-0.7,0-1.3,0-2c0-0.7,0-1.3,0-2c0-0.7,0-1.4,0-2.1s0-1.4,0-2.1c0-0.3,0-0.7,0-1s0-0.7,0-1
				c0,0,0-0.1,0.1-0.1s0.1,0,0.1,0c1.4,1.3,2.8,2.6,4.1,4s2.7,2.7,4.1,4c0,0,0,0,0.1,0s0,0,0.1,0c0,0,0.1,0,0.1-0.1s0-0.1,0-0.1
				c0-0.5,0-1.1,0-1.6s0-1.1,0-1.6c0-0.5,0-0.9,0-1.4s0-0.9,0-1.4c0-0.2,0-0.4,0-0.6s0-0.4,0-0.6c0-0.1,0-0.2,0.1-0.3
				s0.1-0.1,0.3-0.1h1.5c0.2,0,0.4,0.1,0.4,0.4c0,0.3,0,0.6,0,0.9s0,0.6,0,0.9c0,0.6,0,1.3,0,1.9s0,1.3,0,1.9
				C42.4,14.5,42.4,16.7,42.5,19L42.5,19z"/>
			<path id="XMLID_695_" d="M44.1,14.7c0-0.8,0.2-1.5,0.5-2.2s0.8-1.1,1.5-1.5s1.4-0.6,2.2-0.6c0.8,0,1.5,0.2,2.1,0.5
				s1.1,0.9,1.4,1.5s0.5,1.3,0.5,2.1c0,0.8-0.2,1.5-0.5,2.2s-0.8,1.1-1.4,1.5s-1.3,0.5-2.2,0.5c-0.8,0-1.5-0.2-2.2-0.5
				s-1.1-0.8-1.4-1.4S44.1,15.5,44.1,14.7z M48.2,12.2c-0.4,0-0.8,0.1-1.1,0.4s-0.5,0.5-0.7,0.9s-0.2,0.8-0.2,1.2
				c0,0.4,0.1,0.7,0.2,1.1c0.2,0.4,0.4,0.6,0.7,0.9s0.7,0.3,1.1,0.3c0.4,0,0.8-0.1,1.1-0.3s0.5-0.5,0.7-0.9c0.1-0.4,0.2-0.7,0.2-1.1
				c0-0.4-0.1-0.8-0.2-1.1s-0.4-0.7-0.7-0.9S48.6,12.2,48.2,12.2z"/>
			<path id="XMLID_698_" d="M54.5,10.5c0-0.5,0-1,0-1.5s0-1,0-1.5c0-0.2,0.1-0.4,0.4-0.4h1.4c0.2,0,0.4,0.1,0.4,0.4c0,0.5,0,1,0,1.5
				s0,1,0,1.5c0,0.1,0,0.1,0.1,0.1h1.4c0.2,0,0.4,0.1,0.4,0.4c0,0.2,0,0.4,0,0.5s0,0.4,0,0.6c0,0.2-0.1,0.4-0.4,0.4h-1.4
				c-0.1,0-0.1,0-0.1,0.1c0,0.9,0,1.9,0,2.8c0,0.9,0,1.9,0,2.8c0,0.2-0.1,0.4-0.4,0.4h-1.4c-0.2,0-0.4-0.1-0.4-0.4
				c0-0.9,0-1.9,0-2.8c0-0.9,0-1.9,0-2.8c0-0.1-0.1-0.1-0.2-0.1s-0.3,0-0.4,0s-0.3,0-0.4,0s-0.2-0.2-0.2-0.3V11
				c0-0.2,0.1-0.4,0.4-0.4h0.7C54.5,10.6,54.5,10.6,54.5,10.5z"/>
			<path id="XMLID_700_" d="M63.7,18.8c-0.9,0-1.6-0.2-2.2-0.5s-1.1-0.8-1.5-1.5s-0.5-1.4-0.5-2.2c0-0.8,0.2-1.5,0.5-2.2
				s0.8-1.1,1.4-1.5s1.3-0.6,2.1-0.6c1,0,1.8,0.3,2.4,0.9s1,1.3,1.2,2.3c0,0,0,0,0,0.1c0,0.1,0,0.2-0.1,0.2s-0.1,0.1-0.2,0.1
				c-0.2,0.1-0.4,0.2-0.6,0.2c-0.2,0.1-0.4,0.1-0.7,0.2c-0.6,0.2-1.2,0.5-1.9,0.7c-0.6,0.2-1.2,0.5-1.8,0.7c0,0-0.1,0.1-0.1,0.1
				c0,0,0,0,0,0.1c0.2,0.4,0.6,0.7,1,0.9s0.8,0.3,1.3,0.3c0.4,0,0.7-0.1,1-0.2s0.6-0.3,0.9-0.4c0,0,0.1,0,0.1-0.1s0.1,0,0.1,0
				c0.1,0,0.1,0,0.2,0.1s0.1,0.1,0.1,0.2c0,0,0.1,0.1,0.1,0.3s0.1,0.3,0.2,0.4s0.1,0.2,0.1,0.3c0,0.1,0,0.1-0.1,0.2
				s-0.1,0.1-0.1,0.1c-0.4,0.3-0.9,0.5-1.5,0.7S64.2,18.8,63.7,18.8z M61.5,14.5c0.6-0.2,1.2-0.4,1.8-0.6s1.2-0.4,1.8-0.6
				c-0.1-0.3-0.4-0.6-0.6-0.8s-0.6-0.4-1-0.4c-0.4,0-0.8,0.1-1.1,0.4s-0.5,0.5-0.7,0.9S61.5,14.1,61.5,14.5z"/>
			<path id="XMLID_703_" d="M70.6,6.3c0.2,0,0.3,0.1,0.4,0.4c0,0.3,0,0.5,0,0.8s0,0.5,0,0.8c0,0.6,0,1.1,0,1.7s0,1.1,0,1.7
				c0,0.1,0,0.1,0.1,0.1h0c2-0.5,3.3-1.8,4.1-3.7c0.1-0.2,0.2-0.4,0.2-0.7s0.1-0.5,0.2-0.7c0-0.1,0.1-0.2,0.1-0.2s0.1-0.1,0.2-0.1
				h1.5c0.1,0,0.2,0,0.3,0.1s0.1,0.1,0.1,0.2c0,0.1,0,0.1,0,0.1c-0.2,1-0.6,1.9-1.1,2.8s-1.1,1.6-2,2.3c-0.2,0.1-0.3,0.2-0.5,0.4
				s-0.3,0.2-0.5,0.3c0,0-0.1,0-0.1,0.1c0,0,0.1,0.2,0.3,0.4s0.4,0.6,0.7,0.9c0.3,0.4,0.6,0.8,0.9,1.2s0.6,0.8,0.9,1.3
				c0.3,0.4,0.6,0.8,0.8,1s0.4,0.5,0.4,0.6c0,0,0.1,0.1,0.1,0.2s0.1,0.1,0.1,0.2c0,0.1-0.1,0.2-0.2,0.2s-0.2,0-0.3,0h-1.7
				c-0.1,0-0.2,0-0.3-0.1c-0.2-0.2-0.3-0.4-0.5-0.6s-0.3-0.4-0.5-0.7c-0.3-0.4-0.6-0.8-0.9-1.2c-0.3-0.4-0.6-0.8-0.9-1.2
				c-0.2-0.2-0.3-0.4-0.5-0.7s-0.3-0.4-0.5-0.6c0,0-0.1,0-0.1,0c-0.1,0-0.1,0-0.2,0s-0.2,0-0.2,0s-0.1,0-0.1,0.1c0,0.5,0,1.1,0,1.6
				s0,1.1,0,1.6c0,0.3,0,0.5,0,0.8s0,0.5,0,0.8c0,0.2-0.1,0.4-0.4,0.4h-1.5c-0.2,0-0.4-0.1-0.4-0.4c0-0.3,0-0.6,0-1s0-0.6,0-1
				c0-1.3,0-2.7,0-4c0-1.3,0-2.6,0-3.8c0-0.3,0-0.6,0-0.9s0-0.6,0-0.9c0-0.2,0.1-0.4,0.4-0.4H70.6z"/>
			<path id="XMLID_705_" d="M83.1,18.8c-0.9,0-1.6-0.2-2.2-0.5s-1.1-0.8-1.5-1.5s-0.5-1.4-0.5-2.2c0-0.8,0.2-1.5,0.5-2.2
				s0.8-1.1,1.4-1.5s1.3-0.6,2.1-0.6c1,0,1.8,0.3,2.4,0.9s1,1.3,1.2,2.3c0,0,0,0,0,0.1c0,0.1,0,0.2-0.1,0.2s-0.1,0.1-0.2,0.1
				c-0.2,0.1-0.4,0.2-0.6,0.2c-0.2,0.1-0.4,0.1-0.7,0.2c-0.6,0.2-1.2,0.5-1.9,0.7s-1.2,0.5-1.8,0.7c0,0-0.1,0.1-0.1,0.1
				c0,0,0,0,0,0.1c0.2,0.4,0.6,0.7,1,0.9s0.8,0.3,1.3,0.3c0.4,0,0.7-0.1,1-0.2s0.6-0.3,0.9-0.4c0,0,0.1,0,0.1-0.1s0.1,0,0.1,0
				c0.1,0,0.1,0,0.2,0.1s0.1,0.1,0.1,0.2c0,0,0.1,0.1,0.1,0.3s0.1,0.3,0.2,0.4s0.1,0.2,0.1,0.3c0,0.1,0,0.1-0.1,0.2
				s-0.1,0.1-0.1,0.1c-0.4,0.3-0.9,0.5-1.5,0.7S83.6,18.8,83.1,18.8z M80.9,14.5c0.6-0.2,1.2-0.4,1.8-0.6s1.2-0.4,1.8-0.6
				c-0.1-0.3-0.4-0.6-0.6-0.8s-0.6-0.4-1-0.4c-0.4,0-0.8,0.1-1.1,0.4s-0.5,0.5-0.7,0.9S80.9,14.1,80.9,14.5z"/>
			<path id="XMLID_708_" d="M91.8,18.8c-0.9,0-1.6-0.2-2.2-0.5s-1.1-0.8-1.5-1.5s-0.5-1.4-0.5-2.2c0-0.8,0.2-1.5,0.5-2.2
				s0.8-1.1,1.4-1.5s1.3-0.6,2.1-0.6c1,0,1.8,0.3,2.4,0.9s1,1.3,1.2,2.3c0,0,0,0,0,0.1c0,0.1,0,0.2-0.1,0.2s-0.1,0.1-0.2,0.1
				c-0.2,0.1-0.4,0.2-0.6,0.2c-0.2,0.1-0.4,0.1-0.7,0.2c-0.6,0.2-1.2,0.5-1.9,0.7s-1.2,0.5-1.8,0.7c0,0-0.1,0.1-0.1,0.1
				c0,0,0,0,0,0.1c0.2,0.4,0.6,0.7,1,0.9s0.8,0.3,1.3,0.3c0.4,0,0.7-0.1,1-0.2s0.6-0.3,0.9-0.4c0,0,0.1,0,0.1-0.1s0.1,0,0.1,0
				c0.1,0,0.1,0,0.2,0.1s0.1,0.1,0.1,0.2c0,0,0.1,0.1,0.1,0.3s0.1,0.3,0.2,0.4s0.1,0.2,0.1,0.3c0,0.1,0,0.1-0.1,0.2
				s-0.1,0.1-0.1,0.1c-0.4,0.3-0.9,0.5-1.5,0.7S92.3,18.8,91.8,18.8z M89.6,14.5c0.6-0.2,1.2-0.4,1.8-0.6s1.2-0.4,1.8-0.6
				c-0.1-0.3-0.4-0.6-0.6-0.8s-0.6-0.4-1-0.4c-0.4,0-0.8,0.1-1.1,0.4s-0.5,0.5-0.7,0.9S89.6,14.1,89.6,14.5z"/>
			<path id="XMLID_711_" d="M101.2,18.8c-0.4,0-0.9-0.1-1.3-0.2s-0.8-0.4-1.1-0.7c0,0,0,0-0.1,0s0,0-0.1,0s0,0-0.1,0.1s0,0.1,0,0.1
				c0,0.4,0,0.8,0,1.2s0,0.8,0,1.2c0,0.1,0,0.3,0,0.4s0,0.3,0,0.4c0,0.1,0,0.2-0.1,0.3s-0.1,0.1-0.3,0.1h-1.4
				c-0.2,0-0.4-0.1-0.4-0.4c0-0.5,0-0.9,0-1.4s0-0.9,0-1.4c0-1,0-1.9,0.1-2.9c0-1,0-1.9,0-2.9c0-0.3,0-0.6,0-0.9s0-0.6,0-0.9
				c0-0.2,0.1-0.4,0.4-0.4h1.1c0.2,0,0.3,0.1,0.3,0.2s0.1,0.3,0.1,0.4s0,0.2,0.1,0.2c0,0,0.1,0,0.1,0c0.4-0.3,0.9-0.6,1.3-0.8
				s1-0.3,1.5-0.3c0.8,0,1.5,0.2,2.1,0.6s1,0.9,1.3,1.5s0.4,1.4,0.4,2.1c0,0.8-0.2,1.6-0.5,2.2s-0.8,1.1-1.4,1.4
				S102,18.8,101.2,18.8z M100.8,17c0.4,0,0.9-0.1,1.2-0.3s0.7-0.5,0.9-0.8c0.2-0.4,0.3-0.8,0.3-1.2c0-0.7-0.2-1.3-0.7-1.7
				s-1-0.7-1.7-0.7c-0.5,0-0.9,0.1-1.3,0.4s-0.7,0.6-0.8,1.1c0,0.3,0,0.6,0,0.9s0,0.6,0,0.9c0,0,0,0.1,0.1,0.2s0.1,0.2,0.1,0.2
				c0.2,0.4,0.5,0.7,0.8,0.9S100.4,17,100.8,17z"/>
		</g>
		<g id="XMLID_7_">
			<path id="XMLID_650_" d="M42.5,19c0,0-0.2-0.1-0.5-0.4s-0.7-0.7-1.2-1.1s-1-1-1.6-1.6c-0.6-0.6-1.2-1.1-1.7-1.7s-1.1-1.1-1.6-1.6
				s-0.9-0.9-1.2-1.1S34.1,11,34.1,11c0,0,0,0-0.1,0.1s0,0.1,0,0.1c0,0.5,0,1.1,0,1.6s0,1.1,0,1.6c0,0.4,0,0.9,0,1.3
				c0,0.4,0,0.9,0,1.3c0,0.2,0,0.4,0,0.6s0,0.4,0,0.6c0,0.1,0,0.2-0.1,0.3s-0.1,0.1-0.3,0.1h-1.6c-0.2,0-0.4-0.1-0.4-0.4
				c0-0.3,0-0.7,0-1s0-0.7,0-1c0-0.7,0-1.3,0-2c0-0.7,0-1.3,0-2c0-0.7,0-1.4,0-2.1s0-1.4,0-2.1c0-0.3,0-0.7,0-1s0-0.7,0-1
				c0,0,0-0.1,0.1-0.1s0.1,0,0.1,0c1.4,1.3,2.8,2.6,4.1,4s2.7,2.7,4.1,4c0,0,0,0,0.1,0s0,0,0.1,0c0,0,0.1,0,0.1-0.1s0-0.1,0-0.1
				c0-0.5,0-1.1,0-1.6s0-1.1,0-1.6c0-0.5,0-0.9,0-1.4s0-0.9,0-1.4c0-0.2,0-0.4,0-0.6s0-0.4,0-0.6c0-0.1,0-0.2,0.1-0.3
				s0.1-0.1,0.3-0.1h1.5c0.2,0,0.4,0.1,0.4,0.4c0,0.3,0,0.6,0,0.9s0,0.6,0,0.9c0,0.6,0,1.3,0,1.9s0,1.3,0,1.9
				C42.4,14.5,42.4,16.7,42.5,19L42.5,19z"/>
			<path id="XMLID_652_" d="M44.1,14.7c0-0.8,0.2-1.5,0.5-2.2s0.8-1.1,1.5-1.5s1.4-0.6,2.2-0.6c0.8,0,1.5,0.2,2.1,0.5
				s1.1,0.9,1.4,1.5s0.5,1.3,0.5,2.1c0,0.8-0.2,1.5-0.5,2.2s-0.8,1.1-1.4,1.5s-1.3,0.5-2.2,0.5c-0.8,0-1.5-0.2-2.2-0.5
				s-1.1-0.8-1.4-1.4S44.1,15.5,44.1,14.7z M48.2,12.2c-0.4,0-0.8,0.1-1.1,0.4s-0.5,0.5-0.7,0.9s-0.2,0.8-0.2,1.2
				c0,0.4,0.1,0.7,0.2,1.1c0.2,0.4,0.4,0.6,0.7,0.9s0.7,0.3,1.1,0.3c0.4,0,0.8-0.1,1.1-0.3s0.5-0.5,0.7-0.9c0.1-0.4,0.2-0.7,0.2-1.1
				c0-0.4-0.1-0.8-0.2-1.1s-0.4-0.7-0.7-0.9S48.6,12.2,48.2,12.2z"/>
			<path id="XMLID_655_" d="M54.5,10.5c0-0.5,0-1,0-1.5s0-1,0-1.5c0-0.2,0.1-0.4,0.4-0.4h1.4c0.2,0,0.4,0.1,0.4,0.4c0,0.5,0,1,0,1.5
				s0,1,0,1.5c0,0.1,0,0.1,0.1,0.1h1.4c0.2,0,0.4,0.1,0.4,0.4c0,0.2,0,0.4,0,0.5s0,0.4,0,0.6c0,0.2-0.1,0.4-0.4,0.4h-1.4
				c-0.1,0-0.1,0-0.1,0.1c0,0.9,0,1.9,0,2.8c0,0.9,0,1.9,0,2.8c0,0.2-0.1,0.4-0.4,0.4h-1.4c-0.2,0-0.4-0.1-0.4-0.4
				c0-0.9,0-1.9,0-2.8c0-0.9,0-1.9,0-2.8c0-0.1-0.1-0.1-0.2-0.1s-0.3,0-0.4,0s-0.3,0-0.4,0s-0.2-0.2-0.2-0.3V11
				c0-0.2,0.1-0.4,0.4-0.4h0.7C54.5,10.6,54.5,10.6,54.5,10.5z"/>
			<path id="XMLID_657_" d="M63.7,18.8c-0.9,0-1.6-0.2-2.2-0.5s-1.1-0.8-1.5-1.5s-0.5-1.4-0.5-2.2c0-0.8,0.2-1.5,0.5-2.2
				s0.8-1.1,1.4-1.5s1.3-0.6,2.1-0.6c1,0,1.8,0.3,2.4,0.9s1,1.3,1.2,2.3c0,0,0,0,0,0.1c0,0.1,0,0.2-0.1,0.2s-0.1,0.1-0.2,0.1
				c-0.2,0.1-0.4,0.2-0.6,0.2c-0.2,0.1-0.4,0.1-0.7,0.2c-0.6,0.2-1.2,0.5-1.9,0.7c-0.6,0.2-1.2,0.5-1.8,0.7c0,0-0.1,0.1-0.1,0.1
				c0,0,0,0,0,0.1c0.2,0.4,0.6,0.7,1,0.9s0.8,0.3,1.3,0.3c0.4,0,0.7-0.1,1-0.2s0.6-0.3,0.9-0.4c0,0,0.1,0,0.1-0.1s0.1,0,0.1,0
				c0.1,0,0.1,0,0.2,0.1s0.1,0.1,0.1,0.2c0,0,0.1,0.1,0.1,0.3s0.1,0.3,0.2,0.4s0.1,0.2,0.1,0.3c0,0.1,0,0.1-0.1,0.2
				s-0.1,0.1-0.1,0.1c-0.4,0.3-0.9,0.5-1.5,0.7S64.2,18.8,63.7,18.8z M61.5,14.5c0.6-0.2,1.2-0.4,1.8-0.6s1.2-0.4,1.8-0.6
				c-0.1-0.3-0.4-0.6-0.6-0.8s-0.6-0.4-1-0.4c-0.4,0-0.8,0.1-1.1,0.4s-0.5,0.5-0.7,0.9S61.5,14.1,61.5,14.5z"/>
			<path id="XMLID_660_" d="M70.6,6.3c0.2,0,0.3,0.1,0.4,0.4c0,0.3,0,0.5,0,0.8s0,0.5,0,0.8c0,0.6,0,1.1,0,1.7s0,1.1,0,1.7
				c0,0.1,0,0.1,0.1,0.1h0c2-0.5,3.3-1.8,4.1-3.7c0.1-0.2,0.2-0.4,0.2-0.7s0.1-0.5,0.2-0.7c0-0.1,0.1-0.2,0.1-0.2s0.1-0.1,0.2-0.1
				h1.5c0.1,0,0.2,0,0.3,0.1s0.1,0.1,0.1,0.2c0,0.1,0,0.1,0,0.1c-0.2,1-0.6,1.9-1.1,2.8s-1.1,1.6-2,2.3c-0.2,0.1-0.3,0.2-0.5,0.4
				s-0.3,0.2-0.5,0.3c0,0-0.1,0-0.1,0.1c0,0,0.1,0.2,0.3,0.4s0.4,0.6,0.7,0.9c0.3,0.4,0.6,0.8,0.9,1.2s0.6,0.8,0.9,1.3
				c0.3,0.4,0.6,0.8,0.8,1s0.4,0.5,0.4,0.6c0,0,0.1,0.1,0.1,0.2s0.1,0.1,0.1,0.2c0,0.1-0.1,0.2-0.2,0.2s-0.2,0-0.3,0h-1.7
				c-0.1,0-0.2,0-0.3-0.1c-0.2-0.2-0.3-0.4-0.5-0.6s-0.3-0.4-0.5-0.7c-0.3-0.4-0.6-0.8-0.9-1.2c-0.3-0.4-0.6-0.8-0.9-1.2
				c-0.2-0.2-0.3-0.4-0.5-0.7s-0.3-0.4-0.5-0.6c0,0-0.1,0-0.1,0c-0.1,0-0.1,0-0.2,0s-0.2,0-0.2,0s-0.1,0-0.1,0.1c0,0.5,0,1.1,0,1.6
				s0,1.1,0,1.6c0,0.3,0,0.5,0,0.8s0,0.5,0,0.8c0,0.2-0.1,0.4-0.4,0.4h-1.5c-0.2,0-0.4-0.1-0.4-0.4c0-0.3,0-0.6,0-1s0-0.6,0-1
				c0-1.3,0-2.7,0-4c0-1.3,0-2.6,0-3.8c0-0.3,0-0.6,0-0.9s0-0.6,0-0.9c0-0.2,0.1-0.4,0.4-0.4H70.6z"/>
			<path id="XMLID_662_" d="M83.1,18.8c-0.9,0-1.6-0.2-2.2-0.5s-1.1-0.8-1.5-1.5s-0.5-1.4-0.5-2.2c0-0.8,0.2-1.5,0.5-2.2
				s0.8-1.1,1.4-1.5s1.3-0.6,2.1-0.6c1,0,1.8,0.3,2.4,0.9s1,1.3,1.2,2.3c0,0,0,0,0,0.1c0,0.1,0,0.2-0.1,0.2s-0.1,0.1-0.2,0.1
				c-0.2,0.1-0.4,0.2-0.6,0.2c-0.2,0.1-0.4,0.1-0.7,0.2c-0.6,0.2-1.2,0.5-1.9,0.7s-1.2,0.5-1.8,0.7c0,0-0.1,0.1-0.1,0.1
				c0,0,0,0,0,0.1c0.2,0.4,0.6,0.7,1,0.9s0.8,0.3,1.3,0.3c0.4,0,0.7-0.1,1-0.2s0.6-0.3,0.9-0.4c0,0,0.1,0,0.1-0.1s0.1,0,0.1,0
				c0.1,0,0.1,0,0.2,0.1s0.1,0.1,0.1,0.2c0,0,0.1,0.1,0.1,0.3s0.1,0.3,0.2,0.4s0.1,0.2,0.1,0.3c0,0.1,0,0.1-0.1,0.2
				s-0.1,0.1-0.1,0.1c-0.4,0.3-0.9,0.5-1.5,0.7S83.6,18.8,83.1,18.8z M80.9,14.5c0.6-0.2,1.2-0.4,1.8-0.6s1.2-0.4,1.8-0.6
				c-0.1-0.3-0.4-0.6-0.6-0.8s-0.6-0.4-1-0.4c-0.4,0-0.8,0.1-1.1,0.4s-0.5,0.5-0.7,0.9S80.9,14.1,80.9,14.5z"/>
			<path id="XMLID_665_" d="M91.8,18.8c-0.9,0-1.6-0.2-2.2-0.5s-1.1-0.8-1.5-1.5s-0.5-1.4-0.5-2.2c0-0.8,0.2-1.5,0.5-2.2
				s0.8-1.1,1.4-1.5s1.3-0.6,2.1-0.6c1,0,1.8,0.3,2.4,0.9s1,1.3,1.2,2.3c0,0,0,0,0,0.1c0,0.1,0,0.2-0.1,0.2s-0.1,0.1-0.2,0.1
				c-0.2,0.1-0.4,0.2-0.6,0.2c-0.2,0.1-0.4,0.1-0.7,0.2c-0.6,0.2-1.2,0.5-1.9,0.7s-1.2,0.5-1.8,0.7c0,0-0.1,0.1-0.1,0.1
				c0,0,0,0,0,0.1c0.2,0.4,0.6,0.7,1,0.9s0.8,0.3,1.3,0.3c0.4,0,0.7-0.1,1-0.2s0.6-0.3,0.9-0.4c0,0,0.1,0,0.1-0.1s0.1,0,0.1,0
				c0.1,0,0.1,0,0.2,0.1s0.1,0.1,0.1,0.2c0,0,0.1,0.1,0.1,0.3s0.1,0.3,0.2,0.4s0.1,0.2,0.1,0.3c0,0.1,0,0.1-0.1,0.2
				s-0.1,0.1-0.1,0.1c-0.4,0.3-0.9,0.5-1.5,0.7S92.3,18.8,91.8,18.8z M89.6,14.5c0.6-0.2,1.2-0.4,1.8-0.6s1.2-0.4,1.8-0.6
				c-0.1-0.3-0.4-0.6-0.6-0.8s-0.6-0.4-1-0.4c-0.4,0-0.8,0.1-1.1,0.4s-0.5,0.5-0.7,0.9S89.6,14.1,89.6,14.5z"/>
			<path id="XMLID_668_" d="M101.2,18.8c-0.4,0-0.9-0.1-1.3-0.2s-0.8-0.4-1.1-0.7c0,0,0,0-0.1,0s0,0-0.1,0s0,0-0.1,0.1s0,0.1,0,0.1
				c0,0.4,0,0.8,0,1.2s0,0.8,0,1.2c0,0.1,0,0.3,0,0.4s0,0.3,0,0.4c0,0.1,0,0.2-0.1,0.3s-0.1,0.1-0.3,0.1h-1.4
				c-0.2,0-0.4-0.1-0.4-0.4c0-0.5,0-0.9,0-1.4s0-0.9,0-1.4c0-1,0-1.9,0.1-2.9c0-1,0-1.9,0-2.9c0-0.3,0-0.6,0-0.9s0-0.6,0-0.9
				c0-0.2,0.1-0.4,0.4-0.4h1.1c0.2,0,0.3,0.1,0.3,0.2s0.1,0.3,0.1,0.4s0,0.2,0.1,0.2c0,0,0.1,0,0.1,0c0.4-0.3,0.9-0.6,1.3-0.8
				s1-0.3,1.5-0.3c0.8,0,1.5,0.2,2.1,0.6s1,0.9,1.3,1.5s0.4,1.4,0.4,2.1c0,0.8-0.2,1.6-0.5,2.2s-0.8,1.1-1.4,1.4
				S102,18.8,101.2,18.8z M100.8,17c0.4,0,0.9-0.1,1.2-0.3s0.7-0.5,0.9-0.8c0.2-0.4,0.3-0.8,0.3-1.2c0-0.7-0.2-1.3-0.7-1.7
				s-1-0.7-1.7-0.7c-0.5,0-0.9,0.1-1.3,0.4s-0.7,0.6-0.8,1.1c0,0.3,0,0.6,0,0.9s0,0.6,0,0.9c0,0,0,0.1,0.1,0.2s0.1,0.2,0.1,0.2
				c0.2,0.4,0.5,0.7,0.8,0.9S100.4,17,100.8,17z"/>
		</g>
	</g>
</g>
<g id="Layer_2" class="st2">
	<g id="XMLID_126_" class="st3">
		<g id="XMLID_128_">
			<path id="XMLID_132_" class="st0" d="M134.1,24.9H121c-2.8,0-5-2.2-5-5V6.5c0-2.8,2.2-5,5-5h13.1c2.8,0,5,2.2,5,5v13.4
				C139.1,22.6,136.8,24.9,134.1,24.9z"/>
			<path id="XMLID_131_" class="st1" d="M131.2,20.6h-7.3c-2,0-3.7-1.6-3.7-3.7V9.4c0-2,1.6-3.7,3.7-3.7h7.3c2,0,3.7,1.6,3.7,3.7
				v7.5C134.8,18.9,133.2,20.6,131.2,20.6z"/>
			<path id="XMLID_130_" class="st0" d="M126.5,17.7H123c-0.6,0-1.1-0.5-1.1-1.1v0c0-0.6,0.5-1.1,1.1-1.1h3.5c0.6,0,1.1,0.5,1.1,1.1
				v0C127.5,17.2,127.1,17.7,126.5,17.7z"/>
			<path id="XMLID_129_" class="st0" d="M130.4,14.7H123c-0.6,0-1.1-0.5-1.1-1.1v0c0-0.6,0.5-1.1,1.1-1.1h7.4c0.6,0,1.1,0.5,1.1,1.1
				v0C131.5,14.3,131,14.7,130.4,14.7z"/>
		</g>
		<g>
			<path id="XMLID_737_" class="st4" d="M157,19c0,0-0.2-0.1-0.5-0.4s-0.7-0.7-1.2-1.1s-1-1-1.6-1.6c-0.6-0.6-1.2-1.1-1.8-1.7
				s-1.1-1.1-1.6-1.6s-0.9-0.9-1.2-1.1s-0.5-0.4-0.5-0.4c0,0,0,0-0.1,0.1s0,0.1,0,0.1c0,0.5,0,1.1,0,1.6s0,1.1,0,1.6
				c0,0.4,0,0.9,0,1.3c0,0.4,0,0.9,0,1.3c0,0.2,0,0.4,0,0.6s0,0.4,0,0.6c0,0.1,0,0.2-0.1,0.3s-0.1,0.1-0.3,0.1h-1.6
				c-0.2,0-0.4-0.1-0.4-0.4c0-0.3,0-0.7,0-1s0-0.7,0-1c0-0.7,0-1.3,0-2c0-0.7,0-1.3,0-2c0-0.7,0-1.4,0-2.1s0-1.4,0-2.1
				c0-0.3,0-0.7,0-1s0-0.7,0-1c0,0,0-0.1,0.1-0.1s0.1,0,0.1,0c1.4,1.3,2.8,2.6,4.1,4s2.7,2.7,4.1,4c0,0,0,0,0.1,0s0,0,0.1,0
				c0,0,0.1,0,0.1-0.1s0-0.1,0-0.1c0-0.5,0-1.1,0-1.6s0-1.1,0-1.6c0-0.5,0-0.9,0-1.4s0-0.9,0-1.4c0-0.2,0-0.4,0-0.6s0-0.4,0-0.6
				c0-0.1,0-0.2,0.1-0.3s0.1-0.1,0.3-0.1h1.5c0.2,0,0.4,0.1,0.4,0.4c0,0.3,0,0.6,0,0.9s0,0.6,0,0.9c0,0.6,0,1.3,0,1.9s0,1.3,0,1.9
				C156.9,14.5,156.9,16.7,157,19L157,19z"/>
			<path id="XMLID_739_" class="st4" d="M158.6,14.7c0-0.8,0.2-1.5,0.5-2.2s0.8-1.1,1.5-1.5s1.4-0.6,2.2-0.6c0.8,0,1.5,0.2,2.1,0.5
				s1.1,0.9,1.4,1.5s0.5,1.3,0.5,2.1c0,0.8-0.2,1.5-0.5,2.2s-0.8,1.1-1.4,1.5s-1.3,0.5-2.2,0.5c-0.8,0-1.5-0.2-2.2-0.5
				s-1.1-0.8-1.4-1.4S158.6,15.5,158.6,14.7z M162.7,12.2c-0.4,0-0.8,0.1-1.1,0.4s-0.5,0.5-0.7,0.9s-0.2,0.8-0.2,1.2
				c0,0.4,0.1,0.7,0.2,1.1c0.2,0.4,0.4,0.6,0.7,0.9s0.7,0.3,1.1,0.3c0.4,0,0.8-0.1,1.1-0.3s0.5-0.5,0.7-0.9c0.1-0.4,0.2-0.7,0.2-1.1
				c0-0.4-0.1-0.8-0.2-1.1s-0.4-0.7-0.7-0.9S163.1,12.2,162.7,12.2z"/>
			<path id="XMLID_742_" class="st4" d="M169,10.5c0-0.5,0-1,0-1.5s0-1,0-1.5c0-0.2,0.1-0.4,0.4-0.4h1.4c0.2,0,0.4,0.1,0.4,0.4
				c0,0.5,0,1,0,1.5s0,1,0,1.5c0,0.1,0,0.1,0.1,0.1h1.4c0.2,0,0.4,0.1,0.4,0.4c0,0.2,0,0.4,0,0.5s0,0.4,0,0.6c0,0.2-0.1,0.4-0.4,0.4
				h-1.4c-0.1,0-0.1,0-0.1,0.1c0,0.9,0,1.9,0,2.8c0,0.9,0,1.9,0,2.8c0,0.2-0.1,0.4-0.4,0.4h-1.4c-0.2,0-0.4-0.1-0.4-0.4
				c0-0.9,0-1.9,0-2.8c0-0.9,0-1.9,0-2.8c0-0.1-0.1-0.1-0.2-0.1s-0.3,0-0.4,0s-0.3,0-0.4,0s-0.2-0.2-0.2-0.3V11
				c0-0.2,0.1-0.4,0.4-0.4h0.7C169,10.6,169,10.6,169,10.5z"/>
			<path id="XMLID_744_" class="st4" d="M178.2,18.8c-0.9,0-1.6-0.2-2.2-0.5s-1.1-0.8-1.5-1.5s-0.5-1.4-0.5-2.2
				c0-0.8,0.2-1.5,0.5-2.2s0.8-1.1,1.4-1.5s1.3-0.6,2.1-0.6c1,0,1.8,0.3,2.4,0.9s1,1.3,1.2,2.3c0,0,0,0,0,0.1c0,0.1,0,0.2-0.1,0.2
				s-0.1,0.1-0.2,0.1c-0.2,0.1-0.4,0.2-0.6,0.2c-0.2,0.1-0.4,0.1-0.7,0.2c-0.6,0.2-1.2,0.5-1.9,0.7s-1.2,0.5-1.8,0.7
				c0,0-0.1,0.1-0.1,0.1c0,0,0,0,0,0.1c0.2,0.4,0.6,0.7,1,0.9s0.8,0.3,1.3,0.3c0.4,0,0.7-0.1,1-0.2s0.6-0.3,0.9-0.4
				c0,0,0.1,0,0.1-0.1s0.1,0,0.1,0c0.1,0,0.1,0,0.2,0.1s0.1,0.1,0.1,0.2c0,0,0.1,0.1,0.1,0.3s0.1,0.3,0.2,0.4s0.1,0.2,0.1,0.3
				c0,0.1,0,0.1-0.1,0.2s-0.1,0.1-0.1,0.1c-0.4,0.3-0.9,0.5-1.5,0.7S178.7,18.8,178.2,18.8z M176,14.5c0.6-0.2,1.2-0.4,1.8-0.6
				s1.2-0.4,1.8-0.6c-0.1-0.3-0.3-0.6-0.6-0.8s-0.6-0.4-1-0.4c-0.4,0-0.8,0.1-1.1,0.4s-0.5,0.5-0.7,0.9S176,14.1,176,14.5z"/>
			<path id="XMLID_747_" class="st4" d="M185.1,6.3c0.2,0,0.3,0.1,0.4,0.4c0,0.3,0,0.5,0,0.8s0,0.5,0,0.8c0,0.6,0,1.1,0,1.7
				s0,1.1,0,1.7c0,0.1,0,0.1,0.1,0.1h0c2-0.5,3.3-1.8,4.1-3.7c0.1-0.2,0.2-0.4,0.2-0.7s0.1-0.5,0.2-0.7c0-0.1,0.1-0.2,0.1-0.2
				s0.1-0.1,0.2-0.1h1.5c0.1,0,0.2,0,0.3,0.1s0.1,0.1,0.1,0.2c0,0.1,0,0.1,0,0.1c-0.2,1-0.6,1.9-1.1,2.8s-1.1,1.6-2,2.3
				c-0.2,0.1-0.3,0.2-0.5,0.4s-0.3,0.2-0.5,0.3c0,0-0.1,0-0.1,0.1c0,0,0.1,0.2,0.3,0.4s0.4,0.6,0.7,0.9c0.3,0.4,0.6,0.8,0.9,1.2
				s0.6,0.8,0.9,1.3c0.3,0.4,0.6,0.8,0.8,1s0.4,0.5,0.4,0.6c0,0,0.1,0.1,0.1,0.2s0.1,0.1,0.1,0.2c0,0.1-0.1,0.2-0.2,0.2
				s-0.2,0-0.3,0h-1.7c-0.1,0-0.2,0-0.3-0.1c-0.2-0.2-0.3-0.4-0.5-0.6s-0.3-0.4-0.5-0.7c-0.3-0.4-0.6-0.8-0.9-1.2
				c-0.3-0.4-0.6-0.8-0.9-1.2c-0.2-0.2-0.3-0.4-0.5-0.7s-0.3-0.4-0.5-0.6c0,0-0.1,0-0.1,0c-0.1,0-0.1,0-0.2,0s-0.2,0-0.2,0
				s-0.1,0-0.1,0.1c0,0.5,0,1.1,0,1.6s0,1.1,0,1.6c0,0.3,0,0.5,0,0.8s0,0.5,0,0.8c0,0.2-0.1,0.4-0.4,0.4h-1.5
				c-0.2,0-0.4-0.1-0.4-0.4c0-0.3,0-0.6,0-1s0-0.6,0-1c0-1.3,0-2.7,0-4c0-1.3,0-2.6,0-3.8c0-0.3,0-0.6,0-0.9s0-0.6,0-0.9
				c0-0.2,0.1-0.4,0.4-0.4H185.1z"/>
			<path id="XMLID_749_" class="st4" d="M197.6,18.8c-0.9,0-1.6-0.2-2.2-0.5s-1.1-0.8-1.5-1.5s-0.5-1.4-0.5-2.2
				c0-0.8,0.2-1.5,0.5-2.2s0.8-1.1,1.4-1.5s1.3-0.6,2.1-0.6c1,0,1.8,0.3,2.4,0.9s1,1.3,1.2,2.3c0,0,0,0,0,0.1c0,0.1,0,0.2-0.1,0.2
				s-0.1,0.1-0.2,0.1c-0.2,0.1-0.4,0.2-0.6,0.2c-0.2,0.1-0.4,0.1-0.7,0.2c-0.6,0.2-1.2,0.5-1.9,0.7s-1.2,0.5-1.8,0.7
				c0,0-0.1,0.1-0.1,0.1c0,0,0,0,0,0.1c0.2,0.4,0.6,0.7,1,0.9s0.8,0.3,1.3,0.3c0.4,0,0.7-0.1,1-0.2s0.6-0.3,0.9-0.4
				c0,0,0.1,0,0.1-0.1s0.1,0,0.1,0c0.1,0,0.1,0,0.2,0.1s0.1,0.1,0.1,0.2c0,0,0.1,0.1,0.1,0.3s0.1,0.3,0.2,0.4s0.1,0.2,0.1,0.3
				c0,0.1,0,0.1-0.1,0.2s-0.1,0.1-0.1,0.1c-0.4,0.3-0.9,0.5-1.5,0.7S198.1,18.8,197.6,18.8z M195.4,14.5c0.6-0.2,1.2-0.4,1.8-0.6
				s1.2-0.4,1.8-0.6c-0.1-0.3-0.3-0.6-0.6-0.8s-0.6-0.4-1-0.4c-0.4,0-0.8,0.1-1.1,0.4s-0.5,0.5-0.7,0.9S195.4,14.1,195.4,14.5z"/>
			<path id="XMLID_752_" class="st4" d="M206.3,18.8c-0.9,0-1.6-0.2-2.2-0.5s-1.1-0.8-1.5-1.5s-0.5-1.4-0.5-2.2
				c0-0.8,0.2-1.5,0.5-2.2s0.8-1.1,1.4-1.5s1.3-0.6,2.1-0.6c1,0,1.8,0.3,2.4,0.9s1,1.3,1.2,2.3c0,0,0,0,0,0.1c0,0.1,0,0.2-0.1,0.2
				s-0.1,0.1-0.2,0.1c-0.2,0.1-0.4,0.2-0.6,0.2c-0.2,0.1-0.4,0.1-0.7,0.2c-0.6,0.2-1.2,0.5-1.9,0.7s-1.2,0.5-1.8,0.7
				c0,0-0.1,0.1-0.1,0.1c0,0,0,0,0,0.1c0.2,0.4,0.6,0.7,1,0.9s0.8,0.3,1.3,0.3c0.4,0,0.7-0.1,1-0.2s0.6-0.3,0.9-0.4
				c0,0,0.1,0,0.1-0.1s0.1,0,0.1,0c0.1,0,0.1,0,0.2,0.1s0.1,0.1,0.1,0.2c0,0,0.1,0.1,0.1,0.3s0.1,0.3,0.2,0.4s0.1,0.2,0.1,0.3
				c0,0.1,0,0.1-0.1,0.2s-0.1,0.1-0.1,0.1c-0.4,0.3-0.9,0.5-1.5,0.7S206.8,18.8,206.3,18.8z M204.1,14.5c0.6-0.2,1.2-0.4,1.8-0.6
				s1.2-0.4,1.8-0.6c-0.1-0.3-0.4-0.6-0.6-0.8s-0.6-0.4-1-0.4c-0.4,0-0.8,0.1-1.1,0.4s-0.5,0.5-0.7,0.9S204.1,14.1,204.1,14.5z"/>
			<path id="XMLID_755_" class="st4" d="M215.7,18.8c-0.4,0-0.9-0.1-1.3-0.2s-0.8-0.4-1.1-0.7c0,0,0,0-0.1,0s0,0-0.1,0s0,0-0.1,0.1
				s0,0.1,0,0.1c0,0.4,0,0.8,0,1.2s0,0.8,0,1.2c0,0.1,0,0.3,0,0.4s0,0.3,0,0.4c0,0.1,0,0.2-0.1,0.3s-0.1,0.1-0.3,0.1h-1.4
				c-0.2,0-0.4-0.1-0.4-0.4c0-0.5,0-0.9,0-1.4s0-0.9,0-1.4c0-1,0-1.9,0.1-2.9c0-1,0-1.9,0-2.9c0-0.3,0-0.6,0-0.9s0-0.6,0-0.9
				c0-0.2,0.1-0.4,0.4-0.4h1.1c0.2,0,0.3,0.1,0.3,0.2s0.1,0.3,0.1,0.4s0,0.2,0.1,0.2c0,0,0.1,0,0.1,0c0.4-0.3,0.9-0.6,1.3-0.8
				s1-0.3,1.5-0.3c0.8,0,1.5,0.2,2.1,0.6s1,0.9,1.3,1.5s0.4,1.4,0.4,2.1c0,0.8-0.2,1.6-0.5,2.2s-0.8,1.1-1.4,1.4
				S216.5,18.8,215.7,18.8z M215.3,17c0.4,0,0.9-0.1,1.2-0.3s0.7-0.5,0.9-0.8c0.2-0.4,0.3-0.8,0.3-1.2c0-0.7-0.2-1.3-0.7-1.7
				s-1-0.7-1.7-0.7c-0.5,0-0.9,0.1-1.3,0.4s-0.7,0.6-0.8,1.1c0,0.3,0,0.6,0,0.9s0,0.6,0,0.9c0,0,0,0.1,0.1,0.2s0.1,0.2,0.1,0.2
				c0.2,0.4,0.5,0.7,0.8,0.9S214.9,17,215.3,17z"/>
		</g>
		<g id="XMLID_127_">
			<path id="XMLID_671_" class="st4" d="M157,19c0,0-0.2-0.1-0.5-0.4s-0.7-0.7-1.2-1.1s-1-1-1.6-1.6c-0.6-0.6-1.2-1.1-1.8-1.7
				s-1.1-1.1-1.6-1.6s-0.9-0.9-1.2-1.1s-0.5-0.4-0.5-0.4c0,0,0,0-0.1,0.1s0,0.1,0,0.1c0,0.5,0,1.1,0,1.6s0,1.1,0,1.6
				c0,0.4,0,0.9,0,1.3c0,0.4,0,0.9,0,1.3c0,0.2,0,0.4,0,0.6s0,0.4,0,0.6c0,0.1,0,0.2-0.1,0.3s-0.1,0.1-0.3,0.1h-1.6
				c-0.2,0-0.4-0.1-0.4-0.4c0-0.3,0-0.7,0-1s0-0.7,0-1c0-0.7,0-1.3,0-2c0-0.7,0-1.3,0-2c0-0.7,0-1.4,0-2.1s0-1.4,0-2.1
				c0-0.3,0-0.7,0-1s0-0.7,0-1c0,0,0-0.1,0.1-0.1s0.1,0,0.1,0c1.4,1.3,2.8,2.6,4.1,4s2.7,2.7,4.1,4c0,0,0,0,0.1,0s0,0,0.1,0
				c0,0,0.1,0,0.1-0.1s0-0.1,0-0.1c0-0.5,0-1.1,0-1.6s0-1.1,0-1.6c0-0.5,0-0.9,0-1.4s0-0.9,0-1.4c0-0.2,0-0.4,0-0.6s0-0.4,0-0.6
				c0-0.1,0-0.2,0.1-0.3s0.1-0.1,0.3-0.1h1.5c0.2,0,0.4,0.1,0.4,0.4c0,0.3,0,0.6,0,0.9s0,0.6,0,0.9c0,0.6,0,1.3,0,1.9s0,1.3,0,1.9
				C156.9,14.5,156.9,16.7,157,19L157,19z"/>
			<path id="XMLID_673_" class="st4" d="M158.6,14.7c0-0.8,0.2-1.5,0.5-2.2s0.8-1.1,1.5-1.5s1.4-0.6,2.2-0.6c0.8,0,1.5,0.2,2.1,0.5
				s1.1,0.9,1.4,1.5s0.5,1.3,0.5,2.1c0,0.8-0.2,1.5-0.5,2.2s-0.8,1.1-1.4,1.5s-1.3,0.5-2.2,0.5c-0.8,0-1.5-0.2-2.2-0.5
				s-1.1-0.8-1.4-1.4S158.6,15.5,158.6,14.7z M162.7,12.2c-0.4,0-0.8,0.1-1.1,0.4s-0.5,0.5-0.7,0.9s-0.2,0.8-0.2,1.2
				c0,0.4,0.1,0.7,0.2,1.1c0.2,0.4,0.4,0.6,0.7,0.9s0.7,0.3,1.1,0.3c0.4,0,0.8-0.1,1.1-0.3s0.5-0.5,0.7-0.9c0.1-0.4,0.2-0.7,0.2-1.1
				c0-0.4-0.1-0.8-0.2-1.1s-0.4-0.7-0.7-0.9S163.1,12.2,162.7,12.2z"/>
			<path id="XMLID_676_" class="st4" d="M169,10.5c0-0.5,0-1,0-1.5s0-1,0-1.5c0-0.2,0.1-0.4,0.4-0.4h1.4c0.2,0,0.4,0.1,0.4,0.4
				c0,0.5,0,1,0,1.5s0,1,0,1.5c0,0.1,0,0.1,0.1,0.1h1.4c0.2,0,0.4,0.1,0.4,0.4c0,0.2,0,0.4,0,0.5s0,0.4,0,0.6c0,0.2-0.1,0.4-0.4,0.4
				h-1.4c-0.1,0-0.1,0-0.1,0.1c0,0.9,0,1.9,0,2.8c0,0.9,0,1.9,0,2.8c0,0.2-0.1,0.4-0.4,0.4h-1.4c-0.2,0-0.4-0.1-0.4-0.4
				c0-0.9,0-1.9,0-2.8c0-0.9,0-1.9,0-2.8c0-0.1-0.1-0.1-0.2-0.1s-0.3,0-0.4,0s-0.3,0-0.4,0s-0.2-0.2-0.2-0.3V11
				c0-0.2,0.1-0.4,0.4-0.4h0.7C169,10.6,169,10.6,169,10.5z"/>
			<path id="XMLID_678_" class="st4" d="M178.2,18.8c-0.9,0-1.6-0.2-2.2-0.5s-1.1-0.8-1.5-1.5s-0.5-1.4-0.5-2.2
				c0-0.8,0.2-1.5,0.5-2.2s0.8-1.1,1.4-1.5s1.3-0.6,2.1-0.6c1,0,1.8,0.3,2.4,0.9s1,1.3,1.2,2.3c0,0,0,0,0,0.1c0,0.1,0,0.2-0.1,0.2
				s-0.1,0.1-0.2,0.1c-0.2,0.1-0.4,0.2-0.6,0.2c-0.2,0.1-0.4,0.1-0.7,0.2c-0.6,0.2-1.2,0.5-1.9,0.7s-1.2,0.5-1.8,0.7
				c0,0-0.1,0.1-0.1,0.1c0,0,0,0,0,0.1c0.2,0.4,0.6,0.7,1,0.9s0.8,0.3,1.3,0.3c0.4,0,0.7-0.1,1-0.2s0.6-0.3,0.9-0.4
				c0,0,0.1,0,0.1-0.1s0.1,0,0.1,0c0.1,0,0.1,0,0.2,0.1s0.1,0.1,0.1,0.2c0,0,0.1,0.1,0.1,0.3s0.1,0.3,0.2,0.4s0.1,0.2,0.1,0.3
				c0,0.1,0,0.1-0.1,0.2s-0.1,0.1-0.1,0.1c-0.4,0.3-0.9,0.5-1.5,0.7S178.7,18.8,178.2,18.8z M176,14.5c0.6-0.2,1.2-0.4,1.8-0.6
				s1.2-0.4,1.8-0.6c-0.1-0.3-0.3-0.6-0.6-0.8s-0.6-0.4-1-0.4c-0.4,0-0.8,0.1-1.1,0.4s-0.5,0.5-0.7,0.9S176,14.1,176,14.5z"/>
			<path id="XMLID_681_" class="st4" d="M185.1,6.3c0.2,0,0.3,0.1,0.4,0.4c0,0.3,0,0.5,0,0.8s0,0.5,0,0.8c0,0.6,0,1.1,0,1.7
				s0,1.1,0,1.7c0,0.1,0,0.1,0.1,0.1h0c2-0.5,3.3-1.8,4.1-3.7c0.1-0.2,0.2-0.4,0.2-0.7s0.1-0.5,0.2-0.7c0-0.1,0.1-0.2,0.1-0.2
				s0.1-0.1,0.2-0.1h1.5c0.1,0,0.2,0,0.3,0.1s0.1,0.1,0.1,0.2c0,0.1,0,0.1,0,0.1c-0.2,1-0.6,1.9-1.1,2.8s-1.1,1.6-2,2.3
				c-0.2,0.1-0.3,0.2-0.5,0.4s-0.3,0.2-0.5,0.3c0,0-0.1,0-0.1,0.1c0,0,0.1,0.2,0.3,0.4s0.4,0.6,0.7,0.9c0.3,0.4,0.6,0.8,0.9,1.2
				s0.6,0.8,0.9,1.3c0.3,0.4,0.6,0.8,0.8,1s0.4,0.5,0.4,0.6c0,0,0.1,0.1,0.1,0.2s0.1,0.1,0.1,0.2c0,0.1-0.1,0.2-0.2,0.2
				s-0.2,0-0.3,0h-1.7c-0.1,0-0.2,0-0.3-0.1c-0.2-0.2-0.3-0.4-0.5-0.6s-0.3-0.4-0.5-0.7c-0.3-0.4-0.6-0.8-0.9-1.2
				c-0.3-0.4-0.6-0.8-0.9-1.2c-0.2-0.2-0.3-0.4-0.5-0.7s-0.3-0.4-0.5-0.6c0,0-0.1,0-0.1,0c-0.1,0-0.1,0-0.2,0s-0.2,0-0.2,0
				s-0.1,0-0.1,0.1c0,0.5,0,1.1,0,1.6s0,1.1,0,1.6c0,0.3,0,0.5,0,0.8s0,0.5,0,0.8c0,0.2-0.1,0.4-0.4,0.4h-1.5
				c-0.2,0-0.4-0.1-0.4-0.4c0-0.3,0-0.6,0-1s0-0.6,0-1c0-1.3,0-2.7,0-4c0-1.3,0-2.6,0-3.8c0-0.3,0-0.6,0-0.9s0-0.6,0-0.9
				c0-0.2,0.1-0.4,0.4-0.4H185.1z"/>
			<path id="XMLID_683_" class="st4" d="M197.6,18.8c-0.9,0-1.6-0.2-2.2-0.5s-1.1-0.8-1.5-1.5s-0.5-1.4-0.5-2.2
				c0-0.8,0.2-1.5,0.5-2.2s0.8-1.1,1.4-1.5s1.3-0.6,2.1-0.6c1,0,1.8,0.3,2.4,0.9s1,1.3,1.2,2.3c0,0,0,0,0,0.1c0,0.1,0,0.2-0.1,0.2
				s-0.1,0.1-0.2,0.1c-0.2,0.1-0.4,0.2-0.6,0.2c-0.2,0.1-0.4,0.1-0.7,0.2c-0.6,0.2-1.2,0.5-1.9,0.7s-1.2,0.5-1.8,0.7
				c0,0-0.1,0.1-0.1,0.1c0,0,0,0,0,0.1c0.2,0.4,0.6,0.7,1,0.9s0.8,0.3,1.3,0.3c0.4,0,0.7-0.1,1-0.2s0.6-0.3,0.9-0.4
				c0,0,0.1,0,0.1-0.1s0.1,0,0.1,0c0.1,0,0.1,0,0.2,0.1s0.1,0.1,0.1,0.2c0,0,0.1,0.1,0.1,0.3s0.1,0.3,0.2,0.4s0.1,0.2,0.1,0.3
				c0,0.1,0,0.1-0.1,0.2s-0.1,0.1-0.1,0.1c-0.4,0.3-0.9,0.5-1.5,0.7S198.1,18.8,197.6,18.8z M195.4,14.5c0.6-0.2,1.2-0.4,1.8-0.6
				s1.2-0.4,1.8-0.6c-0.1-0.3-0.3-0.6-0.6-0.8s-0.6-0.4-1-0.4c-0.4,0-0.8,0.1-1.1,0.4s-0.5,0.5-0.7,0.9S195.4,14.1,195.4,14.5z"/>
			<path id="XMLID_686_" class="st4" d="M206.3,18.8c-0.9,0-1.6-0.2-2.2-0.5s-1.1-0.8-1.5-1.5s-0.5-1.4-0.5-2.2
				c0-0.8,0.2-1.5,0.5-2.2s0.8-1.1,1.4-1.5s1.3-0.6,2.1-0.6c1,0,1.8,0.3,2.4,0.9s1,1.3,1.2,2.3c0,0,0,0,0,0.1c0,0.1,0,0.2-0.1,0.2
				s-0.1,0.1-0.2,0.1c-0.2,0.1-0.4,0.2-0.6,0.2c-0.2,0.1-0.4,0.1-0.7,0.2c-0.6,0.2-1.2,0.5-1.9,0.7s-1.2,0.5-1.8,0.7
				c0,0-0.1,0.1-0.1,0.1c0,0,0,0,0,0.1c0.2,0.4,0.6,0.7,1,0.9s0.8,0.3,1.3,0.3c0.4,0,0.7-0.1,1-0.2s0.6-0.3,0.9-0.4
				c0,0,0.1,0,0.1-0.1s0.1,0,0.1,0c0.1,0,0.1,0,0.2,0.1s0.1,0.1,0.1,0.2c0,0,0.1,0.1,0.1,0.3s0.1,0.3,0.2,0.4s0.1,0.2,0.1,0.3
				c0,0.1,0,0.1-0.1,0.2s-0.1,0.1-0.1,0.1c-0.4,0.3-0.9,0.5-1.5,0.7S206.8,18.8,206.3,18.8z M204.1,14.5c0.6-0.2,1.2-0.4,1.8-0.6
				s1.2-0.4,1.8-0.6c-0.1-0.3-0.4-0.6-0.6-0.8s-0.6-0.4-1-0.4c-0.4,0-0.8,0.1-1.1,0.4s-0.5,0.5-0.7,0.9S204.1,14.1,204.1,14.5z"/>
			<path id="XMLID_689_" class="st4" d="M215.7,18.8c-0.4,0-0.9-0.1-1.3-0.2s-0.8-0.4-1.1-0.7c0,0,0,0-0.1,0s0,0-0.1,0s0,0-0.1,0.1
				s0,0.1,0,0.1c0,0.4,0,0.8,0,1.2s0,0.8,0,1.2c0,0.1,0,0.3,0,0.4s0,0.3,0,0.4c0,0.1,0,0.2-0.1,0.3s-0.1,0.1-0.3,0.1h-1.4
				c-0.2,0-0.4-0.1-0.4-0.4c0-0.5,0-0.9,0-1.4s0-0.9,0-1.4c0-1,0-1.9,0.1-2.9c0-1,0-1.9,0-2.9c0-0.3,0-0.6,0-0.9s0-0.6,0-0.9
				c0-0.2,0.1-0.4,0.4-0.4h1.1c0.2,0,0.3,0.1,0.3,0.2s0.1,0.3,0.1,0.4s0,0.2,0.1,0.2c0,0,0.1,0,0.1,0c0.4-0.3,0.9-0.6,1.3-0.8
				s1-0.3,1.5-0.3c0.8,0,1.5,0.2,2.1,0.6s1,0.9,1.3,1.5s0.4,1.4,0.4,2.1c0,0.8-0.2,1.6-0.5,2.2s-0.8,1.1-1.4,1.4
				S216.5,18.8,215.7,18.8z M215.3,17c0.4,0,0.9-0.1,1.2-0.3s0.7-0.5,0.9-0.8c0.2-0.4,0.3-0.8,0.3-1.2c0-0.7-0.2-1.3-0.7-1.7
				s-1-0.7-1.7-0.7c-0.5,0-0.9,0.1-1.3,0.4s-0.7,0.6-0.8,1.1c0,0.3,0,0.6,0,0.9s0,0.6,0,0.9c0,0,0,0.1,0.1,0.2s0.1,0.2,0.1,0.2
				c0.2,0.4,0.5,0.7,0.8,0.9S214.9,17,215.3,17z"/>
		</g>
	</g>
</g>
<g id="Layer_3" class="st2">
	<g id="XMLID_197_" class="st3">
		<path id="XMLID_201_" class="st0" d="M280,24.9h-13.1c-2.8,0-5-2.2-5-5V6.5c0-2.8,2.2-5,5-5H280c2.8,0,5,2.2,5,5v13.4
			C285,22.6,282.7,24.9,280,24.9z"/>
		<path id="XMLID_200_" class="st1" d="M277.1,20.6h-7.3c-2,0-3.7-1.6-3.7-3.7V9.4c0-2,1.6-3.7,3.7-3.7h7.3c2,0,3.7,1.6,3.7,3.7v7.5
			C280.7,18.9,279.1,20.6,277.1,20.6z"/>
		<path id="XMLID_199_" class="st0" d="M272.4,17.7h-3.5c-0.6,0-1.1-0.5-1.1-1.1v0c0-0.6,0.5-1.1,1.1-1.1h3.5c0.6,0,1.1,0.5,1.1,1.1
			v0C273.4,17.2,272.9,17.7,272.4,17.7z"/>
		<path id="XMLID_198_" class="st0" d="M276.3,14.7h-7.4c-0.6,0-1.1-0.5-1.1-1.1v0c0-0.6,0.5-1.1,1.1-1.1h7.4c0.6,0,1.1,0.5,1.1,1.1
			v0C277.3,14.3,276.9,14.7,276.3,14.7z"/>
	</g>
</g>
<g id="Layer_4" class="st2">
	<g id="XMLID_398_" class="st3">
		<path id="XMLID_399_" class="st4" d="M339,18.4c0,0-0.2-0.1-0.5-0.4s-0.7-0.7-1.2-1.1s-1-1-1.6-1.6s-1.2-1.1-1.8-1.7
			s-1.1-1.1-1.6-1.6s-0.9-0.9-1.2-1.1s-0.5-0.4-0.5-0.4c0,0,0,0-0.1,0.1s0,0.1,0,0.1c0,0.5,0,1.1,0,1.6s0,1.1,0,1.6
			c0,0.4,0,0.9,0,1.3s0,0.9,0,1.3c0,0.2,0,0.4,0,0.6s0,0.4,0,0.6c0,0.1,0,0.2-0.1,0.3s-0.1,0.1-0.3,0.1h-1.6c-0.2,0-0.4-0.1-0.4-0.4
			c0-0.3,0-0.7,0-1s0-0.7,0-1c0-0.7,0-1.3,0-2c0-0.7,0-1.3,0-2c0-0.7,0-1.4,0-2.1s0-1.4,0-2.1c0-0.3,0-0.7,0-1s0-0.7,0-1
			c0,0,0-0.1,0.1-0.1s0.1,0,0.1,0c1.4,1.3,2.8,2.6,4.1,4s2.7,2.7,4.1,4c0,0,0,0,0.1,0s0,0,0.1,0c0,0,0.1,0,0.1-0.1s0-0.1,0-0.1
			c0-0.5,0-1.1,0-1.6s0-1.1,0-1.6c0-0.5,0-0.9,0-1.4s0-0.9,0-1.4c0-0.2,0-0.4,0-0.6s0-0.4,0-0.6c0-0.1,0-0.2,0.1-0.3
			s0.1-0.1,0.3-0.1h1.5c0.2,0,0.4,0.1,0.4,0.4c0,0.3,0,0.6,0,0.9s0,0.6,0,0.9c0,0.6,0,1.3,0,1.9s0,1.3,0,1.9
			C338.9,14,339,16.2,339,18.4L339,18.4z"/>
		<path id="XMLID_401_" class="st4" d="M340.6,14.1c0-0.8,0.2-1.5,0.5-2.2s0.8-1.1,1.5-1.5s1.4-0.6,2.2-0.6c0.8,0,1.5,0.2,2.1,0.5
			s1.1,0.9,1.4,1.5s0.5,1.3,0.5,2.1c0,0.8-0.2,1.5-0.5,2.2c-0.3,0.6-0.8,1.1-1.4,1.5s-1.3,0.5-2.2,0.5c-0.8,0-1.5-0.2-2.2-0.5
			s-1.1-0.8-1.4-1.4C340.8,15.6,340.6,14.9,340.6,14.1z M344.7,11.6c-0.4,0-0.8,0.1-1.1,0.4s-0.5,0.5-0.7,0.9s-0.2,0.8-0.2,1.2
			c0,0.4,0.1,0.7,0.2,1.1s0.4,0.6,0.7,0.9c0.3,0.2,0.7,0.3,1.1,0.3c0.4,0,0.8-0.1,1.1-0.3c0.3-0.2,0.5-0.5,0.7-0.9s0.2-0.7,0.2-1.1
			c0-0.4-0.1-0.8-0.2-1.1s-0.4-0.7-0.7-0.9S345.2,11.6,344.7,11.6z"/>
		<path id="XMLID_404_" class="st4" d="M351.1,9.9c0-0.5,0-1,0-1.5s0-1,0-1.5c0-0.2,0.1-0.4,0.4-0.4h1.4c0.2,0,0.4,0.1,0.4,0.4
			c0,0.5,0,1,0,1.5s0,1,0,1.5c0,0.1,0,0.1,0.1,0.1h1.4c0.2,0,0.4,0.1,0.4,0.4c0,0.2,0,0.4,0,0.5s0,0.4,0,0.6c0,0.2-0.1,0.4-0.4,0.4
			h-1.4c-0.1,0-0.1,0-0.1,0.1c0,0.9,0,1.9,0,2.8s0,1.9,0,2.8c0,0.2-0.1,0.4-0.4,0.4h-1.4c-0.2,0-0.4-0.1-0.4-0.4c0-0.9,0-1.9,0-2.8
			s0-1.9,0-2.8c0-0.1-0.1-0.1-0.2-0.1s-0.3,0-0.4,0s-0.3,0-0.4,0s-0.2-0.2-0.2-0.3v-1.1c0-0.2,0.1-0.4,0.4-0.4h0.7
			C351.1,10,351.1,10,351.1,9.9z"/>
		<path id="XMLID_406_" class="st4" d="M360.2,18.2c-0.9,0-1.6-0.2-2.2-0.5s-1.1-0.8-1.5-1.5c-0.4-0.6-0.5-1.4-0.5-2.2
			c0-0.8,0.2-1.5,0.5-2.2s0.8-1.1,1.4-1.5s1.3-0.6,2.1-0.6c1,0,1.8,0.3,2.4,0.9s1,1.3,1.2,2.3c0,0,0,0,0,0.1c0,0.1,0,0.2-0.1,0.2
			s-0.1,0.1-0.2,0.1c-0.2,0.1-0.4,0.2-0.6,0.2c-0.2,0.1-0.4,0.1-0.7,0.2c-0.6,0.2-1.2,0.5-1.9,0.7s-1.2,0.5-1.8,0.7
			c0,0-0.1,0.1-0.1,0.1c0,0,0,0,0,0.1c0.2,0.4,0.6,0.7,1,0.9s0.8,0.3,1.3,0.3c0.4,0,0.7-0.1,1-0.2s0.6-0.3,0.9-0.4
			c0,0,0.1,0,0.1-0.1s0.1,0,0.1,0c0.1,0,0.1,0,0.2,0.1s0.1,0.1,0.1,0.2c0,0,0.1,0.1,0.1,0.3s0.1,0.3,0.2,0.4s0.1,0.2,0.1,0.3
			c0,0.1,0,0.1-0.1,0.2s-0.1,0.1-0.1,0.1c-0.4,0.3-0.9,0.5-1.5,0.7S360.7,18.2,360.2,18.2z M358,14c0.6-0.2,1.2-0.4,1.8-0.6
			s1.2-0.4,1.8-0.6c-0.1-0.3-0.3-0.6-0.6-0.8s-0.6-0.4-1-0.4c-0.4,0-0.8,0.1-1.1,0.4s-0.5,0.5-0.7,0.9S358,13.6,358,14z"/>
		<path id="XMLID_409_" class="st4" d="M367.2,5.7c0.2,0,0.3,0.1,0.4,0.4c0,0.3,0,0.5,0,0.8s0,0.5,0,0.8c0,0.6,0,1.1,0,1.7
			s0,1.1,0,1.7c0,0.1,0,0.1,0.1,0.1h0c2-0.5,3.3-1.8,4.1-3.7c0.1-0.2,0.2-0.4,0.2-0.7s0.1-0.5,0.2-0.7c0-0.1,0.1-0.2,0.1-0.2
			s0.1-0.1,0.2-0.1h1.5c0.1,0,0.2,0,0.3,0.1s0.1,0.1,0.1,0.2c0,0.1,0,0.1,0,0.1c-0.2,1-0.6,1.9-1.1,2.8s-1.1,1.6-2,2.3
			c-0.2,0.1-0.3,0.2-0.5,0.4s-0.3,0.2-0.5,0.3c0,0-0.1,0-0.1,0.1c0,0,0.1,0.2,0.3,0.4s0.4,0.6,0.7,0.9c0.3,0.4,0.6,0.8,0.9,1.2
			s0.6,0.8,0.9,1.3c0.3,0.4,0.6,0.8,0.8,1s0.4,0.5,0.4,0.6c0,0,0.1,0.1,0.1,0.2s0.1,0.1,0.1,0.2c0,0.1-0.1,0.2-0.2,0.2s-0.2,0-0.3,0
			h-1.7c-0.1,0-0.2,0-0.3-0.1c-0.2-0.2-0.3-0.4-0.5-0.6s-0.3-0.4-0.5-0.7c-0.3-0.4-0.6-0.8-0.9-1.2s-0.6-0.8-0.9-1.2
			c-0.2-0.2-0.3-0.4-0.5-0.7s-0.3-0.4-0.5-0.6c0,0-0.1,0-0.1,0c-0.1,0-0.1,0-0.2,0s-0.2,0-0.2,0s-0.1,0-0.1,0.1c0,0.5,0,1.1,0,1.6
			s0,1.1,0,1.6c0,0.3,0,0.5,0,0.8s0,0.5,0,0.8c0,0.2-0.1,0.4-0.4,0.4h-1.5c-0.2,0-0.4-0.1-0.4-0.4c0-0.3,0-0.6,0-1s0-0.6,0-1
			c0-1.3,0-2.7,0-4c0-1.3,0-2.6,0-3.8c0-0.3,0-0.6,0-0.9s0-0.6,0-0.9c0-0.2,0.1-0.4,0.4-0.4H367.2z"/>
		<path id="XMLID_411_" class="st4" d="M379.6,18.2c-0.9,0-1.6-0.2-2.2-0.5s-1.1-0.8-1.5-1.5c-0.4-0.6-0.5-1.4-0.5-2.2
			c0-0.8,0.2-1.5,0.5-2.2s0.8-1.1,1.4-1.5s1.3-0.6,2.1-0.6c1,0,1.8,0.3,2.4,0.9s1,1.3,1.2,2.3c0,0,0,0,0,0.1c0,0.1,0,0.2-0.1,0.2
			s-0.1,0.1-0.2,0.1c-0.2,0.1-0.4,0.2-0.6,0.2c-0.2,0.1-0.4,0.1-0.7,0.2c-0.6,0.2-1.2,0.5-1.9,0.7s-1.2,0.5-1.8,0.7
			c0,0-0.1,0.1-0.1,0.1c0,0,0,0,0,0.1c0.2,0.4,0.6,0.7,1,0.9s0.8,0.3,1.3,0.3c0.4,0,0.7-0.1,1-0.2s0.6-0.3,0.9-0.4
			c0,0,0.1,0,0.1-0.1s0.1,0,0.1,0c0.1,0,0.1,0,0.2,0.1s0.1,0.1,0.1,0.2c0,0,0.1,0.1,0.1,0.3s0.1,0.3,0.2,0.4s0.1,0.2,0.1,0.3
			c0,0.1,0,0.1-0.1,0.2s-0.1,0.1-0.1,0.1c-0.4,0.3-0.9,0.5-1.5,0.7S380.1,18.2,379.6,18.2z M377.4,14c0.6-0.2,1.2-0.4,1.8-0.6
			s1.2-0.4,1.8-0.6c-0.1-0.3-0.3-0.6-0.6-0.8s-0.6-0.4-1-0.4c-0.4,0-0.8,0.1-1.1,0.4s-0.5,0.5-0.7,0.9S377.4,13.6,377.4,14z"/>
		<path id="XMLID_414_" class="st4" d="M388.3,18.2c-0.9,0-1.6-0.2-2.2-0.5s-1.1-0.8-1.5-1.5c-0.4-0.6-0.5-1.4-0.5-2.2
			c0-0.8,0.2-1.5,0.5-2.2s0.8-1.1,1.4-1.5s1.3-0.6,2.1-0.6c1,0,1.8,0.3,2.4,0.9s1,1.3,1.2,2.3c0,0,0,0,0,0.1c0,0.1,0,0.2-0.1,0.2
			s-0.1,0.1-0.2,0.1c-0.2,0.1-0.4,0.2-0.6,0.2c-0.2,0.1-0.4,0.1-0.7,0.2c-0.6,0.2-1.2,0.5-1.9,0.7s-1.2,0.5-1.8,0.7
			c0,0-0.1,0.1-0.1,0.1c0,0,0,0,0,0.1c0.2,0.4,0.6,0.7,1,0.9s0.8,0.3,1.3,0.3c0.4,0,0.7-0.1,1-0.2s0.6-0.3,0.9-0.4
			c0,0,0.1,0,0.1-0.1s0.1,0,0.1,0c0.1,0,0.1,0,0.2,0.1s0.1,0.1,0.1,0.2c0,0,0.1,0.1,0.1,0.3s0.1,0.3,0.2,0.4s0.1,0.2,0.1,0.3
			c0,0.1,0,0.1-0.1,0.2s-0.1,0.1-0.1,0.1c-0.4,0.3-0.9,0.5-1.5,0.7S388.8,18.2,388.3,18.2z M386.1,14c0.6-0.2,1.2-0.4,1.8-0.6
			s1.2-0.4,1.8-0.6c-0.1-0.3-0.4-0.6-0.6-0.8s-0.6-0.4-1-0.4c-0.4,0-0.8,0.1-1.1,0.4s-0.5,0.5-0.7,0.9S386.1,13.6,386.1,14z"/>
		<path id="XMLID_417_" class="st4" d="M397.8,18.2c-0.4,0-0.9-0.1-1.3-0.2s-0.8-0.4-1.1-0.7c0,0,0,0-0.1,0s0,0-0.1,0s0,0-0.1,0.1
			s0,0.1,0,0.1c0,0.4,0,0.8,0,1.2s0,0.8,0,1.2c0,0.1,0,0.3,0,0.4s0,0.3,0,0.4c0,0.1,0,0.2-0.1,0.3s-0.1,0.1-0.3,0.1h-1.4
			c-0.2,0-0.4-0.1-0.4-0.4c0-0.5,0-0.9,0-1.4s0-0.9,0-1.4c0-1,0-1.9,0.1-2.9s0-1.9,0-2.9c0-0.3,0-0.6,0-0.9s0-0.6,0-0.9
			c0-0.2,0.1-0.4,0.4-0.4h1.1c0.2,0,0.3,0.1,0.3,0.2s0.1,0.3,0.1,0.4s0,0.2,0.1,0.2c0,0,0.1,0,0.1,0c0.4-0.3,0.9-0.6,1.3-0.8
			s1-0.3,1.5-0.3c0.8,0,1.5,0.2,2.1,0.6s1,0.9,1.3,1.5s0.4,1.4,0.4,2.1c0,0.8-0.2,1.6-0.5,2.2c-0.3,0.6-0.8,1.1-1.4,1.4
			S398.6,18.2,397.8,18.2z M397.4,16.4c0.4,0,0.9-0.1,1.2-0.3c0.4-0.2,0.7-0.5,0.9-0.8s0.3-0.8,0.3-1.2c0-0.7-0.2-1.3-0.7-1.7
			s-1-0.7-1.7-0.7c-0.5,0-0.9,0.1-1.3,0.4s-0.7,0.6-0.8,1.1c0,0.3,0,0.6,0,0.9s0,0.6,0,0.9c0,0,0,0.1,0.1,0.2s0.1,0.2,0.1,0.2
			c0.2,0.4,0.5,0.7,0.8,0.9C396.6,16.3,396.9,16.4,397.4,16.4z"/>
	</g>
</g>
<g id="Layer_5" class="st2">
	<g id="XMLID_537_" class="st3">
		<path id="XMLID_538_" d="M425.6,18.4c0,0-0.2-0.1-0.5-0.4s-0.7-0.7-1.2-1.1s-1-1-1.6-1.6s-1.2-1.1-1.7-1.7s-1.1-1.1-1.6-1.6
			s-0.9-0.9-1.2-1.1s-0.5-0.4-0.5-0.4c0,0,0,0-0.1,0.1s0,0.1,0,0.1c0,0.5,0,1.1,0,1.6s0,1.1,0,1.6c0,0.4,0,0.9,0,1.3s0,0.9,0,1.3
			c0,0.2,0,0.4,0,0.6s0,0.4,0,0.6c0,0.1,0,0.2-0.1,0.3S417,18,416.8,18h-1.6c-0.2,0-0.4-0.1-0.4-0.4c0-0.3,0-0.7,0-1s0-0.7,0-1
			c0-0.7,0-1.3,0-2s0-1.3,0-2c0-0.7,0-1.4,0-2.1s0-1.4,0-2.1c0-0.3,0-0.7,0-1s0-0.7,0-1c0,0,0-0.1,0.1-0.1s0.1,0,0.1,0
			c1.4,1.3,2.8,2.6,4.1,4s2.7,2.7,4.1,4c0,0,0,0,0.1,0s0,0,0.1,0c0,0,0.1,0,0.1-0.1s0-0.1,0-0.1c0-0.5,0-1.1,0-1.6s0-1.1,0-1.6
			c0-0.5,0-0.9,0-1.4s0-0.9,0-1.4c0-0.2,0-0.4,0-0.6s0-0.4,0-0.6c0-0.1,0-0.2,0.1-0.3s0.1-0.1,0.3-0.1h1.5c0.2,0,0.4,0.1,0.4,0.4
			c0,0.3,0,0.6,0,0.9s0,0.6,0,0.9c0,0.6,0,1.3,0,1.9s0,1.3,0,1.9C425.6,14,425.6,16.2,425.6,18.4L425.6,18.4z"/>
		<path id="XMLID_540_" d="M427.3,14.1c0-0.8,0.2-1.5,0.5-2.2s0.8-1.1,1.5-1.5s1.4-0.6,2.2-0.6c0.8,0,1.5,0.2,2.1,0.5
			s1.1,0.9,1.4,1.5s0.5,1.3,0.5,2.1c0,0.8-0.2,1.5-0.5,2.2c-0.3,0.6-0.8,1.1-1.4,1.5s-1.3,0.5-2.2,0.5c-0.8,0-1.5-0.2-2.2-0.5
			s-1.1-0.8-1.4-1.4C427.4,15.6,427.3,14.9,427.3,14.1z M431.4,11.6c-0.4,0-0.8,0.1-1.1,0.4s-0.5,0.5-0.7,0.9s-0.2,0.8-0.2,1.2
			c0,0.4,0.1,0.7,0.2,1.1s0.4,0.6,0.7,0.9c0.3,0.2,0.7,0.3,1.1,0.3c0.4,0,0.8-0.1,1.1-0.3c0.3-0.2,0.5-0.5,0.7-0.9s0.2-0.7,0.2-1.1
			c0-0.4-0.1-0.8-0.2-1.1s-0.4-0.7-0.7-0.9S431.8,11.6,431.4,11.6z"/>
		<path id="XMLID_543_" d="M437.7,9.9c0-0.5,0-1,0-1.5s0-1,0-1.5c0-0.2,0.1-0.4,0.4-0.4h1.4c0.2,0,0.4,0.1,0.4,0.4c0,0.5,0,1,0,1.5
			s0,1,0,1.5c0,0.1,0,0.1,0.1,0.1h1.4c0.2,0,0.4,0.1,0.4,0.4c0,0.2,0,0.4,0,0.5s0,0.4,0,0.6c0,0.2-0.1,0.4-0.4,0.4h-1.4
			c-0.1,0-0.1,0-0.1,0.1c0,0.9,0,1.9,0,2.8s0,1.9,0,2.8c0,0.2-0.1,0.4-0.4,0.4h-1.4c-0.2,0-0.4-0.1-0.4-0.4c0-0.9,0-1.9,0-2.8
			s0-1.9,0-2.8c0-0.1-0.1-0.1-0.2-0.1s-0.3,0-0.4,0s-0.3,0-0.4,0s-0.2-0.2-0.2-0.3v-1.1c0-0.2,0.1-0.4,0.4-0.4h0.7
			C437.7,10,437.7,10,437.7,9.9z"/>
		<path id="XMLID_545_" d="M446.9,18.2c-0.9,0-1.6-0.2-2.2-0.5s-1.1-0.8-1.5-1.5c-0.4-0.6-0.5-1.4-0.5-2.2c0-0.8,0.2-1.5,0.5-2.2
			s0.8-1.1,1.4-1.5s1.3-0.6,2.1-0.6c1,0,1.8,0.3,2.4,0.9s1,1.3,1.2,2.3c0,0,0,0,0,0.1c0,0.1,0,0.2-0.1,0.2s-0.1,0.1-0.2,0.1
			c-0.2,0.1-0.4,0.2-0.6,0.2s-0.4,0.1-0.7,0.2c-0.6,0.2-1.2,0.5-1.9,0.7s-1.2,0.5-1.8,0.7c0,0-0.1,0.1-0.1,0.1c0,0,0,0,0,0.1
			c0.2,0.4,0.6,0.7,1,0.9s0.8,0.3,1.3,0.3c0.4,0,0.7-0.1,1-0.2s0.6-0.3,0.9-0.4c0,0,0.1,0,0.1-0.1s0.1,0,0.1,0c0.1,0,0.1,0,0.2,0.1
			s0.1,0.1,0.1,0.2c0,0,0.1,0.1,0.1,0.3s0.1,0.3,0.2,0.4s0.1,0.2,0.1,0.3c0,0.1,0,0.1-0.1,0.2s-0.1,0.1-0.1,0.1
			c-0.4,0.3-0.9,0.5-1.5,0.7S447.4,18.2,446.9,18.2z M444.6,14c0.6-0.2,1.2-0.4,1.8-0.6s1.2-0.4,1.8-0.6c-0.1-0.3-0.3-0.6-0.6-0.8
			s-0.6-0.4-1-0.4c-0.4,0-0.8,0.1-1.1,0.4s-0.5,0.5-0.7,0.9S444.6,13.6,444.6,14z"/>
		<path id="XMLID_548_" d="M453.8,5.7c0.2,0,0.3,0.1,0.4,0.4c0,0.3,0,0.5,0,0.8s0,0.5,0,0.8c0,0.6,0,1.1,0,1.7s0,1.1,0,1.7
			c0,0.1,0,0.1,0.1,0.1h0c2-0.5,3.3-1.8,4.1-3.7c0.1-0.2,0.2-0.4,0.2-0.7s0.1-0.5,0.2-0.7c0-0.1,0.1-0.2,0.1-0.2s0.1-0.1,0.2-0.1
			h1.5c0.1,0,0.2,0,0.3,0.1s0.1,0.1,0.1,0.2c0,0.1,0,0.1,0,0.1c-0.2,1-0.6,1.9-1.1,2.8s-1.1,1.6-2,2.3c-0.2,0.1-0.3,0.2-0.5,0.4
			s-0.3,0.2-0.5,0.3c0,0-0.1,0-0.1,0.1c0,0,0.1,0.2,0.3,0.4s0.4,0.6,0.7,0.9s0.6,0.8,0.9,1.2s0.6,0.8,0.9,1.3c0.3,0.4,0.6,0.8,0.8,1
			s0.4,0.5,0.4,0.6c0,0,0.1,0.1,0.1,0.2s0.1,0.1,0.1,0.2c0,0.1-0.1,0.2-0.2,0.2s-0.2,0-0.3,0h-1.7c-0.1,0-0.2,0-0.3-0.1
			c-0.2-0.2-0.3-0.4-0.5-0.6s-0.3-0.4-0.5-0.7c-0.3-0.4-0.6-0.8-0.9-1.2s-0.6-0.8-0.9-1.2c-0.2-0.2-0.3-0.4-0.5-0.7
			s-0.3-0.4-0.5-0.6c0,0-0.1,0-0.1,0c-0.1,0-0.1,0-0.2,0s-0.2,0-0.2,0s-0.1,0-0.1,0.1c0,0.5,0,1.1,0,1.6s0,1.1,0,1.6
			c0,0.3,0,0.5,0,0.8s0,0.5,0,0.8c0,0.2-0.1,0.4-0.4,0.4h-1.5c-0.2,0-0.4-0.1-0.4-0.4c0-0.3,0-0.6,0-1s0-0.6,0-1c0-1.3,0-2.7,0-4
			c0-1.3,0-2.6,0-3.8c0-0.3,0-0.6,0-0.9s0-0.6,0-0.9c0-0.2,0.1-0.4,0.4-0.4H453.8z"/>
		<path id="XMLID_550_" d="M466.3,18.2c-0.9,0-1.6-0.2-2.2-0.5s-1.1-0.8-1.5-1.5c-0.4-0.6-0.5-1.4-0.5-2.2c0-0.8,0.2-1.5,0.5-2.2
			s0.8-1.1,1.4-1.5s1.3-0.6,2.1-0.6c1,0,1.8,0.3,2.4,0.9s1,1.3,1.2,2.3c0,0,0,0,0,0.1c0,0.1,0,0.2-0.1,0.2s-0.1,0.1-0.2,0.1
			c-0.2,0.1-0.4,0.2-0.6,0.2s-0.4,0.1-0.7,0.2c-0.6,0.2-1.2,0.5-1.9,0.7s-1.2,0.5-1.8,0.7c0,0-0.1,0.1-0.1,0.1c0,0,0,0,0,0.1
			c0.2,0.4,0.6,0.7,1,0.9s0.8,0.3,1.3,0.3c0.4,0,0.7-0.1,1-0.2s0.6-0.3,0.9-0.4c0,0,0.1,0,0.1-0.1s0.1,0,0.1,0c0.1,0,0.1,0,0.2,0.1
			s0.1,0.1,0.1,0.2c0,0,0.1,0.1,0.1,0.3s0.1,0.3,0.2,0.4s0.1,0.2,0.1,0.3c0,0.1,0,0.1-0.1,0.2s-0.1,0.1-0.1,0.1
			c-0.4,0.3-0.9,0.5-1.5,0.7S466.8,18.2,466.3,18.2z M464.1,14c0.6-0.2,1.2-0.4,1.8-0.6s1.2-0.4,1.8-0.6c-0.1-0.3-0.3-0.6-0.6-0.8
			s-0.6-0.4-1-0.4c-0.4,0-0.8,0.1-1.1,0.4s-0.5,0.5-0.7,0.9S464.1,13.6,464.1,14z"/>
		<path id="XMLID_553_" d="M474.9,18.2c-0.9,0-1.6-0.2-2.2-0.5s-1.1-0.8-1.5-1.5c-0.4-0.6-0.5-1.4-0.5-2.2c0-0.8,0.2-1.5,0.5-2.2
			s0.8-1.1,1.4-1.5s1.3-0.6,2.1-0.6c1,0,1.8,0.3,2.4,0.9s1,1.3,1.2,2.3c0,0,0,0,0,0.1c0,0.1,0,0.2-0.1,0.2s-0.1,0.1-0.2,0.1
			c-0.2,0.1-0.4,0.2-0.6,0.2s-0.4,0.1-0.7,0.2c-0.6,0.2-1.2,0.5-1.9,0.7s-1.2,0.5-1.8,0.7c0,0-0.1,0.1-0.1,0.1c0,0,0,0,0,0.1
			c0.2,0.4,0.6,0.7,1,0.9s0.8,0.3,1.3,0.3c0.4,0,0.7-0.1,1-0.2s0.6-0.3,0.9-0.4c0,0,0.1,0,0.1-0.1s0.1,0,0.1,0c0.1,0,0.1,0,0.2,0.1
			s0.1,0.1,0.1,0.2c0,0,0.1,0.1,0.1,0.3s0.1,0.3,0.2,0.4s0.1,0.2,0.1,0.3c0,0.1,0,0.1-0.1,0.2s-0.1,0.1-0.1,0.1
			c-0.4,0.3-0.9,0.5-1.5,0.7S475.4,18.2,474.9,18.2z M472.7,14c0.6-0.2,1.2-0.4,1.8-0.6s1.2-0.4,1.8-0.6c-0.1-0.3-0.3-0.6-0.6-0.8
			s-0.6-0.4-1-0.4c-0.4,0-0.8,0.1-1.1,0.4s-0.5,0.5-0.7,0.9S472.7,13.6,472.7,14z"/>
		<path id="XMLID_556_" d="M484.4,18.2c-0.4,0-0.9-0.1-1.3-0.2s-0.8-0.4-1.1-0.7c0,0,0,0-0.1,0s0,0-0.1,0s0,0-0.1,0.1s0,0.1,0,0.1
			c0,0.4,0,0.8,0,1.2s0,0.8,0,1.2c0,0.1,0,0.3,0,0.4s0,0.3,0,0.4c0,0.1,0,0.2-0.1,0.3s-0.1,0.1-0.3,0.1H480c-0.2,0-0.4-0.1-0.4-0.4
			c0-0.5,0-0.9,0-1.4s0-0.9,0-1.4c0-1,0-1.9,0.1-2.9s0-1.9,0-2.9c0-0.3,0-0.6,0-0.9s0-0.6,0-0.9c0-0.2,0.1-0.4,0.4-0.4h1.1
			c0.2,0,0.3,0.1,0.3,0.2s0.1,0.3,0.1,0.4s0,0.2,0.1,0.2c0,0,0.1,0,0.1,0c0.4-0.3,0.9-0.6,1.3-0.8s1-0.3,1.5-0.3
			c0.8,0,1.5,0.2,2.1,0.6s1,0.9,1.3,1.5s0.4,1.4,0.4,2.1c0,0.8-0.2,1.6-0.5,2.2c-0.3,0.6-0.8,1.1-1.4,1.4S485.2,18.2,484.4,18.2z
			 M484,16.4c0.4,0,0.9-0.1,1.2-0.3c0.4-0.2,0.7-0.5,0.9-0.8s0.3-0.8,0.3-1.2c0-0.7-0.2-1.3-0.7-1.7s-1-0.7-1.7-0.7
			c-0.5,0-0.9,0.1-1.3,0.4s-0.7,0.6-0.8,1.1c0,0.3,0,0.6,0,0.9s0,0.6,0,0.9c0,0,0,0.1,0.1,0.2s0.1,0.2,0.1,0.2
			c0.2,0.4,0.5,0.7,0.8,0.9C483.2,16.3,483.6,16.4,484,16.4z"/>
	</g>
</g>
</svg>
